<svg xmlns="http://www.w3.org/2000/svg" xmlns:xlink="http://www.w3.org/1999/xlink" viewBox="0 0 566.08 177.67"><defs><style>.cls-1{fill:url(#linear-gradient);}</style><linearGradient id="linear-gradient" y1="88.84" x2="566.08" y2="88.84" gradientUnits="userSpaceOnUse"><stop offset="0.07" stop-color="#f15034"/><stop offset="0.92" stop-color="#f03759"/></linearGradient></defs><g id="Layer_2" data-name="Layer 2"><g id="Layer_1-2" data-name="Layer 1"><path class="cls-1" d="M87.52,40.36q-6.67-6.68-18.61-6.68T50.41,39.1q-6.55,5.41-6.55,12.95,0,13.31,16.41,16.36l22.89,4.28q23.31,4.22,36.13,18.24T132.11,125q0,20.06-17,36.3t-47,16.25q-30.54,0-48.26-16.69T0,123l34.85-8.44q1.17,12.9,10,21.1t25.37,8.2q11,0,17.56-4.91T94.2,126.8q0-14.26-18.54-17.66L52.42,104.8q-21.58-4.11-34-17.49T6,54.8Q6,31.22,24.11,15.61T67.39,0Q108,0,123.64,29.8A51.44,51.44,0,0,1,129,45.4L95.36,55Q94.19,47,87.52,40.36Z"/><path class="cls-1" d="M198.62,176.73q-21.17,0-33.4-13.38T153.11,130V54.57h36.62V122.4q0,9.15,4.91,14.9t14.16,5.75q9.24,0,14.62-5.63t5.38-14.79V54.57h36.62v98.11A161.44,161.44,0,0,0,266.71,174h-35.2a63.86,63.86,0,0,1-1.06-12q-4.22,7.17-13.11,10.92A47.7,47.7,0,0,1,198.62,176.73Z"/><path class="cls-1" d="M415.86,0V152.68q0,10.78.94,21.35H380.7a72.9,72.9,0,0,1-1-11.86q-4.35,6.39-12.94,10.47a43.94,43.94,0,0,1-19.17,4.09q-25.42,0-42.19-18.15t-16.77-44.45q0-26.31,16.15-44.4,16.36-18,41.29-18t32.57,12.51V0ZM325.27,114.13q.11,13.89,7.88,21.41a27.91,27.91,0,0,0,38.22-.12q7.88-7.62,7.88-21.29T371.37,93a26.74,26.74,0,0,0-19.17-7.52A26.33,26.33,0,0,0,333.15,93Q325.38,100.46,325.27,114.13Z"/><path class="cls-1" d="M457.35,68.89q18.36-18,45.3-18t45.18,17.84q18.24,17.72,18.25,45.41t-18.21,45.54q-18.21,17.84-45.22,17.95T457.31,159.6Q439,141.53,439,114.18T457.35,68.89Zm45.3,75.1a26,26,0,0,0,19-7.74q7.85-7.75,7.84-22.07t-7.84-22.06a27.55,27.55,0,0,0-38.06.24q-8,7.74-8,21.82t8,22.07A26.42,26.42,0,0,0,502.65,144Z"/></g></g></svg>