<svg id="Capa_1" enable-background="new 0 0 512 512" height="512" viewBox="0 0 512 512" width="512" xmlns="http://www.w3.org/2000/svg"><g><g><path d="m312.113 342.216v-62.167h-112.226v62.167c0 10.668-7.028 20.061-17.263 23.071l-84.486 24.849c-20.469 6.02-34.525 24.806-34.525 46.142l24.048 68.222h360.726v-68.222c0-21.336-14.056-40.122-34.525-46.142l-84.486-24.849c-10.235-3.01-17.263-12.403-17.263-23.071z" fill="#ffa65a"/><path d="m104.922 413.21 84.491-24.855c20.326-5.979 34.523-24.952 34.523-46.139v-8.016h-8.016-16.032v8.015c0 10.668-7.028 20.061-17.263 23.071l-84.485 24.849c-20.47 6.02-34.526 24.806-34.526 46.143v68.222h24.048v-68.223c-.001-10.593 7.097-20.079 17.26-23.067z" fill="#ff8857"/><path d="m407.682 296.27-13.138-160.938c-5.896-72.222-66.231-127.832-138.694-127.832s-132.797 55.61-138.693 127.832l-13.138 160.938c-4.573 56.026 39.662 104.02 95.875 104.02h111.913c56.212 0 100.448-47.994 95.875-104.02z" fill="#ffbf63"/><path d="m215.919 342.216 8.016-222.491s0 0 .167-108.427c-57.617 13.487-101.938 62.699-106.946 124.034l-13.137 160.938c-3.291 40.314 18.755 76.361 52.284 93.469l30.848-9.074c16.94-4.983 28.768-20.792 28.768-38.449z" fill="#ffa65a"/><path d="m151.79 320.129c0 26.563 21.534 48.097 48.097 48.097h112.226c26.563 0 48.097-21.534 48.097-48.097" fill="#ff8857"/><path d="m199.887 280.048v62.167c0 10.521-6.85 19.772-16.854 22.914 5.252 1.969 10.915 3.097 16.854 3.097h112.226c5.939 0 11.602-1.128 16.854-3.097-10.004-3.142-16.854-12.393-16.854-22.914v-62.167z" fill="#c7805d"/><path d="m183.033 365.129c5.252 1.969 10.915 3.097 16.854 3.097h16.134c5.058-7.765 7.914-13.396 7.914-22.653 0-6.812 6.078-11.888 12.811-10.858 6.297.963 12.695 1.447 19.104 1.447 19.4 0 38.746-4.58 56.262-13.171v-42.942h-112.225v62.167c0 10.52-6.85 19.771-16.854 22.913z" fill="#ab6e4d"/><path d="m256 312.113c-57.554 0-104.21-46.656-104.21-104.21v-56.113c0-57.553 46.656-104.21 104.21-104.21 57.553 0 104.21 46.656 104.21 104.21v56.113c0 57.554-46.657 104.21-104.21 104.21z" fill="#e0916d"/><path d="m183.855 207.903v-131.202c-19.731 18.961-32.065 45.562-32.065 75.089v56.113c0 57.553 46.656 104.21 104.21 104.21 5.467 0 10.793-.547 16.032-1.359-49.921-7.729-88.177-50.764-88.177-102.851z" fill="#c7805d"/><path d="m205.793 250.19 23.413 5.492c12.931 3.033 25.872-4.99 28.905-17.921l-23.413-5.492c-12.931-3.033-25.872 4.991-28.905 17.921z" fill="#ab6e4d"/><path d="m310.428 250.19-23.413 5.492c-12.931 3.033-25.872-4.99-28.905-17.921l23.413-5.492c12.931-3.033 25.872 4.991 28.905 17.921z" fill="#ab6e4d"/><path d="m355.131 119.726c-13.531-41.854-52.773-72.145-99.131-72.145s-85.6 30.291-99.131 72.145h20.551c9.028 0 17.459-4.512 22.468-12.024 5.008-7.512 13.439-12.024 22.468-12.024h67.291c9.028 0 17.459 4.512 22.468 12.024 5.008 7.512 13.439 12.024 22.468 12.024z" fill="#6b4f5a"/><path d="m183.855 76.729c-12.23 11.773-21.639 26.458-26.986 42.997h20.551c2.196 0 4.351-.288 6.435-.8z" fill="#4e3d4d"/></g><g><path d="m200.403 191.871v8.016c0 4.142 3.358 7.5 7.5 7.5s7.5-3.358 7.5-7.5v-8.016c0-4.142-3.358-7.5-7.5-7.5s-7.5 3.358-7.5 7.5z"/><path d="m296.597 191.871v8.016c0 4.142 3.358 7.5 7.5 7.5s7.5-3.358 7.5-7.5v-8.016c0-4.142-3.358-7.5-7.5-7.5s-7.5 3.358-7.5 7.5z"/><path d="m215.919 174.626c4.142 0 7.5-3.358 7.5-7.5s-3.358-7.5-7.5-7.5h-16.032c-4.142 0-7.5 3.358-7.5 7.5s3.358 7.5 7.5 7.5z"/><path d="m296.081 174.626h16.032c4.142 0 7.5-3.358 7.5-7.5s-3.358-7.5-7.5-7.5h-16.032c-4.142 0-7.5 3.358-7.5 7.5s3.357 7.5 7.5 7.5z"/><path d="m367.709 320.129v-168.339c0-61.597-50.113-111.709-111.709-111.709s-111.709 50.113-111.709 111.709v168.339c0 30.656 24.94 55.597 55.597 55.597h112.226c30.655 0 55.595-24.941 55.595-55.597zm-160.322 24.048v-35.709c14.705 7.137 31.199 11.145 48.613 11.145s33.908-4.007 48.613-11.145v35.709c0 5.933 1.708 11.648 4.731 16.548h-106.688c3.023-4.899 4.731-10.615 4.731-16.548zm145.322-24.048c0 17.156-10.703 31.85-25.777 37.784-4.508-3.041-7.319-8.211-7.319-13.735v-44.5c13.491-9.38 24.826-21.65 33.097-35.912v56.363zm-96.709-265.048c39.238 0 73.091 23.49 88.24 57.145h-9.66c-6.535 0-12.602-3.247-16.227-8.684-6.413-9.62-17.145-15.364-28.708-15.364h-33.645c-4.142 0-7.5 3.358-7.5 7.5s3.358 7.5 7.5 7.5h33.646c6.536 0 12.602 3.247 16.227 8.685 6.414 9.62 17.146 15.364 28.708 15.364h14.965c2.062 7.847 3.165 16.079 3.165 24.564v56.113c0 53.326-43.384 96.709-96.709 96.709s-96.709-43.384-96.709-96.709v-56.114c0-8.485 1.103-16.717 3.165-24.564h14.965c11.562 0 22.293-5.743 28.708-15.364 3.625-5.438 9.691-8.684 16.227-8.684 4.142 0 7.5-3.358 7.5-7.5s-3.358-7.5-7.5-7.5c-11.562 0-22.294 5.744-28.708 15.364-3.625 5.438-9.692 8.685-16.227 8.685h-9.66c15.146-33.656 48.999-57.146 88.237-57.146zm-96.709 265.048v-56.364c8.27 14.262 19.606 26.532 33.097 35.912v44.5c0 5.524-2.811 10.694-7.319 13.735-15.076-5.933-25.778-20.627-25.778-37.783z"/><path d="m212.582 228.869c-7.162 4.44-12.166 11.404-14.09 19.608-.946 4.033 1.556 8.068 5.589 9.014l23.413 5.492c2.414.566 4.828.837 7.206.837 9.017 0 17.509-3.902 23.411-10.42 5.903 6.518 14.394 10.42 23.411 10.42 2.378 0 4.794-.271 7.207-.837l23.413-5.492c1.937-.454 3.613-1.659 4.662-3.35 1.048-1.69 1.381-3.728.927-5.665-3.973-16.935-20.982-27.482-37.919-23.51l-21.7 5.09-21.7-5.09c-8.206-1.923-16.668-.538-23.83 3.903zm70.654 10.702c6.254-1.467 12.533.842 16.425 5.441l-14.359 3.368c-6.257 1.468-12.533-.843-16.426-5.441zm-50.251 0 14.359 3.368c-3.893 4.598-10.166 6.909-16.426 5.441l-14.371-3.371c1.11-1.314 2.434-2.459 3.938-3.392 3.758-2.328 8.198-3.055 12.5-2.046z"/><path d="m415.978 384.902-29.522-8.683c.589-.608 1.172-1.223 1.747-1.846 19.574-21.237 29.453-49.927 27.103-78.713l-13.138-160.937c-3.005-36.813-19.617-70.873-46.776-95.905-27.158-25.032-62.456-38.818-99.392-38.818s-72.234 13.786-99.393 38.818-43.771 59.092-46.776 95.905l-13.137 160.937c-2.35 28.786 7.528 57.476 27.103 78.713.575.624 1.158 1.238 1.747 1.846l-29.522 8.683c-23.498 6.911-39.909 28.844-39.909 53.338v66.26c0 4.142 3.358 7.5 7.5 7.5s7.5-3.358 7.5-7.5v-66.26c0-17.885 11.983-33.901 29.142-38.947l.211-.062c16.225 25.679 38.743 47.141 65.167 62.082 27.427 15.509 58.676 23.707 90.368 23.707 31.758 0 63.063-8.229 90.533-23.799 26.356-14.938 48.807-36.365 64.998-61.991l.215.063c17.158 5.046 29.142 21.062 29.142 38.947v66.26c0 4.142 3.358 7.5 7.5 7.5s7.5-3.358 7.5-7.5v-66.26c-.002-24.493-16.413-46.427-39.911-53.338zm-159.978 85.118c-56.891 0-109.059-28.025-140.518-75.205l23.523-6.919c17.602 12.796 39 19.895 61.038 19.895h63.973c4.142 0 7.5-3.358 7.5-7.5s-3.358-7.5-7.5-7.5h-63.973c-25.067 0-48.229-10.151-65.217-28.583s-25.222-42.343-23.182-67.327l13.138-160.938c2.698-33.048 17.61-63.624 41.992-86.095 24.38-22.472 56.068-34.848 89.226-34.848s64.846 12.376 89.227 34.848 39.294 53.048 41.992 86.095l13.138 160.938c2.04 24.984-6.193 48.895-23.182 67.327s-40.15 28.583-65.217 28.583h-15.876c-4.142 0-7.5 3.358-7.5 7.5s3.358 7.5 7.5 7.5h15.876c22.038 0 43.436-7.099 61.038-19.895l23.528 6.92c-31.459 47.188-83.607 75.204-140.524 75.204z"/></g></g></svg>