<svg id="Capa_1" enable-background="new 0 0 512 512" height="512" viewBox="0 0 512 512" width="512" xmlns="http://www.w3.org/2000/svg"><g><g><path d="m407.95 364.469-127.935-44.777h-48.029l-127.936 44.777c-19.264 6.742-32.163 24.923-32.163 45.333l64.039 94.698h240.147l64.039-94.698c.001-20.41-12.898-38.591-32.162-45.333z" fill="#845252"/><path d="m280.015 319.691h-48.029l-1.272.445-126.664 44.332c-9.842 3.445-17.986 9.9-23.634 18.088l-.043-.039c-.121.176-.281.326-.401.504 0 0-.707 1.304-1.539 2.835-.661 1.144-1.32 2.279-1.885 3.476-.461.852-.791 1.462-.79 1.462-1.499 3.455-2.521 7.145-3.153 10.947-.065.387-.12.774-.177 1.164-.321 2.269-.541 4.565-.541 6.897v94.698h64.039v-57.846c0-9.19-3.949-17.937-10.842-24.016l-26.374-23.667c2.769-5.237 7.424-9.428 13.295-11.504l71.746-25.623c12.804 27.105 40.278 45.901 72.248 45.901 40.365 0 73.658-29.906 79.161-68.753z" fill="#70393c"/><path d="m207.971 271.662-.008 56.034c0 26.526 21.503 48.029 48.029 48.029s48.029-21.503 48.029-48.029l.008-56.034z" fill="#f5ab73"/><path d="m304.024 310.177.006-38.515h-96.059l-.008 56.034c0 17.771 9.676 33.249 24.023 41.556v-5.822-36.773c0-4.403 3.475-7.984 7.746-7.984.317 0 .637.02.961.06 5.091.635 10.242.958 15.308.958 16.567 0 32.683-3.282 48.023-9.514z" fill="#df976c"/><path d="m191.754 183.711c.107-1.359.207-2.719.207-4.105 0-28.736-23.296-52.032-52.032-52.032s-52.032 23.296-52.032 52.032c0 18.497 9.68 34.698 24.222 43.924-.107 1.359-.207 2.719-.207 4.105 0 28.736 23.296 52.032 52.032 52.032s52.032-23.296 52.032-52.032c-.001-18.497-9.681-34.698-24.222-43.924z" fill="#9b929b"/><path d="m320.246 183.711c-.107-1.359-.207-2.719-.207-4.105 0-28.736 23.296-52.032 52.032-52.032s52.032 23.296 52.032 52.032c0 18.497-9.68 34.698-24.222 43.924.107 1.359.207 2.719.207 4.105 0 28.736-23.296 52.032-52.032 52.032s-52.032-23.296-52.032-52.032c.001-18.497 9.681-34.698 24.222-43.924z" fill="#ada4ac"/><path d="m255.992 7.5c-66.315 0-120.074 53.759-120.074 120.074v40.025h240.147v-40.025c.001-66.315-53.758-120.074-120.073-120.074z" fill="#b5afb5"/><path d="m256 79.544 60.871-55.338c-17.866-10.546-38.629-16.706-60.879-16.706-66.315 0-120.074 53.759-120.074 120.074v40.025h120.082z" fill="#ada4ac"/><path d="m370.93 159.593h-14.524c-7.967 0-15.648-2.97-21.543-8.331l-78.863-71.718-78.894 71.722c-5.894 5.358-13.573 8.327-21.539 8.327h-14.497c-10.468 0-20.007 7.532-21.05 17.948-1.2 11.979 8.175 22.077 19.909 22.077h12.412c4.1 53.72 48.889 96.059 103.659 96.059s99.559-42.339 103.659-96.059h12.412c11.734 0 21.108-10.098 19.909-22.077-1.043-10.416-10.582-17.948-21.05-17.948z" fill="#f8ba7e"/><path d="m431.855 383.008c5.222 7.752 8.258 16.996 8.258 26.794v94.698h-64.039v-57.847c0-9.19 3.949-17.937 10.842-24.016z" fill="#70393c"/><path d="m199.82 163.075 73.463-66.788.564-.513-17.847-16.23-78.894 71.722c-5.894 5.358-13.574 8.327-21.539 8.327h-14.497c-10.467 0-20.006 7.531-21.05 17.948-1.2 11.979 8.175 22.077 19.909 22.077h12.412c4.1 53.72 48.889 96.059 103.659 96.059 12.576 0 24.581-2.323 35.733-6.413l-18.452-2.847c-47.12-7.272-81.32-47.143-81.32-94.804v-10.769c0-6.752 2.865-13.228 7.859-17.769z" fill="#f5ab73"/></g><g><path d="m207.971 160.794c-4.142 0-7.5 3.358-7.5 7.5v8.005c0 4.142 3.358 7.5 7.5 7.5s7.5-3.358 7.5-7.5v-8.005c0-4.142-3.358-7.5-7.5-7.5z"/><path d="m304.029 183.799c4.142 0 7.5-3.358 7.5-7.5v-8.005c0-4.142-3.358-7.5-7.5-7.5s-7.5 3.358-7.5 7.5v8.005c0 4.142 3.358 7.5 7.5 7.5z"/><path d="m285.282 229.667c2.949-2.909 2.98-7.658.071-10.606-2.91-2.949-7.659-2.98-10.606-.071-2.732 2.696-9.281 5.844-18.747 5.844s-16.015-3.148-18.747-5.844c-2.95-2.91-7.698-2.877-10.606.071-2.909 2.949-2.877 7.697.071 10.606 6.452 6.366 17.398 10.166 29.282 10.166s22.831-3.8 29.282-10.166z"/><path d="m410.591 357.792-99.069-35.383v-34.059c3.724-2.146 7.311-4.505 10.749-7.052 8.002 3.844 16.852 5.869 25.786 5.869 32.826 0 59.532-26.706 59.532-59.532 0-.103 0-.204-.001-.306 15.116-11.227 24.016-28.756 24.016-47.724 0-28.636-20.685-53.087-48.198-58.432-3.346-67.382-59.216-121.173-127.414-121.173-68.199 0-124.069 53.793-127.413 121.176-27.505 5.351-48.182 29.799-48.182 58.429 0 18.968 8.9 36.497 24.016 47.724-.001.102-.001.203-.001.306 0 32.826 26.706 59.532 59.532 59.532 8.931 0 17.777-2.024 25.776-5.865 3.437 2.546 7.021 4.903 10.743 7.048v34.064l-99.027 35.368c-22.16 7.821-37.048 28.864-37.048 52.363v94.355c0 4.143 3.358 7.5 7.5 7.5s7.5-3.357 7.5-7.5v-94.354c0-4.979.921-9.804 2.617-14.288l37.859 32.451c5.441 4.664 8.562 11.45 8.562 18.617v57.574c0 4.143 3.358 7.5 7.5 7.5s7.5-3.357 7.5-7.5v-57.575c0-11.552-5.03-22.488-13.801-30.005l-39.688-34.019c4.418-4.867 10.04-8.698 16.517-10.984l64.58-23.065c3.735 15.106 11.399 28.862 22.446 40.13 1.469 1.498 3.412 2.25 5.356 2.25 1.895 0 3.791-.713 5.25-2.145 2.958-2.899 3.005-7.648.105-10.606-9.51-9.701-15.994-21.622-18.943-34.705l16.188-5.782c4.844 25.714 27.457 45.231 54.557 45.231 27.102 0 49.716-19.521 54.558-45.237l16.194 5.784c-3.398 14.986-11.529 28.615-23.269 38.784-13.168 11.407-30.029 17.688-47.475 17.688-10.091 0-19.854-2.03-29.018-6.034-3.795-1.658-8.217.074-9.875 3.87s.074 8.217 3.87 9.875c11.069 4.837 22.853 7.289 35.023 7.289 21.053 0 41.401-7.583 57.296-21.351 13.701-11.868 23.342-27.645 27.67-45.043l64.606 23.074c6.465 2.282 12.079 6.109 16.493 10.973l-39.69 34.021c-8.771 7.517-13.801 18.454-13.801 30.005v57.577c0 4.143 3.358 7.5 7.5 7.5s7.5-3.357 7.5-7.5v-57.575c0-7.167 3.121-13.953 8.562-18.617l37.86-32.452c1.695 4.484 2.617 9.31 2.617 14.289v94.355c0 4.143 3.358 7.5 7.5 7.5s7.5-3.357 7.5-7.5v-94.354c-.001-23.5-14.89-44.543-37.023-52.354zm-251.163-166.179c0-4.142-3.358-7.5-7.5-7.5s-7.5 3.358-7.5 7.5c0 .169.006.336.006.505h-4.506c-6.899 0-12.512-5.613-12.512-12.512s5.613-12.512 12.512-12.512h15.638c9.853 0 19.294-3.65 26.584-10.278l73.85-67.136 73.849 67.136c7.29 6.628 16.731 10.278 26.584 10.278h15.63c6.899 0 12.512 5.613 12.512 12.512s-5.613 12.512-12.512 12.512h-4.514c.001-.169.006-.336.006-.505 0-4.142-3.358-7.5-7.5-7.5s-7.5 3.358-7.5 7.5c0 53.246-43.318 96.564-96.564 96.564s-96.563-43.319-96.563-96.564zm257.175-12.008c0 15.299-7.753 29.352-20.74 37.591-2.345 1.488-3.676 4.15-3.459 6.919.101 1.286.184 2.438.184 3.519 0 24.555-19.977 44.532-44.532 44.532-4.412 0-8.789-.673-12.978-1.945 16.617-16.716 27.98-38.654 31.395-63.104h5.59.008c15.17 0 27.512-12.342 27.512-27.512 0-11.068-6.573-20.624-16.018-24.986v-18.034c19.058 5.115 33.038 22.655 33.038 43.02zm-160.611-164.605c62.073 0 112.574 50.5 112.574 112.574v24.52h-12.133c-6.113 0-11.971-2.265-16.494-6.376l-72.79-66.173 25.915-23.559c3.065-2.787 3.291-7.53.505-10.595-2.786-3.064-7.529-3.292-10.595-.505l-110.913 100.831c-4.523 4.112-10.381 6.376-16.494 6.376h-12.148v-24.52c-.001-62.073 50.5-112.573 112.573-112.573zm-136.58 212.635c0-1.081.083-2.233.184-3.519.217-2.769-1.114-5.431-3.459-6.919-12.986-8.24-20.74-22.292-20.74-37.591 0-20.36 13.972-37.896 33.021-43.017v18.037c-9.436 4.366-16.002 13.917-16.002 24.979 0 15.17 12.342 27.512 27.512 27.512h5.582c3.415 24.452 14.78 46.391 31.398 63.108-4.185 1.269-8.558 1.941-12.966 1.941-24.553.001-44.53-19.976-44.53-44.531zm136.58 140.591c-22.348 0-40.529-18.181-40.529-40.529v-32.142c12.569 4.918 26.239 7.622 40.529 7.622s27.96-2.704 40.529-7.622v32.142c0 22.347-18.181 40.529-40.529 40.529z"/></g></g></svg>