<svg id="Capa_1" enable-background="new 0 0 512.002 512.002" height="512" viewBox="0 0 512.002 512.002" width="512" xmlns="http://www.w3.org/2000/svg"><g><g><path d="m366.696 328.145h-221.366c-14.133 0-25.591 11.458-25.591 25.591 0 8.989 4.717 17.32 12.424 21.944l31.171 18.703c23.656 14.193 41.711 36.089 51.139 62.015l17.492 48.102h48.097l17.492-48.102c9.428-25.926 27.483-47.822 51.139-62.015l31.171-18.703c7.708-4.625 12.424-12.955 12.424-21.944 0-14.133-11.458-25.591-25.592-25.591z" fill="#76d4ec"/><path d="m408.295 380.949-82.793-29.221c-12.82-4.525-21.393-16.642-21.393-30.236v-57.475h-96.194v57.475c0 13.595-8.573 25.712-21.393 30.237l-82.792 29.221c-19.23 6.787-32.089 24.962-32.089 45.354h368.742c.001-20.393-12.858-38.568-32.088-45.355z" fill="#f2c59a"/><path d="m304.11 321.491v-57.475h-96.194v57.475c0 13.595-8.573 25.712-21.393 30.237l7.998 22.679c17.507-6.179 30.876-20.894 35.76-39.362.484-1.832 4.123-2.656 6.551-2.656.394 0 .749.017 1.041.06 6.066.901 12.169 1.357 18.139 1.357 16.668 0 32.884-3.311 48.309-9.61-.076-.9-.211-1.788-.211-2.705z" fill="#e6b287"/><path d="m408.295 380.949-78.913-27.851c-20.799 14.546-46.062 23.145-73.369 23.145s-52.57-8.599-73.369-23.145l-78.913 27.852c-19.23 6.787-32.089 24.963-32.089 45.355l160.323 78.195h48.097l160.323-78.197c-.001-20.392-12.86-38.567-32.09-45.354z" fill="#df976c"/><path d="m182.644 353.097-78.913 27.852 8.006 22.677 82.784-29.219c2.959-1.045 5.875-2.418 9.175-4.324l5.061-2.922c-9.277-3.699-18.039-8.418-26.113-14.064z" fill="#c2805d"/><path d="m163.334 394.383-31.171-18.702c-1.544-.926-2.871-2.099-4.161-3.298l-24.271 8.567c-19.23 6.787-32.089 24.963-32.089 45.355l64.129 78.196h96.194l-17.492-48.102c-9.427-25.927-27.483-47.823-51.139-62.016z" fill="#ceeaff"/><path d="m95.691 440.371v-14.064c0-10.178 6.449-19.293 16.047-22.68l42.185-14.89-21.76-13.056c-1.544-.926-2.871-2.099-4.162-3.298l-24.271 8.567c-19.229 6.787-32.089 24.963-32.089 45.355v14.067h24.05z" fill="#b0def5"/><path d="m392.288 221.597v-109.887c0-41.22-31.111-75.173-71.133-79.658-4.802-.538-9.437-2.822-12.125-6.838-7.831-11.705-25.539-17.714-53.019-17.714-56.11 0-136.272 39.663-136.272 120.242v93.855c0 16.198-9.539 22.459-16.602 24.875-4.335 1.483-6.794 6.085-5.181 10.373 3.739 9.944 13.406 24.534 37.815 23.203 0 0 21.377 32.065 64.129 16.032h112.226c42.753 16.032 64.129-16.032 64.129-16.032 24.409 1.331 34.076-13.259 37.815-23.203 1.613-4.288-.846-8.89-5.181-10.373-7.062-2.416-16.601-8.677-16.601-24.875z" fill="#4fc0ec"/><path d="m315.841 30.581c-2.719-1.156-5.155-2.893-6.811-5.368-7.832-11.704-25.54-17.713-53.019-17.713-56.11 0-136.272 39.663-136.272 120.242v93.855c0 16.198-9.539 22.459-16.602 24.875-4.335 1.483-6.794 6.085-5.181 10.373 3.739 9.944 13.406 24.534 37.815 23.203 0 0 21.377 32.065 64.129 16.032h45.898l52.355-216.435s23.53-12.664 17.688-49.064z" fill="#24aadb"/><path d="m371.104 175.839c-6.009 0-10.881-4.871-10.881-10.881v-5.152c0-29.708-19.549-35.58-41.751-56.113-13.085-12.102-20.319-24.048-20.319-24.048-40.529 28.573-138.334 27.934-138.334 80.161v5.152c0 6.009-12.888 10.881-18.897 10.881-10.483 0-20.035 7.542-21.08 17.973-1.201 11.996 8.186 22.108 19.936 22.108h12.429c4.106 53.795 48.957 96.194 103.805 96.194s99.699-42.398 103.805-96.194h12.429c11.75 0 21.138-10.112 19.936-22.108-1.043-10.431-10.596-17.973-21.078-17.973z" fill="#fbe7c3"/><path d="m183.868 207.903v-87.241c-18.848 8.872-24.048 20.707-24.048 39.145 0 6.009-12.888 16.032-18.897 16.032-10.483 0-20.035 7.542-21.08 17.973-1.201 11.996 8.186 22.108 19.937 22.108h12.429c4.106 53.795 48.957 96.194 103.805 96.194 5.483 0 10.83-.534 16.083-1.351-49.947-7.709-88.229-50.755-88.229-102.86z" fill="#f9d8af"/><path d="m348.692 394.383 31.171-18.702c1.544-.926 2.871-2.099 4.161-3.298l24.271 8.567c19.23 6.787 32.089 24.963 32.089 45.355l-64.129 78.195h-96.194l17.492-48.102c9.428-25.926 27.484-47.822 51.139-62.015z" fill="#ceeaff"/><g fill="#b0def5"><path d="m376.255 462.565c0-9.099 3.866-17.77 10.634-23.851l44.685-40.151c5.603 7.934 8.81 17.56 8.81 27.74v78.197h-64.129z"/><path d="m135.771 462.565c0-9.099-3.866-17.77-10.634-23.851l-44.685-40.151c-5.603 7.934-8.81 17.56-8.81 27.74v78.197h64.129z"/></g></g><g><path d="m274.807 242.645c-2.737 2.701-9.298 5.855-18.781 5.855s-16.044-3.154-18.781-5.855c-2.95-2.91-7.698-2.877-10.606.071-2.909 2.948-2.877 7.697.071 10.606 6.459 6.373 17.418 10.177 29.316 10.177s22.857-3.805 29.316-10.177c2.949-2.909 2.98-7.658.071-10.606-2.91-2.948-7.659-2.98-10.606-.071z"/><path d="m207.929 184.252c-4.142 0-7.5 3.358-7.5 7.5v8.016c0 4.142 3.358 7.5 7.5 7.5s7.5-3.358 7.5-7.5v-8.016c0-4.142-3.358-7.5-7.5-7.5z"/><path d="m304.123 184.252c-4.142 0-7.5 3.358-7.5 7.5v8.016c0 4.142 3.358 7.5 7.5 7.5s7.5-3.358 7.5-7.5v-8.016c0-4.142-3.358-7.5-7.5-7.5z"/><path d="m215.945 160.204h-16.032c-4.142 0-7.5 3.358-7.5 7.5s3.358 7.5 7.5 7.5h16.032c4.142 0 7.5-3.358 7.5-7.5s-3.358-7.5-7.5-7.5z"/><path d="m288.606 167.704c0 4.142 3.358 7.5 7.5 7.5h16.032c4.142 0 7.5-3.358 7.5-7.5s-3.358-7.5-7.5-7.5h-16.032c-4.142 0-7.5 3.358-7.5 7.5z"/><path d="m410.779 373.876-14.609-5.156c2.335-4.586 3.63-9.71 3.63-14.984 0-18.247-14.845-33.091-33.091-33.091h-55.111v-15.861c1.152-.664 2.288-1.354 3.414-2.057 9.301 3.388 17.534 4.728 24.704 4.728 11.693 0 20.585-3.516 26.782-7.321 6.734-4.135 11.189-9.081 13.742-12.502 39.334-.51 43.533-38.518 43.572-38.916.203-2.07-.433-4.131-1.809-5.691-1.375-1.56-3.308-2.478-5.387-2.536-2.809-.125-16.817-1.624-16.817-18.891v-109.889c0-44.69-33.445-82.14-77.797-87.112-2.943-.33-5.458-1.659-6.727-3.556-9.343-13.961-29.278-21.041-59.252-21.041-32.042 0-67.045 11.728-93.634 31.372-22.873 16.898-50.138 47.335-50.138 96.37v93.856c0 17.268-14.008 18.766-16.757 18.889-2.079.058-4.041.977-5.417 2.537-1.375 1.561-2.042 3.622-1.839 5.692.039.397 4.231 38.41 43.572 38.916 2.553 3.422 7.008 8.367 13.742 12.502 9.998 6.139 27.016 11.516 51.493 2.598 1.108.692 2.224 1.37 3.358 2.024v15.89h-55.062c-18.247 0-33.091 14.845-33.091 33.091 0 5.268 1.292 10.387 3.622 14.969l-14.651 5.171c-22.187 7.83-37.093 28.899-37.093 52.427v78.196c0 4.142 3.358 7.5 7.5 7.5s7.5-3.358 7.5-7.5v-78.197c0-5.031.94-9.906 2.667-14.432l37.909 32.493c5.452 4.673 8.578 11.471 8.578 18.651v41.366c0 4.142 3.358 7.5 7.5 7.5s7.5-3.358 7.5-7.5v-41.366c0-11.564-5.036-22.513-13.816-30.04l-39.706-34.033c4.411-4.838 10.01-8.646 16.455-10.921l20.216-7.135c.613.428 1.241.839 1.886 1.226l31.171 18.703c22.109 13.265 39.138 33.915 47.949 58.146l17.492 48.102c1.108 3.047 3.984 4.939 7.049 4.939.851 0 1.716-.146 2.562-.454 3.893-1.416 5.901-5.719 4.485-9.611l-17.492-48.102c-9.983-27.455-29.277-50.853-54.328-65.883l-22.517-13.51 36.844-13.004c22.164 14.585 47.863 22.303 74.493 22.303 26.623 0 52.316-7.714 74.475-22.292l12.932 4.564c.826.292 1.668.43 2.496.43 3.091 0 5.985-1.925 7.072-5.006 1.379-3.906-.67-8.19-4.576-9.568l-20.438-7.213c-4.913-1.734-9.017-4.938-11.89-9.011h50.611c9.976 0 18.091 8.116 18.091 18.091 0 6.318-3.366 12.263-8.783 15.513l-31.171 18.703c-25.05 15.03-44.344 38.428-54.328 65.883l-17.492 48.102c-1.416 3.893.592 8.196 4.485 9.611.846.308 1.711.454 2.562.454 3.064 0 5.941-1.893 7.049-4.939l17.492-48.102c8.811-24.231 25.839-44.881 47.949-58.146l31.171-18.703c.64-.384 1.263-.79 1.871-1.214l20.182 7.123c6.455 2.278 12.062 6.095 16.477 10.944l-39.679 34.011c-8.781 7.526-13.816 18.475-13.816 30.04v41.366c0 4.142 3.358 7.5 7.5 7.5s7.5-3.358 7.5-7.5v-41.366c0-7.18 3.126-13.978 8.578-18.651l37.872-32.461c1.719 4.517 2.655 9.38 2.655 14.4v78.196c0 4.142 3.358 7.5 7.5 7.5s7.5-3.358 7.5-7.5v-78.197c0-23.528-14.907-44.596-37.093-52.427zm-3.509-119.95c-2.841 7.953-10.473 19.727-30.593 18.633-2.927-.162-5.632 1.339-7.003 3.917-.514.929-11.684 20.397-39.568 14.963 19.409-17.231 32.791-41.104 36.548-68.02h5.607c4.515 0 8.776-1.099 12.54-3.033v1.211c-.001 19.965 11.981 29.031 22.469 32.329zm-235.967-210.49c24.1-17.806 55.771-28.436 84.72-28.436 24.311 0 40.489 4.974 46.787 14.384 3.75 5.604 10.137 9.293 17.522 10.121 36.752 4.12 64.468 35.161 64.468 72.205v59.663c-3.765-1.934-8.026-3.034-12.542-3.034 0 0-2.089 0-4.522 0v-8.533c0-24.932-13.229-35.543-27.233-46.777-5.41-4.339-11.004-8.826-16.666-14.592-2.902-2.955-7.65-2.999-10.606-.096-2.955 2.902-2.998 7.651-.096 10.606 6.285 6.399 12.5 11.384 17.982 15.782 13.482 10.814 21.619 17.341 21.619 35.076v16.032h.007c.003 2.545 1.292 5.026 3.634 6.431 1.785 1.071 1.768 1.063 9.874 1.07l6.009-.001c6.915 0 12.54 5.625 12.54 12.54s-5.625 12.541-12.54 12.541h-4.531c.001-.172.007-.344.007-.516 0-4.142-3.358-7.5-7.5-7.5s-7.5 3.358-7.5 7.5c0 53.326-43.384 96.709-96.71 96.709s-96.709-43.384-96.709-96.709c0-4.142-3.358-7.5-7.5-7.5s-7.5 3.358-7.5 7.5c0 .173.006.344.007.516h-4.531c-6.915 0-12.541-5.625-12.541-12.541 0-6.915 5.625-12.54 12.541-12.54h4.008c12.976 0 23.532-10.557 23.532-23.532 0-25.926 39.548-38.765 77.794-51.18 33.737-10.952 65.604-21.296 73.976-42.228 1.539-3.846-.332-8.211-4.178-9.749-3.847-1.541-8.211.332-9.749 4.178-5.763 14.406-35.715 24.129-64.681 33.532-41.324 13.415-88.163 28.62-88.163 65.447 0 4.705-3.828 8.532-8.532 8.532h-4.008c-4.515 0-8.776 1.099-12.541 3.033v-43.63c0-42.778 23.956-69.456 44.052-84.304zm-28.898 233.09c-1.372-2.578-4.102-4.124-7.03-3.967-20.14 1.104-27.76-10.694-30.596-18.633 10.488-3.297 22.472-12.363 22.472-32.329v-1.212c3.764 1.934 8.025 3.033 12.541 3.033h5.607c3.757 26.917 17.139 50.789 36.548 68.02-27.883 5.438-39.052-14.027-39.542-14.912zm-15.154 77.21c0-9.976 8.116-18.091 18.091-18.091h50.562c-2.873 4.073-6.977 7.277-11.89 9.011l-53.795 18.986c-1.899-2.907-2.968-6.347-2.968-9.906zm71.065.305c10.507-7.269 17.088-19.365 17.088-32.55v-9.526c12.596 4.934 26.298 7.647 40.622 7.647 14.305 0 27.989-2.706 40.572-7.628v9.507c0 13.194 6.591 25.298 17.111 32.565-17.642 9.627-37.356 14.685-57.682 14.685-20.338.001-40.063-5.063-57.711-14.7z"/></g></g></svg>