<svg id="Capa_1" enable-background="new 0 0 512 512" height="512" viewBox="0 0 512 512" width="512" xmlns="http://www.w3.org/2000/svg"><g><g><path d="m400.29 151.79c0-81.933-68.29-147.916-151.056-144.135-77.094 3.522-137.307 69.124-137.527 146.298-.156 54.903-6.323 97.652-23.617 107.778-4.181 2.448-5.075 8.159-2.252 12.096 10.71 14.933 36.077 42.842 81.985 54.319h176.355c45.905-11.476 71.273-39.382 81.983-54.316 2.818-3.928 1.946-9.649-2.229-12.086-17.537-10.237-23.642-53.99-23.642-109.954z" fill="#d18964"/><path d="m405.845 398.152-72.595-21.352c-32.228 19.833-77.25 47.539-77.25 47.539l-77.25-47.539-72.595 21.352c-20.469 6.02-34.526 24.806-34.526 46.142v36.157l24.048 24.049h344.693v-60.206c.001-21.336-14.055-40.122-34.525-46.142z" fill="#89ec9e"/><g fill="#47de9e"><path d="m127.928 391.748.004-.001-.002-.001z"/><path d="m368.779 340.676c-5.085-16.954-20.69-28.563-38.391-28.563h-148.588c-17.7 0-33.305 11.61-38.391 28.563l-15.306 51.02-21.948 6.455c-20.47 6.02-34.526 24.806-34.526 46.143v60.206h24.048v-60.207c0-10.596 7.1-20.083 17.261-23.074l51.365-15.656 86.064 32.692c3.631 1.364 7.635 1.365 11.266.003l122.625-45.984z"/></g><path d="m312.848 312.113h-113.508c-23.793 0-33.137 30.859-13.34 44.058l65.218 48.574c2.838 2.114 6.727 2.116 9.568.006l65.401-48.58c19.798-13.199 10.454-44.058-13.339-44.058z" fill="#43bfa0"/><path d="m260.786 404.751 50.434-37.462c-4.441-4.41-7.123-10.485-7.123-17.057v-46.135h-96.193v46.135c0 6.541-2.662 12.586-7.065 16.991l50.38 37.523c2.838 2.113 6.726 2.115 9.567.005z" fill="#f2c59a"/><path d="m304.097 334.648v-30.551h-96.193v46.135c0 6.541-2.662 12.586-7.065 16.991l19.262 14.347c7.615-8.805 11.851-19.886 11.851-31.336 0-4.009 3.212-7.149 7.313-7.149.339 0 .681.022 1.026.067 5.239.682 10.524 1.027 15.709 1.027 16.593-.002 32.734-3.29 48.097-9.531z" fill="#e6b287"/><path d="m256 71.629-55.955 30.088-48.255 74.121v40.081c0 57.553 46.656 104.209 104.209 104.209 57.553 0 104.21-46.656 104.21-104.209v-40.081c.001-57.553-46.656-104.209-104.209-104.209z" fill="#f9d8af"/><path d="m183.855 215.919v-40.081c0-52.087 38.256-95.122 88.177-102.851-5.24-.811-10.566-1.359-16.032-1.359-57.553 0-104.21 46.656-104.21 104.21v40.081c0 57.553 46.656 104.21 104.21 104.21 5.467 0 10.793-.547 16.032-1.359-49.921-7.729-88.177-50.764-88.177-102.851z" fill="#f2c59a"/><path d="m207.903 231.952c-17.679 0-32.064-14.385-32.064-32.064s14.385-32.064 32.064-32.064 32.064 14.385 32.064 32.064-14.384 32.064-32.064 32.064z" fill="#f2c59a"/><path d="m158.136 46.838c22.513 24.38 104.783 101.834 242.145 104.786-.093-81.855-68.338-147.748-151.048-143.969-35.324 1.613-67.008 16.361-91.097 39.183z" fill="#df976c"/><circle cx="304.097" cy="199.887" fill="#f2c59a" r="32.065"/></g><g><path d="m207.903 208.084c4.142 0 7.5-3.358 7.5-7.5v-8.017c0-4.142-3.358-7.5-7.5-7.5s-7.5 3.358-7.5 7.5v8.017c0 4.142 3.358 7.5 7.5 7.5z"/><path d="m296.597 192.567v8.017c0 4.142 3.358 7.5 7.5 7.5s7.5-3.358 7.5-7.5v-8.017c0-4.142-3.358-7.5-7.5-7.5s-7.5 3.359-7.5 7.5z"/><path d="m256 271.516c11.897 0 22.857-3.805 29.316-10.177 2.948-2.909 2.98-7.658.071-10.606s-7.658-2.98-10.606-.071c-2.737 2.701-9.299 5.855-18.781 5.855s-16.043-3.154-18.781-5.855c-2.949-2.91-7.698-2.877-10.606.071-2.909 2.949-2.877 7.697.071 10.606 6.459 6.372 17.419 10.177 29.316 10.177z"/><path d="m407.962 390.955-17.844-5.248-14.155-47.186c-1.444-4.813-3.584-9.246-6.281-13.217 61.003-18.182 69.677-58.062 70.028-59.817.44-2.204-.13-4.488-1.554-6.226-1.425-1.738-3.553-2.745-5.8-2.745-9.239 0-14.765-14.347-17.774-26.383-4.505-18.022-6.79-44.381-6.79-78.343-.001-83.697-68.094-151.79-151.792-151.79s-151.791 68.093-151.791 151.79c0 33.962-2.285 60.32-6.79 78.343-3.009 12.036-8.535 26.383-17.774 26.383-2.247 0-4.375 1.007-5.8 2.745-1.424 1.738-1.995 4.022-1.554 6.226.351 1.757 9.039 41.704 70.184 59.864-2.682 3.959-4.811 8.375-6.249 13.17l-14.138 47.125-18.05 5.309c-23.498 6.912-39.909 28.845-39.909 53.338v60.206c0 4.142 3.358 7.5 7.5 7.5s7.5-3.358 7.5-7.5v-60.206c0-17.885 11.983-33.9 29.142-38.947l18.581-5.465 57.707 21.672v82.947c0 4.142 3.358 7.5 7.5 7.5s7.5-3.358 7.5-7.5v-77.314l53.804 20.206c1.699.638 3.571.639 5.27.001l53.996-20.249v77.356c0 4.142 3.358 7.5 7.5 7.5s7.5-3.358 7.5-7.5v-82.98l57.623-21.609 18.478 5.435c17.158 5.047 29.142 21.062 29.142 38.947v60.206c0 4.142 3.358 7.5 7.5 7.5s7.5-3.358 7.5-7.5v-60.206c-.001-24.493-16.412-46.426-39.91-53.338zm14.444-121.52c-5.385 11.125-21.828 32.917-64.789 43.658-7.763-5.401-17.171-8.48-27.228-8.48h-6.558c26.656-20.435 43.879-52.588 43.879-88.693v-58.247c7.977.616 16.169.949 24.565.949.185 0 .367-.014.549-.027.297 31.952 2.717 57.222 7.205 75.176 4.796 19.186 12.3 31.127 22.377 35.664zm-93.72 61.931c1.72 5.682.875 13.542-6.659 18.564-.106.071-.21.144-.312.22l-8.807 6.542c-.862-2.027-1.312-4.211-1.312-6.461v-30.618h1.251c9.055 0 14.119 6.071 15.839 11.753zm-169.395-148.027h12.689c-2.33 5.039-3.641 10.642-3.641 16.548 0 21.816 17.749 39.565 39.564 39.565s39.564-17.749 39.564-39.565c0-.173-.011-.343-.013-.516h17.091c-.002.172-.013.343-.013.516 0 21.816 17.749 39.565 39.564 39.565s39.564-17.749 39.564-39.565c0-5.906-1.31-11.509-3.641-16.548h12.689v32.581c0 53.326-43.384 96.709-96.709 96.709s-96.709-43.384-96.709-96.709v-32.581zm48.612-8.017c13.545 0 24.564 11.02 24.564 24.564s-11.02 24.565-24.564 24.565-24.564-11.02-24.564-24.565 11.019-24.564 24.564-24.564zm120.758 24.565c0 13.545-11.02 24.565-24.564 24.565s-24.564-11.02-24.564-24.565 11.02-24.564 24.564-24.564 24.564 11.019 24.564 24.564zm-145.159 131.479c1.72-5.682 6.784-11.753 15.838-11.753h1.063v30.618c0 2.216-.433 4.369-1.27 6.37l-8.653-6.445c-.104-.078-.211-.153-.32-.226-7.533-5.022-8.378-12.883-6.658-18.564zm31.901 18.864v-30.239c12.589 4.928 26.282 7.638 40.597 7.638s28.007-2.71 40.597-7.638v30.239c0 5.508 1.426 10.802 4.109 15.526l-44.699 33.203-44.672-33.271c2.656-4.707 4.068-9.977 4.068-15.458zm-125.815-80.792c10.079-4.535 17.585-16.478 22.383-35.667 4.803-19.211 7.238-46.793 7.238-81.98 0-75.427 61.364-136.791 136.791-136.791 72.688 0 132.307 56.992 136.541 128.636-.089-.003-.176-.014-.266-.014-64.469 0-116.499-20.54-148.794-37.771-34.967-18.656-55.033-37.583-55.436-37.966-2.99-2.867-7.738-2.768-10.604.223-2.867 2.99-2.767 7.737.223 10.604.859.823 21.457 20.395 58.264 40.109 27.022 14.474 67.236 31.151 116.784 37.326v12.19h-24.77c-6.635-5.027-14.895-8.017-23.842-8.017-16.311 0-30.346 9.923-36.391 24.049h-23.411c-6.046-14.125-20.08-24.049-36.391-24.049-8.947 0-17.207 2.989-23.842 8.017h-24.499c1.419-20.757 8.779-39.033 21.968-54.399 2.698-3.144 2.336-7.878-.807-10.576-3.144-2.698-7.878-2.336-10.576.807-17.157 19.99-25.856 44.103-25.856 71.669v40.081c0 36.105 17.223 68.259 43.879 88.693h-6.37c-10.087 0-19.522 3.098-27.298 8.529-42.994-10.746-59.548-32.61-64.918-43.703zm166.414 162.922-118.875-44.644 13.466-44.885c3.138-10.461 11.03-18.332 20.929-21.581-.947 1.811-1.758 3.728-2.376 5.769-4.101 13.544.813 27.368 12.522 35.276l69.853 52.026c2.655 1.978 6.294 1.981 8.952.006l70.044-52.029c11.711-7.908 16.627-21.732 12.526-35.279-.618-2.041-1.429-3.958-2.376-5.769 9.899 3.25 17.791 11.12 20.929 21.581l13.464 44.882z"/></g></g></svg>