<svg id="Capa_1" enable-background="new 0 0 512.001 512.001" height="512" viewBox="0 0 512.001 512.001" width="512" xmlns="http://www.w3.org/2000/svg"><g><g><path d="m199.888 264.016h112.226v112.226h-112.226z" fill="#f8ba7e"/><path d="m312.114 264.016h-112.226v104.21h16.032 8.016v-8.016-34.264c0-4.976 4.188-7.95 8.237-7.95.533 0 1.076.049 1.614.146 7.338 1.319 14.811 1.987 22.214 1.987 19.387 0 38.679-4.529 56.113-13.027z" fill="#f1a673"/><path d="m372.235 159.806h-4.008v-83.026c0-23.013-12.331-44.262-32.312-55.68l-23.801-13.6c-.118 0-3.862 0-71.644 0-25.276 0-49.771 9.178-60.426 24.048h-.036c-20.011 0-36.233 16.222-36.233 36.233v92.025h-2.863c-10.483 0-20.036 7.542-21.081 17.973-1.202 11.996 8.186 22.108 19.936 22.108h12.429c4.106 53.795 48.957 96.194 103.805 96.194 54.847 0 99.693-42.399 103.799-96.194h11.292c10.483 0 20.036-7.544 21.08-17.975 1.199-11.995-8.188-22.106-19.937-22.106z" fill="#ffce8a"/><path d="m368.227 76.78c0-23.013-12.331-44.262-32.312-55.68l-7.769-4.439v38.936c0 13.282 10.767 24.048 24.048 24.048h16.032v-2.865z" fill="#f8ba7e"/><path d="m183.856 191.871v-164.699c-1.379 1.409-2.712 2.842-3.812 4.376h-.036c-20.011 0-36.233 16.222-36.233 36.233v92.025h-2.863c-10.483 0-20.036 7.542-21.081 17.973-1.202 11.996 8.186 22.108 19.936 22.108h12.429c4.106 53.795 48.957 96.194 103.805 96.194 5.483 0 10.83-.534 16.083-1.351-49.947-7.708-88.228-50.755-88.228-102.859z" fill="#f8ba7e"/><path d="m159.807 79.645c13.282 0 24.048-10.767 24.048-24.048v-28.425c-1.379 1.409-2.712 2.842-3.812 4.376h-.036c-20.011 0-36.233 16.222-36.233 36.233v11.864z" fill="#f1a673"/><path d="m315.659 336.161-55.863 30.025c-2.37 1.274-5.22 1.274-7.59 0l-55.863-30.025 59.658 168.339z" fill="#87646f"/><path d="m320.13 336.161 94.051 28.37c20.309 6.126 34.207 24.834 34.207 46.047v93.922h-144.29z" fill="#4fc0ec"/><path d="m191.872 336.161-94.051 28.37c-20.309 6.126-34.207 24.834-34.207 46.047l24.048 92.448 120.242 1.473z" fill="#4fc0ec"/><path d="m87.662 503.027v-92.451c0-10.68 6.874-19.931 17.105-23.02l89.43-26.976-2.325-24.419-94.052 28.37c-20.309 6.127-34.207 24.835-34.207 46.048v93.921h24.048v-1.473z" fill="#24aadb"/><path d="m199.888 312.113-37.578 18.789c-5.477 2.738-7.137 9.769-3.463 14.668l16.992 22.656-15.878 15.877c-4.879 4.88-6.089 12.334-3.003 18.506l50.946 101.891h48.097z" fill="#ffce8a"/><path d="m312.114 312.113 37.578 18.789c5.477 2.738 7.137 9.769 3.463 14.668l-16.992 22.656 15.878 15.877c4.879 4.88 6.089 12.334 3.003 18.506l-50.946 101.891h-48.097z" fill="#ffce8a"/><path d="m348.019 30.18c-3.643-3.434-7.649-6.534-12.104-9.08l-23.801-13.6c-.116 0-3.873 0-67.817 0-3.894 3.927-7.247 8.307-9.774 13.169h-.036c-9.868 0-18.785 5.44-25.374 14.188 17.529 23.53 41.432 38.078 67.827 38.078 28.095-.001 53.344-16.477 71.079-42.755z" fill="#ffbf63"/><path d="m221.978 69.017c40.884 0 75.721-25.549 89.647-61.517-2.068 0-13.138 0-71.155 0-25.276 0-49.771 9.178-60.426 24.048h-.036c-9.756 0-18.571 3.9-25.085 10.171 17.329 16.869 40.96 27.298 67.055 27.298z" fill="#ffa65a"/></g><g><path d="m416.63 357.239-54.059-16.62c.087-1.633-.032-3.285-.417-4.917-1.183-5.011-4.503-9.206-9.108-11.508l-33.432-16.716v-23.838c25.013-17.396 42.617-44.741 47.019-76.253h4.459c14.618 0 27.155-10.862 28.542-24.728.777-7.771-1.765-15.53-6.975-21.287-4.426-4.891-10.459-8.011-16.933-8.842v-75.75c0-25.64-13.829-49.471-36.091-62.191l-23.8-13.601c-1.134-.647-2.416-.988-3.721-.988h-71.644c-26.826 0-51.476 9.398-64.184 24.205-22.378 1.896-40.01 20.716-40.01 43.576v84.893c-12.551 2.004-22.667 11.985-23.907 24.357-.779 7.771 1.763 15.53 6.973 21.289 5.214 5.762 12.658 9.067 20.425 9.067h5.598c4.399 31.522 22.003 58.87 47.023 76.264v23.827l-33.432 16.716c-4.605 2.303-7.925 6.498-9.108 11.509-.385 1.631-.504 3.284-.417 4.917l-54.059 16.62c-23.481 7.219-39.258 28.576-39.258 53.142v94.118c0 4.142 3.358 7.5 7.5 7.5s7.5-3.358 7.5-7.5v-94.119c0-17.938 11.52-33.533 28.667-38.804l56.231-17.288 9.925 13.233-11.278 11.278c-7.174 7.173-8.945 18.089-4.408 27.164l50.945 101.89c1.314 2.628 3.962 4.147 6.714 4.147 1.127 0 2.271-.255 3.348-.793 3.705-1.852 5.207-6.357 3.354-10.062l-50.945-101.89c-1.645-3.29-1.003-7.248 1.598-9.849l15.877-15.878c2.639-2.639 2.936-6.817.697-9.803l-16.992-22.655c-.565-.754-.494-1.527-.401-1.921s.375-1.117 1.218-1.539l29.54-14.77 53.596 183.76c.934 3.2 3.867 5.4 7.2 5.4s6.267-2.2 7.2-5.4l23.386-80.18c1.16-3.977-1.124-8.14-5.1-9.3-3.977-1.159-8.141 1.124-9.3 5.1l-16.186 55.494-34.644-118.779 31.093 16.711c1.109.596 2.33.894 3.551.894s2.442-.298 3.551-.894l31.093-16.711-9.101 31.205c-1.16 3.977 1.124 8.14 5.1 9.3 3.977 1.158 8.14-1.124 9.3-5.1l20.854-71.5 29.54 14.771c.843.421 1.125 1.145 1.218 1.539s.165 1.167-.401 1.921l-16.992 22.655c-2.239 2.986-1.942 7.164.697 9.803l15.877 15.878c2.601 2.601 3.243 6.559 1.599 9.849l-50.945 101.89c-1.853 3.705-.351 8.21 3.354 10.062 1.077.539 2.221.793 3.348.793 2.751 0 5.4-1.52 6.714-4.147l50.946-101.89c4.537-9.075 2.765-19.991-4.409-27.164l-11.278-11.278 9.925-13.233 56.231 17.288c17.146 5.271 28.667 20.866 28.667 38.804v94.118c0 4.142 3.358 7.5 7.5 7.5s7.5-3.358 7.5-7.5v-94.119c0-24.566-15.777-45.923-39.258-53.142zm-80.68-327.271c-11.063 20.272-28.385 31.556-51.529 33.542-2.847.245-5.624.329-8.288.299 15.24-8.67 29.663-22.818 39.718-45.535l16.342 9.339c1.29.736 2.54 1.526 3.757 2.355zm-176.659 161.903c0-4.142-3.358-7.5-7.5-7.5s-7.5 3.358-7.5 7.5v.516h-4.524c-3.537 0-6.927-1.506-9.303-4.131-2.407-2.66-3.533-6.115-3.17-9.729.63-6.292 6.612-11.22 13.618-11.22h2.864c4.142 0 7.5-3.358 7.5-7.5v-92.026c0-15.843 12.89-28.733 28.769-28.733 2.418 0 4.688-1.166 6.097-3.132 8.962-12.51 30.796-20.916 54.327-20.916h60.38c-12.998 27.228-34.892 42.732-65.231 46.116-26.064 2.906-48.982-4.485-49.396-4.62-3.929-1.304-8.172.818-9.481 4.746-1.31 3.929.814 8.177 4.744 9.487.876.292 18.529 6.072 41.517 6.072 4.416 0 9.031-.213 13.759-.72 3.223-.345 6.573-.846 9.997-1.524 4.196 1.246 15.849 4.262 30.362 4.262 2.592 0 5.278-.096 8.027-.316 27.166-2.172 48.537-15.362 62.196-38.25 8.495 10.075 13.385 22.981 13.385 36.53v83.026c0 4.142 3.358 7.5 7.5 7.5h4.008c3.537 0 6.927 1.505 9.303 4.13 2.407 2.66 3.533 6.115 3.171 9.729-.629 6.292-6.61 11.221-13.617 11.221h-3.385v-.439c0-4.141-3.356-7.499-7.497-7.5-.001 0-.002 0-.003 0-4.14 0-7.497 3.354-7.5 7.495-.039 53.286-43.421 96.638-96.706 96.638-53.327-.002-96.711-43.386-96.711-96.712zm96.71 168.654-40.534-21.786-8.079-27.699v-18.606c14.705 7.137 31.199 11.146 48.613 11.146 17.412 0 33.906-4.012 48.613-11.153v18.613l-8.079 27.699z"/><path d="m285.317 237.291c2.949-2.909 2.98-7.658.071-10.606-2.91-2.949-7.659-2.98-10.606-.071-2.737 2.701-9.299 5.855-18.781 5.855s-16.043-3.154-18.781-5.855c-2.949-2.91-7.698-2.877-10.606.071-2.909 2.948-2.877 7.697.071 10.606 6.459 6.373 17.418 10.177 29.316 10.177s22.857-3.805 29.316-10.177z"/><path d="m247.469 167.938v-8.647h17.065v8.647c0 12.629 7.945 24.094 19.771 28.529l18.191 6.822c3.467 1.3 7.089 1.939 10.694 1.939 6.121 0 12.191-1.844 17.359-5.425 8.211-5.69 13.114-15.052 13.114-25.043 0-16.8-13.668-30.469-30.469-30.469h-114.386c-16.8 0-30.469 13.668-30.469 30.469 0 9.991 4.902 19.353 13.114 25.043 5.168 3.582 11.238 5.425 17.359 5.425 3.604 0 7.227-.639 10.694-1.939l18.191-6.822c11.826-4.435 19.772-15.9 19.772-28.529zm81.193 6.821c0 5.148-2.427 9.782-6.658 12.714s-9.422 3.577-14.243 1.77l-18.191-6.822c-6.003-2.251-10.037-8.072-10.037-14.484v-8.647h17.064v8.532c0 4.142 3.358 7.5 7.5 7.5s7.5-3.358 7.5-7.5v-8.532h1.596c8.53.001 15.469 6.94 15.469 15.469zm-124.422 14.484c-4.821 1.809-10.011 1.163-14.243-1.77-4.231-2.933-6.658-7.566-6.658-12.714 0-8.529 6.939-15.469 15.469-15.469h1.596v8.532c0 4.142 3.358 7.5 7.5 7.5s7.5-3.358 7.5-7.5v-8.532h17.064v8.647c0 6.412-4.034 12.232-10.037 14.484z"/></g></g></svg>