<svg id="Capa_1" enable-background="new 0 0 512 512" height="512" viewBox="0 0 512 512" width="512" xmlns="http://www.w3.org/2000/svg"><g><g><path d="m414.434 349.762-70.257-21.617h-176.354l-70.257 21.617c-20.181 6.209-33.953 24.855-33.953 45.97l24.048 108.768h360.726v-108.767c0-21.116-13.771-39.762-33.953-45.971z" fill="#47de9e"/><path d="m104.923 373.122 28.42-8.358c14.407 21.409 38.856 35.526 66.544 35.526h112.226c36.614 0 67.507-24.705 77.054-58.302l-44.99-13.843h-1.139c-3.583 13.79-16.026 24.048-30.926 24.048h-112.225c-14.899 0-27.342-10.258-30.926-24.048h-1.139l-70.257 21.617c-20.181 6.209-33.953 24.855-33.953 45.97v108.768h24.048v-108.304c.001-10.595 7.102-20.083 17.263-23.074z" fill="#43bfa0"/><path d="m352.194 231.952h-192.388c-8.854 0-16.032 7.178-16.032 16.032v72.145c0 30.99 25.123 56.113 56.113 56.113h112.226c30.99 0 56.113-25.123 56.113-56.113v-72.145c0-8.855-7.179-16.032-16.032-16.032z" fill="#6b4f5a"/><path d="m376.242 152.194v-24.453c0-66.407-53.834-120.241-120.242-120.241s-120.242 53.834-120.242 120.242v24.453c-9.147 1.857-16.032 9.941-16.032 19.636 0 11.068 8.972 20.04 20.04 20.04h12.429c4.106 53.795 48.957 96.194 103.805 96.194s99.699-42.398 103.805-96.194h12.429c11.068 0 20.04-8.973 20.04-20.04 0-9.696-6.885-17.779-16.032-19.637z" fill="#f8ba7e"/><path d="m183.855 183.855v-152.143c-29.157 21.941-48.097 56.73-48.097 96.03v24.453c-9.147 1.857-16.032 9.941-16.032 19.636 0 11.068 8.972 20.04 20.04 20.04h12.429c4.106 53.795 48.957 96.194 103.805 96.194 5.483 0 10.83-.534 16.083-1.351-49.947-7.708-88.228-50.755-88.228-102.859z" fill="#f1a673"/><path d="m199.887 376.242h111.989l.237-.164c-74.84-3.259-138.744-51.565-168.339-120.078v64.129c0 30.99 25.123 56.113 56.113 56.113z" fill="#61444f"/></g><g><path d="m415.978 342.858-41.157-12.105c.584-3.458.904-7.003.904-10.625v-72.145c0-10.393-6.775-19.228-16.139-22.336 3.367-8.313 5.766-17.118 7.045-26.277h4.459c14.617 0 27.154-10.861 28.543-24.727.778-7.771-1.765-15.531-6.975-21.288-2.521-2.787-5.568-4.992-8.917-6.533v-19.082c.001-70.435-57.304-127.74-127.741-127.74s-127.742 57.305-127.742 127.742v19.415c-8.631 4.115-14.93 12.266-15.891 21.859-.778 7.771 1.764 15.531 6.974 21.289 5.213 5.762 12.658 9.067 20.425 9.067h5.598c1.278 9.16 3.676 17.966 7.042 26.28-9.36 3.11-16.132 11.943-16.132 22.333v72.145c0 3.621.32 7.167.905 10.625l-41.157 12.104c-23.498 6.912-39.909 28.845-39.909 53.338v108.302c0 4.142 3.358 7.5 7.5 7.5s7.5-3.358 7.5-7.5v-108.303c0-17.885 11.983-33.9 29.142-38.947l41.153-12.104c9.737 22.673 32.281 38.596 58.479 38.596h48.613v120.759c0 4.142 3.358 7.5 7.5 7.5s7.5-3.358 7.5-7.5v-120.758h48.613c26.198 0 48.743-15.923 58.479-38.596l41.153 12.104c17.158 5.047 29.142 21.062 29.142 38.947v108.302c0 4.142 3.358 7.5 7.5 7.5s7.5-3.358 7.5-7.5v-108.303c0-24.493-16.411-46.426-39.909-53.338zm-264.187-166.503c-4.142 0-7.5 3.358-7.5 7.5v.516h-4.524c-3.537 0-6.927-1.506-9.303-4.131-2.407-2.66-3.533-6.115-3.17-9.729.63-6.292 6.612-11.221 13.618-11.221h10.88c4.142 0 7.5-3.358 7.5-7.5s-3.358-7.5-7.5-7.5h-8.532v-16.548c-.002-62.166 50.574-112.742 112.74-112.742s112.742 50.576 112.742 112.742v16.549h-8.532c-4.142 0-7.5 3.358-7.5 7.5s3.358 7.5 7.5 7.5h12.024c3.537 0 6.927 1.505 9.303 4.13 2.407 2.66 3.533 6.115 3.171 9.729-.63 6.292-6.611 11.221-13.617 11.221h-3.385v-.439c0-4.141-3.356-7.499-7.497-7.5-.001 0-.002 0-.003 0-4.14 0-7.497 3.354-7.5 7.495-.039 53.286-43.421 96.638-96.706 96.638-53.326 0-96.709-43.384-96.709-96.709 0-4.143-3.358-7.501-7.5-7.501zm208.935 143.774c0 26.664-21.58 48.373-48.19 48.602-25.868 0-52.541-7.829-75.631-19.281 47.742-6.385 91.907-30.042 123.822-66.334v37.013zm0-61.074c-33.93 47.214-88.466 75.984-146.429 77.11-6.082-4.181-11.932-8.728-17.5-13.641-3.106-2.741-7.845-2.445-10.586.66s-2.445 7.845.66 10.586c16.758 14.791 35.847 26.568 56.312 34.971h-43.296c-26.805 0-48.613-21.808-48.613-48.613v-27.67c3.649 5.628 7.567 11.087 11.77 16.33 1.482 1.848 3.659 2.81 5.857 2.81 1.646 0 3.302-.54 4.686-1.648 3.232-2.591 3.752-7.311 1.161-10.543-9.331-11.64-17.22-24.378-23.474-37.863v-13.56c0-4.484 3.479-8.163 7.878-8.499 19.311 33.489 55.491 56.08 96.848 56.08 41.341 0 77.521-22.594 96.837-56.08 4.404.331 7.889 4.012 7.889 8.5z"/><path d="m207.903 152.307c-4.142 0-7.5 3.358-7.5 7.5v8.016c0 4.142 3.358 7.5 7.5 7.5s7.5-3.358 7.5-7.5v-8.016c0-4.142-3.358-7.5-7.5-7.5z"/><path d="m304.097 152.307c-4.142 0-7.5 3.358-7.5 7.5v8.016c0 4.142 3.358 7.5 7.5 7.5s7.5-3.358 7.5-7.5v-8.016c0-4.142-3.358-7.5-7.5-7.5z"/><path d="m256 231.436c11.898 0 22.857-3.805 29.316-10.177 2.949-2.909 2.98-7.658.071-10.606-2.91-2.949-7.659-2.98-10.606-.071-2.737 2.701-9.298 5.855-18.781 5.855s-16.043-3.154-18.781-5.855c-2.949-2.91-7.698-2.877-10.606.071-2.909 2.948-2.877 7.697.071 10.606 6.459 6.372 17.418 10.177 29.316 10.177z"/><path d="m199.887 143.258h16.032c4.142 0 7.5-3.358 7.5-7.5s-3.358-7.5-7.5-7.5h-16.032c-4.142 0-7.5 3.358-7.5 7.5s3.358 7.5 7.5 7.5z"/><path d="m296.081 143.258h16.032c4.142 0 7.5-3.358 7.5-7.5s-3.358-7.5-7.5-7.5h-16.032c-4.142 0-7.5 3.358-7.5 7.5s3.357 7.5 7.5 7.5z"/><circle cx="288.06" cy="416.328" r="7.5"/><circle cx="288.06" cy="472.308" r="7.5"/></g></g></svg>