<svg id="Capa_1" enable-background="new 0 0 512 512" height="512" viewBox="0 0 512 512" width="512" xmlns="http://www.w3.org/2000/svg"><g><g><path d="m199.887 264.016h112.226v152.306h-112.226z" fill="#e0916d"/><path d="m312.113 264.016h-112.226v104.21h16.032 8.016v-8.016-34.264c0-4.976 4.188-6.784 8.237-6.784.533 0 1.076.049 1.614.146 7.338 1.319 14.811 1.987 22.214 1.987 19.387 0 38.679-4.529 56.113-13.027z" fill="#c2805d"/><path d="m414.435 365.794-70.257-21.617-72.145 31.327v24.786c0 4.427-3.589 8.016-8.016 8.016h-16.032c-4.427 0-8.016-3.589-8.016-8.016v-24.786l-72.145-31.327-70.257 21.617c-20.181 6.209-33.953 24.855-33.953 45.97v68.687s56.113 24.048 64.129 24.048h256.516l64.129-24.048v-68.687c-.001-21.114-13.772-39.76-33.953-45.97z" fill="#ff7e8f"/><path d="m202.51 359.239-34.687-15.062-70.257 21.617c-18.005 5.54-30.835 20.996-33.409 39.255 4.217 1.203 8.008 3.139 11.239 5.82l10.081 8.366 2.861-12.784c1.905-8.512 7.999-15.121 16.299-17.68l88.811-26.799z" fill="#fc5f7a"/><path d="m372.234 159.806h-12.024l-16.032-48.097h-184.372l-16.032 48.097h-4.008c-11.068 0-20.04 8.972-20.04 20.04s8.972 20.04 20.04 20.04h12.429c4.106 53.795 48.957 96.194 103.805 96.194s99.699-42.398 103.805-96.194h12.429c11.068 0 20.04-8.973 20.04-20.04s-8.972-20.04-20.04-20.04z" fill="#f1a673"/><path d="m183.855 191.871v-31.468c0-13.282 10.767-24.048 24.048-24.048h144.29l-8.016-24.644h-184.371l-16.032 48.097h-2.865c-10.483 0-20.035 7.542-21.08 17.973-1.201 11.996 8.187 22.108 19.937 22.108h12.429c4.106 53.795 48.957 96.194 103.805 96.194 5.483 0 10.83-.534 16.083-1.351-49.947-7.71-88.228-50.757-88.228-102.861z" fill="#e0916d"/><path d="m159.806 159.806h-16.032v-48.096l32.065-8.016v40.081c0 8.854-7.178 16.031-16.033 16.031z" fill="#61444f"/><path d="m352.194 159.806h16.032v-48.096l-32.065-8.016v40.081c0 8.854 7.178 16.031 16.033 16.031z" fill="#6b4f5a"/><path d="m280.048 7.5h-48.097c-48.699 0-88.177 39.478-88.177 88.177v16.032h224.452v-16.032c0-48.699-39.479-88.177-88.178-88.177z" fill="#ff7e8f"/><path d="m280.048 7.5h-48.097c-48.699 0-88.177 39.478-88.177 88.177v16.032h48.097v-16.032c0-48.699 39.478-88.177 88.177-88.177z" fill="#fc5f7a"/><circle cx="191.871" cy="464.419" fill="#c7c2c6" r="32.065"/><path d="m145.301 79.645c-.957 5.206-1.527 10.549-1.527 16.032v16.032h224.452v-16.032c0-5.483-.569-10.826-1.526-16.032z" fill="#d8d5d8"/><path d="m193.397 79.645h-48.097c-.957 5.206-1.527 10.549-1.527 16.032v16.032h48.097v-16.032c.001-5.483.57-10.826 1.527-16.032z" fill="#c7c2c6"/><path d="m350.172 350.191c-23.244 13.875-49.734 22.864-78.14 25.313v-34.88c0-7.563 5.312-14.019 12.704-15.617 12.163-2.63 23.71-6.901 34.426-12.545 7.798-4.107 17.407-1.64 21.78 6.013l11.948 20.909c2.14 3.745.986 8.597-2.718 10.807z" fill="#d8d5d8"/><path d="m161.828 350.191c23.244 13.875 49.734 22.864 78.14 25.313v-34.88c0-7.563-5.312-14.019-12.704-15.617-12.163-2.63-23.71-6.901-34.426-12.545-7.798-4.107-17.407-1.64-21.78 6.013l-11.948 20.909c-2.14 3.745-.986 8.597 2.718 10.807z" fill="#c7c2c6"/><g fill="#d8d5d8"><path d="m448.387 411.765c0-11.938-4.514-22.992-11.988-31.55l-40.401 40.401c-7.517 7.517-11.739 17.711-11.739 28.342v55.542h64.129v-92.735z"/><path d="m63.613 411.765c0-11.938 4.514-22.992 11.988-31.55l40.401 40.401c7.517 7.517 11.739 17.711 11.739 28.342v55.542h-40.08z"/><circle cx="191.871" cy="464.419" r="8.016"/></g><path d="m87.661 503.027v-91.261c0-5.288 1.755-10.27 4.989-14.503l-17.048-17.049c-7.474 8.558-11.989 19.612-11.989 31.55v92.736h24.048z" fill="#c7c2c6"/></g><g><path d="m207.903 160.323c-4.142 0-7.5 3.358-7.5 7.5v8.016c0 4.142 3.358 7.5 7.5 7.5s7.5-3.358 7.5-7.5v-8.016c0-4.142-3.358-7.5-7.5-7.5z"/><path d="m304.097 160.323c-4.142 0-7.5 3.358-7.5 7.5v8.016c0 4.142 3.358 7.5 7.5 7.5s7.5-3.358 7.5-7.5v-8.016c0-4.142-3.358-7.5-7.5-7.5z"/><path d="m415.978 358.892-51.979-15.288-16.545-28.849c-5.613-9.824-17.251-14.009-27.841-10.585v-20.53c25.013-17.396 42.617-44.741 47.019-76.253h4.458c14.618 0 27.155-10.861 28.544-24.727.778-7.771-1.764-15.53-6.974-21.288-4.426-4.891-10.46-8.002-16.934-8.834v-56.861c0-52.757-42.921-95.677-95.678-95.677h-48.097c-52.757 0-95.677 42.92-95.677 95.677v8.532h-56.629c-4.142 0-7.5 3.358-7.5 7.5s3.358 7.5 7.5 7.5h56.629v33.472c-12.549 2.006-22.667 11.979-23.906 24.35-.779 7.771 1.762 15.531 6.972 21.289 5.214 5.762 12.659 9.067 20.426 9.067h5.598c4.399 31.522 22.003 58.87 47.023 76.264v20.518c-10.591-3.425-22.228.762-27.841 10.585l-16.514 28.841-52.01 15.297c-23.498 6.912-39.909 28.845-39.909 53.338v92.27c0 4.142 3.358 7.5 7.5 7.5s7.5-3.358 7.5-7.5v-92.27c0-7.306 2.001-14.299 5.537-20.361l34.05 34.05c6.154 6.153 9.542 14.334 9.542 23.037v55.544c0 4.142 3.358 7.5 7.5 7.5s7.5-3.358 7.5-7.5v-55.543c0-12.709-4.949-24.658-13.936-33.644l-34.829-34.829c4.014-3.212 8.664-5.697 13.778-7.201l57.362-16.871c15.171 9.103 31.391 16.034 48.317 20.637 4.001 1.087 8.119-1.272 9.206-5.269s-1.272-8.119-5.269-9.206c-15.585-4.238-30.527-10.623-44.511-19.01l12.21-21.369c2.291-4.007 7.462-5.367 11.773-3.098 11.506 6.06 23.731 10.515 36.335 13.24 3.998.864 6.789 4.272 6.789 8.287v59.666c0 8.556 6.96 15.516 15.516 15.516h.516v88.694c0 4.142 3.358 7.5 7.5 7.5s7.5-3.358 7.5-7.5v-88.693h.516c8.556 0 15.516-6.96 15.516-15.516v-18.047c26.272-3.25 51.874-12.097 74.824-25.84l57.39 16.88c5.114 1.504 9.763 3.989 13.778 7.201l-34.829 34.828c-8.987 8.986-13.936 20.935-13.936 33.645v55.542c0 4.142 3.358 7.5 7.5 7.5s7.5-3.358 7.5-7.5v-55.543c0-8.703 3.389-16.884 9.542-23.038l34.05-34.05c3.535 6.062 5.537 13.055 5.537 20.361v92.27c0 4.142 3.358 7.5 7.5 7.5s7.5-3.358 7.5-7.5v-92.27c0-24.494-16.411-46.427-39.909-53.338zm-264.704-263.215c0-2.882.159-5.727.455-8.532h144.351c4.142 0 7.5-3.358 7.5-7.5s-3.358-7.5-7.5-7.5h-141.295c10.096-33.041 40.865-57.145 77.167-57.145h48.097c36.301 0 67.071 24.104 77.167 57.145h-29.07c-4.142 0-7.5 3.358-7.5 7.5s3.358 7.5 7.5 7.5h32.126c.296 2.805.455 5.65.455 8.532v8.532h-209.453zm209.452 23.532v33.097h-8.532c-4.705 0-8.532-3.828-8.532-8.532v-24.565zm-209.452 0h17.064v24.564c0 2.279-.888 4.422-2.499 6.033-1.612 1.612-3.754 2.499-6.034 2.499h-8.532v-33.096zm8.017 72.662c0-4.142-3.358-7.5-7.5-7.5s-7.5 3.358-7.5 7.5v.516h-4.524c-3.537 0-6.927-1.506-9.303-4.131-2.407-2.66-3.532-6.115-3.17-9.729.63-6.292 6.613-11.221 13.619-11.221h18.894.001c6.285 0 12.195-2.448 16.639-6.892 4.445-4.445 6.893-10.354 6.893-16.64v-24.564h145.322v24.565c0 12.976 10.557 23.532 23.532 23.532h20.041c3.537 0 6.927 1.505 9.303 4.13 2.406 2.66 3.533 6.115 3.17 9.729-.63 6.292-6.612 11.221-13.618 11.221h-3.383v-.439c0-4.141-3.356-7.499-7.497-7.5-.001 0-.002 0-.003 0-4.14 0-7.497 3.354-7.5 7.495-.039 53.286-43.421 96.638-96.706 96.638-53.327 0-96.71-43.384-96.71-96.71zm105.241 148.754v59.666c0 .285-.231.516-.516.516h-16.032c-.285 0-.516-.231-.516-.516v-59.666c0-11.141-7.656-20.577-18.619-22.948-7.324-1.583-14.503-3.832-21.462-6.693v-18.55c14.705 7.137 31.199 11.146 48.613 11.146 17.412 0 33.906-4.012 48.613-11.153v18.557c-6.959 2.861-14.138 5.109-21.462 6.693-10.963 2.37-18.619 11.807-18.619 22.948zm15 26.507v-26.508c0-4.015 2.792-7.422 6.789-8.287 12.604-2.725 24.83-7.18 36.336-13.239 1.411-.743 2.913-1.097 4.377-1.097 3.01 0 5.855 1.499 7.396 4.195l12.209 21.366c-20.618 12.345-43.555 20.399-67.107 23.57z"/><path d="m279.532 223.936c0-4.142-3.358-7.5-7.5-7.5h-32.064c-4.142 0-7.5 3.358-7.5 7.5s3.358 7.5 7.5 7.5h32.064c4.142 0 7.5-3.358 7.5-7.5z"/><path d="m215.919 136.274h-16.032c-4.142 0-7.5 3.358-7.5 7.5s3.358 7.5 7.5 7.5h16.032c4.142 0 7.5-3.358 7.5-7.5s-3.357-7.5-7.5-7.5z"/><path d="m296.081 151.274h16.032c4.142 0 7.5-3.358 7.5-7.5s-3.358-7.5-7.5-7.5h-16.032c-4.142 0-7.5 3.358-7.5 7.5s3.357 7.5 7.5 7.5z"/><path d="m191.871 424.855c-21.816 0-39.564 17.749-39.564 39.564s17.749 39.564 39.564 39.564 39.564-17.749 39.564-39.564-17.748-39.564-39.564-39.564zm0 64.129c-13.545 0-24.564-11.02-24.564-24.564s11.02-24.564 24.564-24.564 24.564 11.02 24.564 24.564-11.019 24.564-24.564 24.564z"/></g></g></svg>