<svg id="Capa_1" enable-background="new 0 0 512 512" height="512" viewBox="0 0 512 512" width="512" xmlns="http://www.w3.org/2000/svg"><g><g><path d="m293.2 316s87.9-20 104.5-94.9c16.5-74.9-49.6-96.6-49.6-96.6z" fill="#ff8857"/><path d="m399.9 141.7c-5.2-75.4-68.2-134.8-145-134.2-79.8.6-143.2 68-143.2 147.8v35.1c0 79.2 34.5 92 33.6 120.1-.9 28.7-30.5 40.9-30.5 40.9l41.2-4.2c15.3-1.5 27.2-13.9 28.2-29.2 1-16.8-4.2-38.9-19.2-67.2z" fill="#ff8857"/><path d="m223.9 47.6s-8.2-32.8-8.5-34c-60.2 18.2-103.7 75.6-103.7 141.7v35.1c0 1.9.1 3.6.1 5.4 3.2-91 112.1-148.2 112.1-148.2z" fill="#ff744d"/><path d="m316.9 353.8c-8.1-6.1-12.8-15.6-12.8-25.7v-56.1h-96.2v56.1c0 10.1-4.8 19.6-12.8 25.7l-19.2 14.4 32.1 56.1h96.2l32.1-56.1z" fill="#f9d8af"/><path d="m207.9 272v56.1c0 10.1-4.8 19.6-12.8 25.7l-19.2 14.4 12 21 2.4-1.8 19.2-14.4c10.4-7.8 17.6-19 20.7-31.4.9-3.5 2.9-6.7 5.5-9.2 3.3-3.3 7.8-5 12.5-4.6 2.6.2 5.3.3 7.9.3 16.6 0 32.7-3.3 48.1-9.6v-46.5z" fill="#f2c59a"/><path d="m408.5 388.9-80.3-28.7-48.1 8-17.4 40.6c-2.5 5.9-10.8 5.9-13.3 0l-17.4-40.6-48.1-8-80.3 28.7c-19.1 6.8-31.9 25-31.9 45.3l24 70.3h344.7v-70.3c0-20.3-12.8-38.5-31.9-45.3z" fill="#ceeaff"/><path d="m244 79.6c-19.4 17.1-92.2 46.1-92.2 112.2v8c0 57.6 46.7 104.2 104.2 104.2s104.2-46.7 104.2-104.2v-80.2z" fill="#fbe7c3"/><path d="m183.9 199.9v-8c0-57.4 54.7-86.8 81.9-104.7l-21.8-7.6c-19.4 17.1-92.2 46.1-92.2 112.2v8c0 57.6 46.7 104.2 104.2 104.2 5.5 0 10.8-.5 16-1.4-49.9-7.6-88.1-50.6-88.1-102.7z" fill="#f9d8af"/><path d="m337.4 345.5c-5.4-5.4-13.9-6.2-20.2-2l-37.2 24.7 34.3 34.3c7.2 7.2 19.1 6 24.7-2.4l17.6-26.4c2.1-3.2 1.7-7.4-1-10.1z" fill="#b0def5"/><g><path d="m318.8 89.3c-19-9.5-42.8-23.3-54.8-34.3-18.1-16.6-12.1-38-8-47.5-15.3 0-30.1 2.4-43.9 6.9-1.2 10.4-.8 22.2 3.9 33.2 25.8 61.1 176.4 80.2 176.4 152.3 0 48.1-24 64.1-24 104.2 0-24 21.4-37.7 27.1-43.8 13.4-14.5 29-34.7 29-60.4-.2-58.2-58.7-87.3-105.7-110.6z" fill="#ffa65a"/></g><g fill="#b0def5"><path d="m194.8 343.5c-6.4-4.2-14.8-3.4-20.2 2l-18.1 18.1c-1.9 1.9-2.6 4.6-2.1 7.2l18.7 29.3c5.6 8.4 17.5 9.6 24.7 2.4l34.3-34.3z"/><path d="m95.7 503v-68.8c0-10.1 6.4-19.2 16-22.7l62.7-22.4s-10.1-18.5-11.9-21.3l-58.8 21c-19.1 6.8-31.9 25-31.9 45.3v70.3h24z"/></g></g><g><path d="m207.9 176.4c-4.1 0-7.5 3.4-7.5 7.5v8c0 4.1 3.4 7.5 7.5 7.5s7.5-3.4 7.5-7.5v-8c0-4.2-3.4-7.5-7.5-7.5z"/><path d="m304.1 176.4c-4.1 0-7.5 3.4-7.5 7.5v8c0 4.1 3.4 7.5 7.5 7.5s7.5-3.4 7.5-7.5v-8c0-4.2-3.4-7.5-7.5-7.5z"/><path d="m256 255.5c11.9 0 22.9-3.8 29.3-10.2 2.9-2.9 3-7.7.1-10.6s-7.7-3-10.6-.1c-2.7 2.7-9.3 5.9-18.8 5.9s-16-3.2-18.8-5.9c-2.9-2.9-7.7-2.9-10.6.1-2.9 2.9-2.9 7.7.1 10.6 6.4 6.4 17.4 10.2 29.3 10.2z"/><path d="m199.9 166.6h16c4.1 0 7.5-3.4 7.5-7.5s-3.4-7.5-7.5-7.5h-16c-4.1 0-7.5 3.4-7.5 7.5s3.3 7.5 7.5 7.5z"/><path d="m296.1 166.6h16c4.1 0 7.5-3.4 7.5-7.5s-3.4-7.5-7.5-7.5h-16c-4.1 0-7.5 3.4-7.5 7.5s3.3 7.5 7.5 7.5z"/><circle cx="288.1" cy="432.4" r="7.5"/><circle cx="288.1" cy="472.4" r="7.5"/></g></g><path d="m410.8 381.9-43.3-15.3c-.3-1.4-1-2.7-2-3.7l-22.8-22.8c-7.9-7.9-20.4-9.1-29.7-2.9l-.2.1c-.8-2.5-1.3-5.2-1.3-7.8v-32.8c33.5-19.3 56.1-55.5 56.1-96.9v-35.8c11.6 11.5 17.1 23.1 17.1 35.9 0 23.7-6.3 39.3-12.3 54.4-5.8 14.4-11.7 29.3-11.7 49.8 0 26.8 17.5 44.6 18.2 45.4 1.5 1.5 3.4 2.2 5.3 2.2s3.8-.7 5.3-2.2c2.9-2.9 3-7.7.1-10.6-.1-.1-13.9-14.3-13.9-34.8 0-2.1.1-4.1.2-6 1.7-7.7 10.8-17.3 19.8-27.4 16.1-17.9 36.1-40.2 36.1-70.8 0-22.8-8.1-43.1-24.6-61.4-3.2-37.3-20-71.8-47.4-97.5-28.3-26.4-65.1-41-103.8-41-83.7 0-151.8 68.1-151.8 151.8v38.6c0 51.1 13.9 75.9 24.1 94 5.7 10.1 9.8 17.4 9.5 26-.7 23.4-24.8 33.8-25.8 34.2-3.8 1.6-5.7 6-4.1 9.8 1.2 2.9 4 4.6 6.9 4.6 1 0 1.9-.2 2.9-.6 1.4-.6 34.1-14.4 35.1-47.6.4-12.8-5.1-22.5-11.4-33.8-9.5-16.8-21.2-37.6-22.1-80.8 2.5-69.3 76.8-114.4 77.6-114.8 3.6-2.1 4.7-6.7 2.6-10.3s-6.7-4.7-10.3-2.6c-.9.5-21.5 12.9-42.3 35.1-11.3 12-20.4 24.6-27.3 37.5 5.2-67.1 59-120.7 126.1-125.7-2.3 11.3-2.5 29.4 13 44.9 9.8 9.8 28.9 21.8 56.8 35.7 23 11.4 49 24.4 68.8 41.2 21.9 18.6 32.5 39.1 32.5 62.7 0 23.4-15.2 41.7-29.6 57.8 6-15.1 12.5-32.4 12.5-57.8 0-44.2-48.3-69.1-95.1-93.2-35.2-18.1-71.5-36.9-81.8-61.9-1.6-3.8-6-5.7-9.8-4.1s-5.7 6-4.1 9.8c4.5 11 12.6 20.7 22.9 29.5-3.4 3.1-10.2 7.3-16.4 11.2-26.6 16.6-71.2 44.4-71.2 100.8v8c0 19.6 5.1 38 13.9 54 .1.2.2.4.3.5 20.2 38.2 23.9 68.7 10.4 86.1l-22.4 22.4c-1 1-1.7 2.3-2 3.7l-43.3 15.3c-22.2 7.8-37.1 28.9-37.1 52.4v70.2c0 4.1 3.4 7.5 7.5 7.5s7.5-3.4 7.5-7.5v-70.2c0-17.2 10.9-32.6 27.1-38.3l44.6-15.7 15.9 23.9c3.9 5.9 10.2 9.7 17.3 10.4 7 .7 14-1.8 19-6.8l26.4-26.4 19.1 44.5v78.6c0 4.1 3.4 7.5 7.5 7.5s7.5-3.4 7.5-7.5v-78.6l19.1-44.5 26.4 26.4c5 5 11.9 7.5 19 6.8 7-.7 13.3-4.5 17.3-10.4l15.9-23.9 44.6 15.7c16.2 5.7 27.1 21.1 27.1 38.3v70.2c0 4.1 3.4 7.5 7.5 7.5s7.5-3.4 7.5-7.5v-70.2c.1-23.6-14.8-44.7-37-52.5zm-88.6-299.4c-26.1-13-44.4-24.3-52.9-32.8-12.3-12.4-10.2-27.3-8.1-34.6 33 1.2 64.1 14.2 88.3 36.8 20.3 19 34.1 43.4 40 70.1-20.4-16.1-45.2-28.5-67.3-39.5zm-162.9 117.4v-8c0-48 38.6-72.1 64.2-88 9-5.6 16-10 20.4-14.7 16 11.2 35.1 21.1 54 30.8 19.3 9.9 39.2 20.2 54.9 31.5v.3 48.1c0 53.3-43.4 96.7-96.7 96.7s-96.8-43.4-96.8-96.7zm29.2 88.9c3.8 2.9 7.8 5.6 11.9 7.9v32.8c0 2.7-.4 5.3-1.3 7.8l-.2-.1c-3-2-6.4-3.2-9.8-3.7 3.5-11 4.3-25.6-.6-44.7zm3.9 108.4c-1.8 1.8-4.3 2.7-6.9 2.5-2.6-.3-4.8-1.6-6.3-3.8l-17.8-26.7 18.4-18.4c2.9-2.9 7.4-3.3 10.8-1.1l29.5 19.7zm83.6-35.3c-.4.3-.9.6-1.3 1-.7.7-1.3 1.6-1.7 2.5l-17 39.9-17.1-39.9c-.4-.9-.9-1.8-1.7-2.5-.4-.4-.8-.7-1.3-1l-24.1-16.1c2.3-5.1 3.5-10.6 3.5-16.3v-25.5c12.6 4.9 26.3 7.6 40.6 7.6s28-2.7 40.6-7.6v25.5c0 5.6 1.2 11.2 3.5 16.3zm56.8 34c-1.4 2.1-3.7 3.5-6.3 3.8s-5.1-.6-6.9-2.5l-27.8-27.8 29.5-19.7c3.4-2.2 7.9-1.8 10.8 1.1l18.4 18.4z"/></svg>