<svg id="Capa_1" enable-background="new 0 0 512 512" height="512" viewBox="0 0 512 512" width="512" xmlns="http://www.w3.org/2000/svg"><g><g><path d="m316.922 353.797c-8.074-6.056-12.826-15.559-12.826-25.652v-56.113h-96.194v56.113c0 10.093-4.752 19.596-12.826 25.652l-19.239 14.429 32.065 56.113h96.194l32.065-56.113z" fill="#f8ba7e"/><path d="m207.903 272.032v56.114c0 10.092-4.752 19.596-12.826 25.651l-19.239 14.429 12.024 21.043 2.405-1.803 19.223-14.412c10.384-7.784 17.61-18.988 20.702-31.388.879-3.524 2.907-6.655 5.475-9.223 3.28-3.28 7.832-4.967 12.458-4.617 2.651.201 5.277.318 7.873.318 16.58 0 32.722-3.301 48.097-9.564v-46.549h-96.192z" fill="#f1a673"/><path d="m408.451 388.89-80.306-28.68-48.097 8.016-17.387 40.57c-2.51 5.857-10.813 5.857-13.322 0l-17.387-40.57-48.097-8.016-80.306 28.68c-19.142 6.836-31.92 24.968-31.92 45.295l24.048 70.315h344.694v-70.315c0-20.327-12.778-38.459-31.92-45.295z" fill="#47de9e"/><path d="m337.439 345.455c-5.404-5.404-13.871-6.242-20.23-2.003l-37.161 24.774 34.269 34.268c7.154 7.154 19.064 5.974 24.676-2.444l17.571-26.357c2.12-3.179 1.7-7.413-1.002-10.115z" fill="#43bfa0"/><path d="m272.032 7.5h-56.113c-10.579 0-19.462 6.876-22.68 16.368-41.153 3.387-73.514 37.798-73.514 79.826v84.306h272.548v-60.258c.001-66.408-53.833-120.242-120.241-120.242z" fill="#c2805d"/><path d="m264.016 111.71-57.078-22.978c-9.104-3.665-15.067-12.494-15.067-22.308v-42.378c-40.492 4.035-72.145 38.092-72.145 79.647v84.306h157.814z" fill="#ab6e4d"/><path d="m392.17 185.795c-1.045-10.431-10.598-17.973-21.081-17.973h-1.562c-10.351 0-19.541-6.624-22.814-16.443l-.183-.55c-1.491-4.474-4.877-8.064-9.255-9.816l-73.257-29.303v20.354c0 5.636-5.663 9.512-10.917 7.473l-58.613-22.751-21.023 34.943c-3.379 9.64-12.479 16.094-22.695 16.094h-9.858c-10.483 0-20.036 7.542-21.081 17.973-1.202 11.996 8.186 22.108 19.936 22.108h12.429c4.106 53.795 48.957 96.194 103.805 96.194s99.699-42.398 103.805-96.194h12.429c11.749-.001 21.137-10.113 19.935-22.109z" fill="#ffce8a"/><path d="m183.855 199.887v-8.438c0-10.339 1.667-20.611 4.937-30.42l13.711-41.132-8.016-3.112c-4.224-1.64-8.967.545-10.466 4.822l-10.557 30.122c-3.379 9.641-12.48 16.094-22.695 16.094h-9.859c-10.483 0-20.035 7.542-21.079 17.973-1.201 11.996 8.186 22.108 19.936 22.108h12.429c4.106 53.795 48.957 96.194 103.805 96.194 5.483 0 10.83-.534 16.083-1.351-49.948-7.709-88.229-50.756-88.229-102.86z" fill="#f8ba7e"/><path d="m194.791 343.452c-6.359-4.24-14.826-3.401-20.23 2.003l-18.123 18.124c-1.931 1.931-2.639 4.638-2.146 7.189l-50.743 18.122c-19.142 6.836-31.92 24.968-31.92 45.295v70.315h24.048v-70.18c0-10.177 6.45-19.289 15.5-22.491l57.393-18.72 4.437 6.941c5.612 8.418 17.522 9.597 24.677 2.443l34.268-34.268z" fill="#43bfa0"/></g><g><path d="m207.903 176.355c-4.142 0-7.5 3.358-7.5 7.5v8.016c0 4.142 3.358 7.5 7.5 7.5s7.5-3.358 7.5-7.5v-8.016c0-4.142-3.358-7.5-7.5-7.5z"/><path d="m304.097 176.355c-4.142 0-7.5 3.358-7.5 7.5v8.016c0 4.142 3.358 7.5 7.5 7.5s7.5-3.358 7.5-7.5v-8.016c0-4.142-3.358-7.5-7.5-7.5z"/><path d="m285.316 245.307c2.949-2.909 2.98-7.658.071-10.606-2.91-2.949-7.659-2.98-10.606-.071-2.737 2.701-9.298 5.855-18.781 5.855s-16.043-3.154-18.781-5.855c-2.949-2.91-7.698-2.877-10.606.071-2.909 2.949-2.877 7.697.071 10.606 6.459 6.373 17.418 10.177 29.316 10.177s22.857-3.805 29.316-10.177z"/><path d="m214.316 149.975-16.032 3.507c-4.046.885-6.609 4.883-5.724 8.93.767 3.506 3.872 5.898 7.319 5.898.531 0 1.07-.057 1.61-.175l16.032-3.507c4.046-.885 6.609-4.883 5.724-8.93-.884-4.046-4.878-6.609-8.929-5.723z"/><path d="m294.478 164.628 16.032 3.507c.541.118 1.079.175 1.61.175 3.448 0 6.552-2.392 7.319-5.898.885-4.046-1.677-8.044-5.724-8.93l-16.032-3.507c-4.048-.885-8.044 1.677-8.93 5.724-.884 4.046 1.678 8.044 5.725 8.929z"/><path d="m143.258 247.984v-8.016c0-4.142-3.358-7.5-7.5-7.5s-7.5 3.358-7.5 7.5v8.016c0 4.142 3.358 7.5 7.5 7.5s7.5-3.358 7.5-7.5z"/><path d="m368.742 239.968v8.016c0 4.142 3.358 7.5 7.5 7.5s7.5-3.358 7.5-7.5v-8.016c0-4.142-3.358-7.5-7.5-7.5s-7.5 3.358-7.5 7.5z"/><path d="m410.778 381.893-43.265-15.27c-.298-1.363-.956-2.656-2-3.7l-22.771-22.771c-7.904-7.905-20.392-9.142-29.693-2.94l-.165.11c-.841-2.513-1.288-5.162-1.288-7.814v-32.734c7.302-4.205 14.166-9.258 20.448-15.114 18.878-17.6 30.968-40.915 34.493-66.255h4.554c14.617 0 27.249-10.861 28.637-24.727.025-.249.028-.498.046-.747v-62.188c0-70.438-57.304-127.743-127.742-127.743h-56.113c-11.792 0-22.438 6.616-27.822 16.884-20.12 2.708-38.638 12.3-52.548 27.308-15.041 16.229-23.324 37.36-23.324 59.501v86.236c.018.249.035.498.059.747 1.388 13.865 14.006 24.727 28.624 24.727h4.554c3.525 25.34 15.615 48.656 34.493 66.255 6.282 5.856 13.146 10.909 20.448 15.114v32.734c0 2.68-.449 5.31-1.289 7.813l-.163-.109c-9.3-6.2-21.789-4.964-29.693 2.94l-22.771 22.771c-1.044 1.044-1.702 2.337-2 3.7l-43.265 15.27c-22.187 7.83-37.093 28.899-37.093 52.427v70.182c0 4.142 3.358 7.5 7.5 7.5s7.5-3.358 7.5-7.5v-70.181c0-17.18 10.885-32.564 27.085-38.282l44.607-15.744 15.945 23.918c3.926 5.889 10.218 9.667 17.262 10.364 7.041.698 13.953-1.773 18.958-6.778l26.436-26.435 19.078 44.516v78.622c0 4.142 3.358 7.5 7.5 7.5s7.5-3.358 7.5-7.5v-78.622l19.078-44.516 26.436 26.435c5.004 5.005 11.911 7.476 18.958 6.778 7.044-.697 13.335-4.475 17.262-10.364l15.945-23.918 44.607 15.744c16.201 5.718 27.085 21.102 27.085 38.282v70.181c0 4.142 3.358 7.5 7.5 7.5s7.5-3.358 7.5-7.5v-70.181c0-23.527-14.907-44.596-37.093-52.426zm-220.594-111.205c-17.825-16.619-28.661-39.118-30.511-63.355-.298-3.909-3.557-6.929-7.478-6.929h-11.287c-7.006 0-12.987-4.929-13.616-11.221-.362-3.614.764-7.07 3.171-9.729 2.375-2.625 5.766-4.13 9.302-4.13h10.711.003c13.605 0 25.638-8.669 29.939-21.572l2.535-7.605c1.31-3.93-.814-8.177-4.744-9.487-3.929-1.31-8.177.814-9.487 4.744l-2.535 7.605c-2.256 6.769-8.569 11.315-15.71 11.315h-.001-10.711c-4.399 0-8.695 1.062-12.541 3.029v-59.658c0-18.349 6.863-35.859 19.325-49.305 12.392-13.371 29.191-21.555 47.304-23.046 2.979-.245 5.528-2.236 6.488-5.066 2.288-6.747 8.548-11.278 15.578-11.278h56.113c58.385 0 106.543 44.611 112.186 101.536l-173.582-67.924c-3.855-1.509-8.208.394-9.717 4.251s.394 8.208 4.251 9.717l179.604 70.28v30.491c-3.846-1.967-8.141-3.029-12.541-3.029h-3.981c-4.424 0-8.586-1.722-11.719-4.85-3.132-3.127-4.856-7.281-4.856-11.698 0-3.067-1.867-5.825-4.714-6.963l-80.161-32.065c-2.311-.925-4.929-.642-6.99.753s-3.295 3.722-3.295 6.21v21.145l-94.017-36.161c-3.866-1.489-8.205.441-9.692 4.308-1.487 3.866.441 8.206 4.308 9.692l104.209 40.081c2.308.888 4.901.582 6.938-.818 2.037-1.398 3.254-3.711 3.254-6.182v-20.987l65.594 26.238c1.073 6.432 4.114 12.358 8.825 17.062 5.966 5.956 13.892 9.236 22.318 9.235h3.98c3.537 0 6.927 1.505 9.303 4.13 2.407 2.66 3.533 6.115 3.171 9.729-.629 6.292-6.61 11.221-13.616 11.221h-11.287c-3.921 0-7.18 3.02-7.478 6.929-1.85 24.237-12.686 46.736-30.511 63.355-17.921 16.707-41.295 25.909-65.816 25.909s-47.895-9.2-65.816-25.907zm2.196 126.503c-1.815 1.815-4.318 2.708-6.874 2.458-2.554-.253-4.835-1.623-6.259-3.758l-17.806-26.709 18.423-18.423c2.867-2.866 7.395-3.313 10.766-1.066l29.549 19.699zm83.637-35.292c-.426.272-.831.591-1.206.958-.001.001-.002.002-.003.003s-.003.003-.005.005c-.036.035-.071.071-.107.106 0 .001-.001.001-.002.002-.002.002-.004.003-.005.005-.71.726-1.243 1.559-1.6 2.446l-17.089 39.875-17.088-39.873c-.356-.888-.89-1.721-1.6-2.446-.001-.002-.003-.003-.005-.005 0-.001-.001-.001-.002-.002-.036-.036-.071-.071-.107-.106-.002-.002-.004-.004-.005-.005s-.002-.002-.003-.003c-.375-.367-.78-.686-1.206-.958l-24.113-16.075c2.315-5.104 3.533-10.646 3.533-16.317v-25.532c12.801 4.999 26.535 7.621 40.597 7.621s27.796-2.622 40.597-7.621v25.532c0 5.607 1.228 11.211 3.536 16.315zm56.736 33.991c-1.424 2.136-3.705 3.505-6.259 3.758-2.556.251-5.06-.644-6.874-2.458l-27.799-27.8 29.549-19.699c3.372-2.248 7.899-1.799 10.766 1.066l18.423 18.423z"/><circle cx="288.07" cy="432.35" r="7.5"/><circle cx="288.07" cy="472.44" r="7.5"/></g></g></svg>