<svg id="Capa_1" enable-background="new 0 0 512 512" height="512" viewBox="0 0 512 512" width="512" xmlns="http://www.w3.org/2000/svg"><g><g><path d="m304.097 337.523v-57.475h-96.194v57.475c0 13.595-8.573 25.712-21.393 30.237l-82.792 29.221c-19.23 6.787-32.089 24.963-32.089 45.355l64.129 62.164h304.613v-62.164c0-20.392-12.86-38.568-32.089-45.355l-82.792-29.221c-12.82-4.525-21.393-16.642-21.393-30.237z" fill="#c8adef"/><path d="m166.249 374.911-62.531 22.07c-19.229 6.787-32.089 24.962-32.089 45.354l24.048.001c0-10.177 6.45-19.293 16.04-22.678l80.153-27.383z" fill="#ba91d9"/><path d="m407.831 296.27-13.138-160.938c-5.896-72.222-66.23-127.832-138.693-127.832s-132.797 55.61-138.694 127.832l-13.137 160.938c-4.573 56.026 39.662 104.02 95.875 104.02h111.913c56.212 0 100.448-47.994 95.874-104.02z" fill="#dcbaed"/><path d="m223.935 337.523v-326.148c-57.462 13.593-101.631 62.735-106.629 123.957l-13.137 160.938c-3.511 43.021 21.804 81.213 59.174 96.669l28.497-10.058c19.202-6.776 32.095-25.004 32.095-45.358z" fill="#c8adef"/><path d="m256 87.661c-57.554 0-104.21 46.656-104.21 104.21v128.258c0 26.563 21.534 48.097 48.097 48.097h112.226c26.563 0 48.097-21.534 48.097-48.097v-128.258c0-57.554-46.657-104.21-104.21-104.21z" fill="#61444f"/><path d="m199.887 368.226h112.226c3.897 0 7.666-.514 11.295-1.389-11.628-5.06-19.311-16.487-19.311-29.313v-57.475h-96.194v57.475c0 12.826-7.683 24.253-19.311 29.313 3.629.875 7.398 1.389 11.295 1.389z" fill="#e0916d"/><path d="m188.592 366.837c3.629.875 7.398 1.389 11.295 1.389h22.538c3.963-5.974 6.814-12.582 8.315-19.493.64-2.948 1.878-5.73 3.932-7.94 3.337-3.591 8.15-5.258 13.041-4.917 19.437 1.355 38.497-1.905 56.385-9.184v-46.643h-96.194v57.475c-.001 12.825-7.684 24.252-19.312 29.313z" fill="#c7805d"/><path d="m256 312.113c-57.554 0-104.21-46.656-104.21-104.21v-16.032c0-57.553 46.656-104.21 104.21-104.21 57.553 0 104.21 46.656 104.21 104.21v16.032c0 57.554-46.657 104.21-104.21 104.21z" fill="#f1a673"/><path d="m256 312.113c5.467 0 10.793-.547 16.032-1.359-49.921-7.729-88.177-50.764-88.177-102.851v-32.065c0-25.231 11.879-48.99 32.064-64.129l-10.761-10.761c-31.827 17.836-53.368 51.843-53.368 90.922v16.032c0 57.554 46.657 104.211 104.21 104.211z" fill="#e0916d"/><path d="m239.021 89.164c-18.838 3.094-35.988 11.15-49.987 22.91 23.302 21.582 52.618 38.829 52.618 38.829l14.348-31.177z" fill="#61444f"/><path d="m360.024 188.204c-1.948-55.841-47.709-100.543-104.024-100.543-10.55 0-20.721 1.598-30.319 4.513 19.209 23.073 66.133 72.093 134.343 96.03z" fill="#6b4f5a"/><path d="m433.05 417.079c4.609 7.438 7.321 16.088 7.321 25.256v62.165h-64.129v-25.062c0-9.516 4.227-18.541 11.537-24.633z" fill="#dcbaed"/><path d="m78.95 417.079c-4.609 7.438-7.321 16.088-7.321 25.256v62.165h64.129v-25.062c0-9.516-4.227-18.541-11.537-24.633z" fill="#ba91d9"/></g><g><path d="m207.903 184.371c-4.142 0-7.5 3.357-7.5 7.5v8.016c0 4.143 3.358 7.5 7.5 7.5s7.5-3.357 7.5-7.5v-8.016c0-4.142-3.358-7.5-7.5-7.5z"/><path d="m304.097 207.387c4.142 0 7.5-3.357 7.5-7.5v-8.016c0-4.143-3.358-7.5-7.5-7.5s-7.5 3.357-7.5 7.5v8.016c0 4.142 3.358 7.5 7.5 7.5z"/><path d="m256 263.5c11.897 0 22.857-3.805 29.316-10.177 2.948-2.909 2.98-7.658.071-10.606s-7.658-2.981-10.606-.071c-2.737 2.701-9.299 5.855-18.781 5.855s-16.043-3.154-18.781-5.855c-2.949-2.91-7.698-2.876-10.606.071-2.909 2.949-2.877 7.697.071 10.606 6.459 6.372 17.419 10.177 29.316 10.177z"/><path d="m410.778 389.908-28.151-9.936c1.924-1.79 3.786-3.656 5.577-5.6 19.574-21.237 29.453-49.927 27.103-78.713l-13.138-160.938c-3.005-36.813-19.617-70.873-46.776-95.905-27.159-25.03-62.457-38.816-99.393-38.816s-72.234 13.786-99.393 38.818-43.771 59.092-46.776 95.905l-13.137 160.937c-2.35 28.786 7.528 57.476 27.103 78.713 1.792 1.943 3.653 3.81 5.577 5.599l-28.151 9.936c-22.187 7.831-37.093 28.9-37.093 52.428v62.164c0 4.142 3.358 7.5 7.5 7.5s7.5-3.358 7.5-7.5v-62.164c0-4.993.925-9.831 2.626-14.327l37.925 32.507c5.452 4.672 8.578 11.47 8.578 18.65v25.334c0 4.142 3.358 7.5 7.5 7.5s7.5-3.358 7.5-7.5v-25.333c0-11.564-5.036-22.514-13.816-30.04l-39.755-34.076c4.423-4.875 10.048-8.712 16.527-10.999l37.193-13.127c14.595 9.502 31.463 15.267 48.979 16.574v97c0 4.142 3.358 7.5 7.5 7.5s7.5-3.358 7.5-7.5v-96.71h56.629c4.142 0 7.5-3.357 7.5-7.5 0-4.142-3.358-7.5-7.5-7.5h-63.973c-25.067 0-48.229-10.151-65.217-28.583s-25.222-42.343-23.182-67.327l13.138-160.938c2.698-33.047 17.61-63.624 41.992-86.095 24.38-22.47 56.068-34.846 89.226-34.846s64.846 12.376 89.227 34.848 39.294 53.048 41.992 86.095l13.138 160.938c2.04 24.984-6.193 48.895-23.182 67.327s-40.15 28.583-65.217 28.583h-15.876c-4.142 0-7.5 3.358-7.5 7.5 0 4.143 3.358 7.5 7.5 7.5h8.532v96.71c0 4.142 3.358 7.5 7.5 7.5s7.5-3.358 7.5-7.5v-97c17.516-1.307 34.384-7.072 48.979-16.574l37.193 13.127c6.479 2.287 12.105 6.123 16.527 10.999l-39.755 34.075c-8.781 7.526-13.816 18.476-13.816 30.04v25.332c0 4.142 3.358 7.5 7.5 7.5s7.5-3.358 7.5-7.5v-25.333c0-7.18 3.126-13.978 8.578-18.651l37.925-32.507c1.702 4.496 2.626 9.334 2.626 14.327v62.164c0 4.142 3.358 7.5 7.5 7.5s7.5-3.358 7.5-7.5v-62.164c0-23.528-14.907-44.597-37.093-52.428z"/><path d="m199.887 174.626h16.032c4.142 0 7.5-3.358 7.5-7.5 0-4.143-3.358-7.5-7.5-7.5h-16.032c-4.142 0-7.5 3.357-7.5 7.5 0 4.142 3.358 7.5 7.5 7.5z"/><path d="m367.709 320.129v-128.258c0-61.597-50.113-111.71-111.709-111.71s-111.709 50.113-111.709 111.71v128.258c0 30.656 24.94 55.597 55.597 55.597h112.226c30.655 0 55.595-24.941 55.595-55.597zm-152.306-8.154c12.589 4.928 26.282 7.638 40.597 7.638s28.007-2.709 40.597-7.638v25.548c0 8.497 2.727 16.57 7.531 23.202h-96.256c4.804-6.632 7.531-14.705 7.531-23.202zm137.306 8.154c0 18.212-12.055 33.66-28.603 38.787-7.723-4.347-12.51-12.5-12.51-21.393v-32.753c17.036-9.816 31.251-23.998 41.113-41.004zm-193.418-128.258c0-27.362 11.425-52.104 29.751-69.713 16.27 18.253 47.712 34.656 49.163 35.407 1.102.57 2.28.84 3.44.84 2.713 0 5.332-1.477 6.666-4.053 1.904-3.678.467-8.203-3.21-10.108-.327-.169-30.171-15.747-44.478-31.612 15.697-11.003 34.795-17.471 55.377-17.471 48.214 0 88.297 35.466 95.539 81.679-57.74-23.055-94.789-60.924-95.343-61.496-2.871-2.984-7.619-3.077-10.604-.205s-3.076 7.62-.205 10.604c1.722 1.79 42.476 43.637 107.322 67.613v14.546c0 53.326-43.384 96.709-96.709 96.709s-96.709-43.384-96.709-96.709zm0 128.258v-56.364c9.862 17.006 24.077 31.188 41.113 41.004v32.754c0 8.892-4.787 17.046-12.51 21.393-16.549-5.127-28.603-20.575-28.603-38.787z"/></g></g></svg>