<svg id="Capa_1" enable-background="new 0 0 512 512" height="512" viewBox="0 0 512 512" width="512" xmlns="http://www.w3.org/2000/svg"><g><g><path d="m413.862 374.104-84.486-24.849c-10.235-3.01-17.263-12.403-17.263-23.071v-38.119h-112.226v38.119c0 10.668-7.028 20.061-17.263 23.071l-84.486 24.849c-20.469 6.02-34.526 24.806-34.526 46.142v60.206h384.774v-60.206c.001-21.336-14.055-40.122-34.524-46.142z" fill="#f9d8af"/><path d="m413.862 374.103-78.253-23.016-79.609 33.171-79.609-33.17-78.253 23.016c-20.469 6.02-34.526 24.806-34.526 46.142l24.049 84.254h360.726v-84.254c0-21.336-14.056-40.122-34.525-46.143z" fill="#d8d5d8"/><path d="m360.568 358.429-31.192-9.174c-1.87-.55-3.587-1.376-5.219-2.321-19.389 13.397-42.856 21.292-68.157 21.292s-48.768-7.895-68.157-21.292c-1.632.945-89.705 27.169-89.705 27.169-20.47 6.02-34.526 24.806-34.526 46.142v84.255h24.048v-84.255c0-10.592 7.096-20.077 17.257-23.066l62.696-18.443 6.444-1.896-.111-.996c23.7 15.345 51.771 24.447 82.052 24.447 40.499-.001 77.259-15.992 104.57-41.862z" fill="#c7c2c6"/><path d="m371.091 167.823h-2.865l-16.032-88.177h-192.388l-7.611 128.258c4.106 53.795 48.957 96.194 103.805 96.194s99.699-42.398 103.805-96.194h11.286c11.068 0 20.04-8.973 20.04-20.04 0-11.069-8.972-20.041-20.04-20.041z" fill="#fbe7c3"/><path d="m352.194 79.645h-192.388l-5.233 88.177h-14.807c-11.068 0-20.04 8.972-20.04 20.04s8.972 20.04 20.04 20.04h12.429c4.106 53.795 48.958 96.194 103.805 96.194 12.594 0 24.616-2.326 35.783-6.422l-18.478-2.851c-47.186-7.282-81.434-47.209-81.434-94.937v-80.161c0-4.42 3.596-8.016 8.016-8.016h61.818c7.922 5.253 16.979 8.016 26.36 8.016 5.892 0 11.712-1.14 17.358-3.393 11.603 7.478 24.906 11.409 38.755 11.409 5.372 0 10.88-.742 16.39-2.037z" fill="#f9d8af"/><path d="m374.359 80.948-30.182-73.448h-145.574c-37.94 0-67.586 32.758-63.811 70.51l8.981 89.813h8.015c8.854 0 16.032-7.178 16.032-16.032v-35.405c0-17.709 14.356-32.064 32.065-32.064h144.291l-.001 67.469c0 8.855 7.178 16.033 16.033 16.033h8.017l6.671-86.716z" fill="#ffa65a"/><path d="m231.952 7.5h-33.348c-37.94 0-67.586 32.758-63.811 70.51l8.981 89.813h8.015c8.854 0 16.032-7.178 16.032-16.032l.001-40.081v-40.081c.001-35.417 28.712-64.129 64.13-64.129z" fill="#ff8857"/><g fill="#ffa65a"><circle cx="344.177" cy="55.597" r="48.097"/><circle cx="288.065" cy="71.629" r="24.048"/><path d="m320.129 215.919h-128.258c-13.282 0-24.048 10.767-24.048 24.048v8.016c0 48.699 39.478 88.177 88.177 88.177 48.699 0 88.177-39.478 88.177-88.177v-8.016c0-13.281-10.767-24.048-24.048-24.048z"/></g><path d="m199.887 247.984v-32.065h-8.016c-13.282 0-24.048 10.767-24.048 24.048v8.016c0 48.699 39.478 88.177 88.177 88.177 5.483 0 10.826-.569 16.032-1.526-41.033-7.548-72.145-43.434-72.145-86.65z" fill="#ff8857"/><path d="m187.843 346.934c-1.632.945-3.349 1.771-5.219 2.321l-31.192 9.174c4.692 4.444 14.96 12.998 20.181 16.828l20.743-6.102c5.947-1.749 11.179-4.902 15.547-8.945-5.168-2.574-15.342-10.016-20.06-13.276z" fill="#b5afb5"/></g><g><path d="m207.903 168.339c-4.142 0-7.5 3.357-7.5 7.5v8.016c0 4.143 3.358 7.5 7.5 7.5s7.5-3.357 7.5-7.5v-8.016c0-4.143-3.358-7.5-7.5-7.5z"/><path d="m304.097 168.339c-4.142 0-7.5 3.357-7.5 7.5v8.016c0 4.143 3.358 7.5 7.5 7.5s7.5-3.357 7.5-7.5v-8.016c0-4.143-3.358-7.5-7.5-7.5z"/><path d="m415.978 366.908-84.486-24.849c-6.994-2.057-11.879-8.586-11.879-15.876v-6.799c17.198-15.339 28.837-36.779 31.484-60.888 8.134-13.173 13.401-27.831 15.529-43.093h4.465c14.617 0 27.154-10.861 28.542-24.727.778-7.771-1.764-15.531-6.975-21.288-4.294-4.746-10.103-7.819-16.358-8.757l4.943-64.255c10.974-10.163 17.86-24.679 17.86-40.78.001-30.656-24.94-55.596-55.596-55.596h-144.903c-20.199 0-39.556 8.589-53.109 23.565-13.553 14.977-20.174 35.093-18.164 55.191l8.206 82.062c-12.208 2.271-21.954 12.101-23.169 24.23-.779 7.771 1.763 15.531 6.973 21.289 5.213 5.762 12.658 9.066 20.425 9.066h5.604c2.127 15.265 7.395 29.913 15.532 43.091 2.647 24.11 14.287 45.551 31.485 60.89v6.799c0 7.29-4.885 13.819-11.879 15.876l-84.486 24.849c-23.498 6.911-39.909 28.845-39.909 53.338v84.254c0 4.142 3.358 7.5 7.5 7.5s7.5-3.358 7.5-7.5v-84.254c0-17.885 11.983-33.901 29.142-38.947l48.979-14.406c29.375 26.402 67.138 40.897 106.766 40.897 39.599 0 77.386-14.505 106.759-40.899l48.987 14.408c17.158 5.046 29.142 21.062 29.142 38.947v84.254c0 4.142 3.358 7.5 7.5 7.5s7.5-3.358 7.5-7.5v-84.254c-.001-24.493-16.412-46.427-39.91-53.338zm-54.698-206.586h-1.071c-4.705 0-8.532-3.827-8.532-8.532v-41.202c4.802-.71 9.406-2.037 13.729-3.896zm-221.514 40.081c-3.537 0-6.927-1.506-9.303-4.131-2.407-2.66-3.533-6.115-3.17-9.729.63-6.292 6.611-11.221 13.617-11.221h10.88c12.976 0 23.532-10.556 23.532-23.532v-35.07c0-13.545 11.02-24.564 24.564-24.564h31.394c4.142 0 7.5-3.358 7.5-7.5s-3.358-7.5-7.5-7.5h-31.394c-21.816 0-39.564 17.749-39.564 39.564v35.07c0 4.705-3.828 8.532-8.532 8.532h-1.229l-8.306-83.059c-1.589-15.889 3.645-31.793 14.36-43.633 10.716-11.839 26.02-18.63 41.989-18.63h144.903c22.385 0 40.597 18.212 40.597 40.597s-18.212 40.597-40.597 40.597c-14.574 0-28.108-7.88-35.32-20.566-2.048-3.601-6.626-4.86-10.227-2.813s-4.86 6.626-2.813 10.227c.452.795.928 1.571 1.415 2.337-2.697 1.795-5.882 2.799-9.168 2.799-9.125 0-16.548-7.424-16.548-16.549 0-4.142-3.358-7.5-7.5-7.5s-7.5 3.358-7.5 7.5c0 17.396 14.152 31.549 31.548 31.549 6.846 0 13.479-2.255 18.896-6.302 8.413 7.568 19.016 12.474 30.387 13.888v41.026c0 12.976 10.557 23.532 23.532 23.532h12.024c3.537 0 6.927 1.506 9.303 4.131 2.407 2.659 3.533 6.115 3.171 9.729-.63 6.292-6.611 11.221-13.617 11.221h-3.393c.001-.145.008-.289.008-.434.003-4.142-3.353-7.502-7.495-7.505-.002 0-.003 0-.005 0-4.14 0-7.497 3.354-7.5 7.495-.007 9.205-1.315 18.285-3.848 26.996-4.966-10.92-15.971-18.536-28.728-18.536h-128.258c-12.761 0-23.769 7.62-28.732 18.545-2.541-8.734-3.848-17.84-3.848-27.078 0-4.142-3.358-7.5-7.5-7.5s-7.5 3.358-7.5 7.5c0 .172.008.344.009.516h-4.534zm35.556 47.581v-8.016c0-9.125 7.423-16.548 16.548-16.548h128.258c9.125 0 16.548 7.423 16.548 16.548v8.016c0 44.486-36.192 80.677-80.678 80.677-44.484 0-80.676-36.191-80.676-80.677zm80.678 144.806c-32.734 0-64.06-10.921-89.507-30.973l18.248-5.367c.837-.247 1.658-.527 2.462-.838 20.54 13.158 44.251 20.114 68.797 20.114 5.691 0 11.418-.378 17.023-1.125 4.106-.547 6.991-4.319 6.444-8.425-.547-4.105-4.321-6.989-8.425-6.444-4.951.66-10.012.994-15.042.994-19.699 0-38.79-5.063-55.714-14.707 3.64-4.493 6.051-9.955 6.816-15.828 14.319 8.55 31.044 13.471 48.898 13.471s34.579-4.921 48.898-13.471c.764 5.871 3.174 11.332 6.812 15.823-3.448 1.964-6.995 3.752-10.616 5.334-3.796 1.658-5.529 6.08-3.87 9.875 1.231 2.819 3.985 4.5 6.876 4.5 1.002 0 2.021-.203 2.999-.629 6.124-2.675 12.064-5.859 17.712-9.476.8.31 1.616.587 2.448.833l18.244 5.366c-25.448 20.047-56.792 30.973-89.503 30.973z"/><path d="m199.887 159.29h16.032c4.142 0 7.5-3.357 7.5-7.5 0-4.142-3.358-7.5-7.5-7.5h-16.032c-4.142 0-7.5 3.358-7.5 7.5 0 4.143 3.358 7.5 7.5 7.5z"/><path d="m296.081 159.29h16.032c4.142 0 7.5-3.357 7.5-7.5 0-4.142-3.358-7.5-7.5-7.5h-16.032c-4.142 0-7.5 3.358-7.5 7.5 0 4.143 3.357 7.5 7.5 7.5z"/><path d="m256 263.5c11.897 0 22.857-3.805 29.316-10.177 2.948-2.909 2.98-7.658.071-10.606-2.909-2.949-7.658-2.981-10.606-.071-2.737 2.701-9.299 5.855-18.781 5.855s-16.043-3.154-18.781-5.855c-2.949-2.91-7.698-2.876-10.606.071-2.909 2.949-2.877 7.697.071 10.606 6.459 6.372 17.419 10.177 29.316 10.177z"/></g></g></svg>