<svg id="Capa_1" enable-background="new 0 0 512 512" height="512" viewBox="0 0 512 512" width="512" xmlns="http://www.w3.org/2000/svg"><g><g><path d="m135.758 264.016c-9.832 24.581-31.725 43.132-47.187 53.804-5.986 4.131-13.91-1.262-12.32-8.359 4.736-21.133 11.41-57.337 11.41-93.542v-96.194c0-61.98 50.245-112.225 112.226-112.225h80.161c17.709 0 32.065 14.356 32.065 32.065v80.161z" fill="#ffbf45"/><path d="m312.113 39.565h-112.226c-44.272 0-80.161 35.889-80.161 80.161v88.177c0 64.129 24.048 88.177 24.048 112.226 0 10.365-2.978 19.241-6.367 25.986-2.934 5.838 1.649 12.587 8.126 11.723l222.693-29.692s24.048-40.081 24.048-88.177v-120.243c0-44.272-35.889-80.161-80.161-80.161z" fill="#ffcd5c"/><path d="m143.774 320.129c0 23.943-15.892 39.94-16.031 40.08l184.37-24.583v-223.916c0-22.136-17.945-40.081-40.081-40.081h-80.161c-39.845 0-72.145 32.3-72.145 72.145v64.129c0 64.129 24.048 88.178 24.048 112.226z" fill="#ffa65a"/><path d="m415.979 413.963-79.818-33.952h-160.322l-79.818 33.952c-14.79 6.291-24.392 20.81-24.392 36.882l24.048 53.655h344.694v-53.654c0-16.073-9.602-30.592-24.392-36.883z" fill="#c7c2c6"/><path d="m105.31 436.147 84.696-35.182c6.002-2.494 9.881-8.305 9.881-14.806v-6.149h-24.048l-79.818 33.952c-14.79 6.291-24.392 20.809-24.392 36.882v53.656h24.048v-53.655c0-6.441 3.781-12.211 9.633-14.698z" fill="#b5afb5"/><path d="m175.839 320.129v59.882c23.835 12.932 51.139 20.28 80.161 20.28s56.327-7.348 80.161-20.28v-59.882c0-8.854-7.178-16.032-16.032-16.032h-128.258c-8.854 0-16.032 7.178-16.032 16.032z" fill="#d8d5d8"/><path d="m207.903 304.097h-16.032c-8.854 0-16.032 7.178-16.032 16.032v59.882c10.099 5.48 20.852 9.886 32.065 13.226v-89.14z" fill="#c7c2c6"/><path d="m328.145 111.71h-144.29c-17.709 0-32.065 14.356-32.065 32.065v80.161c0 57.553 46.656 104.21 104.21 104.21s104.21-46.656 104.21-104.21v-80.161c0-17.71-14.356-32.065-32.065-32.065z" fill="#fbe7c3"/><g fill="#f9d8af"><path d="m207.903 135.758h147.86 3.313c-3.576-13.806-16.007-24.048-30.931-24.048h-144.29c-17.709 0-32.065 14.356-32.065 32.065v77.467c0 48.562 32.247 92.258 79.402 103.861 21.532 5.298 41.973 3.339 60.2-3.254l-18.34-2.939c-46.282-7.418-81.182-49.513-81.182-97.917v-69.203c.001-8.854 7.179-16.032 16.033-16.032z"/><circle cx="207.903" cy="207.903" r="32.065"/><circle cx="304.097" cy="207.903" r="32.065"/></g></g><g><path d="m207.903 215.403c4.142 0 7.5-3.358 7.5-7.5v-8.016c0-4.142-3.358-7.5-7.5-7.5s-7.5 3.358-7.5 7.5v8.016c0 4.142 3.358 7.5 7.5 7.5z"/><path d="m256 279.532c11.898 0 22.857-3.805 29.316-10.177 2.949-2.909 2.98-7.658.071-10.606-2.91-2.949-7.659-2.98-10.606-.071-2.737 2.701-9.298 5.855-18.781 5.855s-16.043-3.154-18.781-5.855c-2.949-2.91-7.698-2.877-10.606.071-2.909 2.948-2.877 7.697.071 10.606 6.459 6.373 17.418 10.177 29.316 10.177z"/><path d="m418.915 407.062-75.253-32.01v-54.922c0-6.962-3.148-13.4-8.182-17.778 19.916-20.184 32.23-47.887 32.23-78.415v-80.161c0-21.816-17.749-39.565-39.564-39.565h-9.129c-3.608-22.685-23.3-40.081-46.984-40.081-4.142 0-7.5 3.358-7.5 7.5s3.358 7.5 7.5 7.5c15.383 0 28.302 10.721 31.699 25.081h-119.877c-21.816 0-39.564 17.749-39.564 39.565v80.161c0 30.514 12.303 58.206 32.203 78.387-5.031 4.358-8.155 10.785-8.155 17.806v54.922l-75.253 32.01c-17.59 7.482-28.957 24.668-28.957 43.784v53.654c0 4.142 3.358 7.5 7.5 7.5s7.5-3.358 7.5-7.5v-53.654c0-13.089 7.783-24.857 19.828-29.981l76.555-32.564c24.742 12.75 52.484 19.49 80.489 19.49s55.746-6.74 80.489-19.49l76.555 32.564c12.045 5.124 19.828 16.892 19.828 29.981v53.654c0 4.142 3.358 7.5 7.5 7.5s7.5-3.358 7.5-7.5v-53.654c-.002-19.116-11.368-36.302-28.958-43.784zm-122.318-79.055v59.569c-5.617 1.46-11.312 2.633-17.064 3.483v-57.917c5.87-1.263 11.573-2.985 17.064-5.135zm15-7.205c4.318-2.488 8.45-5.262 12.381-8.285 2.802 1.429 4.684 4.365 4.684 7.613v55.347c-5.538 2.806-11.239 5.281-17.064 7.421v-62.096zm-127.742-201.593h144.29c13.545 0 24.564 11.02 24.564 24.565v24.564h-48.613c-14.839 0-27.789 8.216-34.559 20.334-3.832-2.706-8.5-4.302-13.537-4.302s-9.706 1.596-13.537 4.302c-6.77-12.118-19.72-20.334-34.559-20.334h-48.613v-24.564c0-13.545 11.019-24.565 24.564-24.565zm144.806 88.694c0 13.545-11.02 24.564-24.564 24.564s-24.564-11.02-24.564-24.564 11.02-24.564 24.564-24.564 24.564 11.019 24.564 24.564zm-120.758-24.564c13.545 0 24.564 11.02 24.564 24.564s-11.02 24.564-24.564 24.564-24.564-11.02-24.564-24.564 11.019-24.564 24.564-24.564zm-48.612 0h17.632c-5.366 6.754-8.584 15.288-8.584 24.564 0 21.816 17.749 39.564 39.564 39.564s39.564-17.749 39.564-39.564c0-4.705 3.828-8.532 8.532-8.532s8.532 3.828 8.532 8.532c0 21.816 17.749 39.564 39.564 39.564s39.564-17.749 39.564-39.564c0-9.276-3.218-17.811-8.584-24.564h17.632v40.597c0 53.326-43.384 96.709-96.709 96.709s-96.709-43.384-96.709-96.709v-40.597zm24.048 136.79c0-3.276 1.874-6.193 4.681-7.615 3.932 3.025 8.065 5.799 12.384 8.288v62.095c-5.825-2.14-11.526-4.615-17.064-7.421v-55.347zm32.064 7.878c5.491 2.149 11.193 3.872 17.064 5.135v57.917c-5.752-.85-11.448-2.022-17.064-3.483zm32.065 64.545v-57.231c2.817.214 5.662.323 8.532.323s5.716-.109 8.532-.323v57.231c-2.839.151-5.684.238-8.532.238s-5.693-.086-8.532-.238z"/><path d="m304.097 215.403c4.142 0 7.5-3.358 7.5-7.5v-8.016c0-4.142-3.358-7.5-7.5-7.5s-7.5 3.358-7.5 7.5v8.016c0 4.142 3.358 7.5 7.5 7.5z"/><path d="m71.631 335.645c.938 0 1.882-.176 2.784-.537 1.544-.617 33.732-13.813 53.087-45.849.506 1.345 1.004 2.658 1.489 3.936 4.069 10.714 7.283 19.176 7.283 26.933 0 20.395-13.61 34.545-13.855 34.796-2.91 2.93-2.904 7.665.019 10.587 1.464 1.465 3.383 2.197 5.303 2.197 1.919 0 3.839-.732 5.303-2.197.744-.744 18.229-18.538 18.229-45.384 0-10.51-3.828-20.589-8.26-32.259-7.034-18.52-15.789-41.57-15.789-79.966v-64.129c0-35.646 29-64.645 64.646-64.645h48.097c4.142 0 7.5-3.358 7.5-7.5s-3.358-7.5-7.5-7.5h-48.097c-22.78 0-43.341 9.628-57.871 25.011 11.569-24.822 36.745-42.075 65.887-42.075h112.226c40.066 0 72.662 32.596 72.662 72.661v120.242c0 45.329-22.754 83.94-22.98 84.318-2.131 3.552-.979 8.159 2.572 10.29 3.554 2.132 8.159.979 10.29-2.572 1.025-1.709 25.118-42.432 25.118-92.036v-120.241c0-46.04-35.677-83.903-80.836-87.397-3.411-18.371-19.546-32.329-38.89-32.329h-80.161c-66.017 0-119.726 53.708-119.726 119.726v96.194c0 54.355-15.586 109.615-15.744 110.167-.785 2.751.063 5.71 2.188 7.626 1.403 1.266 3.201 1.932 5.026 1.932zm23.53-119.726v-96.194c0-57.746 46.98-104.725 104.726-104.725h80.161c10.93 0 20.211 7.177 23.389 17.064h-103.55c-48.337 0-87.662 39.325-87.662 87.661v88.178c0 25.994 3.868 45.744 8.5 61.466-8.766 21.808-25.534 36.039-37.641 43.968 4.843-21.078 12.077-58.999 12.077-97.418z"/></g></g></svg>