<svg id="Capa_1" enable-background="new 0 0 512 512" height="512" viewBox="0 0 512 512" width="512" xmlns="http://www.w3.org/2000/svg"><g><g><path d="m414.434 373.811-70.256-21.617h-176.355l-70.257 21.617c-20.181 6.209-33.953 24.855-33.953 45.97l24.048 84.718h360.725v-84.717c.001-21.116-13.771-39.762-33.952-45.971z" fill="#6b4f5a"/><path d="m87.662 419.779c0-10.623 6.821-19.859 16.975-22.983l22.204-6.832c.899-.276 1.831-.416 2.77-.416 2.688 0 5.074 1.112 6.545 3.05 15.313 20.172 38.542 31.741 63.732 31.741h112.226c35.642 0 67.293-23.967 77.049-58.304l-44.985-13.841h-176.355l-70.256 21.617c-20.181 6.209-33.953 24.855-33.953 45.97v84.718h24.048z" fill="#61444f"/><path d="m352.193 256.001h-192.386c-8.854 0-16.032 7.178-16.032 16.032v72.145c0 30.99 25.123 56.113 56.113 56.113h112.226c30.99 0 56.113-25.123 56.113-56.113v-72.145c-.001-8.855-7.18-16.032-16.034-16.032z" fill="#d18964"/><path d="m135.758 127.743h40.081v48.097h-40.081z" fill="#b5afb5"/><path d="m336.161 127.743h40.081v48.097h-40.081z" fill="#c7c2c6"/><path d="m371.091 167.823h-10.881c-8.854 0-16.032-7.178-16.032-16.032v-24.048h-176.355v24.048c0 8.854-7.178 16.032-16.032 16.032h-10.881c-10.482 0-20.035 7.542-21.079 17.973-1.201 11.996 8.186 22.108 19.937 22.108h12.832c3.714 18.294 19.883 32.064 39.273 32.064h128.258c19.39 0 35.558-13.77 39.272-32.064h12.832c11.75 0 21.138-10.112 19.937-22.108-1.047-10.431-10.599-17.973-21.081-17.973z" fill="#ffce8a"/><path d="m256 223.936-8.016 7.912c-41.218-1.088-76.692-10.506-96.193-24.065v.12c0 57.554 46.656 104.209 104.209 104.209s104.209-46.656 104.209-104.209v-.12c-19.502 13.559-54.975 22.977-96.193 24.065z" fill="#c7c2c6"/><path d="m183.855 207.904v-32.064c0-13.282 10.767-24.048 24.048-24.048h136.274v-24.048h-176.354v24.048c0 8.854-7.178 16.032-16.032 16.032h-10.881c-10.483 0-20.035 7.542-21.079 17.973-1.201 11.996 8.186 22.108 19.936 22.108h12.832c3.516 17.317 18.234 30.428 36.237 31.796-3.212-10.029-4.981-20.702-4.981-31.797z" fill="#f8ba7e"/><path d="m185 222.539c-13.423-3.96-24.85-8.943-33.21-14.755v.12c0 57.554 46.656 104.209 104.209 104.209 5.467 0 10.793-.547 16.032-1.359-45.146-6.989-80.64-42.872-87.031-88.215z" fill="#b5afb5"/><path d="m367.691 95.678-13.993-52.475c-4.898-18.366-20.032-31.858-38.28-35.004-4.724-.814-9.592-.261-14.166 1.17l-18.912 5.919c-17.149 5.368-35.529 5.368-52.678 0l-18.913-5.918c-4.575-1.432-9.443-1.985-14.166-1.17-18.249 3.146-33.383 16.639-38.281 35.004l-13.993 52.475 7.482 8.016h208.419z" fill="#6b4f5a"/><path d="m144.309 95.678 7.482 8.016h208.419l7.482-8.016-6.413-24.048h-129.327c-13.26 0-24.048-10.788-24.048-24.048v-38.95c-3.72-.837-7.563-1.081-11.322-.433-18.248 3.146-33.383 16.638-38.28 35.004z" fill="#61444f"/><path d="m368.226 95.678h-168.339l-64.129 32.064h240.483v-24.048c.001-4.427-3.588-8.016-8.015-8.016z" fill="#d18964"/><path d="m199.887 95.678h-56.113c-4.427 0-8.016 3.589-8.016 8.016v24.048h64.129z" fill="#c2805d"/><path d="m256 223.935h-24.048c-13.282 0-24.048 10.767-24.048 24.048h24.048c13.281 0 24.048-10.767 24.048-24.048z" fill="#b5afb5"/><path d="m256 223.935h24.048c13.282 0 24.048 10.767 24.048 24.048h-24.048c-13.281 0-24.048-10.767-24.048-24.048z" fill="#b5afb5"/><path d="m199.887 400.291h111.989l.237-.164c-74.84-3.259-138.744-51.565-168.338-120.078v64.129c-.001 30.99 25.122 56.113 56.112 56.113z" fill="#c2805d"/></g><g><path d="m415.978 366.907-41.156-12.104c.584-3.458.904-7.004.904-10.625v-72.145c0-10.392-6.774-19.226-16.135-22.335 4.338-10.713 7.059-22.245 7.862-34.295h4.781c7.767 0 15.211-3.305 20.425-9.066 5.21-5.758 7.752-13.518 6.974-21.289-.961-9.593-7.26-17.744-15.891-21.859v-27.947h24.564c4.142 0 7.5-3.358 7.5-7.5s-3.358-7.5-7.5-7.5h-24.564v-16.547c0-6.616-4.171-12.263-10.015-14.49l-12.782-47.933c-6.48-24.3-28.57-41.272-53.719-41.272-.76 0-1.515.115-2.24.342l-24.886 7.79c-15.766 4.935-32.433 4.935-48.198 0l-24.886-7.79c-.726-.227-1.482-.342-2.242-.342-25.149 0-47.239 16.972-53.719 41.271l-12.782 47.933c-5.844 2.227-10.015 7.874-10.015 14.49v16.547h-24.564c-4.142 0-7.5 3.358-7.5 7.5s3.358 7.5 7.5 7.5h24.564v27.947c-8.631 4.115-14.93 12.267-15.891 21.859-.778 7.771 1.764 15.53 6.974 21.289 5.214 5.762 12.659 9.066 20.425 9.066h4.781c.803 12.05 3.524 23.583 7.862 34.295-9.362 3.109-16.135 11.943-16.135 22.335v72.145c0 3.621.32 7.167.904 10.625l-41.156 12.104c-23.498 6.911-39.909 28.844-39.909 53.338v84.254c0 4.142 3.358 7.5 7.5 7.5s7.5-3.358 7.5-7.5v-84.254c0-17.885 11.983-33.901 29.142-38.947l41.153-12.104c9.737 22.673 32.281 38.596 58.479 38.596h48.613v96.711c0 4.142 3.358 7.5 7.5 7.5s7.5-3.358 7.5-7.5v-96.709h48.613c26.198 0 48.743-15.923 58.479-38.596l41.153 12.104c17.158 5.046 29.142 21.062 29.142 38.947v84.254c0 4.142 3.358 7.5 7.5 7.5s7.5-3.358 7.5-7.5v-84.254c0-24.495-16.411-46.428-39.909-53.339zm-272.72-263.213c0-.284.231-.516.516-.516h40.081c4.142 0 7.5-3.358 7.5-7.5 0-4.143-3.358-7.5-7.5-7.5h-29.785l11.478-43.042c4.637-17.389 20.222-29.639 38.127-30.122l23.745 7.433c18.697 5.852 38.462 5.852 57.159 0l23.745-7.433c17.905.483 33.49 12.733 38.127 30.122l11.478 43.042h-142.01c-4.142 0-7.5 3.357-7.5 7.5 0 4.142 3.358 7.5 7.5 7.5h152.306c.285 0 .516.231.516.516v16.547h-225.483zm225.484 31.548v25.081h-8.532c-2.279 0-4.422-.888-6.033-2.499s-2.499-3.754-2.499-6.033v-16.548h17.064zm-225.484 0h17.064v16.548c0 2.279-.888 4.422-2.499 6.033s-3.754 2.499-6.033 2.499h-8.532zm8.533 57.145c-4.142 0-7.5 3.358-7.5 7.5v.516h-4.524c-3.537 0-6.927-1.505-9.303-4.131-2.407-2.66-3.533-6.115-3.171-9.729.63-6.292 6.612-11.22 13.618-11.22h10.88c6.285 0 12.195-2.448 16.639-6.893 4.445-4.444 6.893-10.354 6.893-16.64v-16.548h161.354v16.548c0 6.286 2.448 12.195 6.893 16.64 4.444 4.445 10.354 6.893 16.64 6.893h10.88c7.006 0 12.988 4.929 13.618 11.22.362 3.615-.764 7.07-3.171 9.73-2.375 2.625-5.766 4.131-9.303 4.131h-4.524v-.516c0-4.142-3.358-7.5-7.5-7.5s-7.5 3.358-7.5 7.5v4.259c-20.006 14.304-45.47 18.304-52.983 19.205-5.399-4.322-12.24-6.916-19.678-6.916h-48.097c-7.438 0-14.278 2.593-19.678 6.916-7.517-.901-32.98-4.903-52.983-19.205v-4.259c0-4.143-3.358-7.501-7.5-7.501zm56.112 63.096h24.048c9.628 0 18.257-4.34 24.048-11.161 5.791 6.821 14.42 11.161 24.048 11.161h24.048c4.142 0 7.5-3.358 7.5-7.5 0-3.849-.695-7.537-1.962-10.95 10.361-1.869 26.519-5.925 41.968-14.485-7.079 46.401-47.254 82.064-95.602 82.064s-88.523-35.663-95.602-82.064c15.448 8.56 31.607 12.616 41.968 14.485-1.267 3.413-1.962 7.102-1.962 10.95 0 4.142 3.358 7.5 7.5 7.5zm9.3-15c2.74-5.365 8.323-9.048 14.749-9.048h14.749c-2.74 5.365-8.323 9.048-14.749 9.048zm48.096-9.048h14.749c6.426 0 12.009 3.683 14.749 9.048h-14.749c-6.426 0-12.009-3.683-14.749-9.048zm-65.412 161.356c-26.805 0-48.613-21.808-48.613-48.613v-27.394c14.399 22.135 33.09 41.324 55.103 56.344 11.494 7.843 23.714 14.419 36.454 19.663zm160.839-48.613c0 26.717-21.665 48.463-48.349 48.606-21.273 0-52.208-7.66-75.19-18.995 47.634-6.44 91.687-30.079 123.538-66.298v36.687zm0-60.749c-33.882 47.147-88.313 75.9-146.184 77.103-27.417-18.785-49.263-44.546-63.267-74.568v-13.931c0-4.484 3.48-8.164 7.88-8.5 19.312 33.488 55.49 56.079 96.846 56.079s77.534-22.59 96.846-56.079c4.4.335 7.88 4.015 7.88 8.5v11.396z"/><path d="m247.984 279.531h16.032c4.142 0 7.5-3.357 7.5-7.5 0-4.142-3.358-7.5-7.5-7.5h-16.032c-4.142 0-7.5 3.358-7.5 7.5 0 4.143 3.358 7.5 7.5 7.5z"/><path d="m207.903 176.355c-4.142 0-7.5 3.358-7.5 7.5v8.017c0 4.142 3.358 7.5 7.5 7.5s7.5-3.358 7.5-7.5v-8.017c0-4.141-3.358-7.5-7.5-7.5z"/><path d="m304.097 176.355c-4.142 0-7.5 3.358-7.5 7.5v8.017c0 4.142 3.358 7.5 7.5 7.5s7.5-3.358 7.5-7.5v-8.017c0-4.141-3.358-7.5-7.5-7.5z"/><path d="m199.88 168.311c.531 0 1.07-.057 1.61-.175l16.032-3.507c4.047-.885 6.609-4.883 5.724-8.93-.885-4.046-4.883-6.609-8.929-5.724l-16.032 3.507c-4.047.885-6.609 4.883-5.724 8.93.767 3.507 3.871 5.899 7.319 5.899z"/><path d="m294.478 164.629 16.032 3.507c.54.118 1.079.175 1.61.175 3.448 0 6.552-2.393 7.319-5.899.885-4.046-1.677-8.044-5.724-8.93l-16.032-3.507c-4.044-.884-8.043 1.677-8.929 5.724-.885 4.047 1.677 8.045 5.724 8.93z"/><circle cx="288.009" cy="440.385" r="7.5"/><circle cx="288.009" cy="496.421" r="7.5"/></g></g></svg>