<svg id="Capa_1" enable-background="new 0 0 512.004 512.004" height="512" viewBox="0 0 512.004 512.004" width="512" xmlns="http://www.w3.org/2000/svg"><g><g><path d="m449.595 175.673c-1.074-8.234-16.33-13.598-18.432-21.462-2.138-7.997 8.388-20.256 5.262-27.797-3.163-7.627-19.289-8.837-23.387-15.919-4.126-7.131 2.857-21.707-2.138-28.207-5.012-6.521-20.899-3.525-26.706-9.331-5.806-5.806-2.811-21.694-9.332-26.705-6.5-4.994-21.075 1.99-28.206-2.135-7.081-4.097-8.292-20.223-15.918-23.385-7.538-3.126-19.795 7.402-27.79 5.264-7.863-2.102-13.228-17.358-21.461-18.432-8.046-1.049-17.153 12.297-25.484 12.297s-17.437-13.346-25.482-12.297c-8.234 1.074-13.598 16.33-21.462 18.433-7.997 2.137-20.256-8.389-27.797-5.262-7.627 3.163-8.837 19.289-15.919 23.387-7.131 4.127-21.708-2.857-28.207 2.138-6.521 5.011-3.525 20.899-9.331 26.706-5.806 5.806-21.694 2.811-26.705 9.332-4.994 6.5 1.99 21.076-2.135 28.206-4.097 7.082-20.223 8.292-23.385 15.918-3.126 7.538 7.402 19.795 5.265 27.79-2.102 7.863-17.358 13.228-18.432 21.461-1.049 8.045 12.297 17.152 12.297 25.484 0 8.331-13.346 17.437-12.297 25.482 1.074 8.234 16.33 13.598 18.432 21.462 2.138 7.997-8.388 20.256-5.262 27.797 3.163 7.627 19.289 8.838 23.387 15.919 4.126 7.131-2.857 21.708 2.138 28.207 5.011 6.521 20.899 3.525 26.706 9.332 5.806 5.806 2.811 21.694 9.332 26.705 6.5 4.995 21.075-1.99 28.206 2.135 7.081 4.097 8.292 20.223 15.918 23.385 7.09 2.94 18.356-6.199 26.322-5.517h96.826c7.968-.683 19.236 8.455 26.328 5.514 7.627-3.163 8.837-19.289 15.919-23.387 7.131-4.126 21.708 2.858 28.207-2.137 6.521-5.011 3.525-20.9 9.331-26.706s21.694-2.811 26.705-9.332c4.994-6.5-1.99-21.075 2.135-28.206 4.097-7.082 20.223-8.292 23.385-15.919 3.126-7.538-7.402-19.795-5.265-27.79 2.102-7.863 17.358-13.228 18.432-21.461 1.049-8.046-12.297-17.153-12.297-25.484-.001-8.332 13.346-17.438 12.297-25.483z" fill="#6b4f5a"/><path d="m137.134 46.258c-6.521 5.011-3.525 20.899-9.331 26.706-5.806 5.806-21.694 2.811-26.705 9.332-4.994 6.5 1.99 21.076-2.135 28.206-4.097 7.082-20.223 8.292-23.385 15.918-3.126 7.538 7.402 19.795 5.265 27.79-2.102 7.863-17.358 13.228-18.432 21.461-1.049 8.045 12.297 17.152 12.297 25.484 0 8.331-13.346 17.437-12.297 25.482 1.074 8.234 16.33 13.598 18.432 21.462 2.138 7.997-8.388 20.256-5.262 27.797 3.163 7.627 19.289 8.838 23.387 15.919 4.126 7.131-2.857 21.708 2.138 28.207 5.011 6.521 20.899 3.525 26.706 9.332 5.806 5.806 2.811 21.694 9.332 26.705 6.5 4.995 21.075-1.99 28.206 2.135 7.081 4.097 8.292 20.223 15.918 23.385 7.09 2.94 18.356-6.199 26.322-5.517h36.285l-36.285-210.45 7.784-32.101c-4.309-17.246 7.082-35.209-17.234-44.191-22.44-8.289-32.078-19.427-32.797-45.201-7.133 4.127-21.709-2.857-28.209 2.139z" fill="#61444f"/><path d="m414.667 446.591-88.72-31.313c-12.904-4.554-21.533-16.751-21.533-30.435v-49.784h-96.826v49.784c0 13.684-8.629 25.881-21.533 30.435l-88.72 31.313c-16.13 5.693-26.917 20.939-26.917 38.044h371.165c.002-17.105-10.786-32.351-26.916-38.044z" fill="#c7805d"/><path d="m183.382 463.717 16.138 40.787h112.963l16.138-40.787c-22.026 10.515-46.578 16.58-72.619 16.58s-50.594-6.065-72.62-16.58z" fill="#61444f"/><path d="m90.288 504.504h4.338v-.376-19.488c0-6.832 4.328-12.949 10.77-15.223l88.718-31.312c22.539-7.955 37.683-29.359 37.683-53.261 0-1.719 1.396-3.228 2.987-3.228.156 0 .314.014.475.042 6.942 1.204 13.921 1.815 20.744 1.815 16.619 0 32.869-3.368 48.413-9.757v-38.656h-96.826v49.784c0 13.684-8.629 25.881-21.533 30.435l-88.72 31.313c-16.13 5.693-26.917 20.939-26.917 38.044-.001 10.972 8.895 19.868 19.868 19.868z" fill="#ab6e4d"/><path d="m373 222.095h-12.511c-1.107-14.505-5.235-28.137-11.632-40.396-1.407.169-2.798.659-4.042 1.584-4.327 3.214-8.591 5.788-12.635 5.233-9.991-1.37-16.5-20.835-26.042-23.517-9.701-2.727-24.575 10.705-33.722 6.716-9.255-4.035-10.724-24.609-19.317-29.836-8.653-5.264-26.34 3.648-34.227-2.725-1.633-1.319-2.662-3.365-3.498-5.642-35.338 14.901-60.805 48.582-63.858 88.583h-12.511c-11.141 0-20.172 9.031-20.172 20.172 0 11.14 9.031 20.172 20.172 20.172h12.511c4.133 54.149 49.279 96.826 104.487 96.826s100.354-42.677 104.487-96.826h12.51c11.141 0 20.172-9.032 20.172-20.172 0-11.141-9.031-20.172-20.172-20.172z" fill="#e0916d"/><path d="m183.382 254.37v-99.69c-17.991 17.321-29.849 40.966-31.867 67.414h-12.511c-11.141 0-20.172 9.031-20.172 20.172 0 11.14 9.031 20.172 20.172 20.172h12.511c4.133 54.149 49.279 96.826 104.487 96.826 5.519 0 10.901-.538 16.188-1.36-50.274-7.757-88.808-51.087-88.808-103.534z" fill="#c7805d"/><path d="m414.668 446.591-68.506-24.179-26.588 26.588c-4.54 4.54-7.09 10.697-7.09 17.117v38.386h129.101c-.001-24.206-4.663-50.057-26.917-57.912z" fill="#76d4ec"/><path d="m97.336 446.591 68.506-24.179 26.588 26.588c4.54 4.54 7.09 10.697 7.09 17.117v38.386l-104.895-.376s-24.206-8.519-24.206-19.492c0-17.105 10.787-32.351 26.917-38.044z" fill="#76d4ec"/><path d="m94.625 504.127v-19.488c0-6.832 4.328-12.949 10.77-15.223l75.781-26.747 3.638-1.284-18.972-18.973-68.506 24.179c-16.13 5.693-26.917 20.939-26.917 38.044v19.869h24.206z" fill="#4fc0ec"/></g><g><path d="m256.002 310.283c11.963 0 22.981-3.824 29.474-10.23 2.949-2.909 2.981-7.658.072-10.606-2.909-2.949-7.658-2.982-10.606-.072-2.763 2.725-9.38 5.908-18.939 5.908-9.56 0-16.177-3.183-18.939-5.908-2.949-2.91-7.698-2.877-10.606.071-2.909 2.949-2.877 7.697.071 10.606 6.491 6.407 17.509 10.231 29.473 10.231z"/><path d="m207.589 222.664c-4.142 0-7.5 3.358-7.5 7.5v8.069c0 4.142 3.358 7.5 7.5 7.5s7.5-3.358 7.5-7.5v-8.069c0-4.142-3.358-7.5-7.5-7.5z"/><path d="m304.414 222.664c-4.142 0-7.5 3.358-7.5 7.5v8.069c0 4.142 3.358 7.5 7.5 7.5s7.5-3.358 7.5-7.5v-8.069c0-4.142-3.358-7.5-7.5-7.5z"/><path d="m192.02 205.669c-.05 4.142 3.266 7.54 7.408 7.591l16.138.197h.093c4.099 0 7.447-3.298 7.498-7.409.05-4.142-3.266-7.54-7.408-7.591l-16.138-.197c-4.127-.07-7.54 3.267-7.591 7.409z"/><path d="m296.344 213.457h.093l16.138-.197c4.142-.051 7.458-3.449 7.408-7.591-.05-4.111-3.398-7.409-7.498-7.409-.031 0-.062 0-.093 0l-16.138.197c-4.142.051-7.458 3.449-7.408 7.591.051 4.111 3.398 7.409 7.498 7.409z"/><path d="m444.798 201.155c0-1.554 2.979-5.568 4.759-7.967 3.941-5.311 8.408-11.33 7.475-18.484-.953-7.31-6.904-12.04-12.155-16.213-2.127-1.691-6.086-4.837-6.468-6.217-.392-1.467 1.432-6.085 2.521-8.845 2.439-6.178 5.205-13.18 2.422-19.888-2.809-6.775-9.765-9.784-15.902-12.438-2.515-1.088-7.197-3.113-7.921-4.364-.745-1.288-.186-6.2.149-9.135.754-6.613 1.608-14.11-2.832-19.886-4.451-5.792-11.928-6.899-18.525-7.875-2.913-.431-7.788-1.152-8.825-2.19-1.037-1.037-1.759-5.912-2.19-8.824-.977-6.597-2.083-14.073-7.875-18.524-5.777-4.439-13.273-3.584-19.886-2.83-2.935.335-7.846.895-9.134.15-1.251-.724-3.276-5.405-4.364-7.92-2.654-6.137-5.663-13.092-12.438-15.902-6.708-2.781-13.709-.015-19.885 2.425-2.759 1.09-7.378 2.913-8.84 2.522-1.379-.382-4.526-4.341-6.216-6.468-4.173-5.251-8.903-11.202-16.212-12.155-7.154-.937-13.176 3.532-18.486 7.473-2.398 1.78-6.413 4.759-7.968 4.759-1.554 0-5.569-2.979-7.967-4.759-5.31-3.941-11.327-8.408-18.484-7.475-7.309.953-12.039 6.904-16.212 12.155-1.69 2.127-4.837 6.087-6.217 6.469-1.464.391-6.085-1.432-8.844-2.521-6.178-2.439-13.181-5.205-19.888-2.422-6.775 2.81-9.784 9.766-12.438 15.903-1.088 2.515-3.113 7.196-4.364 7.92-1.288.745-6.2.186-9.135-.149-6.615-.754-14.11-1.608-19.887 2.832-5.793 4.451-6.899 11.928-7.875 18.525-.431 2.913-1.152 7.788-2.19 8.825-1.037 1.037-5.911 1.759-8.824 2.189-6.597.977-14.073 2.083-18.525 7.876-4.438 5.777-3.583 13.272-2.83 19.886.335 2.935.895 7.846.15 9.134-.724 1.251-5.405 3.275-7.919 4.363-6.137 2.654-13.093 5.663-15.902 12.438-2.782 6.708-.016 13.708 2.424 19.886 1.09 2.758 2.914 7.375 2.522 8.84-.382 1.38-4.341 4.526-6.469 6.217-5.25 4.173-11.202 8.902-12.155 16.211-.933 7.156 3.534 13.175 7.475 18.485 1.78 2.399 4.759 6.414 4.759 7.969 0 1.554-2.979 5.568-4.759 7.967-3.941 5.31-8.408 11.329-7.475 18.484.953 7.31 6.904 12.04 12.155 16.212 2.127 1.691 6.087 4.838 6.469 6.218.392 1.466-1.432 6.085-2.521 8.844-2.439 6.178-5.205 13.18-2.422 19.888 2.809 6.776 9.765 9.785 15.902 12.439 2.515 1.088 7.196 3.113 7.92 4.364.745 1.289.186 6.201-.149 9.135-.754 6.614-1.608 14.11 2.832 19.886 4.451 5.792 11.928 6.899 18.525 7.875 2.913.431 7.788 1.152 8.825 2.189 1.037 1.038 1.759 5.912 2.19 8.825.977 6.597 2.083 14.073 7.875 18.524 5.776 4.44 13.272 3.584 19.886 2.83 2.934-.334 7.847-.894 9.134-.149 1.251.724 3.276 5.405 4.364 7.92 2.654 6.136 5.663 13.091 12.438 15.901 1.996.828 4.018 1.164 6.036 1.164 4.765 0 9.51-1.875 13.849-3.589.575-.227 1.179-.464 1.788-.7-.225 10.264-6.793 19.393-16.508 22.822l-83.336 29.413c-22.313 7.875-37.304 29.063-37.304 52.725v14.16c0 4.142 3.358 7.5 7.5 7.5s7.5-3.358 7.5-7.5v-14.16c0-17.313 10.97-32.818 27.296-38.581l58.665-20.705 23.246 23.246c3.155 3.155 4.893 7.351 4.893 11.813v38.386c0 4.142 3.358 7.5 7.5 7.5s7.5-3.358 7.5-7.5v-24.54c15.447 5.143 32.172 7.834 48.982 7.834s33.535-2.69 48.982-7.834v24.54c0 4.142 3.358 7.5 7.5 7.5s7.5-3.358 7.5-7.5v-38.386c0-4.462 1.738-8.658 4.893-11.813l23.246-23.246 58.665 20.705c16.327 5.763 27.296 21.267 27.296 38.581v14.16c0 4.142 3.358 7.5 7.5 7.5s7.5-3.358 7.5-7.5v-14.16c0-23.662-14.991-44.85-37.304-52.725l-83.336-29.413c-9.716-3.429-16.284-12.559-16.508-22.823.611.236 1.216.473 1.791.7 6.178 2.439 13.18 5.204 19.889 2.422 6.775-2.81 9.784-9.766 12.438-15.902 1.088-2.515 3.113-7.196 4.364-7.92 1.289-.745 6.2-.186 9.135.149 6.614.753 14.109 1.607 19.886-2.832 5.793-4.452 6.899-11.929 7.875-18.525.431-2.913 1.152-7.788 2.19-8.825 1.037-1.037 5.911-1.759 8.824-2.19 6.597-.976 14.073-2.083 18.525-7.875 4.438-5.777 3.583-13.272 2.83-19.886-.335-2.935-.895-7.847-.15-9.134.724-1.251 5.405-3.275 7.919-4.363 6.137-2.654 13.093-5.663 15.902-12.438 2.782-6.708.016-13.708-2.424-19.886-1.09-2.758-2.914-7.375-2.522-8.84.382-1.379 4.341-4.526 6.468-6.217 5.251-4.173 11.202-8.902 12.155-16.212.933-7.156-3.534-13.175-7.475-18.485-1.78-2.398-4.759-6.413-4.759-7.968zm-121.346 221.195 8.992 3.174-18.174 18.174c-5.489 5.489-8.709 12.637-9.21 20.313-15.22 5.752-32.072 8.786-49.059 8.786s-33.839-3.034-49.059-8.786c-.501-7.676-3.721-14.824-9.21-20.313l-18.173-18.173 8.992-3.174c15.872-5.603 26.537-20.676 26.537-37.508v-25.788c12.685 4.975 26.485 7.71 40.913 7.71s28.228-2.735 40.913-7.71v25.788c0 16.831 10.665 31.905 26.538 37.507zm112.092-190.272c-4.679 3.719-9.982 7.933-11.627 14.086-1.67 6.246.844 12.61 3.062 18.225 1.005 2.544 2.876 7.281 2.529 8.606-.693 1.273-5.453 3.333-8.011 4.438-5.504 2.381-11.743 5.08-14.948 10.619-3.226 5.577-2.453 12.36-1.77 18.346.312 2.738.893 7.834.199 9.023-1.005 1.04-6.106 1.794-8.846 2.2-5.949.88-12.692 1.878-17.235 6.421s-5.541 11.286-6.421 17.235c-.406 2.74-1.16 7.841-2.148 8.808-1.242.734-6.338.153-9.076-.159-5.985-.682-12.77-1.456-18.346 1.771-5.54 3.205-8.238 9.444-10.62 14.949-1.106 2.558-3.166 7.319-4.377 7.987-1.394.372-6.127-1.499-8.673-2.504-2.4-.948-4.84-1.908-7.322-2.599v-17.687c29.448-16.957 50.523-46.875 55.398-81.906h5.688c15.258 0 27.672-12.414 27.672-27.672 0-7.393-2.879-14.342-8.107-19.569-5.227-5.226-12.174-8.103-19.565-8.103-.001 0-.004 0-.006 0l-4.391.001c-.277 0-.515-.187-.527-.342-.935-11.413-3.898-22.484-8.807-32.907-1.946-4.132-5.611-7.173-10.055-8.345-4.484-1.182-9.227-.33-13.006 2.341-4.59 3.243-6.07 3.349-6.417 3.303-1.822-.238-5.578-4.963-7.822-7.787-4.093-5.15-8.732-10.988-15.355-12.758-6.728-1.798-13.735.969-19.917 3.412-3.083 1.218-8.82 3.491-10.411 2.828-1.661-.688-4.045-6.201-5.47-9.494-2.621-6.06-5.591-12.927-11.556-16.377-6.005-3.475-13.474-2.622-20.062-1.872-3.541.404-9.467 1.081-10.855.014-.025-.02-.638-.513-1.353-2.989-1.149-3.979-5.309-6.274-9.287-5.125-3.979 1.149-6.274 5.307-5.125 9.287 1.406 4.869 3.573 8.375 6.625 10.721 6.198 4.763 14.431 3.825 21.694 2.995 3.855-.439 9.135-1.042 10.852-.048 1.675.969 3.856 6.012 5.3 9.348 2.916 6.741 6.22 14.381 13.491 17.396 7.197 2.984 14.884-.053 21.668-2.733 3.624-1.431 8.589-3.391 10.532-2.871 1.836.491 5.236 4.769 7.485 7.599 4.583 5.768 9.779 12.305 17.625 13.328 6.411.833 12.2-2.527 17.012-5.926.193-.136.394-.122.527-.087.226.06.283.181.307.231 4.14 8.792 6.639 18.125 7.427 27.741.649 7.917 7.448 14.118 15.48 14.117l4.391-.001h.003c3.384 0 6.566 1.318 8.959 3.71 2.394 2.394 3.712 5.576 3.712 8.961 0 6.988-5.685 12.672-12.672 12.672h-4.611c.001-.19.007-.379.007-.569 0-4.142-3.358-7.5-7.5-7.5s-7.5 3.358-7.5 7.5c0 53.704-43.691 97.395-97.395 97.395s-97.395-43.691-97.395-97.395c0-4.142-3.358-7.5-7.5-7.5s-7.5 3.358-7.5 7.5c0 .19.006.379.007.569h-4.611c-6.987 0-12.672-5.685-12.672-12.672 0-3.385 1.318-6.568 3.712-8.961s5.575-3.71 8.959-3.71h.003l4.368.001h.002c8.059 0 14.864-6.171 15.491-14.048 1.924-24.124 14.454-45.968 34.377-59.934 3.392-2.377 4.214-7.055 1.837-10.446-2.378-3.392-7.055-4.213-10.446-1.837-23.598 16.541-38.44 42.428-40.716 71.009-.034.073-.245.256-.542.256l-4.367-.001c-.002 0-.004 0-.006 0-7.39 0-14.338 2.877-19.564 8.103-5.228 5.227-8.107 12.176-8.107 19.569 0 15.259 12.414 27.672 27.672 27.672h5.687c4.876 35.031 25.951 64.949 55.398 81.906v17.689c-2.481.692-4.921 1.651-7.321 2.599-2.544 1.005-7.277 2.878-8.606 2.53-1.273-.693-3.333-5.454-4.438-8.011-2.381-5.505-5.08-11.744-10.619-14.949-5.576-3.226-12.359-2.453-18.346-1.771-2.738.312-7.834.893-9.023.199-1.04-1.006-1.794-6.106-2.2-8.846-.88-5.949-1.879-12.692-6.422-17.235s-11.286-5.541-17.235-6.421c-2.74-.405-7.841-1.16-8.807-2.148-.734-1.241-.154-6.338.158-9.077.682-5.985 1.456-12.769-1.771-18.345-3.205-5.54-9.444-8.238-14.949-10.619-2.558-1.106-7.319-3.166-7.987-4.377-.373-1.388 1.499-6.127 2.504-8.673 2.218-5.616 4.731-11.98 3.061-18.227-1.645-6.153-6.948-10.368-11.627-14.087-2.202-1.75-6.299-5.006-6.609-6.356.018-1.429 2.913-5.329 4.642-7.659 3.616-4.872 7.714-10.394 7.714-16.906 0-6.513-4.098-12.035-7.714-16.908-1.729-2.331-4.624-6.231-4.649-7.59.317-1.418 4.415-4.675 6.617-6.424 4.679-3.719 9.982-7.934 11.627-14.086 1.67-6.246-.844-12.61-3.062-18.225-1.005-2.544-2.876-7.281-2.529-8.606.693-1.273 5.453-3.333 8.011-4.438 5.504-2.381 11.743-5.08 14.948-10.619 3.226-5.577 2.453-12.36 1.77-18.346-.312-2.738-.893-7.834-.199-9.023 1.005-1.04 6.106-1.794 8.846-2.2 5.949-.88 12.692-1.878 17.235-6.421s5.541-11.286 6.421-17.235c.405-2.74 1.16-7.841 2.148-8.807 1.242-.734 6.339-.153 9.077.158 5.986.683 12.769 1.455 18.346-1.771 5.54-3.206 8.238-9.445 10.619-14.949 1.107-2.558 3.166-7.319 4.377-7.987 1.385-.375 6.127 1.499 8.673 2.504 5.615 2.218 11.978 4.731 18.228 3.061 6.153-1.645 10.368-6.948 14.086-11.626 1.75-2.202 5.007-6.3 6.356-6.61 1.429.019 5.329 2.913 7.659 4.642 4.872 3.616 10.394 7.714 16.907 7.714 6.512 0 12.035-4.098 16.907-7.713 2.331-1.729 6.231-4.624 7.591-4.649 1.419.317 4.676 4.416 6.425 6.617 3.718 4.679 7.933 9.982 14.085 11.627 6.245 1.669 12.61-.844 18.226-3.062 2.544-1.005 7.28-2.877 8.605-2.53 1.273.693 3.333 5.454 4.438 8.011 2.381 5.505 5.08 11.744 10.62 14.949 5.577 3.227 12.361 2.453 18.345 1.77 2.738-.312 7.834-.893 9.023-.199 1.04 1.005 1.794 6.106 2.2 8.846.88 5.949 1.879 12.692 6.422 17.234 4.543 4.543 11.286 5.541 17.235 6.421 2.74.405 7.841 1.16 8.807 2.148.734 1.242.154 6.338-.159 9.077-.682 5.985-1.455 12.769 1.771 18.346 3.205 5.54 9.444 8.238 14.949 10.619 2.558 1.106 7.318 3.166 7.987 4.377.373 1.388-1.499 6.127-2.504 8.673-2.217 5.615-4.731 11.98-3.061 18.228 1.645 6.152 6.948 10.367 11.627 14.086 2.201 1.75 6.299 5.007 6.609 6.356-.018 1.429-2.913 5.329-4.642 7.659-3.616 4.872-7.714 10.394-7.714 16.906 0 6.513 4.098 12.035 7.714 16.907 1.729 2.331 4.624 6.23 4.649 7.59-.313 1.416-4.411 4.673-6.612 6.423z"/></g></g></svg>