<svg id="Capa_1" enable-background="new 0 0 512.002 512.002" height="512" viewBox="0 0 512.002 512.002" width="512" xmlns="http://www.w3.org/2000/svg"><g><g><path d="m413.863 374.103-84.485-24.849c-10.235-3.01-17.263-12.403-17.263-23.071v-38.119h-112.227v38.119c0 10.668-7.028 20.061-17.263 23.071l-84.485 24.849c-20.47 6.02-34.526 24.806-34.526 46.142v60.206h384.774v-60.206c0-21.335-14.056-40.121-34.525-46.142z" fill="#f2c59a"/><path d="m215.92 360.21h8.016v-8.016-19.314c0-4.438 3.695-7.09 7.268-7.09.493 0 .995.048 1.492.143 7.685 1.468 15.526 2.212 23.305 2.212 19.275 0 38.57-4.606 56.113-13.25v-26.831h-112.226v38.119c0 10.222-6.49 19.21-16.032 22.597v3.413 8.016h8.016 24.048z" fill="#e6b287"/><path d="m413.863 374.103-84.486-24.849c-1.429-.42 8.079 3.594 6.786 2.939l-80.165 24.048-80.157-24.048c-1.293.655 8.214-3.359 6.786-2.939l-84.486 24.849c-20.469 6.02-34.525 24.806-34.525 46.142v84.255h56.113l140.266-24.546 132.28 24.546h56.113v-84.254c0-21.336-14.056-40.122-34.525-46.143z" fill="#ceeaff"/><path d="m159.807 504.5-16.032-112.226 46.761-72.145s16.981 33.961 59.032 53.346c4.043 1.864 8.823 1.864 12.866 0 42.051-19.385 59.032-53.346 59.032-53.346l46.761 72.145-16.032 112.226z" fill="#d18964"/><path d="m122.065 384.232c-1.593 4.788-.994 10.059 1.805 14.257l11.889 17.834-25.646 25.646c-3.982 3.982-5.583 9.762-4.217 15.225l13.831 47.307h40.081v-93.679c0-17.008 6.756-33.319 18.783-45.346l9.558-9.558c7.517-7.517 11.74-17.712 11.74-28.342v-15.462c-.001-.001-58.71 14.676-77.824 72.118z" fill="#b0def5"/><path d="m401.889 441.968-25.646-25.646 11.889-17.834c2.799-4.198 3.398-9.469 1.805-14.256-19.114-57.443-77.824-72.12-77.824-72.12v15.462c0 10.63 4.223 20.825 11.739 28.342l9.558 9.558c12.027 12.026 18.783 28.338 18.783 45.346v93.68h40.081l13.831-47.307c1.367-5.463-.234-11.242-4.216-15.225z" fill="#b0def5"/><path d="m344.66 22.789c-24.454-9.567-55.197-15.289-88.659-15.289s-64.205 5.722-88.659 15.289c-9.328 3.649-15.55 12.513-15.55 22.529v50.359h208.419v-50.359c0-10.015-6.223-18.88-15.551-22.529z" fill="#d8d5d8"/><path d="m199.888 13.234c-11.706 2.487-22.66 5.687-32.546 9.555-9.328 3.649-15.55 12.513-15.55 22.529v50.359h48.097v-82.443z" fill="#c7c2c6"/><ellipse cx="256.001" cy="127.742" fill="#b5afb5" rx="144.29" ry="72.145"/><path d="m371.092 167.823h-10.881c-8.854 0-16.032-7.178-16.032-16.032v-32.065c0-17.709-39.478-32.065-88.177-32.065s-88.177 14.356-88.177 32.065v32.065c0 8.854-7.178 16.032-16.032 16.032h-10.881c-10.483 0-20.035 7.542-21.08 17.973-1.201 11.996 8.187 22.108 19.937 22.108h12.429c4.106 53.795 48.957 96.194 103.805 96.194s99.699-42.398 103.805-96.194h12.429c11.75 0 21.138-10.112 19.937-22.108-1.047-10.431-10.6-17.973-21.082-17.973z" fill="#f9d8af"/><path d="m207.904 119.726h70.388l7.537-30.143c-9.329-1.221-19.342-1.921-29.828-1.921-48.7 0-88.177 14.356-88.177 32.065v32.065c0 8.854-7.179 16.032-16.032 16.032h-10.882c-10.482 0-20.034 7.542-21.08 17.973-1.202 11.996 8.186 22.108 19.937 22.108h12.429c4.106 53.795 48.958 96.194 103.805 96.194 12.594 0 24.616-2.326 35.783-6.422l-18.478-2.851c-47.186-7.282-81.434-47.209-81.434-94.937v-64.129c0-8.842 7.192-16.034 16.032-16.034z" fill="#f2c59a"/><path d="m193.907 96.968 54.279 27.96c2.783 1.434 6.146 1.116 8.611-.814l13.474-10.545 73.907 31.408v-25.251c0-17.709-39.478-32.065-88.177-32.065-24.225 0-46.157 3.557-62.094 9.307z" fill="#845252"/><path d="m193.907 96.968 54.279 27.96c2.783 1.434 6.146 1.116 8.611-.813l13.474-10.545-22.761-25.753c-20.834.724-39.551 4.081-53.603 9.151z" fill="#7a4646"/></g><g><path d="m207.904 168.337c-4.142 0-7.5 3.358-7.5 7.5v8.016c0 4.142 3.358 7.5 7.5 7.5s7.5-3.358 7.5-7.5v-8.016c0-4.142-3.358-7.5-7.5-7.5z"/><path d="m304.098 168.337c-4.142 0-7.5 3.358-7.5 7.5v8.016c0 4.142 3.358 7.5 7.5 7.5s7.5-3.358 7.5-7.5v-8.016c0-4.142-3.358-7.5-7.5-7.5z"/><path d="m285.317 237.289c2.949-2.909 2.98-7.658.071-10.606-2.91-2.949-7.659-2.98-10.606-.071-2.737 2.701-9.298 5.855-18.781 5.855s-16.043-3.154-18.781-5.855c-2.949-2.91-7.698-2.878-10.606.071-2.909 2.949-2.877 7.697.071 10.606 6.459 6.373 17.418 10.177 29.316 10.177s22.857-3.804 29.316-10.177z"/><path d="m215.92 144.289h-16.032c-4.142 0-7.5 3.358-7.5 7.5s3.358 7.5 7.5 7.5h16.032c4.142 0 7.5-3.358 7.5-7.5s-3.358-7.5-7.5-7.5z"/><path d="m296.082 159.289h16.032c4.142 0 7.5-3.358 7.5-7.5s-3.358-7.5-7.5-7.5h-16.032c-4.142 0-7.5 3.358-7.5 7.5s3.357 7.5 7.5 7.5z"/><path d="m415.979 365.516-30.044-8.836c-20.488-33.076-53.168-47.028-66.321-51.506v-13.513c25.018-17.394 42.615-44.74 47.014-76.259h4.464c14.617 0 27.155-10.861 28.542-24.727.778-7.771-1.764-15.531-6.975-21.288-1.017-1.124-2.12-2.151-3.293-3.081 12.087-11.645 18.425-24.816 18.425-38.565 0-21.246-15.096-40.298-40.081-54.439v-27.984c0-13.1-7.975-24.685-20.317-29.513-26.427-10.34-58.03-15.805-91.392-15.805s-64.965 5.465-91.392 15.805c-12.343 4.829-20.318 16.413-20.318 29.513v27.984c-24.985 14.142-40.081 33.193-40.081 54.439 0 13.837 6.416 27.082 18.649 38.779-5.777 4.496-9.745 11.076-10.492 18.526-.778 7.771 1.764 15.531 6.974 21.289 5.214 5.762 12.658 9.066 20.425 9.066h5.607c4.399 31.519 21.997 58.865 47.014 76.259v13.513c-13.153 4.478-45.833 18.429-66.321 51.506l-30.044 8.836c-23.498 6.912-39.909 28.845-39.909 53.338v85.647c0 4.142 3.358 7.5 7.5 7.5s7.5-3.358 7.5-7.5v-85.646c0-17.885 11.983-33.9 29.142-38.947l16.668-4.902c-.694 1.783-1.354 3.606-1.976 5.473-2.363 7.105-1.386 14.679 2.681 20.78l8.479 12.718-21.095 21.095c-5.996 5.995-8.306 14.792-6.029 22.96l13.517 48.484c.925 3.316 3.938 5.488 7.221 5.488.667 0 1.344-.09 2.018-.277 3.99-1.112 6.323-5.249 5.21-9.239l-13.517-48.484c-.826-2.961.012-6.151 2.186-8.325l25.443-25.443c2.528-2.528 2.92-6.489.937-9.463l-11.89-17.833c-1.483-2.225-1.821-5.041-.928-7.725 13.085-39.333 46.751-57.321 63.207-63.972v4.943c0 8.703-3.389 16.884-9.542 23.038l-9.559 9.558c-13.529 13.529-20.979 31.517-20.979 50.649v95.07c0 4.142 3.358 7.5 7.5 7.5s7.5-3.358 7.5-7.5v-95.071c0-15.126 5.891-29.347 16.586-40.043l9.559-9.558c4.03-4.03 7.241-8.659 9.565-13.682 9.228 11.488 25.36 27.123 50.199 37.059.894.358 1.84.537 2.786.537s1.892-.179 2.786-.537c24.839-9.936 40.971-25.571 50.199-37.059 2.324 5.023 5.534 9.652 9.565 13.682l9.559 9.558c10.695 10.696 16.586 24.917 16.586 40.043v95.071c0 4.142 3.358 7.5 7.5 7.5s7.5-3.358 7.5-7.5v-95.071c0-19.132-7.451-37.12-20.979-50.649l-9.559-9.558c-6.153-6.154-9.542-14.335-9.542-23.038v-4.943c16.456 6.651 50.121 24.639 63.207 63.972.893 2.685.555 5.5-.928 7.725l-11.89 17.833c-1.983 2.975-1.591 6.936.937 9.463l25.443 25.443c2.174 2.173 3.011 5.363 2.186 8.324l-13.517 48.484c-1.112 3.99 1.221 8.126 5.21 9.239.674.188 1.352.277 2.018.277 3.282 0 6.296-2.172 7.221-5.488l13.517-48.484c2.277-8.167-.033-16.965-6.028-22.959l-21.095-21.095 8.479-12.718c4.067-6.101 5.044-13.675 2.681-20.78-.621-1.867-1.281-3.69-1.975-5.473l16.668 4.902c17.158 5.047 29.142 21.062 29.142 38.947v85.647c0 4.142 3.358 7.5 7.5 7.5s7.5-3.358 7.5-7.5v-85.646c-.005-24.493-16.416-46.426-39.914-53.338zm-245.905-335.742c24.703-9.665 54.416-14.774 85.927-14.774s61.224 5.109 85.927 14.774c6.55 2.562 10.783 8.664 10.783 15.544v20.589c-26.087-11.176-59.648-17.811-96.71-17.811s-70.623 6.635-96.71 17.811v-20.589c0-6.88 4.232-12.982 10.783-15.544zm-50.864 97.968c0-35.041 62.643-64.645 136.791-64.645s136.791 29.604 136.791 64.645c0 14.075-10.175 25.317-19.387 32.611-.389-.017-.779-.031-1.17-.031h-12.025c-4.705 0-8.532-3.828-8.532-8.532v-32.063c0-6.721-3.487-16.533-20.098-25.108-3.682-1.9-8.205-.456-10.105 3.224-1.9 3.681-.457 8.205 3.224 10.105 7.5 3.872 11.979 8.275 11.979 11.779v12.868l-63.571-25.967c-2.492-1.019-5.338-.622-7.458 1.037l-13.634 10.67-35.89-19.597c12.083-2.336 25.693-3.575 39.876-3.575 13.463 0 26.849 1.166 38.71 3.37 4.077.763 7.987-1.931 8.744-6.003s-1.931-7.987-6.003-8.744c-12.933-2.404-26.879-3.623-41.452-3.623-24.405 0-47.458 3.496-64.914 9.843-25.426 9.246-30.763 21.266-30.763 29.721v32.063c0 4.705-3.828 8.532-8.532 8.532h-10.881c-.752 0-1.497.036-2.237.092-9.273-7.325-19.463-18.581-19.463-32.672zm76.115-23.31c.002-.001.003-.001.005-.002.013.009.009.009-.005.002zm60.676 263.687c-30.246-13.09-45.17-36.027-48.613-41.914 0-.007 0-.014 0-.021v-25.732c14.705 7.137 31.199 11.145 48.613 11.145s33.908-4.007 48.613-11.145v25.732.019c-3.459 5.915-18.384 28.833-48.613 41.916zm0-71.522c-53.326 0-96.709-43.384-96.709-96.709 0-4.142-3.358-7.5-7.5-7.5s-7.5 3.358-7.5 7.5c0 .172.006.343.007.515h-4.531c-3.537 0-6.927-1.505-9.303-4.131-2.407-2.66-3.533-6.115-3.171-9.729.63-6.292 6.612-11.22 13.618-11.22h10.881c12.976 0 23.532-10.557 23.532-23.532v-32.063c0-3.629 5.261-9.764 19.979-15.285l53.855 29.422c2.628 1.435 5.859 1.17 8.216-.676l14.091-11.028 65.213 26.637v2.993c0 12.976 10.557 23.532 23.532 23.532h12.024c3.537 0 6.927 1.505 9.303 4.13 2.407 2.66 3.533 6.115 3.171 9.729-.629 6.292-6.611 11.221-13.617 11.221h-3.388c.001-.172.007-.343.007-.515 0-4.142-3.358-7.5-7.5-7.5s-7.5 3.358-7.5 7.5c-.001 53.325-43.384 96.709-96.71 96.709z"/></g></g></svg>