<svg id="Capa_1" enable-background="new 0 0 512 512" height="512" viewBox="0 0 512 512" width="512" xmlns="http://www.w3.org/2000/svg"><g><g><path d="m360.21 320.129h-208.42c-22.136 0-40.081 17.945-40.081 40.081v40.081h288.581v-40.081c0-22.136-17.944-40.081-40.08-40.081z" fill="#847f84"/><path d="m280.051 7.5h-48.097c-57.553 0-104.21 46.656-104.21 104.21v16.032h256.516v-16.032c0-57.554-46.656-104.21-104.209-104.21z" fill="#df976c"/><path d="m256.002 7.5h-24.048c-57.553 0-104.21 46.656-104.21 104.21v16.032h128.258z" fill="#d18964"/><path d="m372.236 175.839h-12.024v-56.113l-104.21-24.048-104.21 24.048v56.113h-12.024c-11.068 0-20.04 8.972-20.04 20.04s8.972 20.04 20.04 20.04h12.429c4.106 53.795 48.957 96.194 103.805 96.194s99.699-42.398 103.805-96.194h12.429c11.068 0 20.04-8.973 20.04-20.04 0-11.068-8.972-20.04-20.04-20.04z" fill="#ffce8a"/><path d="m203.207 143.212c17.25-4.946 35.012-7.454 52.795-7.454 35.39 0 69.965 9.681 99.989 27.996l3.983 2.429.238-.132v-46.326l-104.21-24.048-104.21 24.048v56.113h-12.024c-11.067 0-20.04 8.972-20.04 20.04s8.973 20.04 20.04 20.04h12.429c4.106 53.795 48.958 96.194 103.805 96.194 12.594 0 24.616-2.326 35.783-6.422l-18.478-2.851c-47.186-7.282-81.434-47.209-81.434-94.937v-49.305c0-7.145 4.661-13.471 11.334-15.385z" fill="#f8ba7e"/><path d="m127.744 135.758v44.179c3.357-2.537 7.491-4.099 12.024-4.099h12.024c8.854 0 16.032-7.178 16.032-16.032v-32.065z" fill="#61444f"/><path d="m384.26 135.758v44.179c-3.357-2.537-7.491-4.099-12.024-4.099h-12.024c-8.854 0-16.032-7.178-16.032-16.032v-40.081z" fill="#6b4f5a"/><path d="m384.55 115.444c-38.675-23.418-83.124-35.799-128.548-35.799s-89.872 12.38-128.548 35.799c-7.574 4.587-9.993 14.447-5.409 22.021 3.014 4.975 8.306 7.73 13.731 7.73 2.83 0 5.691-.752 8.29-2.321 33.661-20.389 72.368-31.164 111.936-31.164s78.275 10.776 111.936 31.164c2.599 1.57 5.46 2.321 8.29 2.321 5.425 0 10.717-2.756 13.731-7.73 4.584-7.574 2.165-17.434-5.409-22.021z" fill="#87646f"/><path d="m413.862 382.119-84.485-24.849c-10.235-3.01-17.263-12.403-17.263-23.071v-38.119h-112.227v38.119c0 10.668-7.028 20.061-17.263 23.071l-84.485 24.849c-20.47 6.02-34.526 24.806-34.526 46.142v52.19h384.774v-52.19c0-21.335-14.056-40.121-34.525-46.142z" fill="#f8ba7e"/><path d="m312.113 334.199v-38.119h-112.226v38.119c0 10.668-7.028 20.061-17.263 23.071l6.789 23.068c8.35-2.456 15.892-7.214 21.813-13.761 2.29-2.531 5.286-3.926 8.436-3.926 1.079 0 2.165.168 3.225.5 10.753 3.366 21.894 5.073 33.113 5.073 22.044 0 43.392-6.448 61.781-18.624-3.539-4.224-5.668-9.602-5.668-15.401z" fill="#f1a673"/><path d="m413.862 382.12-66.911-19.68c-23.231 23.37-55.395 37.85-90.951 37.85s-67.72-14.48-90.951-37.851l-66.911 19.68c-20.469 6.02-34.525 24.806-34.525 46.142l24.04 76.238h56.122l22.39-14.118 17.691 14.118h144.29l18.833-14.118 21.248 14.118h80.161v-76.238c-.001-21.335-14.057-40.121-34.526-46.141z" fill="#f5e8c9"/><path d="m87.661 503.027v-74.767c0-10.592 7.097-20.077 17.258-23.066l76.953-22.637 6.278-1.847c-8.37-5.24-16.173-11.301-23.101-18.271l-66.912 19.68c-20.469 6.02-34.525 24.806-34.525 46.142v76.239h24.04z" fill="#f9d8af"/><path d="m256 432.355c50.518 0 95.513-23.417 124.9-59.93l-33.949-9.985c-23.231 23.37-55.395 37.85-90.951 37.85s-67.72-14.48-90.951-37.851l-33.949 9.985c29.387 36.514 74.382 59.931 124.9 59.931z" fill="#f9d8af"/><path d="m320.129 223.935h-128.258c-13.282 0-24.048 10.767-24.048 24.048v8.017c0 48.699 39.478 88.177 88.177 88.177 48.699 0 88.177-39.478 88.177-88.177v-8.016c0-13.282-10.767-24.049-24.048-24.049z" fill="#6b4f5a"/><path d="m199.887 256v-32.065h-8.016c-13.282 0-24.048 10.767-24.048 24.048v8.017c0 48.699 39.478 88.177 88.177 88.177 5.483 0 10.826-.569 16.032-1.527-41.033-7.548-72.145-43.434-72.145-86.65z" fill="#61444f"/><path d="m175.839 352.194h-24.049c-4.427 0-8.016 3.589-8.016 8.016v144.29h40.081v-144.29c0-4.428-3.589-8.016-8.016-8.016z" fill="#736572"/><path d="m360.21 352.194h-24.048c-4.427 0-8.016 3.589-8.016 8.016v144.29h40.081v-144.29c-.001-4.428-3.59-8.016-8.017-8.016z" fill="#736572"/><g fill="#615260"><path d="m143.774 400.29h40.081v32.065h-40.081z"/><path d="m328.145 400.29h40.081v32.065h-40.081z"/></g></g><g><path d="m207.903 176.355c-4.142 0-7.5 3.358-7.5 7.5v8.016c0 4.142 3.358 7.5 7.5 7.5s7.5-3.358 7.5-7.5v-8.016c0-4.142-3.358-7.5-7.5-7.5z"/><path d="m304.097 176.355c-4.142 0-7.5 3.358-7.5 7.5v8.016c0 4.142 3.358 7.5 7.5 7.5s7.5-3.358 7.5-7.5v-8.016c0-4.142-3.358-7.5-7.5-7.5z"/><path d="m199.887 167.307h16.032c4.142 0 7.5-3.358 7.5-7.5s-3.358-7.5-7.5-7.5h-16.032c-4.142 0-7.5 3.358-7.5 7.5s3.358 7.5 7.5 7.5z"/><path d="m296.081 167.307h16.032c4.142 0 7.5-3.358 7.5-7.5s-3.358-7.5-7.5-7.5h-16.032c-4.142 0-7.5 3.358-7.5 7.5s3.357 7.5 7.5 7.5z"/><path d="m256 271.516c11.898 0 22.857-3.805 29.316-10.177 2.949-2.909 2.98-7.658.071-10.606-2.91-2.949-7.659-2.98-10.606-.071-2.737 2.701-9.298 5.855-18.781 5.855s-16.043-3.154-18.781-5.855c-2.949-2.91-7.698-2.877-10.606.071-2.909 2.949-2.877 7.697.071 10.606 6.459 6.372 17.418 10.177 29.316 10.177z"/><path d="m415.978 374.924-8.188-2.408v-12.307c0-26.236-21.345-47.581-47.581-47.581h-27.141c9.729-13.205 16.148-28.987 18.029-46.116 8.134-13.173 13.401-27.83 15.529-43.093h4.465c14.617 0 27.154-10.861 28.542-24.727.778-7.771-1.764-15.531-6.975-21.288-2.521-2.787-5.568-4.992-8.917-6.533v-19.198c5.198-1.765 9.732-5.317 12.635-10.116 5.988-9.91 3.794-22.523-4.621-29.907-.125-61.585-50.187-111.65-111.707-111.65h-48.097c-61.52 0-111.581 50.064-111.707 111.65-8.415 7.384-10.608 19.998-4.615 29.917 2.918 4.814 7.358 8.34 12.628 10.108v19.53c-8.631 4.115-14.93 12.266-15.891 21.858-.778 7.771 1.763 15.531 6.974 21.289 5.213 5.762 12.658 9.067 20.425 9.067h5.604c2.127 15.265 7.395 29.913 15.532 43.091 1.88 17.131 8.3 32.914 18.029 46.119h-27.141c-26.236 0-47.581 21.345-47.581 47.581v12.307l-8.188 2.408c-23.498 6.912-39.909 28.845-39.909 53.338v76.237c0 4.142 3.358 7.5 7.5 7.5s7.5-3.358 7.5-7.5v-76.238c0-17.885 11.983-33.9 29.142-38.947l36.02-10.594v125.779c0 4.142 3.358 7.5 7.5 7.5s7.5-3.358 7.5-7.5v-64.645h25.081v64.645c0 4.142 3.358 7.5 7.5 7.5s7.5-3.358 7.5-7.5v-77.546c20.451 8.565 42.152 12.901 64.645 12.901 22.522 0 44.211-4.35 64.645-12.915v77.56c0 4.142 3.358 7.5 7.5 7.5s7.5-3.358 7.5-7.5v-64.645h25.081v64.645c0 4.142 3.358 7.5 7.5 7.5s7.5-3.358 7.5-7.5v-125.779l36.02 10.594c17.158 5.047 29.142 21.062 29.142 38.947v76.238c0 4.142 3.358 7.5 7.5 7.5s7.5-3.358 7.5-7.5v-76.238c0-24.493-16.411-46.426-39.909-53.338zm-64.301-232.349c4.196 2.167 8.324 4.481 12.377 6.94 1.486.899 3.061 1.618 4.688 2.167v16.657h-8.532c-4.705 0-8.532-3.828-8.532-8.532v-17.232zm24.608-40.279c-34.693-18.512-73.287-28.761-112.785-29.915v-57.381h16.548c50.098 0 91.417 38.358 96.237 87.296zm-244.944 19.739c10.015-6.074 20.57-11.456 31.37-15.995 3.819-1.604 5.613-6.001 4.008-9.82s-6-5.613-9.82-4.008c-7.19 3.022-14.277 6.395-21.185 10.08 4.823-48.936 46.142-87.292 96.238-87.292h16.548v57.379c-19.792.579-39.458 3.441-58.563 8.541-4.002 1.068-6.38 5.178-5.312 9.181 1.068 4.002 5.18 6.382 9.181 5.312 20.255-5.407 41.181-8.148 62.194-8.148 44.047 0 87.153 12.023 124.658 34.77 4.031 2.445 5.323 7.724 2.882 11.764-1.562 2.583-4.296 4.125-7.313 4.125-1.54 0-3.064-.43-4.4-1.237-34.832-21.133-74.884-32.303-115.826-32.303s-80.994 11.17-115.831 32.306c-1.937 1.177-4.219 1.528-6.423.988-2.222-.543-4.1-1.923-5.284-3.875-2.443-4.045-1.151-9.324 2.878-11.768zm16.613 27.474c4.05-2.457 8.175-4.769 12.369-6.935v17.232c0 4.705-3.828 8.532-8.532 8.532h-8.533v-16.646c1.622-.549 3.198-1.272 4.696-2.183zm-8.188 58.91c-3.537 0-6.927-1.506-9.303-4.131-2.407-2.66-3.533-6.115-3.17-9.73.63-6.292 6.611-11.22 13.617-11.22h10.88c12.976 0 23.532-10.557 23.532-23.532v-24.229c25.404-10.647 52.817-16.196 80.677-16.196 27.859 0 55.271 5.548 80.677 16.197v24.228c0 12.976 10.557 23.532 23.532 23.532h12.024c3.537 0 6.927 1.505 9.303 4.13 2.407 2.66 3.533 6.115 3.171 9.729-.63 6.292-6.611 11.221-13.617 11.221h-3.393c.001-.145.008-.289.008-.434.003-4.142-3.353-7.502-7.495-7.505-.002 0-.003 0-.005 0-4.14 0-7.497 3.354-7.5 7.495-.007 9.205-1.315 18.285-3.848 26.996-4.966-10.92-15.971-18.536-28.728-18.536h-128.257c-12.761 0-23.769 7.62-28.733 18.545-2.541-8.734-3.848-17.84-3.848-27.078 0-4.142-3.358-7.5-7.5-7.5s-7.5 3.358-7.5 7.5c0 .172.008.344.009.516h-4.533zm35.556 39.565c0-9.125 7.423-16.548 16.548-16.548h128.258c9.125 0 16.548 7.423 16.548 16.548v8.016c0 44.486-36.192 80.677-80.678 80.677-44.485 0-80.677-36.191-80.677-80.677v-8.016zm-56.113 120.12v-7.895c0-17.965 14.616-32.581 32.581-32.581h40.597v6.571c0 5.541-2.782 10.614-7.209 13.648-2.602-1.971-5.831-3.155-9.339-3.155h-24.048c-8.556 0-15.516 6.96-15.516 15.516v2.876zm32.065-7.895c0-.285.231-.516.516-.516h24.048c.285 0 .516.231.516.516v32.581h-25.081v-32.581zm0 64.646v-17.064h25.081v17.064zm104.726 0c-22.623 0-44.357-4.827-64.645-14.321v-19.115c19.77 10.734 41.86 16.371 64.645 16.371 6.125 0 12.287-.413 18.315-1.226 4.105-.554 6.984-4.331 6.43-8.436s-4.334-6.983-8.436-6.43c-5.366.724-10.853 1.091-16.309 1.091-23.063 0-45.325-6.478-64.645-18.753v-12.386c8.611-4.872 14.484-13.571 15.753-23.439 14.318 8.547 31.04 13.467 48.892 13.467s34.574-4.92 48.892-13.467c1.269 9.868 7.142 18.567 15.753 23.439v12.391c-6.214 3.946-12.787 7.329-19.596 10.069-3.843 1.546-5.704 5.915-4.158 9.758 1.177 2.925 3.989 4.702 6.96 4.702.932 0 1.88-.175 2.797-.544 4.781-1.924 9.455-4.135 13.996-6.598v19.124c-20.269 9.493-41.993 14.303-64.644 14.303zm104.726-32.064h-25.081v-32.581c0-.285.231-.516.516-.516h24.048c.285 0 .516.231.516.516v32.581zm-25.081 32.064v-17.064h25.081v17.064zm24.564-80.162h-24.048c-3.508 0-6.737 1.184-9.339 3.155-4.427-3.034-7.209-8.108-7.209-13.648v-6.571h40.597c17.965 0 32.581 14.616 32.581 32.581v7.895l-17.065-5.019v-2.876c0-8.556-6.961-15.517-15.517-15.517z"/></g></g></svg>