<svg id="Capa_1" enable-background="new 0 0 512.001 512.001" height="512" viewBox="0 0 512.001 512.001" width="512" xmlns="http://www.w3.org/2000/svg"><g><g><path d="m167.823 239.968c0 52.413-32.065 94.344-32.065 136.274h96.194v-136.274z" fill="#ffbf45"/><path d="m406.279 373.882-150.278-45.737-150.278 45.737c-20.252 6.164-34.093 24.844-34.093 46.013l24.056 84.605h117.717l42.027-8.58 43.33 8.58h141.611v-84.605c0-21.169-13.84-39.849-34.092-46.013z" fill="#b0ff97"/><path d="m199.888 344.177h112.225l-56.112 160.323z" fill="#87646f"/><path d="m207.904 351.311c14.975 5.659 31.14 8.898 48.097 8.898s33.121-3.239 48.097-8.898v-71.263h-96.194z" fill="#f2c59a"/><path d="m304.097 318.453v-38.405h-96.194v71.263c7.715 2.916 15.756 5.158 24.048 6.677v-1.73-21.118c0-4.409 3.479-7.996 7.754-7.996.312 0 .628.02.947.059 5.082.626 10.245.943 15.347.943 16.512-.001 32.656-3.346 48.098-9.693z" fill="#e6b287"/><circle cx="143.775" cy="223.935" fill="#ffa65a" r="16.032"/><circle cx="368.226" cy="223.935" fill="#ffbf45" r="16.032"/><path d="m272.033 7.5h-32.065c-66.408 0-120.242 53.834-120.242 120.242v60.121h272.548v-60.121c.001-66.408-53.833-120.242-120.241-120.242z" fill="#ffcd5c"/><path d="m207.555 111.012.739-1.081c20.634-30.174 31.674-65.876 31.674-102.431-66.408 0-120.242 53.834-120.242 120.242v60.121h88.13z" fill="#ffbf45"/><path d="m372.234 167.823h-12.024c-8.854 0-16.032-7.178-16.032-16.032v-35.126c0-5.959-6.271-9.835-11.601-7.17l-36.496 18.248 16.032-48.097c-56.113 40.081-96.194 48.097-96.194 48.097l-16.032-32.065-28.551 35.689c-2.274 2.843-3.513 6.375-3.513 10.015v10.408c0 8.854-7.178 16.032-16.032 16.032h-10.879c-10.483 0-20.036 7.542-21.081 17.973-1.202 11.996 8.186 22.108 19.936 22.108h12.429c4.106 53.795 48.957 96.194 103.805 96.194s99.699-42.398 103.805-96.194h11.285c10.483 0 20.036-7.543 21.08-17.974 1.201-11.995-8.187-22.106-19.937-22.106z" fill="#f9d8af"/><path d="m152.196 207.903c4.106 53.795 48.958 96.194 103.805 96.194 12.594 0 24.616-2.326 35.783-6.422l-18.478-2.851c-47.186-7.282-81.434-47.209-81.434-94.937v-50.152c0-3.547 1.2-7.042 3.378-9.843l16.279-20.932-11.641-23.283-28.552 35.689c-2.274 2.843-3.513 6.375-3.513 10.015v10.409c0 8.854-7.179 16.032-16.032 16.032h-10.879c-10.483 0-20.036 7.542-21.081 17.973-1.202 11.996 8.186 22.108 19.937 22.108z" fill="#f2c59a"/><g fill="#89ec9e"><path d="m347.639 411.775-27.518-27.517 25.15-25.151c3.577-3.577 2.987-9.532-1.222-12.338l-39.961-26.641-48.087 184.372h40.073l52.661-82.752c2.016-3.17 1.561-7.316-1.096-9.973z"/><path d="m207.912 320.129-39.962 26.641c-3.106 2.071-4.207 5.853-3.151 9.132l-59.077 17.98c-20.253 6.164-34.093 24.844-34.093 46.013v84.605h24.056v-84.255c0-10.592 7.1-20.079 17.261-23.07l71.145-20.704 7.787 7.788-27.518 27.517c-2.656 2.657-3.112 6.802-1.094 9.972l52.661 82.752h40.073z"/></g></g><g><path d="m274.781 234.748c-2.737 2.701-9.298 5.855-18.781 5.855-9.482 0-16.043-3.154-18.781-5.855-2.949-2.91-7.698-2.877-10.606.071-2.909 2.948-2.877 7.697.071 10.606 6.459 6.373 17.418 10.177 29.316 10.177s22.857-3.805 29.316-10.177c2.949-2.909 2.98-7.658.071-10.606-2.909-2.949-7.658-2.981-10.606-.071z"/><path d="m207.904 176.355c-4.142 0-7.5 3.358-7.5 7.5v8.016c0 4.142 3.358 7.5 7.5 7.5s7.5-3.358 7.5-7.5v-8.016c0-4.142-3.358-7.5-7.5-7.5z"/><path d="m304.097 176.355c-4.142 0-7.5 3.358-7.5 7.5v8.016c0 4.142 3.358 7.5 7.5 7.5s7.5-3.358 7.5-7.5v-8.016c0-4.142-3.358-7.5-7.5-7.5z"/><path d="m215.92 152.307h-16.032c-4.142 0-7.5 3.358-7.5 7.5s3.358 7.5 7.5 7.5h16.032c4.142 0 7.5-3.358 7.5-7.5s-3.358-7.5-7.5-7.5z"/><path d="m296.081 167.307h16.032c4.142 0 7.5-3.358 7.5-7.5s-3.358-7.5-7.5-7.5h-16.032c-4.142 0-7.5 3.358-7.5 7.5s3.358 7.5 7.5 7.5z"/><path d="m407.955 366.908-53.002-15.589c-.606-4.401-3.026-8.313-6.742-10.79l-36.613-24.409v-19.366c20.457-11.787 36.846-29.87 46.512-51.58 3.126 1.489 6.574 2.294 10.117 2.294 12.976 0 23.533-10.557 23.533-23.532 0-4.917-1.518-9.484-4.107-13.263 7.31-4.957 12.123-13.331 12.123-22.809v-60.121c-.001-70.438-57.306-127.743-127.743-127.743h-32.064c-70.438 0-127.742 57.305-127.742 127.742v60.121c0 9.478 4.813 17.852 12.123 22.809-2.589 3.779-4.107 8.347-4.107 13.263 0 12.976 10.557 23.532 23.533 23.532 3.543 0 6.991-.804 10.117-2.294 1.883 4.23 4.019 8.324 6.393 12.259-.402 18.922-8.629 36.401-16.615 53.314-7.858 16.644-15.274 32.374-15.399 49.036l-24.224 7.125c-23.498 6.912-39.909 28.845-39.909 53.338v84.255c0 4.142 3.358 7.5 7.5 7.5s7.5-3.358 7.5-7.5v-84.254c0-17.885 11.983-33.9 29.142-38.947l54.118-15.917 18.876 18.876-22.214 22.214c-5.183 5.181-6.054 13.119-2.12 19.302l52.661 82.752c2.225 3.495 6.86 4.525 10.354 2.301 3.495-2.224 4.525-6.86 2.301-10.354l-52.661-82.752c-.131-.206-.102-.47.07-.642l27.518-27.518c2.929-2.929 2.929-7.678 0-10.606l-25.15-25.15c-.052-.052-.173-.173-.149-.416s.167-.338.228-.379l31.201-20.8 45.432 174.184c.861 3.302 3.844 5.607 7.257 5.607s6.396-2.305 7.257-5.607l45.432-174.184 31.2 20.8c.061.041.204.136.228.379s-.097.364-.149.416l-25.15 25.15c-2.929 2.929-2.929 7.678 0 10.606l27.518 27.518c.172.172.201.436.07.642l-52.661 82.752c-2.224 3.494-1.193 8.13 2.301 10.354 1.248.794 2.642 1.173 4.02 1.173 2.479 0 4.905-1.228 6.334-3.475l52.661-82.752c3.935-6.183 3.063-14.121-2.119-19.301l-22.214-22.214 18.876-18.876 54.118 15.917c17.158 5.047 29.142 21.062 29.142 38.947v84.254c0 4.142 3.358 7.5 7.5 7.5s7.5-3.358 7.5-7.5v-84.254c-.003-24.493-16.414-46.426-39.912-53.338zm-111.358-47.772-7.569 29.021c-10.712 3.012-21.828 4.552-33.069 4.552-11.212 0-22.296-1.535-32.98-4.531l-7.575-29.042v-15.179c12.59 4.928 26.282 7.639 40.597 7.639s28.007-2.711 40.597-7.639v15.179zm71.629-86.668c-1.773 0-3.478-.559-4.902-1.561 1.443-4.983 2.55-10.108 3.289-15.349.527-.1 1.066-.155 1.613-.155 4.705 0 8.533 3.828 8.533 8.532s-3.828 8.533-8.533 8.533zm-128.258-217.468h32.064c62.166 0 112.742 50.576 112.742 112.742v35.614c-3.764-1.934-8.025-3.033-12.541-3.033h-12.023c-4.705 0-8.532-3.828-8.532-8.532v-48.097c0-2.599-1.346-5.013-3.557-6.38s-4.972-1.491-7.297-.328l-48.097 24.048c-3.705 1.852-5.207 6.357-3.354 10.062 1.852 3.705 6.357 5.207 10.062 3.354l37.243-18.621v35.962c0 12.976 10.557 23.532 23.532 23.532h12.024c6.915 0 12.541 5.625 12.541 12.54s-5.625 12.541-12.541 12.541h-4.524v-.458c0-.015 0-.035 0-.05v-.007c0-4.142-3.357-7.5-7.499-7.5 0 0 0 0-.001 0-4.141 0-7.499 3.356-7.5 7.498v.057c-.032 53.299-43.403 96.655-96.709 96.655s-96.678-43.356-96.709-96.655v-.057c-.001-4.142-3.359-7.498-7.501-7.498s-7.499 3.358-7.499 7.5v.002.005.05.458h-4.524c-6.915 0-12.541-5.625-12.541-12.541 0-6.915 5.625-12.54 12.541-12.54h12.024c12.976 0 23.532-10.557 23.532-23.532v-13.401l23.099-28.874 10.79 21.58c1.512 3.025 4.863 4.662 8.179 4 1.701-.34 42.312-8.798 99.082-49.348 3.371-2.408 4.151-7.092 1.744-10.462s-7.092-4.152-10.462-1.744c-42.196 30.14-75.288 41.754-87.842 45.412l-13.316-26.631c-1.144-2.288-3.375-3.835-5.918-4.104-2.548-.267-5.049.776-6.646 2.773l-32.064 40.081c-1.064 1.33-1.644 2.982-1.644 4.685v16.032c0 4.705-3.828 8.532-8.532 8.532h-12.024c-4.515 0-8.776 1.099-12.541 3.033v-35.614c-.003-62.165 50.573-112.741 112.739-112.741zm-96.193 217.468c-4.705 0-8.533-3.828-8.533-8.532s3.828-8.532 8.533-8.532c.548 0 1.086.054 1.613.155.739 5.241 1.846 10.366 3.289 15.349-1.424 1-3.129 1.56-4.902 1.56zm20.015 108.061c-3.716 2.477-6.135 6.389-6.742 10.79l-13.499 3.97c1.36-12.026 7.367-24.755 13.685-38.138 6.074-12.865 12.71-26.968 15.996-42.326 7.836 8.646 17 16.067 27.173 21.928v19.366zm92.211 134.254-28.716-110.093c9.385 2 18.989 3.02 28.674 3.02 9.712 0 19.348-1.02 28.76-3.032z"/></g></g></svg>