<svg id="Capa_1" enable-background="new 0 0 512 512" height="512" viewBox="0 0 512 512" width="512" xmlns="http://www.w3.org/2000/svg"><g><g><path d="m239.968 23.532h-40.081c-35.417 0-64.129 28.712-64.129 64.129v88.177h104.21z" fill="#61444f"/><path d="m328.145 7.5h-120.242c-16.064 0-29.369 11.813-31.701 27.226-.42 2.774.159 5.622 1.715 7.957 9.098 13.647 13.954 29.682 13.954 46.084v87.071h184.37v-120.242c.001-26.562-21.533-48.096-48.096-48.096z" fill="#6b4f5a"/><path d="m183.855 191.871h144.29v160.323h-144.29z" fill="#f1a673"/><path d="m372.234 159.806h-12.024c-8.854 0-16.032-7.178-16.032-16.032v-24.048c0-17.709-14.356-32.065-32.065-32.065h-112.226c-17.709 0-32.065 14.356-32.065 32.065v24.048c0 8.854-7.178 16.032-16.032 16.032h-10.879c-10.483 0-20.036 7.542-21.081 17.973-1.202 11.996 8.186 22.108 19.936 22.108h12.429c4.106 53.795 48.957 96.194 103.805 96.194 54.847 0 99.693-42.399 103.799-96.194h11.291c10.483 0 20.036-7.543 21.08-17.974 1.201-11.996-8.186-22.107-19.936-22.107z" fill="#ffce8a"/><path d="m435.325 367.535-59.687-14.003-239.88-1.338-59.762 14.94c-21.411 5.353-36.432 24.591-36.432 46.661l24.049 90.705h408.823v-90.14c-.001-22.331-15.371-41.724-37.111-46.825z" fill="#fc5f7a"/><path d="m82.612 390.842 123.209-31.376c4.581-1.166 8.476-3.616 11.498-6.817l-81.561-.455-59.762 14.94c-21.411 5.353-36.432 24.591-36.432 46.661v90.705h24.048v-90.138c.001-11.222 7.633-20.851 19-23.52z" fill="#f84455"/><path d="m338.922 308.654c-2.631-3.069-7.071-3.603-10.491-1.448-20.987 13.227-45.79 20.939-72.431 20.939s-51.444-7.711-72.431-20.939c-3.42-2.155-7.86-1.621-10.491 1.448l-37.319 43.539.001.003c33.495 25.16 75.123 40.077 120.24 40.077s86.746-14.917 120.24-40.077l.001-.003z" fill="#ff8087"/><path d="m152.195 199.887c4.106 53.795 48.958 96.194 103.805 96.194 12.594 0 24.616-2.327 35.783-6.422l-18.478-2.851c-47.186-7.282-81.434-47.208-81.434-94.936v-99.764-3.313c-13.805 3.576-24.048 16.007-24.048 30.931v24.048c0 8.854-7.179 16.032-16.032 16.032h-10.879c-10.483 0-20.036 7.542-21.081 17.973-1.202 11.996 8.186 22.108 19.937 22.108z" fill="#f8ba7e"/></g><g><path d="m207.903 160.323c-4.142 0-7.5 3.358-7.5 7.5v8.016c0 4.142 3.358 7.5 7.5 7.5s7.5-3.358 7.5-7.5v-8.016c0-4.142-3.358-7.5-7.5-7.5z"/><path d="m304.097 160.323c-4.142 0-7.5 3.358-7.5 7.5v8.016c0 4.142 3.358 7.5 7.5 7.5s7.5-3.358 7.5-7.5v-8.016c0-4.142-3.358-7.5-7.5-7.5z"/><path d="m256 239.452c11.898 0 22.857-3.805 29.316-10.177 2.949-2.909 2.98-7.658.071-10.606-2.91-2.949-7.659-2.98-10.606-.071-2.737 2.701-9.298 5.855-18.781 5.855s-16.043-3.154-18.781-5.855c-2.949-2.91-7.698-2.877-10.606.071-2.909 2.949-2.877 7.697.071 10.606 6.459 6.372 17.418 10.177 29.316 10.177z"/><path d="m199.887 151.274h16.032c4.142 0 7.5-3.358 7.5-7.5s-3.358-7.5-7.5-7.5h-16.032c-4.142 0-7.5 3.358-7.5 7.5s3.358 7.5 7.5 7.5z"/><path d="m296.081 151.274h16.032c4.142 0 7.5-3.358 7.5-7.5s-3.358-7.5-7.5-7.5h-16.032c-4.142 0-7.5 3.358-7.5 7.5s3.357 7.5 7.5 7.5z"/><path d="m437.038 360.233-55.109-12.929-37.312-43.531c-2.382-2.779-5.536-4.503-8.9-5.123l.242-28.868c16.216-16.639 27.307-38.298 30.673-62.396h4.459c14.617 0 27.154-10.861 28.543-24.727.778-7.771-1.765-15.531-6.975-21.288-2.521-2.787-5.568-4.992-8.917-6.533v-99.242c0-30.655-24.941-55.596-55.597-55.596h-120.242c-15.286 0-28.566 8.72-35.152 21.442-26.741 10.963-44.494 37.174-44.494 66.219v67.512c-8.63 4.115-14.929 12.266-15.891 21.859-.778 7.771 1.764 15.531 6.974 21.289 5.213 5.762 12.658 9.067 20.425 9.067h5.598c3.364 24.107 14.456 45.771 30.677 62.411l.242 28.852c-3.364.619-6.518 2.344-8.9 5.123l-37.312 43.531-55.109 12.929c-25.258 5.926-42.898 28.184-42.898 54.127v90.14c0 4.142 3.358 7.5 7.5 7.5s7.5-3.358 7.5-7.5v-90.14c0-7.954 2.278-15.429 6.278-21.75l49.341 49.341c6.153 6.154 9.542 14.335 9.542 23.038v39.51c0 4.142 3.358 7.5 7.5 7.5s7.5-3.358 7.5-7.5v-39.511c0-12.709-4.949-24.658-13.936-33.645l-49.704-49.704c4.313-3.161 9.308-5.515 14.802-6.804l57.268-13.436c35.286 25.119 76.772 38.373 120.344 38.373s85.059-13.254 120.344-38.373l57.268 13.436c5.494 1.289 10.489 3.643 14.802 6.804l-49.704 49.704c-8.987 8.987-13.936 20.935-13.936 33.645v39.511c0 4.142 3.358 7.5 7.5 7.5s7.5-3.358 7.5-7.5v-39.511c0-8.703 3.389-16.884 9.542-23.038l49.341-49.341c4 6.322 6.278 13.796 6.278 21.75v90.14c0 4.142 3.358 7.5 7.5 7.5s7.5-3.358 7.5-7.5v-90.14c.003-25.943-17.638-48.201-42.895-54.127zm-130.318 17.838-13.709-47.309c4.746-1.27 9.424-2.782 14.02-4.536l25.11 42.967c-8.258 3.558-16.746 6.526-25.421 8.878zm-126.861-8.877 25.111-42.967c4.595 1.753 9.274 3.266 14.02 4.536l-13.709 47.309c-8.676-2.353-17.164-5.321-25.422-8.878zm140.82-66.058c-19.642 11.467-41.908 17.509-64.679 17.509s-45.037-6.042-64.679-17.509l-.17-20.361c18.296 13.09 40.687 20.806 64.85 20.806 24.159 0 46.551-7.721 64.85-20.817zm-86.976 30.744c4.89.77 9.828 1.287 14.797 1.547v49.205c-9.669-.366-19.212-1.44-28.576-3.202zm29.797 1.547c4.97-.26 9.907-.777 14.797-1.547l13.778 47.549c-9.364 1.762-18.907 2.836-28.576 3.202v-49.204zm-111.709-151.056c-4.142 0-7.5 3.358-7.5 7.5v.516h-4.524c-3.537 0-6.927-1.506-9.303-4.131-2.407-2.66-3.533-6.115-3.17-9.729.63-6.292 6.612-11.221 13.617-11.221h10.88c12.976 0 23.532-10.557 23.532-23.532v-24.049c0-13.545 11.02-24.564 24.564-24.564 4.142 0 7.5-3.358 7.5-7.5s-3.358-7.5-7.5-7.5c-21.816 0-39.564 17.749-39.564 39.564v24.049c0 4.705-3.828 8.532-8.532 8.532h-8.533v-64.645c0-19.065 9.687-36.582 25.081-46.94v14.876c0 4.142 3.358 7.5 7.5 7.5s7.5-3.358 7.5-7.5v-16.033c0-13.545 11.02-24.564 24.564-24.564h120.242c22.385 0 40.597 18.212 40.597 40.597v96.709h-8.532c-4.705 0-8.532-3.828-8.532-8.532v-24.049c0-21.816-17.749-39.564-39.564-39.564h-80.16c-4.142 0-7.5 3.358-7.5 7.5s3.358 7.5 7.5 7.5h80.16c13.545 0 24.564 11.02 24.564 24.564v24.049c0 12.976 10.557 23.532 23.532 23.532h12.024c3.537 0 6.927 1.505 9.303 4.13 2.407 2.66 3.533 6.115 3.171 9.729-.63 6.292-6.611 11.221-13.617 11.221h-3.385v-.439c0-4.141-3.356-7.499-7.497-7.5-.001 0-.002 0-.003 0-4.14 0-7.497 3.354-7.5 7.495-.039 53.286-43.421 96.638-96.706 96.638-53.326 0-96.709-43.384-96.709-96.709 0-4.142-3.358-7.5-7.5-7.5zm26.981 129.164c.186-.216.543-.144.798.016 3.774 2.378 7.65 4.554 11.601 6.559l-24.889 42.589c-6.694-3.533-13.211-7.472-19.518-11.82zm166.947 49.164-24.889-42.588c3.95-2.006 7.827-4.181 11.6-6.559.254-.16.612-.233.798-.017l32.009 37.344c-6.307 4.348-12.824 8.287-19.518 11.82z"/></g></g></svg>