<svg id="Capa_1" enable-background="new 0 0 512 512" height="512" viewBox="0 0 512 512" width="512" xmlns="http://www.w3.org/2000/svg"><g><g><path d="m256 7.5c-61.981 0-112.226 19.141-112.226 42.753v37.409h224.452v-37.409c0-23.612-50.245-42.753-112.226-42.753z" fill="#ffcd5c"/><path d="m143.774 50.253v37.409h64.129v-75.992c-37.88 6.866-64.129 21.538-64.129 38.583z" fill="#ffbf45"/><ellipse cx="256" cy="155.798" fill="#ffa65a" rx="232.468" ry="100.202"/><path d="m393.198 338.17c37.868-30.686-.924-77.042-.924-133.771 0-24.048 0-44.593 0-44.593 0-39.845-61.012-72.145-136.274-72.145s-136.274 32.3-136.274 72.145v44.593c0 56.729-38.792 103.085-.924 133.771 29.864 24.2-12.405 86.168-12.405 86.168h299.207c-.001.001-42.269-61.968-12.406-86.168z" fill="#e0916d"/><path d="m247.984 424.339v-152.307l-40.081-96.194v-83.466c-51.492 10.302-88.177 36.567-88.177 67.435v44.593c0 56.729-38.792 103.085-.924 133.771 29.864 24.2-12.405 86.168-12.405 86.168z" fill="#d18964"/><path d="m408.451 412.938-80.306-28.68h-72.145-72.145l-80.306 28.68c-19.142 6.837-31.92 24.968-31.92 45.295l24.048 44.794 344.694 1.473v-46.267c0-20.326-12.778-38.458-31.92-45.295z" fill="#ff8857"/><path d="m95.677 503.027v-44.796c0-10.135 6.416-19.236 15.966-22.649l80.301-28.678 7.55-2.696-2.698-7.55-4.43-12.399h-8.512l-80.306 28.68c-19.142 6.837-31.92 24.968-31.92 45.295v46.266h24.048v-1.473z" fill="#ff744d"/><path d="m207.903 296.081h96.194v88.177h-96.194z" fill="#f9d8af"/><path d="m231.952 359.188c0-4.465 3.62-7.962 8.239-7.962.363 0 .729.022 1.099.067 4.903.598 9.853.901 14.71.901 16.593 0 32.734-3.288 48.097-9.53v-46.583h-96.194v88.177h16.032 8.016v-8.016-17.054z" fill="#f2c59a"/><path d="m223.935 400.29v80.162l32.065 24.048 32.065-24.048v-80.162z" fill="#ffbf45"/><path d="m223.935 437.677c10.605 1.711 21.334 2.687 32.122 2.694 10.751-.007 21.441-.975 32.007-2.671v-37.41h-64.129z" fill="#ffa65a"/><path d="m324.118 156.45-44.069-36.724v22.984c0 4.822-4.226 8.552-9.01 7.954l-101.227-12.653c-9.569-1.196-18.021 6.265-18.021 15.908v67.073c0 56.112 43.122 104.395 99.172 107.034 59.844 2.818 109.248-44.867 109.248-104.091v-54.221c0-11.918-12.542-19.67-23.202-14.34l-4.173 2.087c-2.85 1.425-6.272 1.028-8.718-1.011z" fill="#fbe7c3"/><path d="m183.855 220.992v-81.225l-14.044-1.755c-9.569-1.196-18.021 6.265-18.021 15.908v67.072c0 56.112 43.121 104.395 99.172 107.035 7.207.34 14.252-.091 21.089-1.148-50.601-7.969-88.196-53.501-88.196-105.887z" fill="#f9d8af"/><path d="m230.961 252.228c-4.169 0-7.054 3.983-6.014 8.021 3.561 13.827 16.114 24.044 31.053 24.044 15.192 0 27.916-10.565 31.226-24.749.881-3.775-2.274-7.315-6.15-7.315h-50.115z" fill="#fff"/><path d="m338.766 358.949c-4.448-7.435-13.881-9.772-21.565-5.769-18.511 9.641-39.376 15.027-61.128 15.047-21.752-.019-42.617-5.406-61.128-15.047-7.684-4.002-17.117-1.666-21.565 5.769l-12.424 20.765c-2.244 3.751-1.122 8.693 2.631 10.933 27.414 16.359 59.178 25.655 92.486 25.676 33.308-.022 65.072-9.317 92.486-25.676 3.753-2.24 4.875-7.182 2.631-10.933z" fill="#ffcd5c"/></g><g><path d="m207.903 200.403c-4.142 0-7.5 3.358-7.5 7.5v8.016c0 4.142 3.358 7.5 7.5 7.5s7.5-3.358 7.5-7.5v-8.016c0-4.142-3.358-7.5-7.5-7.5z"/><path d="m304.097 200.403c-4.142 0-7.5 3.358-7.5 7.5v8.016c0 4.142 3.358 7.5 7.5 7.5s7.5-3.358 7.5-7.5v-8.016c0-4.142-3.358-7.5-7.5-7.5z"/><path d="m217.522 188.676c4.046-.885 6.609-4.883 5.724-8.93-.885-4.046-4.88-6.608-8.93-5.724l-16.032 3.507c-4.046.885-6.609 4.883-5.724 8.93.767 3.506 3.872 5.898 7.319 5.898.531 0 1.07-.057 1.61-.175z"/><path d="m313.716 177.53-16.032-3.507c-4.048-.883-8.044 1.677-8.93 5.724-.885 4.046 1.677 8.044 5.724 8.93l16.032 3.507c.541.118 1.079.175 1.61.175 3.448 0 6.552-2.392 7.319-5.898.886-4.047-1.677-8.045-5.723-8.931z"/><path d="m495.968 155.798c0-22.701-14.844-44.207-42.927-62.192-20.257-12.974-46.644-23.681-77.315-31.464v-11.889c0-32.641-61.686-50.253-119.726-50.253s-119.726 17.612-119.726 50.253v11.877c-17.149 4.362-33.151 9.689-47.623 15.927-46.83 20.185-72.62 47.794-72.62 77.741 0 33.848 33.32 64.779 91.476 85.041-1.501 6.521-3.208 12.93-4.898 19.261-8.422 31.541-16.376 61.332 11.47 83.897 4.74 3.841 7.292 8.576 7.802 14.474 1.451 16.8-13.372 39.408-19.99 47.233l-.669.236c-22.187 7.83-37.093 28.899-37.093 52.427v46.133c0 4.142 3.358 7.5 7.5 7.5s7.5-3.358 7.5-7.5v-46.132c0-17.18 10.885-32.564 27.085-38.282l57.917-20.441c16.454 9.226 34.092 15.901 52.304 19.868v60.939c0 2.361 1.111 4.583 3 6l32.065 24.048c1.333 1 2.917 1.5 4.5 1.5s3.167-.5 4.5-1.5l32.064-24.048c1.889-1.417 3-3.639 3-6v-60.939c18.211-3.967 35.849-10.642 52.304-19.869l57.917 20.441c16.201 5.718 27.085 21.102 27.085 38.282v46.133c0 4.142 3.358 7.5 7.5 7.5s7.5-3.358 7.5-7.5v-46.132c0-23.505-14.879-44.555-37.031-52.403-6.577-7.691-22.183-30.585-20.722-47.493.51-5.898 3.062-10.633 7.802-14.474 27.846-22.565 19.892-52.357 11.47-83.897-1.69-6.331-3.398-12.74-4.898-19.261 58.156-20.263 91.477-51.194 91.477-85.042zm-244.653 164.737c-24.929-1.174-48.165-12.197-65.427-31.04-17.152-18.721-26.597-43.049-26.597-68.503v-67.073c0-2.482 1.025-4.754 2.886-6.396 1.583-1.397 3.543-2.138 5.61-2.138.362 0 .728.022 1.095.068l110.237 13.78c2.134.268 4.281-.396 5.894-1.819 1.613-1.424 2.537-3.471 2.537-5.623v-16.052l35.795 29.83c2.289 1.908 5.489 2.278 8.155.947l8.863-4.432c2.704-1.351 5.729-1.216 8.301.374 2.571 1.589 4.046 4.235 4.046 7.258v54.221c0 26.696-10.642 51.55-29.964 69.984-19.311 18.422-44.685 27.871-71.431 26.614zm-.706 14.983c1.825.086 3.642.129 5.455.128 14.089 0 27.772-2.591 40.533-7.565v25.773c-13.067 4.506-26.835 6.854-40.59 6.866-13.764-.012-27.535-2.361-40.603-6.867v-25.992c11.129 4.465 22.987 7.082 35.205 7.657zm5.397 40.203c22.324-.02 44.658-5.516 64.586-15.895 4.299-2.239 9.313-.962 11.664 2.968l12.424 20.766c.114.19.092.373.069.465-.033.133-.085.164-.106.176-26.953 16.084-57.607 24.596-88.638 24.617-31.041-.021-61.694-8.533-88.647-24.617-.022-.013-.074-.043-.107-.176-.023-.092-.045-.275.069-.465l12.424-20.765c1.571-2.626 4.33-4.067 7.271-4.067 1.46 0 2.966.356 4.393 1.099 19.928 10.379 42.261 15.875 64.598 15.894zm24.558 100.981-24.564 18.423-24.564-18.423v-54.541c5.656.757 11.35 1.249 17.064 1.484v40.774c0 4.142 3.358 7.5 7.5 7.5s7.5-3.358 7.5-7.5v-40.774c5.714-.235 11.408-.727 17.064-1.484zm107.913-144.359c-7.97 6.458-12.447 14.827-13.306 24.873-1.196 13.993 5.147 28.935 11.708 40.29l-27.607-9.743c.006-.025.016-.048.022-.073 1.02-4.047.401-8.249-1.742-11.831l-12.424-20.765c-6.383-10.67-20.205-14.437-31.465-8.571-.684.356-1.377.694-2.067 1.037v-26.669c7.686-4.431 14.901-9.82 21.503-16.118 22.318-21.292 34.61-50.001 34.61-80.837v-54.221c0-8.215-4.172-15.699-11.161-20.018-6.987-4.318-15.546-4.704-22.895-1.03l-4.476 2.238-44.329-36.941c-2.235-1.863-5.346-2.264-7.982-1.03-2.635 1.234-4.319 3.882-4.319 6.792v23.569l-101.807-12.726c-6.694-.838-13.434 1.244-18.492 5.708-5.058 4.465-7.958 10.895-7.958 17.642v67.073c0 29.214 10.845 57.141 30.537 78.636 7.605 8.302 16.224 15.286 25.576 20.833v27.1c-.69-.343-1.383-.681-2.067-1.037-11.26-5.864-25.081-2.099-31.465 8.571l-12.424 20.765c-2.143 3.582-2.762 7.784-1.742 11.831.006.025.016.048.022.073l-27.898 9.846c.094-.16.188-.314.283-.475 8.768-14.867 12.71-28.297 11.716-39.918-.859-10.046-5.335-18.414-13.305-24.873-19.346-15.677-15.277-35.206-6.421-68.374 4.745-17.77 10.123-37.911 10.123-59.57v-44.593c0-35.042 58.972-64.646 128.774-64.646s128.774 29.604 128.774 64.646v44.593c0 21.659 5.378 41.8 10.123 59.57 8.857 33.168 12.926 52.697-6.419 68.373zm13.088-106.373c-1.105-7.024-1.79-14.2-1.79-21.571v-44.593c0-22.183-15.592-42.654-43.905-57.643-26.8-14.188-62.268-22.002-99.87-22.002s-73.069 7.814-99.87 22.002c-28.312 14.989-43.905 35.46-43.905 57.643v44.593c0 7.371-.685 14.547-1.79 21.571-49.799-17.766-79.403-43.844-79.403-70.172 0-23.241 23.166-46.556 63.557-63.966 42.991-18.53 100.315-28.735 161.411-28.735 18.714 0 37.325.974 55.316 2.896 4.114.436 7.814-2.542 8.254-6.661s-2.542-7.814-6.661-8.254c-18.518-1.978-37.665-2.981-56.909-2.981-36.892 0-72.526 3.644-104.726 10.528v-8.371c0-7.852 10.482-16.534 28.04-23.222 20.365-7.76 47.6-12.032 76.686-12.032 59.939 0 104.726 18.612 104.726 35.253v8.391c-3.979-.85-8.017-1.654-12.115-2.408-4.075-.75-7.984 1.944-8.734 6.018s1.944 7.984 6.018 8.734c80.792 14.877 135.074 48.96 135.074 84.811-.001 26.327-29.605 52.405-79.404 70.171z"/><path d="m288.064 244.728h-64.129c-4.142 0-7.5 3.358-7.5 7.5 0 21.816 17.749 39.564 39.564 39.564s39.564-17.749 39.564-39.564c.001-4.143-3.356-7.5-7.499-7.5zm-32.064 32.064c-10.931 0-20.217-7.176-23.394-17.064h46.788c-3.177 9.888-12.463 17.064-23.394 17.064z"/></g></g></svg>