<svg id="Capa_1" enable-background="new 0 0 512 512" height="512" viewBox="0 0 512 512" width="512" xmlns="http://www.w3.org/2000/svg"><g><g><path d="m280.407 103.694h-48.097c-26.563 0-48.097-21.534-48.097-48.097 0-26.563 21.534-48.097 48.097-48.097h48.097c26.563 0 48.097 21.534 48.097 48.097 0 26.563-21.534 48.097-48.097 48.097z" fill="#6b4f5a"/><path d="m272.391 63.613h-32.065c-61.981 0-112.226 50.245-112.226 112.226v40.081h256.516v-40.081c.001-61.981-50.245-112.226-112.225-112.226z" fill="#6b4f5a"/><path d="m360.568 336.161h-208.419c-22.136 0-40.081 17.945-40.081 40.081v56.113h288.581v-56.113c0-22.136-17.945-40.081-40.081-40.081z" fill="#847f84"/><path d="m408.641 404.997-82.792-29.221c-12.82-4.525-21.393-16.642-21.393-30.237v-41.443h-96.194v41.443c0 13.595-8.573 25.712-21.393 30.237l-82.792 29.221c-19.229 6.787-32.089 24.962-32.089 45.354v22.084h368.742v-22.084c-.001-20.392-12.86-38.567-32.089-45.354z" fill="#c7805d"/><path d="m304.455 345.54v-41.443h-96.194v41.443c0 13.595-8.573 25.712-21.393 30.237l-2.656.937v25.502l10.653-3.76c15.986-5.64 28.417-18.091 34.104-34.158 1.211-3.422 4.117-5.721 7.229-5.721.36 0 .725.029 1.094.089 6.375 1.025 12.789 1.545 19.065 1.545 16.633 0 32.907-3.39 48.474-9.845-.238-1.583-.376-3.192-.376-4.826z" fill="#b06e4d"/><path d="m408.64 404.997-48.304-17.048c-26.255 27.325-63.091 44.406-103.978 44.406s-77.722-17.081-103.978-44.406l-48.304 17.048c-19.23 6.787-32.089 24.962-32.089 45.354l24.04 54.148h48.106l24.965-11.724 15.116 11.724h144.29l18.693-11.724 23.457 11.724h70.076v-54.148c-.001-20.392-12.86-38.567-32.09-45.354z" fill="#ff8087"/><path d="m96.036 503.027v-52.672c0-10.178 6.449-19.293 16.047-22.68l56.49-19.938 4.869-1.719c-7.582-5.353-14.647-11.394-21.061-18.069l-48.304 17.048c-19.229 6.787-32.089 24.962-32.089 45.354v54.149h24.04z" fill="#ff646f"/><path d="m256.359 448.387c47.923 0 90.883-21.244 120.286-54.683l-33.227-11.727c-22.896 21.24-53.441 34.345-87.059 34.345s-64.164-13.105-87.059-34.345l-33.227 11.727c29.402 33.439 72.362 54.683 120.286 54.683z" fill="#ff979d"/><path d="m372.592 199.887-12.024-72.145h-208.419v72.145h-12.024c-11.068 0-20.04 8.972-20.04 20.04s8.972 20.04 20.04 20.04h12.429c4.106 53.795 48.957 96.194 103.805 96.194s99.699-42.398 103.805-96.194h12.429c11.068 0 20.04-8.973 20.04-20.04 0-11.068-8.972-20.04-20.041-20.04z" fill="#e0916d"/><path d="m152.149 199.887h-12.024c-11.068 0-20.04 8.972-20.04 20.04s8.972 20.04 20.04 20.04h12.429c4.106 53.795 48.958 96.194 103.805 96.194 12.594 0 24.616-2.326 35.783-6.422l-18.478-2.851c-47.186-7.282-81.434-47.209-81.434-94.937v-8.155c0-3.613 2.329-6.755 5.665-7.641 29.165-7.749 55.874-20.794 79.385-38.773l23.217-18.023 6.729-5.224-20.797-23.669z" fill="#c7805d"/><path d="m377.177 200.463c2.752.647 5.256 1.871 7.44 3.522v-28.147c0-35.197-16.228-66.579-41.583-87.154l-70.643 48.117c19.646 37.5 58.94 63.085 104.21 63.085z" fill="#6b4f5a"/><path d="m176.197 368.226h-24.048c-4.427 0-8.016 3.589-8.016 8.016v128.258h40.081v-128.258c-.001-4.427-3.589-8.016-8.017-8.016z" fill="#736572"/><path d="m347.383 92.518c-19.886-17.91-46.123-28.905-74.992-28.905h-32.065c-61.981 0-112.226 50.245-112.226 112.226v24.048h11.666.001c44.424 0 87.614-14.621 122.904-41.607z" fill="#61444f"/><path d="m360.568 368.226h-24.048c-4.427 0-8.016 3.589-8.016 8.016v128.258h40.081v-128.258c-.001-4.427-3.589-8.016-8.017-8.016z" fill="#736572"/><g fill="#615260"><path d="m144.133 416.323h40.081v32.065h-40.081z"/><path d="m328.504 416.323h40.081v32.065h-40.081z"/></g></g><g><path d="m285.316 277.371c2.948-2.909 2.98-7.658.071-10.606s-7.658-2.98-10.606-.071c-2.737 2.701-9.299 5.855-18.781 5.855s-16.043-3.154-18.781-5.855c-2.949-2.91-7.698-2.877-10.606.071-2.909 2.949-2.877 7.697.071 10.606 6.459 6.373 17.418 10.177 29.316 10.177s22.857-3.804 29.316-10.177z"/><path d="m207.903 208.301c-4.142 0-7.5 3.357-7.5 7.5v8.016c0 4.143 3.358 7.5 7.5 7.5s7.5-3.357 7.5-7.5v-8.016c0-4.143-3.358-7.5-7.5-7.5z"/><path d="m304.097 231.316c4.142 0 7.5-3.357 7.5-7.5v-8.016c0-4.143-3.358-7.5-7.5-7.5s-7.5 3.357-7.5 7.5v8.016c0 4.143 3.358 7.5 7.5 7.5z"/><path d="m411.143 398.158-2.994-1.06v-20.856c0-26.236-21.345-47.581-47.581-47.581h-48.707c29.104-16.876 49.924-46.51 54.765-81.193h5.607c15.186 0 27.541-12.354 27.541-27.54 0-7.375-2.921-14.076-7.658-19.024v-25.065c0-43.8-23.646-82.174-58.838-103.047 1.801-5.54 2.725-11.315 2.725-17.195.001-30.657-24.94-55.597-55.596-55.597h-48.097c-30.656 0-55.597 24.94-55.597 55.597 0 5.881.924 11.656 2.725 17.195-35.192 20.874-58.838 59.248-58.838 103.047v24.339c-5.159 5.008-8.375 12.009-8.375 19.75 0 15.186 12.354 27.54 27.541 27.54h5.607c4.841 34.684 25.661 64.317 54.765 81.193h-47.99c-26.236 0-47.581 21.345-47.581 47.581v20.603l-3.705 1.312c-22.187 7.83-37.093 28.899-37.093 52.427v53.916c0 4.142 3.358 7.5 7.5 7.5s7.5-3.358 7.5-7.5v-53.917c0-17.18 10.885-32.565 27.092-38.284l30.771-10.891v103.092c0 4.142 3.358 7.5 7.5 7.5s7.5-3.358 7.5-7.5v-48.613h25.081v48.613c0 4.142 3.358 7.5 7.5 7.5s7.5-3.358 7.5-7.5v-61.514c20.451 8.565 42.152 12.901 64.645 12.901 22.522 0 44.211-4.35 64.646-12.915v61.528c0 4.142 3.358 7.5 7.5 7.5s7.5-3.358 7.5-7.5v-48.613h25.081v48.613c0 4.142 3.358 7.5 7.5 7.5s7.5-3.358 7.5-7.5v-102.839l30.06 10.64c16.201 5.718 27.085 21.103 27.085 38.282v53.917c0 4.142 3.358 7.5 7.5 7.5s7.5-3.358 7.5-7.5v-53.917c-.001-23.528-14.907-44.597-37.087-52.425zm-34.033-222.861c.001.181.007.36.007.542v16.545c-34.698.337-66.66-18.299-84.025-47.926l13.678-10.46c13.889 25.341 40.485 41.324 69.83 41.324.172 0 .341-.014.51-.025zm-1.146-14.986c-24.337-.237-46.264-14.002-57.11-35.552l28.598-21.869c14.931 15.359 25.204 35.265 28.512 57.421zm-143.654-145.311h48.097c22.385 0 40.597 18.212 40.597 40.597 0 3.493-.439 6.933-1.308 10.267-14.519-6.269-30.512-9.751-47.305-9.751h-32.064c-16.793 0-32.786 3.481-47.305 9.75-.869-3.333-1.308-6.773-1.308-10.267-.001-22.384 18.211-40.596 40.596-40.596zm-96.709 160.839c0-57.746 46.979-104.726 104.726-104.726h32.064c23.924 0 45.995 8.069 63.648 21.622l-77.923 59.588c-33.786 25.836-75.816 40.065-118.349 40.065-1.416 0-2.807.108-4.166.315zm23.69 56.113c0-4.142-3.358-7.5-7.5-7.5s-7.5 3.358-7.5 7.5c0 .172.006.344.007.516h-4.531c-6.915 0-12.541-5.625-12.541-12.54s5.626-12.541 12.542-12.541c45.807 0 91.073-15.324 127.459-43.149l13.864-10.602c19.19 31.633 52.576 51.628 89.55 53.578l1.526.06c6.915 0 12.607 5.739 12.607 12.654s-5.625 12.54-12.541 12.54h-4.531c.001-.172.007-.344.007-.516 0-4.142-3.358-7.5-7.5-7.5s-7.5 3.358-7.5 7.5c0 53.326-43.384 96.709-96.709 96.709s-96.709-43.384-96.709-96.709zm17.422 208.935h-25.081v-17.065h25.081zm0-32.065h-25.081v-32.58c0-.285.231-.517.516-.517h24.048c.285 0 .516.231.516.517v32.58zm12.663-41.995-.691.245c-2.827-3.84-7.365-6.347-12.488-6.347h-24.048c-8.556 0-15.516 6.961-15.516 15.517v9.254l-17.064 6.04v-15.293c0-17.965 14.616-32.581 32.581-32.581h48.254v7.566c-.001 6.996-4.432 13.265-11.028 15.599zm131.628 23.245c-6.215 3.946-12.788 7.33-19.596 10.069-3.843 1.546-5.704 5.915-4.158 9.758 1.177 2.925 3.989 4.702 6.96 4.702.932 0 1.88-.175 2.797-.544 4.781-1.924 9.455-4.135 13.997-6.599v19.125c-20.271 9.493-41.995 14.304-64.646 14.304-22.623 0-44.357-4.826-64.645-14.32v-19.115c19.769 10.733 41.859 16.371 64.645 16.371 6.125 0 12.287-.412 18.315-1.226 4.105-.554 6.983-4.331 6.43-8.436s-4.331-6.985-8.436-6.43c-5.366.724-10.853 1.091-16.309 1.091-23.063 0-45.325-6.478-64.645-18.752v-8.158l2.668-.944c12.574-4.45 21.022-16.402 21.022-29.74v-15.241c12.483 4.833 26.429 7.675 40.597 7.675 14.315 0 28.007-2.709 40.597-7.638v15.204c0 13.338 8.448 25.29 21.022 29.74l3.385 1.198zm40.08 50.815h-25.081v-17.065h25.081zm0-32.065h-25.081v-32.58c0-.285.231-.517.516-.517h24.048c.285 0 .516.231.516.517v32.58zm32.065-17.033-17.064-6.04v-9.507c0-8.556-6.96-15.517-15.516-15.517h-24.049c-5.213 0-9.823 2.593-12.638 6.547l-1.259-.445c-6.596-2.334-11.027-8.604-11.027-15.6v-7.566h48.972c17.965 0 32.581 14.616 32.581 32.581z"/></g></g></svg>