<svg id="Capa_1" enable-background="new 0 0 512 512" height="512" viewBox="0 0 512 512" width="512" xmlns="http://www.w3.org/2000/svg"><g><g><path d="m376.242 223.936c-2.169 28.511 6.591 66.165 11.818 85.489 1.564 5.783-3.521 11.134-9.385 9.907l-34.497-7.218-16.032-40.081 40.081-56.113z" fill="#ffcd5c"/><path d="m296.081 328.146 47.049 14.252c5.897 1.786 11.533-3.418 10.146-9.421-5.246-22.705-15.321-68.533-17.114-93.008z" fill="#ffbf63"/><path d="m135.193 223.936c2.169 28.511-6.591 66.165-11.818 85.489-1.564 5.783 3.521 11.134 9.385 9.907l34.497-7.218 16.032-40.081-40.081-56.113z" fill="#ffbf63"/><path d="m215.354 328.146-47.049 14.252c-5.897 1.786-11.533-3.418-10.146-9.421 5.246-22.705 15.321-68.533 17.114-93.008z" fill="#ffa65a"/><path d="m394.103 128.366 11.003-13.754c2.605-3.256 2.313-7.931-.717-10.796-8.945-8.457-27.544-26.929-44.268-49.228-13.71-18.281-23.96-47.088-104.121-47.088s-90.411 28.807-104.121 47.088c-13.517 18.023-27.754 31.797-37.217 40.106-4.647 4.081-3.075 11.631 2.792 13.587l10.288 3.429s-23.59 27.698-37.48 84.606c-1.352 5.538 3.277 10.748 8.92 9.941l44.592-6.37h224.452l44.586 6.369c5.632.805 10.272-4.403 8.924-9.93-11.378-46.661-27.633-67.96-27.633-67.96z" fill="#ffbf63"/><path d="m344.178 377.656-14.802-4.353c-10.234-3.01-17.262-12.403-17.262-23.071v-46.134h-112.227v46.134c0 10.668-7.028 20.06-17.262 23.071l-14.802 4.353v62.716h176.355z" fill="#ffce8a"/><path d="m199.887 304.098v46.134c0 10.668-7.028 20.06-17.262 23.071l6.79 23.067c15.915-4.682 27.994-17.349 32.5-32.794 1.367-4.686 4.535-8.63 8.901-10.813 3.174-1.587 6.751-2.1 10.269-1.635 4.964.656 9.941 1.067 14.915 1.067 19.387 0 38.679-4.529 56.113-13.027v-35.07z" fill="#f8ba7e"/><path d="m371.091 191.871h-10.881c-8.854 0-16.032-7.178-16.032-16.032v-48.898l-56.113 16.834-21.883-26.103-98.359-21.994v80.161c0 8.854-7.178 16.032-16.032 16.032h-10.881c-10.483 0-20.035 7.542-21.08 17.973-1.201 11.996 8.186 22.108 19.937 22.108h12.429c4.106 53.795 48.958 96.194 103.805 96.194s99.699-42.398 103.805-96.194h12.429c11.75 0 21.138-10.112 19.937-22.108-1.046-10.431-10.598-17.973-21.081-17.973z" fill="#fd9"/><path d="m152.195 231.952c4.106 53.795 48.958 96.194 103.805 96.194 12.594 0 24.616-2.326 35.783-6.422l-18.478-2.851c-47.186-7.282-81.435-47.209-81.435-94.937v-56.257c0-2.841 1.44-5.443 3.76-6.791 23.336-13.559 42.615-29.653 57.338-47.823l-19.872-17.388h-65.274v80.161c0 8.854-7.179 16.032-16.032 16.032h-10.881c-10.482 0-20.035 7.542-21.08 17.973-1.202 11.996 8.186 22.108 19.937 22.108h12.429z" fill="#ffce8a"/><path d="m264.862 7.704c-2.913-.085-5.741-.204-8.862-.204-80.161 0-90.411 28.807-104.121 47.088-13.517 18.023-27.754 31.797-37.217 40.106-4.647 4.081-3.075 11.631 2.792 13.587l10.288 3.429s-17.039 20.087-30.683 61.053c46.28-9.753 168.937-46.801 167.803-165.059z" fill="#ffa65a"/><path d="m413.862 398.151-84.487-24.849c-1.851-.545-3.552-1.36-5.171-2.292-19.386 13.385-42.864 21.265-68.204 21.265s-48.818-7.88-68.204-21.265c-1.619.932-3.32 1.748-5.171 2.292l-84.487 24.849c-20.469 6.02-34.526 24.806-34.526 46.142l24.049 60.207h360.727v-60.206c0-21.337-14.057-40.122-34.526-46.143z" fill="#d8d5d8"/><path d="m87.661 503.027v-58.733c0-10.592 7.096-20.077 17.257-23.066l84.496-24.859c6.933-2.04 13.24-5.616 18.744-10.628l2.568-2.338c-8.119-3.314-15.806-7.474-22.93-12.393-1.619.932-3.321 1.748-5.172 2.292l-84.487 24.849c-20.47 6.02-34.526 24.806-34.526 46.142v60.207h24.048v-1.473z" fill="#c7c2c6"/><path d="m256 424.34c41.168 0 78.589-15.65 106.98-41.154l-33.604-9.884c-1.851-.545-3.552-1.36-5.171-2.292-19.386 13.385-42.864 21.265-68.204 21.265s-48.818-7.88-68.204-21.265c-1.619.932-3.32 1.748-5.171 2.292l-33.604 9.884c28.389 25.504 65.81 41.154 106.978 41.154z" fill="#e9e7e9"/><path d="m173.257 401.123 16.158-4.754c6.933-2.04 13.24-5.616 18.744-10.628l2.568-2.338c-.001 0-.003-.001-.004-.002-3.637-1.484-7.154-3.191-10.603-5.011-.786-.413-1.565-.831-2.34-1.261-3.421-1.902-6.777-3.904-9.983-6.118-1.62.932-3.321 1.748-5.172 2.292l-33.604 9.884c7.474 6.713 15.606 12.694 24.236 17.936z" fill="#d8d5d8"/></g><g><path d="m207.903 192.386c-4.142 0-7.5 3.358-7.5 7.5v8.016c0 4.142 3.358 7.5 7.5 7.5s7.5-3.358 7.5-7.5v-8.016c0-4.142-3.358-7.5-7.5-7.5z"/><path d="m304.097 192.386c-4.142 0-7.5 3.358-7.5 7.5v8.016c0 4.142 3.358 7.5 7.5 7.5s7.5-3.358 7.5-7.5v-8.016c0-4.142-3.358-7.5-7.5-7.5z"/><path d="m285.316 261.338c2.949-2.909 2.98-7.658.071-10.606-2.91-2.949-7.659-2.98-10.606-.071-2.738 2.701-9.299 5.855-18.781 5.855s-16.043-3.154-18.781-5.855c-2.949-2.91-7.698-2.877-10.606.071-2.909 2.948-2.877 7.697.071 10.606 6.459 6.373 17.418 10.178 29.316 10.178s22.857-3.805 29.316-10.178z"/><path d="m415.978 390.956-84.486-24.849c-6.994-2.057-11.879-8.585-11.879-15.876v-5.537l34.97 9.002c.619.159 1.246.237 1.868.237 2.124 0 4.183-.904 5.627-2.542 1.866-2.117 2.386-5.104 1.345-7.727-.061-.155-3.488-8.896-6.918-22.084l33.506 7.784c.563.131 1.132.194 1.696.194 2.097 0 4.13-.881 5.569-2.477 1.827-2.025 2.41-4.884 1.523-7.463-.16-.466-15.704-46.207-13.485-83.845 7.815-4.32 13.416-12.05 14.318-21.05.049-.486.084-.971.107-1.456l23.941 2.107c2.368.206 4.683-.714 6.259-2.484 1.577-1.771 2.223-4.183 1.744-6.504-8.797-42.597-22.13-67.676-28.298-77.619l12.243-15.304c2.5-3.125 2.106-7.663-.896-10.31-.26-.229-26.286-23.298-48.612-53.066-1.369-1.825-2.731-3.806-4.174-5.904-12.821-18.646-30.381-44.183-105.946-44.183s-93.125 25.537-105.948 44.184c-1.443 2.098-2.805 4.08-4.174 5.904-22.038 29.385-46.372 47.376-46.611 47.551-2.265 1.656-3.417 4.438-2.984 7.211.432 2.772 2.376 5.071 5.039 5.959l14.343 4.781c-9.083 13.732-25.677 43.691-35.351 90.806-.477 2.321.171 4.73 1.748 6.499 1.43 1.604 3.47 2.509 5.598 2.509.218 0 .438-.01.658-.029l23.951-2.108c.322 6.32 2.796 12.392 7.071 17.117 2.122 2.345 4.618 4.275 7.351 5.749 1.725 36.84-21.34 79.986-21.576 80.423-1.361 2.512-1.177 5.58.476 7.911 1.419 2.002 3.71 3.162 6.117 3.162.395 0 .792-.031 1.19-.095l43.64-7.006c-8.274 13.035-16.588 19.834-16.824 20.024-3.24 2.566-3.794 7.272-1.235 10.521 1.48 1.878 3.677 2.859 5.896 2.859 1.625 0 3.261-.526 4.637-1.609.882-.695 20.161-16.166 31.372-46.236 3.771 3.474 7.782 6.691 12.003 9.626v34.517c0 7.291-4.885 13.819-11.879 15.876l-84.486 24.849c-23.498 6.912-39.91 28.845-39.91 53.338v60.207c0 4.143 3.358 7.5 7.5 7.5s7.5-3.357 7.5-7.5v-60.206c0-17.885 11.984-33.9 29.142-38.947l46.732-13.745c30.355 25.956 68.989 40.238 109.014 40.238 40.042 0 78.654-14.277 109.014-40.238l46.732 13.745c17.158 5.047 29.142 21.062 29.142 38.947v60.206c0 4.143 3.358 7.5 7.5 7.5s7.5-3.357 7.5-7.5v-60.206c0-24.493-16.412-46.426-39.91-53.338zm-96.365-61.751v-13.502c6.254-4.349 12.044-9.32 17.281-14.823 2.128 13.896 5.335 26.141 7.986 34.828zm33.262-23.868c-1.242-6.656-2.267-13.819-2.829-21.197 8.517-13.255 14.314-28.416 16.587-44.689h3.522c-.712 27.125 6.055 56.183 10.586 72.36zm-14.686-267.1c-7.713 24.722-32.746 58.297-33.004 58.643-2.484 3.314-1.812 8.015 1.502 10.499 1.349 1.012 2.928 1.5 4.494 1.5 2.28 0 4.532-1.036 6.005-3 .997-1.329 21.404-28.697 31.911-53.91.164.239.328.477.491.714 1.533 2.229 2.98 4.334 4.534 6.405 17.333 23.11 36.39 41.973 45.419 50.476l-11.293 14.117c-2.141 2.676-2.182 6.48-.12 9.217 5.717 7.587 18.029 30.663 26.662 66.637l-18.871-1.66c-.93-1.574-2.016-3.064-3.259-4.438-5.213-5.762-12.658-9.066-20.425-9.066h-12.025c-4.705 0-8.532-3.828-8.532-8.532v-48.096c0-2.354-1.104-4.57-2.983-5.988-1.879-1.417-4.315-1.872-6.577-1.224l-50.761 14.503-16.414-25.488c16.893-21.507 34.818-50.61 43.366-84.699 8.783 3.844 15.019 8.5 19.88 13.39zm-213.529 272.218c7.024-15.999 17.292-44.065 17.116-71.004h3.588c2.834 20.308 11.149 38.883 23.396 54.181-.036.104-.078.205-.11.312-1.052 3.538-2.251 6.872-3.542 10.016zm34.63-86.52c0-4.142-3.358-7.5-7.5-7.5s-7.5 3.358-7.5 7.5v.516h-4.524c-3.537 0-6.928-1.505-9.303-4.131-2.407-2.66-3.533-6.115-3.17-9.73.63-6.292 6.611-11.22 13.617-11.22h10.88c12.976 0 23.532-10.557 23.532-23.532v-20.968c17.023-8.649 37.606-22.551 55.484-44.387 2.624-3.205 2.153-7.93-1.052-10.554s-7.93-2.152-10.554 1.052c-34.47 42.101-81.208 52.107-81.862 52.242-4.057.818-6.685 4.767-5.872 8.826.714 3.564 3.845 6.028 7.346 6.028.488 0 .984-.048 1.481-.147.808-.162 8.597-1.79 20.028-6.301v14.209c0 4.705-3.828 8.532-8.532 8.532h-10.88c-10.324 0-19.604 5.421-24.658 13.489l-19.05 1.676c13.208-55.174 36.018-82.688 36.25-82.962 1.616-1.898 2.184-4.475 1.515-6.876-.669-2.402-2.488-4.313-4.853-5.102l-11.12-3.707c9.748-8.496 24.648-22.817 38.885-41.8 1.553-2.071 3.001-4.176 4.534-6.405 11.545-16.789 25.913-37.683 93.588-37.683 20.399 0 35.949 1.9 48.044 5.013-16.644 68.34-76.207 117.441-76.821 117.94-3.214 2.61-3.705 7.331-1.096 10.547 1.482 1.827 3.646 2.775 5.829 2.775 1.66 0 3.331-.548 4.721-1.675 1.156-.938 13.335-10.949 28.22-27.948l16.862 26.183c1.79 2.779 5.189 4.059 8.366 3.151l46.553-13.301v38.153c0 12.976 10.557 23.532 23.532 23.532h12.024c3.537 0 6.927 1.505 9.303 4.13 2.407 2.66 3.533 6.115 3.171 9.729-.63 6.292-6.611 11.221-13.617 11.221h-3.385v-.438c0-4.141-3.356-7.499-7.497-7.5-.001 0-.002 0-.003 0-4.14 0-7.497 3.354-7.5 7.495-.039 53.286-43.421 96.638-96.706 96.638-53.326 0-96.71-43.384-96.71-96.71zm96.71 192.905c-33.102 0-65.156-10.727-91.468-30.398l20.208-5.944c.333-.098.651-.224.979-.333 21.158 12.827 45.386 19.61 70.281 19.61 5.753 0 11.544-.364 17.213-1.082 4.109-.52 7.019-4.273 6.498-8.383-.521-4.109-4.27-7.02-8.383-6.498-5.046.639-10.203.963-15.328.963-19.762 0-39.048-4.803-56.341-13.938 4.844-5.613 7.727-12.882 7.727-20.606v-25.734c14.705 7.137 31.199 11.147 48.613 11.147 17.412 0 33.906-4.012 48.613-11.154v25.741c0 7.726 2.885 14.998 7.732 20.612-4.069 2.15-8.255 4.075-12.528 5.739-3.859 1.503-5.77 5.851-4.266 9.711 1.155 2.965 3.989 4.779 6.99 4.779.905 0 1.826-.165 2.721-.514 7.278-2.835 14.341-6.325 21.041-10.386.32.106.632.23.957.325l20.207 5.943c-26.311 19.675-58.351 30.4-91.466 30.4z"/><path d="m215.919 168.338h-16.033c-4.142 0-7.5 3.358-7.5 7.5s3.358 7.5 7.5 7.5h16.033c4.142 0 7.5-3.358 7.5-7.5s-3.357-7.5-7.5-7.5z"/><path d="m296.081 183.338h16.033c4.142 0 7.5-3.358 7.5-7.5s-3.358-7.5-7.5-7.5h-16.033c-4.142 0-7.5 3.358-7.5 7.5s3.357 7.5 7.5 7.5z"/></g></g></svg>