<svg id="Capa_1" enable-background="new 0 0 512 512" height="512" viewBox="0 0 512 512" width="512" xmlns="http://www.w3.org/2000/svg"><g><g><path d="m392.28 215.928-.13-40.103v-28.474c0-76.387-62.51-141.258-138.883-139.827-74.064 1.388-133.677 61.86-133.677 136.255v32.046l.13 40.103c0 40.06-22.243 68.998-29.678 77.552-1.666 1.917-2.317 4.506-1.725 6.976 1.545 6.437 6.68 18.327 23.733 24.012 0 0 2.555 28.792 31.719 35.757h224.461c29.164-6.965 31.719-35.757 31.719-35.757 17.053-5.684 22.189-17.575 23.733-24.012.593-2.469-.059-5.059-1.725-6.976-7.434-8.554-29.677-37.492-29.677-77.552z" fill="#ffa65a"/><path d="m256 111.714h-132.458c-2.489 10.3-3.951 21-3.951 32.065v32.046l.13 40.103c0 40.06-22.243 68.998-29.678 77.552-1.666 1.917-2.317 4.506-1.725 6.976 1.545 6.437 6.68 18.327 23.733 24.012 0 0 2.555 28.792 31.719 35.757h112.23z" fill="#ff744d"/><path d="m352.198 348.98-11.909-4.764c-12.173-4.869-20.157-16.66-20.157-29.772v-10.336h-128.264v10.336c0 13.111-7.983 24.902-20.157 29.772l-11.909 4.764v35.294h192.395v-35.294z" fill="#e6b287"/><path d="m392.28 365.013-51.992-20.797c-2.918-1.167-5.578-2.753-7.962-4.638-22.46 13.05-48.48 20.646-76.327 20.646s-53.866-7.597-76.327-20.646c-2.384 1.885-5.044 3.471-7.962 4.638l-51.992 20.797v75.375h272.56v-75.375z" fill="#fbe7c3"/><path d="m179.673 339.578c-2.384 1.885-5.044 3.471-7.962 4.638l-64.816 25.927 8.933 22.326 64.815-25.92c7.614-3.048 14.37-7.703 20.08-13.837l2.077-2.232c-8.037-3.026-15.787-6.639-23.127-10.902z" fill="#f9d8af"/><path d="m95.671 504.5h344.708v-82.255c0-22.946-13.97-43.58-35.275-52.101l-20.361-8.144c-1.294 4.947-2.987 9.395-6.224 11.907-8.471 6.573-25.495-1.53-34.894 3.587-9.302 5.064-13.13 24.537-23.2 28.024-9.896 3.426-23.712-9.906-34.216-8.146-10.233 1.715-19.524 18.968-30.209 18.968s-19.975-17.253-30.208-18.968c-10.506-1.76-24.324 11.571-34.222 8.144-10.071-3.487-13.899-22.961-23.201-28.025-9.4-5.117-26.424 2.985-34.895-3.589-3.235-2.512-4.928-6.957-6.221-11.9l-20.357 8.143c-21.305 8.522-35.274 29.156-35.274 52.102z" fill="#d8d5d8"/><path d="m388.272 175.846h-11.617c-9.913 0-18.81-6.082-22.409-15.319l-16.578-42.551c-5.947-8.921-15.959-14.279-26.68-14.279h-127.136l-26.019 57.01c-3.652 9.131-12.495 15.118-22.33 15.118l-10.632.021c-10.496.02-20.067 7.581-21.086 18.028-1.168 11.973 8.21 22.055 19.943 22.055h12.429c4.143 62.655 56.138 112.23 119.842 112.23s115.699-49.575 119.842-112.23h11.287c10.483 0 20.036-7.544 21.08-17.975 1.201-11.998-8.186-22.108-19.936-22.108z" fill="#f9d8af"/><path d="m136.158 215.928c4.143 62.655 56.137 112.23 119.842 112.23 14.307 0 27.966-2.617 40.681-7.204l-15.107-3.077c-51.979-10.587-89.706-56.834-89.706-109.966v-36.92c0-3.588 2.443-6.713 6.08-7.775 37.782-11.029 72.418-28.945 102.948-53.247l7.878-6.272h-124.922l-26.018 57.01c-3.652 9.131-12.496 15.118-22.33 15.118l-10.632.021c-10.496.02-20.067 7.581-21.086 18.028-1.166 11.972 8.21 22.055 19.943 22.055h12.429z" fill="#f2c59a"/><path d="m225.373 236.394c-5.468 0-9.465 5.402-7.663 10.566 5.065 14.518 20.292 25.063 38.29 25.063s33.226-10.545 38.29-25.063c1.801-5.163-2.195-10.566-7.663-10.566z" fill="#fff"/><path d="m338.848 35.846c-22.995-17.705-51.712-28.346-82.978-28.346-75.265 0-136.28 61.014-136.28 136.279v7.818c90.188-2.496 169.707-47.502 219.258-115.751z" fill="#ff8857"/><path d="m95.671 503.027v-80.785c0-13.189 7.913-24.876 20.159-29.774l23.762-9.502 17.988-7.194c-8.602.32-18.329 2.611-24.106-1.872-3.235-2.512-4.927-6.957-6.22-11.9l-20.357 8.143c-21.304 8.522-35.275 29.156-35.275 52.102v82.255h24.049z" fill="#c7c2c6"/></g><g><path d="m215.271 192.575v-8.016c0-4.142-3.358-7.5-7.5-7.5s-7.5 3.358-7.5 7.5v8.016c0 4.142 3.358 7.5 7.5 7.5s7.5-3.358 7.5-7.5z"/><path d="m303.969 177.059c-4.142 0-7.5 3.358-7.5 7.5v8.016c0 4.142 3.358 7.5 7.5 7.5s7.5-3.358 7.5-7.5v-8.016c0-4.142-3.358-7.5-7.5-7.5z"/><path d="m407.889 363.18-17.314-6.926c11.089-7.545 15.524-18.354 16.62-26.55 23.968-10.585 24.633-32.499 24.65-33.484.034-2.023-.76-3.984-2.185-5.421-.288-.29-27.699-28.414-29.747-69.982 9.383-4.395 15.9-13.924 15.9-24.952 0-11.13-6.64-20.731-16.163-25.071v-27.014c0-79.28-64.5-143.78-143.78-143.78s-143.78 64.5-143.78 143.78v27.133c-9.385 4.394-15.903 13.925-15.903 24.953 0 11.027 6.517 20.556 15.9 24.952-2.047 41.568-29.459 69.692-29.736 69.972-1.438 1.438-2.23 3.398-2.196 5.431.017.985.682 22.898 24.65 33.484 1.095 8.195 5.53 19.005 16.62 26.549l-17.314 6.926c-24.292 9.717-39.989 32.901-39.989 59.065v82.255c0 4.142 3.358 7.5 7.5 7.5s7.5-3.358 7.5-7.5v-82.255c0-19.995 11.996-37.712 30.56-45.139l11.942-4.777c1.574 3.984 3.81 7.635 7.436 10.274 6.709 4.884 15.44 4.16 23.143 3.522 4.782-.396 10.201-.845 12.755.459 2.482 1.267 5.266 5.873 7.723 9.936 4.027 6.66 8.591 14.208 16.572 16.8 7.842 2.548 15.888-.836 22.985-3.821 4.452-1.873 9.495-3.998 12.389-3.54 2.689.422 6.73 3.911 10.296 6.988 5.915 5.105 12.619 10.891 21.076 10.891s15.161-5.786 21.076-10.891c3.566-3.078 7.607-6.565 10.297-6.988 2.885-.459 7.934 1.668 12.385 3.541 7.097 2.985 15.141 6.368 22.983 3.822 7.981-2.591 12.544-10.14 16.571-16.799 2.457-4.063 5.242-8.669 7.723-9.936 2.554-1.303 7.974-.854 12.754-.458 7.703.638 16.434 1.361 23.143-3.521 3.614-2.63 5.866-6.356 7.429-10.285l11.957 4.783c18.564 7.426 30.56 25.144 30.56 45.139v82.255c0 4.142 3.358 7.5 7.5 7.5s7.5-3.358 7.5-7.5v-82.255c.001-26.164-15.695-49.349-39.988-59.065zm-10.311-45.827c-3.226 1.075-5.328 4.112-5.118 7.505.077 1.869.112 18.231-21.168 23.683l-28.217-11.287c-9.381-3.752-15.442-12.706-15.442-22.809v-.832c29.794-20.251 50.615-52.754 55.171-90.205h2.223c2.498 38.958 23.831 66.527 31.408 75.164-1.085 4.665-4.973 14.153-18.857 18.781zm-141.578 18.285c20.612 0 40.096-4.913 57.352-13.62 1.105 5.749 3.453 11.101 6.821 15.726-19.839 9.808-41.874 14.981-64.173 14.981-22.322 0-44.33-5.161-64.178-14.974 3.37-4.627 5.72-9.982 6.826-15.733 17.256 8.706 36.74 13.62 57.352 13.62zm128.65-167.313h-8.182c-6.795 0-12.822-4.074-15.356-10.378l-12.806-31.866c8.184-7.843 17.96-18.326 26.855-30.796 6.111 14.977 9.488 31.348 9.488 48.495v24.545zm-232.638-13.259-1.142 2.856c-2.528 6.32-8.56 10.403-15.366 10.403h-8.414v-9.694c5.568-.604 14.234-1.701 24.922-3.565zm-28.283 28.259h11.775c12.975 0 24.473-7.785 29.292-19.832l4.744-11.861c4.856-1.056 9.933-2.246 15.177-3.595 47.862-12.308 84.417-30.835 108.651-55.07 2.929-2.929 2.929-7.678 0-10.606-2.929-2.929-7.678-2.929-10.606 0-27.731 27.731-70.51 43.083-101.514 51.08-23.233 5.992-43.518 8.859-54.155 10.083.139-70.891 57.853-128.524 128.778-128.524 34.956 0 66.697 14.006 89.924 36.693-24.154 45.763-81.959 85.302-82.555 85.706-3.428 2.323-4.326 6.985-2.004 10.414 1.45 2.142 3.812 3.296 6.217 3.296 1.447 0 2.91-.418 4.198-1.291.657-.445 16.314-11.095 35.171-28.058 22.131-19.908 38.774-39.483 49.618-58.319 4.108 5.132 7.839 10.579 11.135 16.308-18.957 29.581-46.169 49.765-46.454 49.975-3.338 2.448-4.062 7.139-1.615 10.479 1.469 2.006 3.748 3.069 6.057 3.069 1.538 0 3.09-.471 4.426-1.45.343-.251 2.736-2.023 6.43-5.1l10.776 26.816c4.83 12.02 16.321 19.786 29.274 19.786h11.803c6.916 0 12.542 5.626 12.542 12.541s-5.626 12.541-12.542 12.541h-4.531c.001-.172.007-.344.007-.516 0-4.142-3.358-7.5-7.5-7.5s-7.5 3.358-7.5 7.5c0 62.168-50.578 112.747-112.747 112.747s-112.748-50.577-112.748-112.746c0-4.142-3.358-7.5-7.5-7.5s-7.5 3.358-7.5 7.5c0 .173.006.344.007.516h-4.531c-6.916 0-12.542-5.626-12.542-12.541s5.626-12.541 12.542-12.541zm-4.192 141.607c.21-3.394-1.889-6.504-5.114-7.579-13.916-4.638-17.789-14.157-18.862-18.775 7.571-8.628 28.915-36.201 31.414-75.17h2.223c4.555 37.451 25.377 69.954 55.171 90.205v.832c0 10.104-6.062 19.057-15.442 22.809l-28.217 11.287c-21.281-5.453-21.247-21.814-21.173-23.609zm254.569 45.549c-2.202 1.602-8.232 1.102-13.078.7-6.775-.561-14.456-1.198-20.813 2.048-6.287 3.209-10.075 9.475-13.739 15.534-2.672 4.419-5.7 9.427-8.368 10.293-2.535.822-8.079-1.509-12.534-3.382-6.294-2.647-13.427-5.648-20.53-4.532-6.92 1.087-12.435 5.847-17.769 10.45-3.936 3.397-8.397 7.247-11.276 7.247s-7.339-3.85-11.275-7.247c-5.333-4.604-10.849-9.363-17.769-10.451-7.102-1.116-14.237 1.884-20.532 4.531-4.455 1.874-10 4.206-12.538 3.381-2.668-.867-5.697-5.875-8.369-10.294-3.664-6.059-7.452-12.325-13.738-15.534-6.357-3.246-14.037-2.609-20.814-2.049-4.846.401-10.876.901-13.078-.702-.931-.677-1.711-2.143-2.333-3.718l38.943-15.577c1.913-.765 3.74-1.666 5.473-2.687 23.236 12.582 49.434 19.23 76.03 19.23 26.57 0 52.809-6.655 76.028-19.232 1.734 1.021 3.561 1.923 5.475 2.688l38.94 15.576c-.617 1.571-1.399 3.045-2.336 3.727z"/><path d="m208.417 236.394c0 23.781 21.345 43.128 47.583 43.128s47.583-19.347 47.583-43.128c0-4.142-3.358-7.5-7.5-7.5h-80.165c-4.143 0-7.501 3.358-7.501 7.5zm78.99 7.5c-3.812 11.88-16.449 20.628-31.407 20.628s-27.595-8.748-31.407-20.628z"/><path d="m191.867 175.331c.786 0 1.586-.125 2.373-.387l24.049-8.016c3.93-1.31 6.053-5.557 4.744-9.487-1.31-3.93-5.558-6.054-9.487-4.744l-24.049 8.016c-3.93 1.31-6.053 5.557-4.744 9.487 1.048 3.144 3.974 5.131 7.114 5.131z"/><path d="m293.711 166.928 24.049 8.016c.787.262 1.586.387 2.373.387 3.14 0 6.067-1.988 7.114-5.13 1.31-3.93-.814-8.177-4.744-9.487l-24.049-8.016c-3.932-1.309-8.177.814-9.487 4.744-1.309 3.929.814 8.176 4.744 9.486z"/></g></g></svg>