<svg id="Capa_1" enable-background="new 0 0 512.001 512.001" height="512" viewBox="0 0 512.001 512.001" width="512" xmlns="http://www.w3.org/2000/svg"><g><g><path d="m199.888 344.177h112.226l-56.113 160.323z" fill="#87646f"/><path d="m328.146 336.161 86.877 27.953c19.884 6.398 33.365 24.898 33.365 45.785v94.6h-144.29z" fill="#ffce8a"/><path d="m256.001 376.242c-30.99 0-56.113-25.123-56.113-56.113v-64.129h112.226v64.129c0 30.99-25.123 56.113-56.113 56.113z" fill="#f2c59a"/><path d="m312.114 307.102v-51.102h-112.226v64.129c0 19.059 9.523 35.871 24.048 46.013v-6.778-33.449c0-4.395 3.536-7.971 7.883-7.971.479 0 .964.044 1.454.133 7.478 1.362 15.125 2.052 22.727 2.052 19.387 0 38.68-4.529 56.114-13.027z" fill="#e6b287"/><path d="m372.235 159.806-12.024-16.032v-72.145h-208.42v72.145l-12.024 16.032c-11.068 0-20.04 8.972-20.04 20.04s8.972 20.04 20.04 20.04h12.429c4.106 53.795 48.957 96.194 103.805 96.194s99.699-42.398 103.805-96.194h12.429c11.068 0 20.04-8.973 20.04-20.04s-8.972-20.04-20.04-20.04z" fill="#f9d8af"/><path d="m191.872 191.871v-74.817c0-8.672 2.813-17.111 8.016-24.048l16.032-21.376h-64.129v72.145l-12.024 16.032c-11.75 0-21.137 10.111-19.937 22.107 1.044 10.431 10.596 17.974 21.079 17.974h11.287c4.106 53.795 48.957 96.194 103.805 96.194 6.895 0 13.63-.675 20.149-1.954-48.011-9.308-84.278-51.526-84.278-102.257z" fill="#f2c59a"/><path d="m344.178 135.758c0 13.282 10.767 24.048 24.048 24.048h4.008c1.373 0 2.712.141 4.008.404v-56.517c0-35.417-28.712-64.129-64.129-64.129h-32.065l41.523 25.952c14.063 8.789 22.606 24.203 22.606 40.786v29.456z" fill="#f1a673"/><path d="m139.767 159.806h4.008c13.282 0 24.048-10.767 24.048-24.048v-15.193c0-10.921 3.717-21.518 10.539-30.046l21.525-26.906 8.016-40.081h-24.048c-26.563 0-48.097 21.534-48.097 48.097v88.582c1.296-.264 2.636-.405 4.009-.405z" fill="#d18964"/><path d="m361.049 28.469-.064.155c-2.731 6.671-10.749 9.433-16.906 5.685-16.817-10.234-52.015-26.809-103.61-26.809-17.186 0-34.034 4.234-46.407 11.619-12.063 7.2-18.024 21.438-15.269 35.213 3.195 15.973 15.297 28.713 31.055 32.842 131.026 34.332 167.198-14.303 168.399-40.93.373-8.266-2.148-14.602-5.083-19.101-3.007-4.609-10.031-3.766-12.115 1.326z" fill="#df976c"/><path d="m352.04 384.103-15.878-15.877 16.992-22.656c3.674-4.899 2.015-11.93-3.463-14.668l-37.578-18.789-56.112 192.387h48.097l50.945-101.891c3.086-6.172 1.876-13.626-3.003-18.506z" fill="#f8ba7e"/><path d="m183.856 336.161-86.877 27.953c-19.884 6.398-33.365 24.898-33.365 45.785l24.04 94.6h120.251z" fill="#ffce8a"/><path d="m199.888 312.113-37.578 18.789c-5.07 2.534-6.81 8.727-4.135 13.522l-61.196 19.69c-19.884 6.398-33.365 24.897-33.365 45.785v94.6h24.04l.009-1.473v-93.124c0-10.486 6.702-19.685 16.676-22.891l68.951-22.186 2.55 3.399-15.878 15.877c-4.879 4.88-6.088 12.334-3.003 18.506l50.945 101.893h48.097z" fill="#f8ba7e"/></g><g><path d="m416.63 357.239-54.059-16.62c.087-1.633-.032-3.285-.417-4.917-1.183-5.011-4.503-9.206-9.108-11.508l-33.432-16.716v-23.828c25.019-17.394 42.624-44.742 47.022-76.263h5.598c7.768 0 15.212-3.305 20.426-9.067 5.21-5.758 7.751-13.518 6.972-21.289-.961-9.591-7.26-17.742-15.889-21.857v-48.808c0-18.376-3.345-28.385-6.39-33.692 6.745-10.684 8.155-20.929 8.387-26.091 1.03-22.85-15.971-33.796-16.696-34.251-3.507-2.203-8.168-1.164-10.371 2.343-2.203 3.508-1.176 8.117 2.332 10.32.424.278 10.378 6.983 9.75 20.912-.262 5.801-2.619 20.517-18.822 31.839-20.044 14.007-63.692 24.466-157.802-5.253-2.166-.685-4.527-.35-6.418.912-1.119.746-27.388 18.578-27.388 46.321v13.172c0 9.907-7.466 18.09-17.064 19.253v-80.522c0-17.615 11.281-32.64 26.995-38.245-.583 1.246-1.098 2.515-1.529 3.809-1.31 3.929.814 8.177 4.744 9.487.787.262 1.586.387 2.373.387 3.14 0 6.066-1.988 7.114-5.13 5.115-15.357 29.842-26.937 57.511-26.937 36.699 0 61.973 7.711 76.713 14.18 15.903 6.979 23.286 14.046 23.329 14.088 2.941 2.918 7.689 2.899 10.606-.042 2.917-2.94 2.898-7.689-.042-10.606-1.341-1.332-33.761-32.62-110.606-32.62-22.006 0-41.847 6.069-55.351 16.03-.722.001-1.214.002-1.263.002-30.656 0-55.597 24.94-55.597 55.597v83.21c-3.35 1.541-6.396 3.746-8.917 6.533-5.21 5.757-7.751 13.517-6.974 21.287 1.389 13.866 13.926 24.728 28.544 24.728h4.457c4.401 31.512 22.006 58.857 47.019 76.253v23.838l-33.432 16.716c-4.605 2.303-7.925 6.498-9.108 11.509-.385 1.631-.504 3.284-.417 4.917l-54.059 16.62c-23.481 7.219-39.258 28.576-39.258 53.142v94.118c0 4.142 3.358 7.5 7.5 7.5s7.5-3.358 7.5-7.5v-94.119c0-17.938 11.52-33.533 28.667-38.804l56.231-17.288 9.925 13.233-11.277 11.278c-7.174 7.173-8.945 18.089-4.408 27.164l50.945 101.89c1.314 2.628 3.962 4.147 6.714 4.147 1.127 0 2.271-.255 3.348-.793 3.705-1.852 5.207-6.357 3.354-10.062l-50.945-101.89c-1.645-3.29-1.003-7.248 1.598-9.849l15.877-15.878c2.639-2.639 2.936-6.817.697-9.803l-16.992-22.655c-.565-.754-.494-1.527-.401-1.921s.375-1.117 1.218-1.539l29.54-14.77 53.596 183.76c.934 3.2 3.867 5.4 7.2 5.4s6.267-2.2 7.2-5.4l23.386-80.18c1.16-3.977-1.124-8.14-5.1-9.3-3.977-1.157-8.141 1.124-9.3 5.1l-16.186 55.494-28.828-98.84c9.219 3.204 18.966 4.867 28.827 4.867 9.857 0 19.608-1.668 28.83-4.873l-3.287 11.271c-1.16 3.977 1.124 8.14 5.1 9.3 3.977 1.157 8.14-1.124 9.3-5.1l20.854-71.5 29.54 14.771c.843.421 1.125 1.145 1.218 1.539s.165 1.167-.401 1.921l-16.992 22.655c-2.239 2.986-1.942 7.164.697 9.803l15.877 15.878c2.601 2.601 3.243 6.559 1.599 9.849l-50.945 101.89c-1.853 3.705-.351 8.21 3.354 10.062 1.077.539 2.221.793 3.348.793 2.751 0 5.4-1.52 6.714-4.147l50.946-101.89c4.537-9.075 2.765-19.991-4.409-27.164l-11.278-11.278 9.925-13.233 56.231 17.288c17.146 5.271 28.667 20.866 28.667 38.804v94.119c0 4.142 3.358 7.5 7.5 7.5s7.5-3.358 7.5-7.5v-94.119c.001-24.566-15.776-45.923-39.257-53.142zm-241.307-237.513c0-15.265 12.39-27.163 18.003-31.769 41.362 12.778 77.067 19.022 106.15 18.529 25.497-.422 46.037-5.955 61.047-16.445 2.142-1.497 4.097-3.046 5.893-4.626 1.197 4.183 2.325 10.812 2.325 20.951v45.785c-4.295-.515-8.273-2.422-11.379-5.529-3.666-3.666-5.685-8.54-5.685-13.724v-17.43c0-4.142-3.358-7.5-7.5-7.5s-7.5 3.358-7.5 7.5v17.43c0 7.03 2.101 13.735 5.994 19.409h-7.026v-.516c0-4.142-3.358-7.5-7.5-7.5h-56.113c-4.142 0-7.5 3.358-7.5 7.5v2.124c-2.647-1.034-5.523-1.608-8.532-1.608s-5.885.574-8.532 1.608v-2.124c0-4.142-3.358-7.5-7.5-7.5h-56.113c-4.142 0-7.5 3.358-7.5 7.5v.516h-7.048c3.792-5.529 6.016-12.213 6.016-19.409zm124.767 55.597c4.142 0 7.5-3.358 7.5-7.5v-8.016c0-.174-.014-.345-.026-.516h13.082v16.548c0 4.705-3.828 8.532-8.532 8.532h-24.048c-4.705 0-8.532-3.828-8.532-8.532v-16.548h13.083c-.012.171-.026.342-.026.516v8.016c-.001 4.142 3.357 7.5 7.499 7.5zm-108.734-16.032h13.082c-.012.171-.026.342-.026.516v8.016c0 4.142 3.358 7.5 7.5 7.5s7.5-3.358 7.5-7.5v-8.016c0-.174-.014-.345-.026-.516h13.083v16.548c0 4.705-3.828 8.532-8.532 8.532h-24.048c-4.705 0-8.532-3.828-8.532-8.532v-16.548zm-32.061 32.652c-.003-4.141-3.36-7.495-7.5-7.495 0 0-.002 0-.003 0-4.141.001-7.497 3.359-7.497 7.5v.439h-3.383c-7.006 0-12.988-4.929-13.618-11.222-.362-3.614.764-7.069 3.17-9.729 2.375-2.625 5.766-4.13 9.303-4.13h36.589v8.532c0 12.976 10.557 23.532 23.532 23.532h24.048c12.976 0 23.532-10.557 23.532-23.532 0-4.705 3.828-8.532 8.532-8.532s8.532 3.828 8.532 8.532c0 12.976 10.557 23.532 23.532 23.532h24.048c12.976 0 23.532-10.557 23.532-23.532v-8.532h35.441c7.006 0 12.988 4.929 13.619 11.221.362 3.614-.764 7.069-3.17 9.729-2.375 2.625-5.766 4.131-9.303 4.131h-4.524v-.516c0-4.142-3.358-7.5-7.5-7.5s-7.5 3.358-7.5 7.5c0 53.326-43.384 96.709-96.709 96.709-53.282.001-96.664-43.351-96.703-96.637zm96.705 176.799c-12.001 0-23.793-2.965-34.288-8.588l-14.325-49.113v-18.613c14.707 7.141 31.201 11.153 48.612 11.153 17.414 0 33.908-4.009 48.613-11.147v18.607l-14.327 49.12c-10.489 5.62-22.292 8.581-34.285 8.581z"/><path d="m285.316 229.274c2.949-2.909 2.98-7.658.071-10.606-2.91-2.949-7.659-2.98-10.606-.071-2.737 2.701-9.298 5.855-18.781 5.855s-16.043-3.154-18.781-5.855c-2.949-2.91-7.698-2.877-10.606.071-2.909 2.949-2.877 7.697.071 10.606 6.459 6.373 17.418 10.177 29.316 10.177s22.857-3.804 29.316-10.177z"/></g></g></svg>