<svg id="Capa_1" enable-background="new 0 0 512 512" height="512" viewBox="0 0 512 512" width="512" xmlns="http://www.w3.org/2000/svg"><g><g><path d="m413.227 382.611-101.34-29.806h-111.774l-101.34 29.806c-20.387 5.996-34.387 24.707-34.387 45.957l23.952 75.932h119.759l48.967-8.253 46.84 8.253h119.759c13.228 0 23.952-10.724 23.952-23.952v-51.98c-.001-21.25-14.001-39.96-34.388-45.957z" fill="#47de9e"/><path d="m105.529 405.593 101.344-29.807-6.76-22.98-101.34 29.806c-20.388 5.996-34.387 24.707-34.387 45.957v75.931h23.952v-75.933c0-10.551 7.068-19.998 17.191-22.974z" fill="#43bfa0"/><path d="m200.113 280.95h111.775v135.727h-111.775z" fill="#e0916d"/><path d="m231.915 334.646c.479 0 .965.044 1.456.134 7.451 1.365 15.063 2.058 22.629 2.058 19.198 0 38.415-4.588 55.887-13.197v-42.69h-111.774v135.727h23.952v-74.092c-.001-4.379 3.521-7.94 7.85-7.94z" fill="#c7805d"/><path d="m394.235 153.208c0-8.413 6.684-17.3 5.281-25.31-1.443-8.236-10.786-14.305-13.583-21.987-2.847-7.819.383-18.466-3.73-25.574-4.152-7.175-15.007-9.678-20.308-15.988-5.315-6.328-5.909-17.449-12.238-22.763-6.31-5.3-17.361-3.966-24.536-8.117-7.108-4.112-11.456-14.37-19.274-17.216-7.682-2.797-17.596 2.242-25.832.8-8.009-1.405-15.604-9.553-24.015-9.553-8.413 0-16.01 8.148-24.021 9.552-8.236 1.442-18.151-3.595-25.833-.798-7.819 2.847-12.167 13.105-19.276 17.219-7.175 4.152-18.226 2.819-24.536 8.119-6.328 5.315-6.921 16.437-12.236 22.765-5.3 6.31-16.155 8.813-20.306 15.988-4.112 7.108-.881 17.754-3.727 25.572-2.797 7.682-12.14 13.751-13.582 21.987-1.402 8.009 5.282 16.894 5.282 25.305 0 8.413-6.684 17.3-5.281 25.31.847 4.837 12.402 18.485 15.773 22.593h255.485c3.372-4.109 14.927-17.761 15.774-22.599 1.404-8.01-5.281-16.895-5.281-25.305z" fill="#6b4f5a"/><path d="m224.064 16.943c-6.178-.821-12.584-2.632-17.919-.69-7.819 2.847-12.167 13.105-19.276 17.219-7.175 4.152-18.226 2.819-24.536 8.119-6.328 5.315-6.921 16.437-12.236 22.765-5.3 6.31-16.155 8.813-20.306 15.988-4.112 7.108-.881 17.754-3.727 25.572-2.797 7.682-12.14 13.751-13.582 21.987-1.402 8.009 5.282 16.894 5.282 25.305 0 8.413-6.684 17.3-5.281 25.31.847 4.837 12.402 18.485 15.773 22.593h95.807v-184.168z" fill="#61444f"/><path d="m370.628 177.159h-10.837c-8.819 0-15.968-7.149-15.968-15.968v-31.936c0-22.047-17.873-39.92-39.92-39.92h-95.807c-22.047 0-39.92 17.873-39.92 39.92v31.936c0 8.819-7.149 15.968-15.968 15.968h-10.837c-10.44 0-19.955 7.512-20.995 17.901-1.196 11.948 8.154 22.019 19.856 22.019h12.379c4.089 53.579 48.761 95.807 103.387 95.807s99.298-42.228 103.387-95.807h12.379c11.703 0 21.053-10.072 19.856-22.019-1.037-10.389-10.551-17.901-20.992-17.901z" fill="#f1a673"/><path d="m315.879 360.789-51.022 34.015c-5.364 3.576-12.351 3.576-17.715 0l-51.022-34.015 59.88 143.711z" fill="#fd7"/><path d="m200.113 336.838-50.969 58.25c-2.768 3.163-2.609 7.931.363 10.903l18.67 18.67-12.337 18.506c-2.111 3.167-1.694 7.383.998 10.074l51.259 51.259h47.903z" fill="#89ec9e"/><path d="m311.887 336.838 50.969 58.25c2.768 3.163 2.609 7.931-.363 10.903l-18.67 18.67 12.337 18.506c2.111 3.167 1.694 7.383-.998 10.074l-51.258 51.259h-47.904z" fill="#89ec9e"/><path d="m152.613 217.079c4.089 53.579 48.761 95.807 103.387 95.807 12.543 0 24.517-2.318 35.64-6.396l-18.404-2.84c-46.996-7.252-81.107-47.019-81.107-94.555v-111.594-4.795c-14.087 6.165-23.952 20.189-23.952 36.549v31.936c0 8.819-7.15 15.968-15.968 15.968h-10.838c-10.44 0-19.954 7.512-20.995 17.9-1.197 11.948 8.154 22.019 19.856 22.019h12.381z" fill="#e0916d"/></g><g><path d="m208.097 177.643c-4.142 0-7.5 3.358-7.5 7.5v7.984c0 4.142 3.358 7.5 7.5 7.5s7.5-3.358 7.5-7.5v-7.984c0-4.142-3.358-7.5-7.5-7.5z"/><path d="m303.903 177.643c-4.142 0-7.5 3.358-7.5 7.5v7.984c0 4.142 3.358 7.5 7.5 7.5s7.5-3.358 7.5-7.5v-7.984c0-4.142-3.358-7.5-7.5-7.5z"/><path d="m285.219 246.369c2.949-2.91 2.98-7.658.071-10.606-2.91-2.949-7.659-2.98-10.606-.071-2.723 2.687-9.249 5.823-18.684 5.823s-15.961-3.137-18.684-5.823c-2.949-2.909-7.698-2.878-10.606.071-2.909 2.948-2.877 7.697.071 10.606 6.438 6.353 17.361 10.146 29.219 10.146s22.781-3.793 29.219-10.146z"/><path d="m216.081 153.691h-15.968c-4.142 0-7.5 3.358-7.5 7.5s3.358 7.5 7.5 7.5h15.968c4.142 0 7.5-3.358 7.5-7.5s-3.358-7.5-7.5-7.5z"/><path d="m295.919 168.691h15.968c4.142 0 7.5-3.358 7.5-7.5s-3.358-7.5-7.5-7.5h-15.968c-4.142 0-7.5 3.358-7.5 7.5s3.358 7.5 7.5 7.5z"/><path d="m415.344 375.416-80.434-23.657-15.522-17.74v-33.507c24.906-17.326 42.437-44.555 46.826-75.934h4.415.001c14.572 0 27.072-10.83 28.457-24.654.185-1.847.176-3.693-.007-5.513 3.319-4.065 6.788-8.682 7.825-14.606 1.103-6.295-.986-12.208-2.83-17.425-1.203-3.407-2.34-6.624-2.34-9.173 0-2.55 1.137-5.769 2.34-9.176 1.843-5.218 3.931-11.132 2.829-17.428-1.137-6.491-5.194-11.415-8.772-15.759-2.23-2.707-4.337-5.264-5.151-7.5-.851-2.335-.886-5.709-.923-9.282-.059-5.572-.125-11.887-3.363-17.483-3.268-5.646-8.736-8.865-13.561-11.704-3.052-1.796-5.934-3.492-7.496-5.351-1.573-1.872-2.75-5.014-3.997-8.34-1.96-5.232-4.182-11.162-9.16-15.342-4.965-4.169-11.18-5.333-16.664-6.358-3.501-.655-6.808-1.273-8.94-2.507-2.082-1.205-4.243-3.738-6.532-6.419-3.644-4.271-7.773-9.11-13.932-11.353-6.05-2.203-12.264-1.167-17.746-.254-3.539.589-6.882 1.147-9.358.713-2.313-.405-5.184-2.027-8.222-3.745-4.907-2.775-10.469-5.919-17.087-5.919-6.62 0-12.183 3.144-17.09 5.918-3.04 1.718-5.91 3.34-8.225 3.746-2.476.433-5.82-.123-9.359-.712-5.482-.913-11.696-1.948-17.746.254-6.159 2.243-10.289 7.083-13.933 11.354-2.289 2.683-4.45 5.216-6.533 6.421-2.132 1.234-5.439 1.853-8.94 2.508-5.484 1.026-11.7 2.19-16.664 6.36-4.977 4.181-7.199 10.111-9.159 15.343-1.246 3.326-2.423 6.468-3.996 8.341-1.561 1.859-4.443 3.555-7.495 5.351-4.825 2.84-10.293 6.058-13.561 11.706-3.237 5.596-3.302 11.91-3.36 17.481-.037 3.572-.072 6.946-.922 9.281-.814 2.235-2.92 4.792-5.15 7.5-3.579 4.344-7.635 9.269-8.772 15.759-1.103 6.295.986 12.208 2.829 17.425 1.204 3.407 2.34 6.625 2.34 9.173 0 2.55-1.137 5.768-2.34 9.176-1.843 5.218-3.931 11.132-2.829 17.428 1.036 5.916 4.497 10.528 7.812 14.588-.749 7.719 1.784 15.419 6.959 21.139 5.198 5.745 12.622 9.04 20.366 9.04h5.549c4.389 31.385 21.919 58.616 46.83 75.941v33.5l-15.522 17.74-80.434 23.657c-23.417 6.887-39.771 28.744-39.771 53.152v75.93c0 4.142 3.358 7.5 7.5 7.5s7.5-3.358 7.5-7.5v-75.932c0-17.8 11.926-33.739 29.003-38.762l57.78-16.994-20.088 22.958c-2.6 2.972-2.451 7.45.341 10.242l19.604 19.604-12.557 18.836c-1.983 2.975-1.591 6.936.937 9.463l55.888 55.888c2.929 2.929 7.678 2.929 10.606 0 2.929-2.929 2.929-7.678 0-10.606l-51.54-51.54 12.557-18.836c1.983-2.975 1.591-6.936-.937-9.463l-18.99-18.99 42.647-48.74 51.748 155.244c1.021 3.062 3.887 5.128 7.115 5.128s6.094-2.066 7.115-5.128l21.293-63.872c1.31-3.929-.814-8.177-4.744-9.487-3.928-1.311-8.176.814-9.487 4.744l-14.175 42.526-30.455-91.364 26.294 17.53c1.26.84 2.71 1.26 4.16 1.26s2.9-.42 4.16-1.26l26.294-17.53-5.634 16.902c-1.31 3.929.814 8.177 4.744 9.487 3.929 1.309 8.177-.814 9.487-4.744l19.812-59.437 42.647 48.74-18.99 18.99c-2.528 2.528-2.92 6.489-.937 9.463l12.557 18.836-51.54 51.54c-2.929 2.929-2.929 7.678 0 10.606 1.464 1.464 3.384 2.197 5.303 2.197s3.839-.732 5.303-2.197l55.888-55.888c2.528-2.528 2.92-6.489.937-9.463l-12.557-18.836 19.604-19.604c2.792-2.792 2.941-7.271.341-10.242l-20.088-22.958 57.78 16.994c17.077 5.022 29.003 20.962 29.003 38.762v75.933c0 4.142 3.358 7.5 7.5 7.5s7.5-3.358 7.5-7.5v-75.932c.001-24.408-16.353-46.265-39.769-53.152zm-295.473-246.219c.454-2.595 2.941-5.614 5.574-8.81 2.8-3.398 5.973-7.251 7.667-11.905 1.728-4.745 1.78-9.798 1.827-14.256.042-4.084.082-7.943 1.345-10.125 1.292-2.232 4.64-4.203 8.185-6.29 3.822-2.25 8.155-4.799 11.373-8.631 3.229-3.845 4.997-8.563 6.557-12.726 1.439-3.843 2.799-7.473 4.76-9.12 1.948-1.636 5.75-2.348 9.775-3.101 4.375-.819 9.335-1.747 13.693-4.269 4.311-2.495 7.562-6.306 10.431-9.668 2.679-3.139 5.208-6.104 7.654-6.995 2.343-.852 6.136-.221 10.15.447 4.411.734 9.411 1.566 14.411.691 4.858-.851 9.193-3.301 13.017-5.462 3.618-2.045 7.036-3.977 9.71-3.977 2.672 0 6.089 1.931 9.706 3.976 3.824 2.162 8.158 4.611 13.016 5.462 5 .875 9.999.043 14.41-.692 4.015-.669 7.808-1.3 10.15-.448 2.445.89 4.975 3.855 7.653 6.994 2.869 3.362 6.121 7.173 10.431 9.667 4.358 2.521 9.317 3.449 13.693 4.268 4.025.753 7.828 1.464 9.775 3.101 1.961 1.647 3.321 5.276 4.761 9.119 1.56 4.163 3.328 8.881 6.558 12.726 3.218 3.831 7.551 6.381 11.373 8.63 3.545 2.086 6.894 4.057 8.186 6.289 1.264 2.184 1.304 6.042 1.347 10.127.047 4.458.1 9.512 1.828 14.257 1.694 4.654 4.868 8.507 7.668 11.906 2.633 3.196 5.12 6.215 5.575 8.81.424 2.422-.849 6.028-2.197 9.846-1.498 4.242-3.196 9.05-3.196 14.171 0 5.12 1.698 9.928 3.197 14.169 1.348 3.816 2.622 7.421 2.197 9.842-.065.37-.181.752-.323 1.139-5.18-5.529-12.453-8.698-20.039-8.698h-11.976c-4.669 0-8.468-3.799-8.468-8.468v-31.936c0-26.147-21.272-47.419-47.42-47.419h-95.807c-26.147 0-47.42 21.272-47.42 47.419v31.936c0 4.669-3.799 8.468-8.468 8.468h-10.836c-8.229 0-15.796 3.454-21.075 8.949-.19-.472-.348-.937-.426-1.385-.424-2.422.849-6.028 2.197-9.846 1.498-4.242 3.196-9.05 3.196-14.17s-1.698-9.928-3.197-14.169c-1.349-3.818-2.622-7.423-2.198-9.843zm39.838 79.898c0-4.142-3.358-7.5-7.5-7.5s-7.5 3.358-7.5 7.5v.484h-4.476c-3.514 0-6.883-1.496-9.243-4.104-2.391-2.643-3.51-6.076-3.15-9.667.626-6.251 6.57-11.148 13.533-11.148h10.836c12.94 0 23.468-10.528 23.468-23.468v-31.936c0-17.876 14.543-32.419 32.42-32.419h95.807c17.876 0 32.42 14.543 32.42 32.419v31.936c0 12.94 10.528 23.468 23.468 23.468h11.976c3.514 0 6.883 1.496 9.243 4.104 2.391 2.643 3.51 6.076 3.15 9.667-.625 6.252-6.569 11.149-13.532 11.148h-3.341v-.407c0-4.141-3.356-7.499-7.497-7.5-.001 0-.002 0-.003 0-4.14 0-7.497 3.354-7.5 7.495-.039 53.055-43.233 96.219-96.287 96.219-53.096 0-96.292-43.196-96.292-96.291zm96.291 182.6-38.181-25.454-10.207-30.621v-26.32c14.639 7.098 31.056 11.085 48.388 11.085 17.33 0 33.747-3.989 48.388-11.09v26.325l-10.207 30.622z"/></g></g></svg>