<svg id="Capa_1" enable-background="new 0 0 512 512" height="512" viewBox="0 0 512 512" width="512" xmlns="http://www.w3.org/2000/svg"><g><g><path d="m344.177 345.592-14.801-4.353c-10.235-3.01-17.263-12.403-17.263-23.071v-62.168h-112.226v62.167c0 10.668-7.028 20.061-17.263 23.071l-14.801 4.353v86.763h176.355v-86.762z" fill="#f1a673"/><path d="m199.887 256v62.167c0 10.668-7.028 20.061-17.263 23.071l6.796 23.076c17.426-5.14 29.334-17.291 33.095-32.818 1.146-4.729 4.216-8.757 8.567-10.933 2.986-1.493 6.351-1.977 9.661-1.535 5.077.678 10.17 1.1 15.257 1.1 19.387 0 38.679-4.529 56.113-13.027v-51.101z" fill="#df976c"/><path d="m413.861 366.087-84.485-24.849c-1.646-.484-3.172-1.186-4.637-1.979-12.447 12.725-28.41 21.934-46.299 26.209-3.702.884-6.408 4.036-6.408 7.842v34.139c0 7.986-5.457 15.389-13.34 16.671-10.044 1.634-18.725-6.076-18.725-15.813v-34.997c0-3.806-2.706-6.957-6.408-7.842-17.889-4.274-33.853-13.484-46.299-26.209-1.464.793-2.99 1.495-4.637 1.979l-84.485 24.849c-20.469 6.02-34.526 24.806-34.526 46.143l24.048 92.27h360.726v-92.27c.001-21.336-14.055-40.122-34.525-46.143z" fill="#76d4ec"/><path d="m159.806 47.581-24.048 112.226 16.032 32.065c0 57.553 46.656 104.21 104.21 104.21s104.21-46.656 104.21-104.21l16.032-32.065-24.048-112.226z" fill="#f8ba7e"/><path d="m183.855 191.871v-91.239c0-5.959 6.271-9.835 11.601-7.17l11.824 5.912c4.489 2.245 9.914-.142 11.293-4.968l13.379-46.826h-72.145l-24.048 112.226 16.032 32.065c0 57.553 46.656 104.21 104.21 104.21 5.467 0 10.793-.548 16.032-1.359-49.922-7.729-88.178-50.764-88.178-102.851z" fill="#f1a673"/><path d="m384.258 159.806-16.032-16.032c-8.854 0-16.032-7.178-16.032-16.032v-64.129h32.065v96.193z" fill="#4fc0ec"/><path d="m127.742 151.79 16.032-8.016c8.854 0 16.032-7.178 16.032-16.032v-32.065c0-8.048 1.708-15.688 4.771-22.595 4-9.018 15.312-12.113 23.52-6.64l32.643 21.762c5.057 3.371 11.88.109 12.43-5.944l6.796-74.76h-24.048c-48.699 0-88.177 39.478-88.177 88.177v56.113z" fill="#4fc0ec"/><path d="m296.081 7.5h-80.161v17.665c0 9.159 3.917 17.881 10.762 23.965l51.491 45.77c4.501 4.001 11.642 1.795 13.102-4.047l4.806-19.224 21.098 14.065c1.879 1.253 4.2 1.655 6.391 1.107l57.489-14.372c-10.215-37.4-44.339-64.929-84.978-64.929z" fill="#76d4ec"/><path d="m376.242 143.774h-8.016c-4.427 0-8.016 3.589-8.016 8.016v40.081c0 11.195-1.811 21.957-5.079 32.065h21.111c13.282 0 24.048-10.767 24.048-24.048v-32.065c0-13.282-10.767-24.049-24.048-24.049z" fill="#6b4f5a"/><path d="m151.79 191.871v-40.081c0-4.427-3.589-8.016-8.016-8.016h-8.016c-13.282 0-24.048 10.767-24.048 24.048v32.065c0 13.282 10.767 24.048 24.048 24.048h21.111c-3.267-10.107-5.079-20.869-5.079-32.064z" fill="#61444f"/><path d="m357.943 349.641-28.567-8.402c-1.646-.484-3.172-1.186-4.637-1.979-12.447 12.725-28.41 21.935-46.3 26.209-3.701.885-6.407 4.036-6.407 7.841v25.873c35-4.375 65.543-22.83 85.911-49.542z" fill="#ffce8a"/><path d="m239.968 399.183v-25.873c0-3.805-2.706-6.957-6.407-7.841-17.89-4.274-33.853-13.484-46.3-26.209-1.464.793-2.99 1.495-4.637 1.979l-28.567 8.402c20.368 26.712 50.911 45.167 85.911 49.542z" fill="#ffce8a"/><path d="m104.923 389.159 84.498-24.847c6.599-1.945 12.455-5.367 17.484-9.681-7.202-4.269-13.821-9.417-19.645-15.371-1.464.793-2.99 1.495-4.636 1.979l-84.485 24.849c-20.469 6.02-34.526 24.806-34.526 46.143v92.27h24.048v-92.272c0-10.592 7.101-20.08 17.262-23.07z" fill="#4fc0ec"/><path d="m206.905 354.631c-7.201-4.27-13.821-9.417-19.645-15.371-1.464.793-2.99 1.495-4.636 1.979l-28.567 8.402c5.482 7.19 11.753 13.721 18.598 19.601l16.766-4.93c6.599-1.945 12.454-5.367 17.484-9.681z" fill="#f8ba7e"/></g><g><path d="m207.903 160.323c-4.142 0-7.5 3.358-7.5 7.5v8.016c0 4.142 3.358 7.5 7.5 7.5s7.5-3.358 7.5-7.5v-8.016c0-4.142-3.358-7.5-7.5-7.5z"/><path d="m304.097 160.323c-4.142 0-7.5 3.358-7.5 7.5v8.016c0 4.142 3.358 7.5 7.5 7.5s7.5-3.358 7.5-7.5v-8.016c0-4.142-3.358-7.5-7.5-7.5z"/><path d="m285.316 229.274c2.949-2.909 2.98-7.658.071-10.606-2.91-2.949-7.659-2.98-10.606-.071-2.737 2.701-9.298 5.855-18.781 5.855s-16.043-3.154-18.781-5.855c-2.949-2.91-7.698-2.877-10.606.071-2.909 2.949-2.877 7.697.071 10.606 6.459 6.373 17.418 10.177 29.316 10.177s22.857-3.804 29.316-10.177z"/><path d="m415.978 358.892-84.486-24.849c-6.994-2.057-11.879-8.585-11.879-15.876v-34.523c18.394-12.789 32.776-30.957 40.852-52.209h15.777c17.396 0 31.549-14.152 31.549-31.548v-32.064c0-11.758-6.47-22.026-16.032-27.452v-44.694c-.001-52.756-42.922-95.677-95.678-95.677h-80.161c-52.757 0-95.678 42.921-95.678 95.677v44.693c-9.562 5.426-16.032 15.695-16.032 27.452v32.064c0 17.396 14.153 31.548 31.549 31.548h15.777c8.076 21.253 22.458 39.421 40.852 52.209v34.523c0 7.291-4.885 13.819-11.879 15.876l-84.486 24.849c-23.498 6.912-39.909 28.845-39.909 53.338v92.27c0 4.142 3.358 7.5 7.5 7.5s7.5-3.358 7.5-7.5v-92.27c0-5.47 1.126-10.764 3.173-15.624l37.378 31.846c5.451 4.673 8.578 11.471 8.578 18.651v57.398c0 4.142 3.358 7.5 7.5 7.5s7.5-3.358 7.5-7.5v-57.397c0-11.564-5.036-22.514-13.833-30.054l-38.793-33.051c4.767-4.932 10.789-8.699 17.639-10.714l50.387-14.82c20.917 25.352 49.642 41.982 81.826 47.411v2.432c0 12.976 10.557 23.532 23.532 23.532s23.532-10.557 23.532-23.532v-2.675c31.441-5.702 60.339-22.691 80.739-47.488l51.474 15.139c6.85 2.015 12.871 5.782 17.639 10.714l-38.81 33.066c-8.78 7.526-13.816 18.475-13.816 30.04v57.397c0 4.142 3.358 7.5 7.5 7.5s7.5-3.358 7.5-7.5v-57.397c0-7.18 3.126-13.978 8.561-18.636l37.395-31.86c2.047 4.86 3.173 10.154 3.173 15.624v92.27c0 4.142 3.358 7.5 7.5 7.5s7.5-3.358 7.5-7.5v-92.27c-.001-24.494-16.412-46.427-39.91-53.339zm-23.187-191.069v32.064c0 9.125-7.424 16.548-16.549 16.548h-8.532v-65.161h8.532c9.125 0 16.549 7.424 16.549 16.549zm-16.033-72.146v40.597h-8.533c-4.705 0-8.532-3.828-8.532-8.532v-43.585l15.476-4.422c1.038 5.156 1.589 10.486 1.589 15.942zm-232.467 120.759h-8.532c-9.125 0-16.549-7.423-16.549-16.548v-32.064c0-9.125 7.424-16.548 16.549-16.548h8.532zm15-25.798v-45.209c5.064-4.442 8.016-10.866 8.016-17.687v-32.065c0-6.8 1.389-13.379 4.127-19.555 1.337-3.016 3.869-4.144 5.259-4.547 2.473-.718 5.114-.314 7.246 1.106l43.854 29.236c3.446 2.297 8.103 1.367 10.4-2.08 2.298-3.446 1.367-8.103-2.08-10.4l-43.854-29.236c-5.822-3.88-13.019-4.985-19.75-3.03-6.623 1.924-12.012 6.615-14.786 12.871-3.593 8.103-5.415 16.728-5.415 25.636v31.597c0 4.971-4.029 9-9 9h-8.065v-40.598c0-44.557 36.12-80.677 80.677-80.677h80.162c33.771 0 62.744 20.866 74.75 50.375l-49.428 14.122-21.163-14.108c-2.667-1.778-6.255-1.706-8.902.422-1.31 1.053-2.175 2.565-2.583 4.196l-4.99 19.959-54.891-48.03c-3.117-2.727-7.855-2.412-10.583.706s-2.412 7.855.706 10.583l64.129 56.113c1.387 1.213 3.147 1.855 4.939 1.855.75 0 1.505-.112 2.241-.343 2.494-.781 4.401-2.803 5.035-5.338l5.435-21.739 15.193 10.128c1.83 1.221 4.104 1.576 6.221.971l22.504-6.43v39.299c0 7.035 3.107 13.354 8.016 17.67v46.459c0 53.643-43.902 97.226-97.664 96.705-53.242-.515-95.756-44.694-95.756-97.937zm73.177 199.992c-25.485-4.85-48.413-17.652-65.998-36.822l18.271-5.374c.289-.085.565-.196.851-.289 12.99 12.012 28.905 20.511 46.218 24.637.319.076.658.297.658.557zm44.241-32.444c-7.17 1.708-12.177 7.935-12.177 15.143v34.978c0 4.705-3.828 8.532-8.532 8.532s-8.532-3.828-8.532-8.532v-34.968c0-7.209-5.008-13.438-12.18-15.147-13.508-3.22-26.018-9.55-36.537-18.429 5.385-5.734 8.637-13.404 8.637-21.595v-25.732c14.705 7.137 31.199 11.145 48.613 11.145s33.908-4.007 48.613-11.145v25.732c0 8.188 3.25 15.856 8.632 21.59-10.52 8.877-23.013 15.205-36.537 18.428zm2.823 32.167v-17.024c0-.257.337-.476.654-.551 17.334-4.131 33.23-12.62 46.223-24.632.285.093.561.204.849.289l17.194 5.057c-17.194 18.746-40.091 31.767-64.92 36.861z"/><path d="m215.919 136.274h-16.032c-4.142 0-7.5 3.358-7.5 7.5s3.358 7.5 7.5 7.5h16.032c4.142 0 7.5-3.358 7.5-7.5s-3.357-7.5-7.5-7.5z"/><path d="m296.081 151.274h16.032c4.142 0 7.5-3.358 7.5-7.5s-3.358-7.5-7.5-7.5h-16.032c-4.142 0-7.5 3.358-7.5 7.5s3.357 7.5 7.5 7.5z"/></g></g></svg>