<svg id="Capa_1" enable-background="new 0 0 512 512" height="512" viewBox="0 0 512 512" width="512" xmlns="http://www.w3.org/2000/svg"><g><g><path d="m352.194 385.201-26.704-9.425c-12.82-4.525-21.393-16.642-21.393-30.237v-41.443h-96.194v41.443c0 13.595-8.573 25.712-21.393 30.237l-26.704 9.425v71.202h192.387v-71.202z" fill="#c7805d"/><path d="m207.903 304.097v41.443c0 13.595-8.573 25.712-21.393 30.236l-15.487 5.466 5.976 23.39 17.5-6.177c18.237-6.423 31.482-21.739 35.786-40.03 1.398-5.943 5.392-10.929 11.06-13.196 2.556-1.022 5.309-1.406 8.057-1.248 2.207.127 4.409.196 6.598.196 16.593 0 32.734-3.288 48.097-9.529v-30.551z" fill="#ab6e4d"/><circle cx="376.242" cy="63.613" fill="#87646f" r="56.113"/><circle cx="135.758" cy="63.613" fill="#61444f" r="56.113"/><path d="m376.225 215.919c10.219-19.118 16.049-40.936 16.049-64.129 0-75.262-61.012-16.032-136.274-16.032s-136.274-59.23-136.274 16.032c0 23.193 5.83 45.011 16.049 64.129z" fill="#61444f"/><path d="m371.091 183.855h-2.865c-13.282 0-24.048-10.767-24.048-24.048v-80.162h-176.355v80.161c0 13.282-10.767 24.048-24.048 24.048h-2.865c-10.483 0-20.035 7.542-21.08 17.973-1.201 11.996 8.187 22.108 19.937 22.108h12.429c4.106 53.795 48.957 96.194 103.805 96.194s99.699-42.398 103.805-96.194h12.429c11.75 0 21.138-10.112 19.937-22.108-1.046-10.43-10.599-17.972-21.081-17.972z" fill="#e0916d"/><path d="m196.969 167.529c38.181-14.383 67.465-46.438 78.333-85.748l.591-2.136h-108.07v80.161c0 13.282-10.767 24.048-24.048 24.048h-2.865c-10.482 0-20.034 7.542-21.08 17.973-1.202 11.996 8.186 22.108 19.937 22.108h12.429c4.106 53.795 48.958 96.194 103.805 96.194 12.594 0 24.616-2.326 35.783-6.422l-18.478-2.851c-47.186-7.282-81.434-47.209-81.434-94.937v-40.988c-.001-3.279 2.048-6.254 5.097-7.402z" fill="#c7805d"/><circle cx="256" cy="384.258" fill="#fd7" r="16.032"/><circle cx="296.081" cy="376.242" fill="#fd7" r="16.032"/><circle cx="215.919" cy="376.242" fill="#ffbf63" r="16.032"/><path d="m256 15.516c-73.382 0-133.048 58.044-135.993 130.703 10.175 2.776 23.201 5.571 31.783 5.571 40.767 0 76.067-23.409 93.19-57.519 2.231-4.444 6.625-6.666 11.02-6.666s8.789 2.222 11.02 6.666c17.123 34.11 52.423 57.519 93.19 57.519 8.582 0 21.608-2.796 31.783-5.571-2.945-72.659-62.611-130.703-135.993-130.703z" fill="#6b4f5a"/><path d="m408.282 404.997-63.538-22.426c-18.334 29.826-51.166 49.783-88.744 49.783s-70.41-19.957-88.744-49.783l-63.538 22.425c-19.23 6.787-32.089 24.962-32.089 45.354l24.048 54.15h344.694v-54.148c0-20.392-12.859-38.568-32.089-45.355z" fill="#ffbf63"/><path d="m95.677 450.352c0-10.179 6.45-19.294 16.048-22.682l68.12-24.043 3.279-1.157c-6.053-5.953-11.398-12.626-15.869-19.898l-63.538 22.425c-19.229 6.787-32.089 24.962-32.089 45.354v54.149h24.048v-54.148z" fill="#ffa65a"/></g><g><path d="m410.778 397.925-82.792-29.221c-9.803-3.46-16.389-12.769-16.389-23.165v-32.754c29.243-16.849 50.174-46.561 55.03-81.35h5.607c15.186 0 27.541-12.354 27.541-27.541 0-5.715-1.751-11.028-4.743-15.434 3.135-11.919 4.743-24.237 4.743-36.671 0-9.593-.952-18.966-2.753-28.037 25.483-8.759 42.834-32.732 42.834-60.14-.001-35.075-28.538-63.612-63.614-63.612-20.421 0-39.148 9.534-51.124 25.754-20.523-11.299-44.082-17.738-69.118-17.738s-48.595 6.439-69.117 17.738c-11.977-16.22-30.704-25.754-51.125-25.754-35.077 0-63.613 28.537-63.613 63.613 0 27.408 17.351 51.381 42.833 60.14-1.801 9.072-2.753 18.445-2.753 28.037 0 12.433 1.608 24.753 4.743 36.671-2.992 4.405-4.743 9.719-4.743 15.434 0 15.186 12.354 27.541 27.541 27.541h5.607c4.856 34.789 25.787 64.501 55.03 81.35v32.754c0 10.396-6.586 19.705-16.389 23.165l-82.792 29.221c-22.187 7.83-37.093 28.899-37.093 52.427v54.147c0 4.142 3.358 7.5 7.5 7.5s7.5-3.358 7.5-7.5v-54.148c0-17.18 10.885-32.564 27.085-38.282l57.875-20.427c5.788 8.367 12.673 15.901 20.527 22.432 1.401 1.166 3.101 1.733 4.792 1.733 2.151 0 4.288-.921 5.771-2.705 2.648-3.185 2.214-7.914-.971-10.562-5.746-4.778-10.887-10.178-15.37-16.104l10.169-3.589c1.345-.475 2.649-1.023 3.915-1.63 2.291 10.593 11.73 18.555 22.998 18.555 7.078 0 13.432-3.146 17.75-8.108 3.112 9.356 11.943 16.124 22.331 16.124s19.219-6.768 22.331-16.124c4.318 4.962 10.671 8.108 17.75 8.108 11.268 0 20.707-7.963 22.998-18.555 1.266.607 2.57 1.155 3.915 1.63l10.173 3.59c-18.255 24.172-46.615 38.416-77.167 38.416-12.891 0-25.405-2.493-37.194-7.41-3.821-1.594-8.214.212-9.809 4.036-1.594 3.823.212 8.214 4.036 9.809 13.628 5.683 28.084 8.565 42.968 8.565 36.883 0 71.002-17.964 91.914-48.211l57.872 20.425c16.201 5.718 27.085 21.102 27.085 38.282v54.15c0 4.142 3.358 7.5 7.5 7.5s7.5-3.358 7.5-7.5v-54.148c-.002-23.528-14.909-44.597-37.095-52.427zm-59.101-238.96c2.831.214 5.676.326 8.532.326 8.282 0 16.475-.922 24.473-2.711-.267 7.285-1.143 14.508-2.618 21.596-3.055-1.172-6.368-1.82-9.83-1.82h-3.981s-.001 0-.002 0c-4.423 0-8.585-1.723-11.717-4.85s-4.856-7.281-4.856-11.698v-.843zm24.565-143.965c26.806 0 48.613 21.808 48.613 48.613 0 20.518-12.721 38.511-31.538 45.529-9.614-30.888-29.39-57.335-55.392-75.431 9.177-11.799 23.129-18.711 38.317-18.711zm-289.097 48.613c0-26.805 21.808-48.613 48.613-48.613 15.187 0 29.14 6.912 38.317 18.711-26.002 18.096-45.779 44.543-55.392 75.431-18.817-7.019-31.538-25.011-31.538-45.529zm42.786 114.564c-1.475-7.088-2.346-14.313-2.613-21.597 7.998 1.788 16.19 2.711 24.472 2.711 2.866 0 5.71-.116 8.532-.328v.844c0 4.417-1.725 8.571-4.856 11.698-3.133 3.128-7.294 4.85-11.718 4.85 0 0-.001 0-.002 0h-3.98c-3.464 0-6.778.649-9.835 1.822zm29.36 37.742c0-4.142-3.358-7.5-7.5-7.5s-7.5 3.358-7.5 7.5c0 .173.006.344.007.516h-4.531c-6.915 0-12.541-5.625-12.541-12.541 0-6.915 5.625-12.54 12.541-12.54h3.979.004c8.425 0 16.351-3.28 22.315-9.235 5.97-5.96 9.258-13.885 9.258-22.313v-2.983c32.762-6.97 60.874-28.338 76.36-59.187 1.147-2.285 3.401-2.532 4.317-2.532s3.17.247 4.317 2.531c8.198 16.332 20.432 30.562 35.378 41.152 3.379 2.394 8.061 1.597 10.456-1.784 2.395-3.38 1.596-8.061-1.784-10.456-12.948-9.174-23.544-21.499-30.645-35.642-3.345-6.663-10.136-10.802-17.723-10.802s-14.378 4.139-17.723 10.802c-16.53 32.928-49.67 53.384-86.487 53.384-8.194 0-16.283-1.037-24.13-3.052 5.387-66.087 60.888-118.221 128.341-118.221s122.954 52.134 128.34 118.223c-7.847 2.015-15.936 3.052-24.13 3.052-10.169 0-20.182-1.569-29.76-4.664-3.939-1.272-8.169.89-9.442 4.831s.889 8.169 4.831 9.442c3.564 1.151 7.183 2.1 10.839 2.884v3.022c0 8.428 3.288 16.353 9.258 22.313 5.965 5.956 13.89 9.235 22.315 9.235h.003 3.98c6.915 0 12.541 5.625 12.541 12.54s-5.625 12.541-12.541 12.541h-4.531c.001-.172.007-.344.007-.516 0-4.142-3.358-7.5-7.5-7.5s-7.5 3.358-7.5 7.5c0 53.326-43.384 96.709-96.709 96.709s-96.71-43.383-96.71-96.709zm96.709 111.71c14.315 0 28.007-2.71 40.597-7.638v25.548c0 2.446.233 4.853.669 7.2-.393-.02-.787-.03-1.185-.03-10.388 0-19.219 6.768-22.331 16.124-4.318-4.962-10.671-8.108-17.75-8.108s-13.432 3.146-17.75 8.108c-3.112-9.356-11.943-16.124-22.331-16.124-.397 0-.792.011-1.185.03.436-2.347.669-4.754.669-7.2v-25.548c12.59 4.928 26.282 7.638 40.597 7.638zm-40.081 57.145c-4.705 0-8.532-3.828-8.532-8.533s3.828-8.532 8.532-8.532 8.532 3.828 8.532 8.532c.001 4.706-3.827 8.533-8.532 8.533zm40.081 8.017c-4.705 0-8.532-3.828-8.532-8.532 0-4.705 3.828-8.533 8.532-8.533s8.532 3.828 8.532 8.533c0 4.704-3.827 8.532-8.532 8.532zm40.081-8.017c-4.705 0-8.532-3.828-8.532-8.533s3.828-8.532 8.532-8.532 8.532 3.828 8.532 8.532c0 4.706-3.828 8.533-8.532 8.533z"/><path d="m285.316 261.339c2.949-2.909 2.98-7.658.071-10.606-2.91-2.949-7.659-2.98-10.606-.071-2.737 2.701-9.298 5.855-18.781 5.855s-16.043-3.154-18.781-5.855c-2.949-2.91-7.698-2.877-10.606.071-2.909 2.949-2.877 7.697.071 10.606 6.459 6.373 17.418 10.177 29.316 10.177s22.857-3.805 29.316-10.177z"/><path d="m207.903 184.371c-4.142 0-7.5 3.358-7.5 7.5v8.016c0 4.142 3.358 7.5 7.5 7.5s7.5-3.358 7.5-7.5v-8.016c0-4.142-3.358-7.5-7.5-7.5z"/><path d="m304.097 184.371c-4.142 0-7.5 3.358-7.5 7.5v8.016c0 4.142 3.358 7.5 7.5 7.5s7.5-3.358 7.5-7.5v-8.016c0-4.142-3.358-7.5-7.5-7.5z"/><path d="m216.011 160.323-16.032-.196c-4.174-.043-7.541 3.267-7.591 7.408-.05 4.142 3.266 7.541 7.408 7.591l16.032.196h.094c4.099 0 7.447-3.298 7.498-7.408.049-4.142-3.267-7.54-7.409-7.591z"/><path d="m296.079 175.323h.094l16.032-.196c4.142-.051 7.458-3.449 7.408-7.591-.051-4.142-3.475-7.436-7.591-7.408l-16.032.196c-4.142.051-7.458 3.449-7.408 7.591.049 4.11 3.397 7.408 7.497 7.408z"/></g></g></svg>