<svg id="Capa_1" enable-background="new 0 0 512 512" height="512" viewBox="0 0 512 512" width="512" xmlns="http://www.w3.org/2000/svg"><g><g><path d="m407.377 371.895c-12.149-14.58-16.976-35.909 0-50.926 37.769-33.41 3.983-69.139-11.317-111.21-4.322-11.887-7.088-48.565-8.846-87.484-2.899-64.211-55.834-114.775-120.111-114.775h-43.167c-6.193 0-11.782 2.406-16.044 6.251l-.315-.341c-46.338 15.121-80.478 57.653-82.791 108.866-1.757 38.919-4.524 75.597-8.846 87.484-15.299 42.071-49.086 77.8-11.317 111.21 16.976 15.017 12.15 36.346 0 50.926-9.793 11.752-24.81 30.867-16.961 52.443h336.677c7.848-21.576-7.169-40.692-16.962-52.444z" fill="#7a4646"/><path d="m216.214 8.881c-.364.124-.748.202-1.103.342-1.312.53-2.569 1.17-3.756 1.914-.011.007-.024.012-.035.019-1.218.766-2.366 1.636-3.43 2.596-4.879 4.401-8.004 10.709-8.004 17.797 0 18.393 6.722 36.348 19.574 49.507 15.289 15.655 42.333 32.965 89.982 42.739v300.544h114.896c7.848-21.576-7.169-40.691-16.962-52.443-12.149-14.58-16.976-35.909 0-50.926 37.769-33.41 3.983-69.139-11.317-111.21-4.322-11.887-7.088-48.565-8.846-87.484-2.898-64.212-55.833-114.776-120.11-114.776h-43.167c-1.583 0-3.124.174-4.622.466-1.071.215-2.087.562-3.1.915z" fill="#a06a5a"/><path d="m415.979 413.963-79.818-33.952h-160.322l-79.818 33.952c-14.79 6.291-24.392 20.81-24.392 36.882l24.048 53.655h344.694v-53.654c0-16.073-9.602-30.592-24.392-36.883z" fill="#df976c"/><path d="m95.677 414.14c-14.587 6.373-24.048 20.762-24.048 36.705v53.655h24.048z" fill="#d18964"/><path d="m415.978 413.962-79.817-33.952h-160.322l-79.818 33.952c-12.586 5.354-21.35 16.684-23.702 29.841l43.101-8.748c6.258-1.27 12.706 1.1 16.54 6.08l20.048 26.041c4.79 6.222 13.476 8.201 20.605 4.694l29.389-14.456c5.847-2.876 12.89-2.105 17.934 1.964l25.557 20.614c6.094 4.916 14.919 4.916 21.013 0l25.561-20.615c5.044-4.069 12.086-4.84 17.933-1.964l29.39 14.456c7.13 3.507 15.816 1.527 20.605-4.695l20.039-26.034c3.835-4.982 10.283-7.352 16.544-6.08l43.104 8.757c-2.346-13.162-11.113-24.499-23.704-29.855z" fill="#ffce8a"/><path d="m96.021 413.963c-12.586 5.354-21.351 16.684-23.703 29.841l30.305-6.151c.845-.584 1.736-1.102 2.688-1.506l84.695-35.181c6.002-2.494 9.881-8.306 9.881-14.806v-6.149h-24.048z" fill="#f8ba7e"/><path d="m175.839 320.129v59.882c23.835 12.932 51.139 20.28 80.161 20.28s56.327-7.348 80.161-20.28v-59.882c0-8.854-7.178-16.032-16.032-16.032h-128.258c-8.854 0-16.032 7.178-16.032 16.032z" fill="#df976c"/><path d="m175.839 320.129v59.882c10.099 5.48 20.852 9.886 32.065 13.226v-89.14h-16.032c-8.855 0-16.033 7.177-16.033 16.032z" fill="#d18964"/><path d="m307.665 93.563 3.475 29.647s-7.606-.63-13.124-1.996c-37.53-9.287-60.782-23.436-75.164-36.859-23.403 12.615-71.062 43.08-71.062 91.483v45.153c0 56.113 43.122 104.395 99.172 107.034 59.843 2.817 109.247-44.867 109.247-104.091v-48.097c0-20.462-5.524-36.885-13.31-49.926-5.04-8.44-12.001-18.149-21.425-20.947z" fill="#fbe7c3"/><path d="m273.053 318.909c-46.282-7.417-81.182-49.512-81.182-97.917v-65.538c0-10.877 4.242-21.183 11.639-28.275 9.68-9.282 21.681-17.966 35.671-25.811l3.651-2.048c-8.062-4.899-14.64-9.981-19.98-14.965-23.403 12.615-71.062 43.08-71.062 91.483v45.153c0 56.112 43.122 104.395 99.172 107.034 14.29.673 27.954-1.607 40.523-6.163z" fill="#f9d8af"/></g><g><path d="m432.405 415.729c5.97-20.703-5.928-33.819-14.739-43.515-1.614-1.776-3.139-3.454-4.527-5.12-14.591-17.509-9.546-32.764-.792-40.507 33.175-29.348 17.89-60.95 3.107-91.511-4.371-9.037-8.891-18.38-12.345-27.88-1.941-5.338-5.614-23.513-8.402-85.259-3.088-68.375-59.139-121.937-127.604-121.937h-43.167c-7.136 0-13.724 2.385-19.015 6.394-24.316 8.008-45.469 22.982-61.185 43.33-16.107 20.855-25.251 45.826-26.442 72.213-2.788 61.747-6.461 79.921-8.402 85.259-3.455 9.5-7.974 18.843-12.345 27.88-14.782 30.561-30.068 62.163 3.107 91.511 14.006 12.39 8.327 29.564-.792 40.507-1.388 1.666-2.913 3.344-4.527 5.12-8.811 9.697-20.709 22.812-14.739 43.515-9.687 8.849-15.466 21.491-15.466 35.117v53.654c0 4.143 3.358 7.5 7.5 7.5s7.5-3.357 7.5-7.5v-53.44l41.546-8.661c3.229-.673 6.591.597 8.569 3.235l19.518 26.041c6.856 9.147 19.239 12.047 29.443 6.891l28.611-14.457c3.029-1.532 6.676-1.121 9.291 1.045l24.88 20.614c4.35 3.604 9.681 5.406 15.014 5.406 5.332-.001 10.664-1.803 15.013-5.406l24.883-20.615c2.614-2.166 6.262-2.578 9.292-1.045l28.612 14.456c10.206 5.155 22.587 2.257 29.443-6.893l19.508-26.034c1.978-2.639 5.341-3.911 8.571-3.235l41.549 8.671v53.427c0 4.143 3.358 7.5 7.5 7.5s7.5-3.357 7.5-7.5v-53.654c-.002-13.626-5.78-26.268-15.468-35.117zm-165.302-400.729c60.426 0 109.894 47.27 112.62 107.614 2.226 49.295 5.265 78.64 9.29 89.708 3.715 10.217 8.404 19.911 12.938 29.285 16.042 33.165 23.973 52.942.458 73.744-9.609 8.5-14.255 19.478-13.437 31.744.676 10.115 5.166 20.627 12.644 29.601 1.594 1.913 3.3 3.79 4.949 5.605 8.044 8.852 13.365 15.353 12.352 24.761-.001 0-.002-.001-.002-.001l-75.253-32.011v-54.922c0-6.962-3.148-13.401-8.182-17.778 15.236-15.44 26.016-35.282 30.243-57.423 6.049 14.764 12.032 22.917 12.536 23.589 1.474 1.965 3.726 3 6.006 3 1.566 0 3.145-.489 4.494-1.5 3.314-2.485 3.985-7.187 1.5-10.5-.226-.301-22.549-30.678-22.549-83.677 0-38.723-18.681-63.926-34.352-78.251-16.85-15.401-33.673-21.703-34.381-21.963-3.888-1.432-8.199.56-9.63 4.446-1.431 3.887.56 8.198 4.446 9.63.589.217 58.917 22.433 58.917 86.138 0 5.766.251 11.277.689 16.548h-17.754v-.516c0-4.142-3.358-7.5-7.5-7.5h-56.113c-4.142 0-7.5 3.358-7.5 7.5v2.124c-2.647-1.034-5.523-1.608-8.532-1.608s-5.885.574-8.532 1.608v-2.124c0-4.142-3.358-7.5-7.5-7.5h-56.113c-4.142 0-7.5 3.358-7.5 7.5v.516h-17.754c.438-5.271.689-10.782.689-16.548 0-21.875 8.026-40.993 23.855-56.822 13.168-13.168 28.104-20.636 36.127-24.648.739-.369 1.386-.848 1.94-1.401 20.579 17.751 49.689 30.577 86.722 38.174 4.06.826 8.021-1.783 8.854-5.84.832-4.058-1.782-8.021-5.84-8.854-38.537-7.905-67.513-21.576-86.124-40.632-11.246-11.515-17.439-27.236-17.439-44.267 0-9.125 7.423-16.548 16.548-16.548h43.17zm-107.812 192.387h17.064v8.532c0 12.976 10.557 23.532 23.532 23.532h24.048c12.976 0 23.532-10.557 23.532-23.532 0-4.705 3.828-8.532 8.532-8.532s8.532 3.828 8.532 8.532c0 12.976 10.557 23.532 23.532 23.532h24.048c12.976 0 23.532-10.557 23.532-23.532v-8.532h17.064v16.548c0 53.326-43.384 96.709-96.709 96.709s-96.709-43.384-96.709-96.709v-16.548zm52.62 8.016c4.142 0 7.5-3.358 7.5-7.5v-8.016c0-.174-.014-.345-.026-.516h13.083v16.548c0 4.705-3.828 8.532-8.532 8.532h-24.048c-4.705 0-8.532-3.828-8.532-8.532v-16.548h13.082c-.012.171-.026.342-.026.516v8.016c-.001 4.142 3.357 7.5 7.499 7.5zm88.178 0c4.142 0 7.5-3.358 7.5-7.5v-8.016c0-.174-.014-.345-.026-.516h13.082v16.548c0 4.705-3.828 8.532-8.532 8.532h-24.048c-4.705 0-8.532-3.828-8.532-8.532v-16.548h13.083c-.012.171-.026.342-.026.516v8.016c-.001 4.142 3.357 7.5 7.499 7.5zm-116.75 160.073v-55.347c0-3.276 1.874-6.193 4.681-7.615 3.932 3.025 8.065 5.799 12.384 8.288v62.095c-5.826-2.14-11.527-4.615-17.065-7.421zm32.064-47.469c5.491 2.149 11.193 3.872 17.064 5.135v57.916c-5.752-.85-11.448-2.022-17.064-3.483zm32.065 7.315c2.817.214 5.662.323 8.532.323s5.716-.109 8.532-.323v57.231c-2.839.151-5.684.238-8.532.238s-5.693-.087-8.532-.238zm32.064-2.179c5.871-1.264 11.574-2.986 17.064-5.135v59.569c-5.617 1.46-11.312 2.633-17.064 3.483zm32.065-12.341c4.318-2.488 8.45-5.262 12.381-8.286 2.802 1.429 4.684 4.364 4.684 7.613v55.347c-5.538 2.806-11.239 5.281-17.064 7.421v-62.095zm-206.161 61.5c1.649-1.815 3.354-3.692 4.949-5.605 7.478-8.973 11.968-19.486 12.644-29.601.819-12.267-3.827-23.244-13.437-31.744-23.515-20.802-15.584-40.579.458-73.744 4.535-9.374 9.223-19.068 12.938-29.285 4.025-11.069 7.064-40.414 9.29-89.709 1.052-23.288 9.119-45.322 23.33-63.721 10.065-13.032 22.662-23.552 37.005-31.054-.143 1.218-.225 2.454-.225 3.709 0 18.989 6.34 36.711 17.927 50.535-18.77 9.483-66.023 35.499-66.023 93.755 0 52.648-22.336 83.39-22.562 83.694-2.47 3.313-1.795 8.002 1.513 10.483 1.349 1.012 2.928 1.5 4.494 1.5 2.28 0 4.532-1.036 6.006-3 .504-.672 6.487-8.825 12.536-23.589 4.225 22.128 14.995 41.959 30.216 57.395-5.031 4.358-8.155 10.786-8.155 17.806v54.922l-75.253 32.011c-.001 0-.002.001-.002.001-1.015-9.406 4.307-15.908 12.351-24.759zm265.311 54.341-19.508 26.034c-2.486 3.317-6.974 4.368-10.675 2.499l-28.612-14.457c-8.357-4.222-18.415-3.09-25.625 2.883l-24.883 20.616c-3.154 2.613-7.732 2.614-10.887 0l-24.88-20.614c-7.21-5.975-17.269-7.107-25.626-2.883l-28.611 14.456c-3.699 1.87-8.188.819-10.675-2.499l-19.518-26.041c-5.454-7.276-14.728-10.777-23.633-8.924l-34.308 7.152c3.452-6.138 8.877-11.12 15.651-14.002l76.555-32.564c24.742 12.75 52.483 19.49 80.488 19.49s55.746-6.74 80.488-19.49l76.555 32.564c6.779 2.884 12.207 7.872 15.658 14.016l-34.316-7.161c-8.905-1.859-18.183 1.645-23.638 8.925z"/><path d="m256 279.532c11.898 0 22.857-3.805 29.316-10.177 2.949-2.909 2.98-7.658.071-10.606-2.91-2.949-7.659-2.98-10.606-.071-2.737 2.701-9.298 5.855-18.781 5.855s-16.043-3.154-18.781-5.855c-2.949-2.91-7.698-2.877-10.606.071-2.909 2.948-2.877 7.697.071 10.606 6.459 6.373 17.418 10.177 29.316 10.177z"/><path d="m221.564 152.691-24.048 8.016c-3.93 1.31-6.053 5.557-4.744 9.487 1.048 3.143 3.974 5.13 7.114 5.13.786 0 1.586-.125 2.373-.387l24.048-8.016c3.93-1.31 6.053-5.558 4.744-9.487-1.31-3.929-5.559-6.053-9.487-4.743z"/><path d="m290.436 152.691c-3.929-1.309-8.177.814-9.487 4.744-1.31 3.929.814 8.177 4.744 9.487l24.048 8.016c.787.262 1.586.387 2.373.387 3.14 0 6.066-1.988 7.114-5.13 1.31-3.93-.814-8.177-4.744-9.487z"/></g></g></svg>