<svg id="Capa_1" enable-background="new 0 0 512 512" height="512" viewBox="0 0 512 512" width="512" xmlns="http://www.w3.org/2000/svg"><g><g><path d="m413.862 398.151-84.487-24.849c-10.234-3.01-17.262-12.403-17.262-23.071v-54.15h-112.226v54.15c0 10.668-7.028 20.061-17.263 23.071l-84.486 24.849c-20.469 6.02-34.526 24.806-34.526 46.143h384.775c.001-21.336-14.055-40.122-34.525-46.143z" fill="#c7805d"/><path d="m174.934 375.564 4.526 15.381 2.262 7.689 7.69-2.262c21.294-6.264 34.523-22.892 34.523-43.396 0-2.384 2.041-3.808 4.015-3.808.331 0 .668.037 1.004.11 8.874 1.935 17.974 2.917 27.046 2.917 19.387 0 38.68-4.529 56.113-13.027v-43.086h-112.226v54.15c0 10.668-7.028 20.061-17.263 23.071z" fill="#b06e4d"/><path d="m360.21 71.629-28.858-38.478c-12.111-16.147-31.118-25.651-51.303-25.651h-48.097c-20.185 0-39.192 9.504-51.303 25.652l-28.859 38.477 16.032 16.032h176.355z" fill="#f8ba7e"/><path d="m342.174 47.581h-102.206c-8.854 0-16.032-7.178-16.032-16.032v-23.518c-17.124 2.158-32.797 11.133-43.286 25.121l-28.86 38.477 16.032 16.032h176.355l16.032-16.032z" fill="#f1a673"/><path d="m372.234 191.871h-12.024v-72.145h-208.42v72.145h-12.024c-11.068 0-20.04 8.972-20.04 20.04s8.972 20.04 20.04 20.04h12.429c4.106 53.795 48.958 96.194 103.805 96.194s99.699-42.398 103.805-96.194h12.429c11.068 0 20.04-8.973 20.04-20.04.001-11.067-8.972-20.04-20.04-20.04z" fill="#e0916d"/><path d="m183.855 223.936v-48.097c0-8.854 7.178-16.032 16.032-16.032h160.323v-40.081h-208.42v72.145h-10.881c-10.483 0-20.035 7.542-21.08 17.973-1.201 11.996 8.187 22.108 19.937 22.108h12.429c4.106 53.795 48.958 96.194 103.805 96.194 5.483 0 10.83-.534 16.083-1.351-49.947-7.708-88.228-50.755-88.228-102.859z" fill="#c7805d"/><path d="m127.742 135.758v60.212c3.357-2.537 7.491-4.099 12.024-4.099h12.024c8.854 0 16.032-7.178 16.032-16.032v-40.081z" fill="#61444f"/><path d="m384.258 135.758v60.212c-3.357-2.537-7.491-4.099-12.024-4.099h-12.024c-8.854 0-16.032-7.178-16.032-16.032v-40.081z" fill="#6b4f5a"/><path d="m360.21 71.629-208.42-.001c-13.282 0-24.048 10.767-24.048 24.048v64.129c0-13.282 10.767-24.048 24.048-24.048l208.42.001c13.281 0 24.047 10.766 24.048 24.047v-64.128c0-13.281-10.766-24.048-24.048-24.048z" fill="#ffce8a"/><path d="m87.661 504.5h360.727v-60.206c0-21.336-14.056-40.122-34.526-46.142l-69.303-20.383c-24.46 19.071-55.14 30.539-88.559 30.539s-64.099-11.468-88.56-30.539l-69.302 20.383c-20.469 6.02-34.526 24.806-34.526 46.142z" fill="#b0def5"/><path d="m159.806 71.628h-8.016c-13.282 0-24.048 10.767-24.048 24.048v64.129c0-13.282 10.767-24.048 24.048-24.048h8.016z" fill="#f8ba7e"/><path d="m362.897 383.162-33.522-9.859c-1.391-.41-2.71-.957-3.972-1.589-20.031 12.953-43.827 20.562-69.404 20.562s-49.373-7.609-69.403-20.562c-1.262.632-88.458 26.439-88.458 26.439-20.47 6.02-34.526 24.806-34.526 46.142v60.205h24.048v-60.206c0-10.596 7.1-20.083 17.261-23.074l68.578-20.167c24.111 14.67 52.262 23.287 82.5 23.287 41.092 0 78.497-15.67 106.898-41.178z" fill="#76d4ec"/></g><g><path d="m207.903 192.386c-4.142 0-7.5 3.358-7.5 7.5v8.016c0 4.142 3.358 7.5 7.5 7.5s7.5-3.358 7.5-7.5v-8.016c0-4.142-3.358-7.5-7.5-7.5z"/><path d="m304.097 192.386c-4.142 0-7.5 3.358-7.5 7.5v8.016c0 4.142 3.358 7.5 7.5 7.5s7.5-3.358 7.5-7.5v-8.016c0-4.142-3.358-7.5-7.5-7.5z"/><path d="m285.316 261.338c2.948-2.909 2.98-7.657.071-10.606-2.909-2.948-7.658-2.98-10.606-.071-2.737 2.701-9.299 5.855-18.781 5.855s-16.043-3.154-18.781-5.855c-2.949-2.91-7.698-2.876-10.606.071-2.909 2.949-2.877 7.697.071 10.606 6.459 6.373 17.418 10.178 29.316 10.178s22.857-3.805 29.316-10.178z"/><path d="m415.978 390.956-84.486-24.849c-6.994-2.057-11.879-8.585-11.879-15.876v-34.528c25.013-17.396 42.617-44.741 47.019-76.252h4.459c14.617 0 27.154-10.861 28.542-24.727.778-7.771-1.765-15.531-6.975-21.288-.292-.323-.594-.636-.901-.944v-32.686-64.128c0-16.061-12.066-29.347-27.607-31.293l-26.799-35.733c-13.455-17.941-34.877-28.652-57.303-28.652h-48.097c-22.426 0-43.848 10.711-57.303 28.651l-26.796 35.728c-6.935.858-13.351 3.969-18.37 8.989-5.958 5.959-9.24 13.881-9.24 22.309v64.129 33.069c-4.341 4.313-7.248 9.958-7.875 16.22-.779 7.771 1.763 15.531 6.973 21.289 5.213 5.762 12.658 9.067 20.425 9.067h5.598c4.399 31.521 22.003 58.869 47.023 76.263v34.517c0 7.291-4.885 13.819-11.879 15.876l-84.486 24.849c-23.498 6.911-39.91 28.845-39.91 53.338v60.206c0 4.142 3.358 7.5 7.5 7.5s7.5-3.358 7.5-7.5v-60.206c0-17.885 11.984-33.9 29.142-38.947l46.732-13.745c30.356 25.956 68.99 40.238 109.015 40.238 40.042 0 78.655-14.277 109.014-40.237l46.731 13.744c17.158 5.047 29.142 21.062 29.142 38.947v60.206c0 4.142 3.358 7.5 7.5 7.5s7.5-3.358 7.5-7.5v-60.206c.001-24.493-16.411-46.427-39.909-53.338zm-120.414-262.698v-49.129h17.065v49.129zm-32.064 0v-49.129h17.064v49.129zm-32.064-.001v-49.129h17.064v49.129zm-32.065 0v-49.129h17.065v49.129zm-31.547 0h-.001s-.001 0-.001 0h-.515v-49.129h17.064v49.129zm159.805-49.128h17.064v49.129h-.498c-.006 0-.012-.001-.018-.001s-.012.001-.018.001h-16.531v-49.129zm24.049 64.129h8.532c9.125 0 16.548 7.424 16.548 16.549v24.944c-1.486-.249-2.998-.38-4.524-.38h-12.024c-4.705 0-8.532-3.828-8.532-8.532zm25.08-47.58v37.284c-4.814-2.979-10.483-4.703-16.548-4.704h-.516v-49.129h.513c.003 0 .006.001.009.001h.001c9.122.004 16.541 7.425 16.541 16.548zm-190.11-58.027c10.638-14.183 27.574-22.651 45.304-22.651h48.097c17.729 0 34.666 8.468 45.304 22.651l19.858 26.478h-178.419zm-46.559 46.324c3.125-3.125 7.281-4.847 11.701-4.847h.516v49.129h-.516c-6.065 0-11.734 1.725-16.548 4.704v-37.284c0-4.421 1.721-8.576 4.847-11.702zm-4.847 75.831c0-9.125 7.423-16.549 16.548-16.549h8.532v32.581c0 4.705-3.828 8.532-8.532 8.532h-10.88c-1.933 0-3.828.195-5.668.557zm24.048 64.129c0-4.142-3.358-7.5-7.5-7.5s-7.5 3.358-7.5 7.5v.517h-4.524c-3.537 0-6.927-1.506-9.303-4.131-2.407-2.66-3.533-6.115-3.17-9.73.63-6.291 6.611-11.22 13.617-11.22h10.88c12.976 0 23.532-10.557 23.532-23.532v-32.581h161.355v32.58c0 12.976 10.557 23.532 23.532 23.532h12.024c3.537 0 6.927 1.506 9.303 4.131 2.407 2.659 3.533 6.114 3.171 9.729-.63 6.292-6.611 11.222-13.617 11.222h-3.385v-.439c0-4.141-3.356-7.498-7.497-7.5-.001 0-.002 0-.003 0-4.14 0-7.497 3.354-7.5 7.495-.039 53.286-43.421 96.638-96.706 96.638-53.325-.001-96.709-43.385-96.709-96.711zm96.71 192.905c-33.101 0-65.156-10.727-91.468-30.398l20.208-5.943c.333-.098.651-.225.979-.333 21.157 12.827 45.385 19.61 70.281 19.61 5.752 0 11.543-.364 17.212-1.082 4.109-.52 7.019-4.273 6.499-8.382s-4.276-7.018-8.382-6.499c-5.047.639-10.204.963-15.329.963-19.762 0-39.049-4.803-56.341-13.938 4.844-5.613 7.727-12.882 7.727-20.606v-25.733c14.706 7.137 31.199 11.146 48.613 11.146 17.412 0 33.906-4.012 48.613-11.153v25.74c0 7.726 2.885 14.998 7.731 20.611-4.069 2.15-8.255 4.075-12.527 5.739-3.86 1.504-5.77 5.852-4.266 9.711 1.155 2.965 3.988 4.779 6.99 4.779.905 0 1.826-.165 2.72-.513 7.278-2.835 14.342-6.325 21.041-10.386.321.105.632.229.957.325l20.208 5.943c-26.311 19.675-58.351 30.399-91.466 30.399z"/><path d="m215.919 168.338h-16.033c-4.142 0-7.5 3.357-7.5 7.5 0 4.142 3.358 7.5 7.5 7.5h16.033c4.142 0 7.5-3.358 7.5-7.5 0-4.143-3.357-7.5-7.5-7.5z"/><path d="m296.081 183.338h16.033c4.142 0 7.5-3.358 7.5-7.5 0-4.143-3.358-7.5-7.5-7.5h-16.033c-4.142 0-7.5 3.357-7.5 7.5 0 4.141 3.357 7.5 7.5 7.5z"/></g></g></svg>