<svg id="Capa_1" enable-background="new 0 0 512 512" height="512" viewBox="0 0 512 512" width="512" xmlns="http://www.w3.org/2000/svg"><g><g><path d="m307.678 352.194c-2.291-4.444-3.581-9.441-3.581-14.67v-41.443h-96.194v41.443c0 5.229-1.291 10.226-3.581 14.67z" fill="#f1a673"/><path d="m408.282 396.981-82.792-29.221c-12.82-4.525-21.393-16.642-21.393-30.237v-2.756c-14.862 6.021-31.074 9.411-48.097 9.411s-33.234-3.389-48.097-9.411v2.756c0 13.595-8.573 25.712-21.393 30.237l-82.792 29.221c-19.23 6.787-32.089 24.962-32.089 45.355l24.049 62.164h344.694v-62.164c-.001-20.393-12.86-38.568-32.09-45.355z" fill="#a06a5a"/><path d="m111.721 419.659 74.803-26.402 5.348-1.888v-5.672-17.001-3.469c-1.697.981-3.464 1.863-5.36 2.532l-82.793 29.221c-19.229 6.787-32.089 24.962-32.089 45.354v62.166h24.048v-62.164c0-10.177 6.447-19.29 16.043-22.677z" fill="#845252"/><path d="m175.839 328.145-24.045-112.226 56.11-8.016v296.597l-30.834-46.25c-11.105-16.658-15.575-36.868-12.531-56.655z" fill="#d18964"/><circle cx="256" cy="143.774" fill="#d18964" r="136.274"/><path d="m336.162 328.145 24.045-112.226-56.11-8.016v296.597l30.834-46.25c11.105-16.658 15.575-36.868 12.531-56.655z" fill="#df976c"/><path d="m392.171 193.812c-1.044-10.431-10.597-17.973-21.079-17.973h-5.808c-2.802 0-5.073-2.271-5.073-5.073v-10.959c0-57.554-46.656-104.21-104.21-104.21l-60.187 33.413-44.023 70.796v10.959c0 2.802-2.271 5.073-5.073 5.073h-5.808c-10.483 0-20.035 7.542-21.08 17.973-1.201 11.996 8.186 22.108 19.937 22.108h12.429c4.106 53.795 48.958 96.193 103.805 96.193s99.699-42.398 103.805-96.193h12.429c11.749 0 21.137-10.112 19.936-22.107z" fill="#ffce8a"/><path d="m183.855 207.903v-56.113c0-42.931 25.974-79.772 63.053-95.734-53.287 4.615-95.117 49.266-95.117 103.75v10.959c0 2.802-2.271 5.073-5.073 5.073h-5.808c-10.483 0-20.035 7.542-21.08 17.973-1.201 11.996 8.186 22.108 19.937 22.108h12.429c4.106 53.795 48.957 96.194 103.805 96.194 5.483 0 10.83-.534 16.083-1.351-49.947-7.708-88.229-50.754-88.229-102.859z" fill="#f8ba7e"/><path d="m225.242 227.915c-3.008 0-5.34 2.767-4.743 5.715 3.032 14.982 17.773 26.35 35.501 26.35s32.469-11.368 35.501-26.35c.597-2.948-1.735-5.715-4.743-5.715z" fill="#fff"/><path d="m256 7.5c-35.895 0-68.45 13.984-92.789 36.668 26.925 27.138 101.916 88.767 228.65 91.428-4.251-71.434-63.359-128.096-135.861-128.096z" fill="#df976c"/></g><g><path d="m292.073 220.415h-72.146c-4.142 0-7.5 3.358-7.5 7.5 0 21.816 19.547 39.564 43.573 39.564s43.573-17.749 43.573-39.564c0-4.142-3.358-7.5-7.5-7.5zm-36.073 32.064c-12.714 0-23.516-7.176-27.211-17.064h54.422c-3.695 9.889-14.496 17.064-27.211 17.064z"/><path d="m410.778 389.908-60.833-21.496-6.161-40.045 22.487-104.948h5.964c15.186 0 27.541-12.355 27.541-27.541 0-5.715-1.751-11.028-4.743-15.434 3.135-11.918 4.743-24.237 4.743-36.671-.001-79.276-64.498-143.773-143.776-143.773s-143.774 64.497-143.774 143.774c0 12.433 1.608 24.753 4.743 36.671-2.992 4.406-4.743 9.719-4.743 15.434 0 15.186 12.354 27.54 27.541 27.54h5.964l22.487 104.948-6.165 40.069-60.83 21.471c-22.187 7.831-37.093 28.899-37.093 52.427v62.166c0 4.142 3.358 7.5 7.5 7.5s7.5-3.358 7.5-7.5v-62.165c0-17.18 10.885-32.564 27.085-38.282l53.249-18.794-2.338 15.195c-3.337 21.692 1.53 43.695 13.704 61.955l30.833 46.25c1.417 2.125 3.78 3.341 6.241 3.34.723 0 1.455-.105 2.173-.322 3.163-.958 5.327-3.873 5.327-7.178v-158.641c13.126 3.861 26.736 5.82 40.597 5.82s27.471-1.959 40.597-5.82v17.714c-13.194 3.43-26.823 5.17-40.597 5.17-5.112 0-10.269-.242-15.327-.72-4.124-.387-7.782 2.637-8.172 6.761s2.638 7.782 6.761 8.172c5.525.522 11.157.787 16.738.787 13.74 0 27.353-1.586 40.597-4.715v125.473c0 3.305 2.164 6.22 5.327 7.178.718.217 1.45.322 2.173.322 2.46 0 4.824-1.215 6.241-3.34l30.833-46.25c12.174-18.26 17.041-40.263 13.704-61.955l-2.338-15.195 53.249 18.794c16.201 5.718 27.085 21.102 27.085 38.282v62.164c0 4.142 3.358 7.5 7.5 7.5s7.5-3.358 7.5-7.5v-62.165c-.001-23.527-14.907-44.596-37.094-52.427zm-99.181-69.263v-15.893c9.851-5.677 18.761-12.808 26.429-21.107l-7.928 37zm56.113-178.046c5.562.335 11.257.532 17.058.61.001.189.007.376.007.566 0 8.907-.913 17.747-2.71 26.385-3.057-1.172-6.371-1.821-9.835-1.821-2.413.052-4.569-2.077-4.519-4.493v-21.247zm16.12-14.4c-73.024-1.213-126.038-24.622-157.931-44.35-26.799-16.578-43.499-33.329-50.184-40.68 22.032-17.617 49.948-28.169 80.285-28.169 65.735 0 120.117 49.511 127.83 113.199zm-256.604 67.68c0-6.915 5.625-12.54 12.542-12.54h.005c5.203 0 10.099-2.024 13.787-5.7 3.696-3.684 5.731-8.583 5.731-13.793v-4.039c0-36.499 20.559-56.21 20.741-56.382 3.047-2.806 3.242-7.551.437-10.598s-7.55-3.242-10.598-.437c-1.044.962-25.58 24.055-25.58 67.416.277 3.372.099 8.63-4.524 8.532-3.464 0-6.778.649-9.835 1.822-1.797-8.639-2.706-17.48-2.706-26.386 0-35.278 14.263-67.283 37.321-90.565 7.318 8.093 24.725 25.52 52.832 43.005 28.919 17.991 74.301 38.87 135.332 45.154v22.477c0 5.21 2.035 10.109 5.731 13.793 3.688 3.676 8.583 5.7 13.788 5.7h.005c6.915 0 12.541 5.626 12.541 12.541s-5.625 12.54-12.541 12.54h-4.531c.001-.172.007-.344.007-.516 0-4.142-3.358-7.5-7.5-7.5s-7.5 3.358-7.5 7.5c0 53.326-43.384 96.709-96.709 96.709s-96.709-43.384-96.709-96.709c0-4.142-3.358-7.5-7.5-7.5s-7.5 3.358-7.5 7.5c0 .173.006.344.006.516h-4.531c-6.917 0-12.542-5.625-12.542-12.54zm73.178 124.766h-18.501l-7.928-37.003c7.667 8.299 16.58 15.427 26.429 21.105zm-17.094 133.444c-10.091-15.136-14.125-33.374-11.359-51.354l10.322-67.09h18.13v144.084zm72.69-117.412c-13.918 0-27.549-2.199-40.597-6.533v-18.179c12.59 4.93 26.28 7.648 40.597 7.648 14.315 0 28.007-2.713 40.597-7.642v18.173c-13.048 4.334-26.678 6.533-40.597 6.533zm72.69 117.412-17.093 25.64v-144.084h18.13l10.322 67.09c2.766 17.98-1.268 36.218-11.359 51.354z"/><path d="m215.404 191.871v-8.016c0-4.142-3.358-7.5-7.5-7.5s-7.5 3.358-7.5 7.5v8.016c0 4.142 3.358 7.5 7.5 7.5s7.5-3.358 7.5-7.5z"/><path d="m304.097 176.355c-4.142 0-7.5 3.358-7.5 7.5v8.016c0 4.142 3.358 7.5 7.5 7.5s7.5-3.358 7.5-7.5v-8.016c0-4.142-3.358-7.5-7.5-7.5z"/><path d="m199.88 168.31c.531 0 1.07-.057 1.61-.175l16.032-3.507c4.046-.885 6.609-4.883 5.724-8.929-.885-4.047-4.882-6.609-8.929-5.724l-16.032 3.507c-4.046.885-6.609 4.883-5.724 8.929.767 3.506 3.871 5.899 7.319 5.899z"/><path d="m294.478 164.628 16.032 3.507c.54.118 1.079.175 1.61.175 3.448 0 6.552-2.393 7.319-5.899.885-4.046-1.678-8.044-5.724-8.929l-16.032-3.507c-4.044-.885-8.044 1.678-8.929 5.724s1.678 8.044 5.724 8.929z"/></g></g></svg>