<svg id="Capa_1" enable-background="new 0 0 512 512" height="512" viewBox="0 0 512 512" width="512" xmlns="http://www.w3.org/2000/svg"><g><g><path d="m256 23.532c-75.262 0-136.274 61.012-136.274 136.274v264.532h272.548v-264.532c0-75.262-61.012-136.274-136.274-136.274z" fill="#c2805d"/><path d="m183.855 44.347c-38.467 24.089-64.129 66.726-64.129 115.459v264.533h64.129z" fill="#ab6e4d"/><path d="m408.075 413.105-152.075-52.895-152.075 52.896c-19.336 6.726-32.296 24.955-32.296 45.427l24.048 45.967h344.694v-45.967c0-20.473-12.96-38.702-32.296-45.428z" fill="#fc5f7a"/><path d="m95.677 458.533c0-10.23 6.491-19.359 16.151-22.716l82.676-28.757 5.383-1.872v-5.699-16.973-2.788l-95.963 33.378c-19.336 6.726-32.295 24.954-32.295 45.427v45.967h24.048z" fill="#f84455"/><path d="m207.903 320.129h96.194v96.194h-96.194z" fill="#f1a673"/><path d="m207.903 416.323h16.032v-41.121c0-9.531 8.269-17.069 17.727-15.889 4.697.586 9.479.897 14.337.897 17.113 0 33.36-3.628 48.097-10.072v-30.009h-96.194v96.194z" fill="#df976c"/><path d="m256 344.177c-57.554 0-104.21-46.656-104.21-104.21v-64.129c0-22.136 17.945-40.081 40.081-40.081l130.348 4.07c22.136 0 37.991 13.875 37.991 36.011v64.129c0 57.554-46.657 104.21-104.21 104.21z" fill="#f8ba7e"/><path d="m293.783 8.608c-21.607 4.721-37.783 23.966-37.783 46.989 23.023 0 42.268-16.176 46.988-37.783 1.224-5.598-3.607-10.429-9.205-9.206z" fill="#ff7e8f"/><path d="m217.44 8.445c21.995 4.425 38.56 23.854 38.56 47.152-23.298 0-42.727-16.565-47.151-38.56-1.002-4.981 3.61-9.594 8.591-8.592z" fill="#fc5f7a"/><path d="m205.555 365.878 50.445 50.445-39.948 33.29c-4.087 3.406-10.296 1.959-12.457-2.902l-27.756-62.452 18.38-18.38c3.13-3.132 8.206-3.132 11.336-.001z" fill="#ff7e8f"/><path d="m306.445 365.878-50.445 50.445 39.948 33.29c4.087 3.406 10.296 1.959 12.457-2.902l27.756-62.452-18.38-18.38c-3.13-3.132-8.206-3.132-11.336-.001z" fill="#ff7e8f"/><path d="m207.903 159.806h144.108 4.814c-6.19-14.144-20.27-24.048-36.697-24.048h-128.257c-22.136 0-40.081 17.945-40.081 40.081v64.129c0 57.553 46.656 104.21 104.21 104.21 12.572 0 24.57-2.341 35.73-6.421l-18.472-2.86c-47.159-7.302-81.387-47.225-81.387-94.929v-64.13c0-8.84 7.192-16.032 16.032-16.032z" fill="#f1a673"/></g><g><path d="m256 296.274c11.898 0 22.857-3.805 29.316-10.177 2.949-2.909 2.98-7.658.071-10.606-2.91-2.949-7.659-2.98-10.606-.071-2.737 2.701-9.298 5.855-18.781 5.855s-16.043-3.154-18.781-5.855c-2.949-2.91-7.698-2.877-10.606.071-2.909 2.949-2.877 7.697.071 10.606 6.459 6.372 17.418 10.177 29.316 10.177z"/><path d="m214.101 165.265-16.032 4.008c-4.019 1.004-6.462 5.076-5.457 9.095.852 3.408 3.91 5.683 7.27 5.683.602 0 1.214-.073 1.825-.226l16.032-4.008c4.019-1.004 6.462-5.076 5.457-9.095s-5.08-6.466-9.095-5.457z"/><path d="m288.805 170.722c-1.005 4.019 1.438 8.09 5.457 9.095l16.032 4.008c.611.153 1.222.226 1.825.226 3.36 0 6.418-2.275 7.27-5.683 1.005-4.019-1.438-8.09-5.457-9.095l-16.032-4.008c-4.018-1.004-8.091 1.438-9.095 5.457z"/><path d="m410.778 405.941-11.003-3.884v-242.251c0-59.389-36.445-112.424-91.323-133.901 2.029-5.764 3.145-11.956 3.145-18.405 0-4.142-3.358-7.5-7.5-7.5-20.519 0-38.464 11.181-48.097 27.763-9.633-16.582-27.578-27.763-48.097-27.763-4.142 0-7.5 3.358-7.5 7.5 0 6.449 1.116 12.639 3.144 18.404-54.867 21.478-91.322 74.544-91.322 133.903v242.251l-11.003 3.884c-22.187 7.83-37.093 28.899-37.093 52.427v46.131c0 4.142 3.358 7.5 7.5 7.5s7.5-3.358 7.5-7.5v-46.132c0-4.992.925-9.83 2.626-14.326l37.925 32.507c5.452 4.673 8.578 11.471 8.578 18.651v9.301c0 4.142 3.358 7.5 7.5 7.5s7.5-3.358 7.5-7.5v-9.301c0-11.564-5.036-22.513-13.816-30.04l-39.755-34.075c4.423-4.876 10.048-8.712 16.528-10.999l66.854-23.596 23.674 53.266c1.993 4.485 5.878 7.696 10.658 8.81 1.188.277 2.384.413 3.568.413 3.58 0 7.053-1.244 9.886-3.604l27.646-23.039v56.132c0 4.142 3.358 7.5 7.5 7.5s7.5-3.358 7.5-7.5v-56.132l27.646 23.039c2.833 2.361 6.306 3.604 9.886 3.604 1.184 0 2.38-.136 3.568-.413 4.78-1.113 8.665-4.324 10.658-8.81l11.366-25.573c1.682-3.785-.022-8.217-3.808-9.899-3.784-1.681-8.217.022-9.899 3.808l-11.366 25.573c-.031.07-.104.234-.354.293-.246.059-.388-.057-.448-.106l-33.638-28.032 44.637-44.638c.201-.201.528-.201.73 0l14.738 14.738-1.473 3.313c-1.682 3.785.022 8.217 3.808 9.899 3.383 1.504 7.279.296 9.27-2.682l66.965 23.635c6.479 2.287 12.105 6.123 16.528 10.999l-39.755 34.075c-8.781 7.526-13.816 18.475-13.816 30.04v9.301c0 4.142 3.358 7.5 7.5 7.5s7.5-3.358 7.5-7.5v-9.301c0-7.18 3.126-13.978 8.578-18.651l37.925-32.507c1.701 4.496 2.626 9.334 2.626 14.326v46.133c0 4.142 3.358 7.5 7.5 7.5s7.5-3.358 7.5-7.5v-46.132c-.002-23.528-14.909-44.597-37.095-52.427zm-35.097-293.649c-19.87-29.784-50.548-51.766-86.386-60.296 4.723-3.543 8.855-7.826 12.247-12.665 34.486 13.028 61.014 39.894 74.139 72.961zm-79.951-96.425c-3.299 15.683-15.68 28.064-31.363 31.363 3.299-15.683 15.68-28.064 31.363-31.363zm-48.097 31.363c-15.683-3.299-28.064-15.68-31.363-31.363 15.683 3.299 28.064 15.68 31.363 31.363zm-37.173-7.896c3.392 4.837 7.523 9.12 12.245 12.662-35.829 8.528-66.501 30.5-86.371 60.273 13.132-33.05 39.658-59.913 74.126-72.935zm.791 404.517c-.06.049-.199.164-.448.106-.25-.059-.323-.223-.354-.293l-25.664-57.745 14.737-14.738c.201-.201.529-.201.73 0l44.637 44.638zm-51.96-235.754h9.048v8.532c0 21.816 17.749 39.564 39.564 39.564s39.564-17.749 39.564-39.564v-.516h17.064v.516c0 21.816 17.749 39.564 39.564 39.564s39.564-17.749 39.564-39.564v-8.532h9.048v32.581c0 26.696-10.642 51.55-29.964 69.984-19.31 18.422-44.666 27.874-71.431 26.615-24.929-1.174-48.165-12.197-65.427-31.039-17.151-18.721-26.597-43.049-26.597-68.503v-29.638zm48.611 16.728c4.142 0 7.5-3.358 7.5-7.5v-9.228h17.066v8.532c0 13.545-11.02 24.564-24.564 24.564s-24.564-11.02-24.564-24.564v-8.532h17.063v9.228c-.001 4.142 3.357 7.5 7.499 7.5zm96.193 0c4.142 0 7.5-3.358 7.5-7.5v-9.228h17.066v8.532c0 13.545-11.02 24.564-24.564 24.564s-24.564-11.02-24.564-24.564v-8.532h17.063v9.228c-.001 4.142 3.357 7.5 7.499 7.5zm-48.095 180.891-40.597-40.597v-20.515c11.13 4.464 22.988 7.08 35.206 7.655 1.825.086 3.642.129 5.455.128 14.089 0 27.772-2.591 40.533-7.565v20.296zm67.084-45.141c-3.156-3.156-7.344-4.65-11.488-4.513v-18.429c7.686-4.431 14.901-9.82 21.503-16.118 22.318-21.292 34.61-50.001 34.61-80.837v-64.129c0-26.236-21.345-47.581-47.581-47.581h-8.017c-4.142 0-7.5 3.358-7.5 7.5s3.358 7.5 7.5 7.5h8.017c17.965 0 32.581 14.616 32.581 32.581v16.548h-80.677c-4.142 0-7.5 3.358-7.5 7.5v.516h-17.064v-.516c0-4.142-3.358-7.5-7.5-7.5h-80.677v-16.548c0-17.965 14.616-32.581 32.581-32.581h88.176c4.142 0 7.5-3.358 7.5-7.5s-3.358-7.5-7.5-7.5h-88.176c-26.236 0-47.581 21.345-47.581 47.581v61.186c0 29.214 10.845 57.141 30.537 78.636 7.605 8.302 16.224 15.286 25.576 20.833v18.859c-4.144-.137-8.332 1.357-11.488 4.513l-18.38 18.38c-.906.906-1.526 2.007-1.873 3.183l-41.437 14.625v-204.893c0-71.006 57.768-128.774 128.774-128.774s128.774 57.768 128.774 128.774v204.893l-41.437-14.625c-.347-1.176-.967-2.277-1.873-3.183z"/></g></g></svg>