<svg id="Capa_1" enable-background="new 0 0 512.003 512.003" height="512" viewBox="0 0 512.003 512.003" width="512" xmlns="http://www.w3.org/2000/svg"><g><g><path d="m159.807 247.986c17.709 0 72.145 54.436 72.145 72.145 0 17.708-14.356 32.064-32.065 32.064-3.044 0-5.982-.433-8.763-1.236-5.239-1.512-10.575.781-13.148 5.588-5.382 10.055-15.932 16.903-28.144 16.903-17.709 0-32.065-14.356-32.065-32.065.001-17.708 26.002-93.399 42.04-93.399z" fill="#ffa65a"/><path d="m143.775 304.098c8.854 0 16.032 7.178 16.032 16.032 0 19.558-17.51 35.026-37.709 31.582-16.362-2.789-27.378-17.185-26.353-33.751 1.386-22.401 23.982-31.125 23.982-69.976 0-24.048 0-80.161 0-80.161 0-32.916 19.431-56.856 19.431-56.856l197.004 24.791-179.817 142.356c-7.94 6.286-12.57 15.857-12.57 25.983z" fill="#ffbf45"/><path d="m352.195 247.986c-17.709 0-72.145 54.436-72.145 72.145 0 17.708 14.356 32.064 32.065 32.064 3.044 0 5.982-.433 8.763-1.236 5.239-1.512 10.575.781 13.148 5.588 5.382 10.055 15.932 16.903 28.144 16.903 17.709 0 32.064-14.356 32.064-32.065 0-17.708-26-93.399-42.039-93.399z" fill="#ffbf45"/><path d="m368.227 304.098c-8.854 0-16.032 7.178-16.032 16.032 0 19.558 17.51 35.026 37.709 31.582 16.362-2.789 27.378-17.185 26.353-33.751-1.386-22.401-23.982-31.125-23.982-69.976 0-24.048 0-80.161 0-80.161 0-32.916-19.431-56.856-19.431-56.856l-197.004 24.792 179.817 142.355c7.94 6.286 12.57 15.857 12.57 25.983z" fill="#ffcd5c"/><path d="m408.284 421.031-82.792-29.221c-12.82-4.524-21.393-16.642-21.393-30.236v-57.475h-96.193v57.475c0 13.595-8.573 25.712-21.393 30.237l-82.792 29.221c-19.229 6.787-32.089 24.962-32.089 45.354v14.068h368.742v-14.068c-.002-20.393-12.861-38.568-32.09-45.355z" fill="#f2c59a"/><path d="m95.679 466.389c0-10.178 6.449-19.293 16.047-22.68l82.784-29.219c22.396-7.905 37.443-29.173 37.443-52.924 0-1.928 1.614-3.079 3.174-3.079.195 0 .393.016.593.049 6.75 1.112 13.574 1.676 20.281 1.676 16.593 0 32.734-3.288 48.097-9.529v-46.583h-96.194v57.475c0 13.595-8.573 25.712-21.393 30.237l-82.793 29.221c-19.229 6.787-32.089 24.962-32.089 45.354v14.068c0 13.282 10.767 24.048 24.048 24.048v-1.473-36.641z" fill="#e6b287"/><path d="m256.002 432.356 98.626-30.263 53.656 18.938c19.23 6.787 32.089 24.963 32.089 45.355v38.116h-152.306z" fill="#fbe7c3"/><path d="m256.002 432.356-98.626-30.263-53.656 18.938c-19.23 6.787-32.089 24.963-32.089 45.355l24.048 38.116h128.258z" fill="#fbe7c3"/><path d="m157.375 402.093-53.656 18.938c-19.229 6.787-32.089 24.962-32.089 45.354v38.116h24.048v-1.473-36.64c0-10.178 6.449-19.293 16.047-22.68l74.087-26.149 10.215-3.606z" fill="#f9d8af"/><path d="m256.002 448.389c39.66 0 75.099-18.017 98.626-46.295l-29.136-10.283c-9.357-3.303-16.405-10.669-19.555-19.684-12.965 12.454-30.537 20.149-49.934 20.149s-36.969-7.695-49.934-20.149c-3.15 9.014-10.199 16.381-19.555 19.684l-29.136 10.283c23.524 28.278 58.963 46.295 98.624 46.295z" fill="#fff1d3"/><path d="m206.067 372.126c-3.151 9.014-10.198 16.381-19.555 19.684l-29.137 10.283c5.735 6.893 12.201 13.15 19.24 18.712l17.894-6.316c14.061-4.963 25.35-15.147 31.844-28.682-7.525-3.418-14.399-8.025-20.286-13.681z" fill="#fbe7c3"/><path d="m288.066 504.502-24.048-112.226h-16.033l-24.048 112.226" fill="#fc5f7a"/><path d="m337.009 169.517-8.863 4.431-48.097-37.299v29.283l-128.258-22.156v85.234c0 56.112 43.121 104.395 99.172 107.034 59.844 2.818 109.248-44.867 109.248-104.091v-48.097c0-11.917-12.542-19.669-23.202-14.339z" fill="#f9d8af"/><path d="m272.036 334.898c-50.593-7.975-88.18-53.503-88.18-105.883v-33.3c0-9.427 8.095-16.82 17.484-15.966l45.193 4.108c7.73.703 20.822-6.728 16.686-20.832l-111.428-19.249v85.234c0 56.112 43.121 104.395 99.172 107.034 7.203.339 14.242-.09 21.073-1.146z" fill="#f2c59a"/><path d="m398.023 83.611c-16.654-32.915-59.472-83.594-161.516-63.534-90.237 17.739-141.763 96.212-154.003 117.022-1.894 3.221-2.857 6.876-2.857 10.613 0 13.296 12.134 23.286 25.182 20.733l278.087-54.409c13.827-2.704 21.468-17.854 15.107-30.425z" fill="#ff7e8f"/><circle cx="256.002" cy="400.292" fill="#ff7e8f" r="24.048"/><path d="m382.917 114.037c13.607-2.662 21.152-17.368 15.328-29.817l-230.101 45.02c-.85.166-1.712.251-2.562.251-7.204 0-13.065-5.884-13.065-13.117 0-2.337.606-4.602 1.751-6.549 6.608-11.235 31.406-50.197 73.057-79.849l15.273-10.873c-2.056.355-3.985.561-6.09.975-90.238 17.738-141.764 96.211-154.004 117.021-1.894 3.221-2.857 6.876-2.857 10.613 0 13.296 12.134 23.286 25.182 20.733z" fill="#fc5f7a"/></g><g><path d="m207.905 208.421c-4.142 0-7.5 3.358-7.5 7.5v8.016c0 4.142 3.358 7.5 7.5 7.5s7.5-3.358 7.5-7.5v-8.016c0-4.142-3.358-7.5-7.5-7.5z"/><path d="m304.098 208.421c-4.142 0-7.5 3.358-7.5 7.5v8.016c0 4.142 3.358 7.5 7.5 7.5s7.5-3.358 7.5-7.5v-8.016c0-4.142-3.358-7.5-7.5-7.5z"/><path d="m285.318 277.373c2.948-2.909 2.98-7.658.071-10.606s-7.658-2.98-10.606-.071c-2.737 2.701-9.299 5.855-18.781 5.855s-16.043-3.154-18.781-5.855c-2.949-2.91-7.698-2.877-10.606.071-2.909 2.949-2.877 7.697.071 10.606 6.459 6.373 17.418 10.177 29.316 10.177s22.857-3.805 29.316-10.177z"/><path d="m214.319 182.041-16.032 3.507c-4.047.885-6.609 4.883-5.724 8.929.767 3.507 3.872 5.899 7.319 5.899.531 0 1.07-.057 1.61-.175l16.032-3.507c4.047-.885 6.609-4.883 5.724-8.929s-4.885-6.61-8.929-5.724z"/><path d="m294.48 196.694 16.032 3.507c.54.118 1.079.175 1.61.175 3.448 0 6.552-2.392 7.319-5.899.885-4.046-1.677-8.044-5.724-8.929l-16.032-3.507c-4.045-.884-8.044 1.678-8.929 5.724s1.677 8.044 5.724 8.929z"/><path d="m410.779 413.959-82.792-29.221c-9.803-3.459-16.389-12.769-16.389-23.164v-32.666c7.687-4.431 14.901-9.819 21.503-16.118 22.318-21.292 34.61-50.001 34.61-80.837v-48.097c0-8.215-4.172-15.698-11.161-20.018-6.989-4.319-15.548-4.704-22.895-1.03l-4.642 2.321-33.882-26.275 30.355-5.938c4.065-.795 6.716-4.735 5.92-8.801-.795-4.065-4.738-6.716-8.8-5.92l-219.218 42.89c-4.014.784-8.123-.255-11.277-2.853-3.156-2.598-4.965-6.432-4.965-10.52 0-2.429.63-4.784 1.822-6.811 5.556-9.447 21.205-34.012 46.457-58.03 31.023-29.508 65.519-48.159 102.528-55.435 43.117-8.476 79.344-4.746 107.673 11.089 24.407 13.642 38.326 33.889 45.704 48.472 1.923 3.801 1.942 8.201.051 12.07-1.947 3.985-5.558 6.758-9.905 7.608l-26.298 5.146c-4.065.795-6.716 4.735-5.92 8.801s4.738 6.716 8.8 5.92l14.428-2.823c2.791 4.402 12.29 21.08 12.29 44.104v80.162c0 24.709 8.548 38.594 15.416 49.75 4.823 7.834 8.632 14.022 8.632 22.395 0 13.545-11.02 24.564-24.564 24.564s-24.565-11.02-24.565-24.564c0-4.705 3.828-8.532 8.532-8.532 4.142 0 7.5-3.358 7.5-7.5s-3.358-7.5-7.5-7.5c-12.976 0-23.532 10.557-23.532 23.532 0 20.1 15.07 36.735 34.503 39.229-3.995 4.467-9.78 7.207-16.092 7.207-7.679 0-14.843-4.136-18.694-10.793-2.074-3.586-6.662-4.81-10.248-2.736-3.585 2.074-4.81 6.662-2.736 10.248 6.524 11.276 18.662 18.281 31.678 18.281 15.544 0 29.237-9.78 34.41-24.164 15.315-5.463 26.308-20.105 26.308-37.273 0-12.62-5.521-21.587-10.859-30.259-6.484-10.533-13.189-21.424-13.189-41.886v-80.162c0-21.786-7.104-38.594-11.832-47.371 7.383-2.434 13.435-7.678 16.915-14.798 3.973-8.129 3.92-17.398-.144-25.429-17.334-34.258-62.426-88.584-169.655-67.505-4.933.97-9.746 2.122-14.453 3.419l-5.995-11.99c-1.853-3.705-6.356-5.207-10.062-3.354-3.705 1.853-5.207 6.357-3.354 10.062l4.929 9.858c-74.566 26.754-117.677 91.485-130.086 112.584-2.546 4.33-3.893 9.314-3.893 14.415 0 8.587 3.802 16.642 10.431 22.1 5.181 4.266 11.585 6.531 18.16 6.531 1.838 0 3.69-.177 5.532-.538l5.958-1.166v73.345c0 20.462-6.705 31.354-13.189 41.886-5.338 8.672-10.859 17.639-10.859 30.259 0 17.167 10.994 31.81 26.308 37.273 5.173 14.384 18.866 24.164 34.41 24.164 13.016 0 25.154-7.005 31.678-18.281 2.074-3.586.85-8.174-2.736-10.248-3.584-2.074-8.173-.85-10.248 2.736-3.852 6.657-11.015 10.793-18.694 10.793-6.312 0-12.098-2.74-16.092-7.207 19.433-2.494 34.503-19.129 34.503-39.229 0-12.976-10.557-23.532-23.532-23.532-4.142 0-7.5 3.358-7.5 7.5s3.358 7.5 7.5 7.5c4.705 0 8.532 3.828 8.532 8.532 0 13.545-11.02 24.564-24.565 24.564s-24.564-11.02-24.564-24.564c0-8.373 3.81-14.561 8.632-22.395 6.868-11.156 15.416-25.041 15.416-49.75v-76.28l17.065-3.339v60.644c0 29.214 10.845 57.141 30.537 78.636 7.605 8.302 16.224 15.286 25.576 20.833v33.095c0 10.395-6.586 19.704-16.389 23.164l-82.792 29.221c-22.187 7.83-37.093 28.899-37.093 52.427v38.116c0 4.142 3.358 7.5 7.5 7.5s7.5-3.358 7.5-7.5v-38.116c0-17.18 10.885-32.565 27.085-38.282l48.812-17.228c18.955 21.07 44.116 35.748 71.62 41.826l-10.066 50.329c-.812 4.062 1.822 8.013 5.884 8.825.497.099.991.147 1.479.147 3.502 0 6.633-2.465 7.347-6.031l15.125-75.625c3.024.967 6.244 1.493 9.585 1.493s6.561-.526 9.585-1.493l15.125 75.625c.713 3.565 3.845 6.031 7.347 6.031.487 0 .982-.048 1.479-.147 4.062-.812 6.696-4.763 5.884-8.825l-10.066-50.328c27.527-6.081 52.648-20.745 71.614-41.829l48.818 17.23c16.201 5.718 27.085 21.103 27.085 38.282v38.116c0 4.142 3.358 7.5 7.5 7.5s7.5-3.358 7.5-7.5v-38.116c0-23.529-14.907-44.598-37.094-52.428zm-138.229-270.686v14.164l-44.17-5.521zm-86.661 154.24c-17.152-18.722-26.597-43.05-26.597-68.503v-63.578l21.943-4.293 97.884 12.235c2.132.268 4.281-.396 5.894-1.819s2.537-3.472 2.537-5.623v-13.975l36 27.918c2.279 1.768 5.37 2.072 7.95.781l8.863-4.431c2.705-1.353 5.73-1.216 8.301.373 2.571 1.59 4.046 4.235 4.046 7.258v48.097c0 26.696-10.642 51.55-29.964 69.984-19.31 18.422-44.667 27.875-71.431 26.615-24.928-1.173-48.163-12.197-65.426-31.039zm43.702 140.476c-22.303-4.988-42.851-16.356-59.059-32.585l18.476-6.521c8.065-2.846 14.773-8.154 19.411-14.895 5.181 3.858 10.825 7.095 16.76 9.595-.47 2.164-.725 4.407-.725 6.709 0 8.257 3.195 15.776 8.405 21.405zm26.411-21.148c-9.125 0-16.548-7.424-16.548-16.549s7.423-16.548 16.548-16.548 16.548 7.423 16.548 16.548-7.423 16.549-16.548 16.549zm0-48.097c-9.708 0-18.402 4.41-24.194 11.329-6.227-2.523-12.082-6.03-17.259-10.355.558-2.644.855-5.369.855-8.143v-25.695c11.13 4.464 22.988 7.081 35.206 7.656 1.825.086 3.642.129 5.455.129 14.089 0 27.772-2.592 40.533-7.565v25.474c0 2.78.299 5.509.858 8.158-5.174 4.321-11.039 7.817-17.263 10.339-5.791-6.918-14.484-11.327-24.191-11.327zm26.41 69.244-3.256-16.304c5.203-5.627 8.394-13.142 8.394-21.393 0-2.304-.255-4.548-.726-6.712 5.933-2.5 11.583-5.729 16.764-9.587 4.638 6.738 11.345 12.044 19.408 14.89l18.494 6.527c-16.213 16.242-36.752 27.588-59.078 32.579z"/></g></g></svg>