<svg id="Capa_1" enable-background="new 0 0 512 512" height="512" viewBox="0 0 512 512" width="512" xmlns="http://www.w3.org/2000/svg"><g><g><path d="m146.446 175.839h219.108l8.813-79.325c5.276-47.485-31.893-89.014-79.67-89.014h-77.393c-47.777 0-84.947 41.529-79.671 89.014z" fill="#87646f"/><path d="m146.446 175.839h109.554v-168.339h-38.697c-47.777 0-84.947 41.529-79.671 89.014z" fill="#61444f"/><path d="m414.435 381.827-70.258-21.618h-176.354l-70.257 21.618c-20.181 6.21-33.952 24.855-33.952 45.97v76.703h384.774v-76.703c-.001-21.115-13.772-39.76-33.953-45.97z" fill="#6b4f5a"/><path d="m199.887 307.286h112.226v60.94h-112.226z" fill="#f8ba7e"/><path d="m312.113 256h-112.226v112.226h24.048v-42.326c0-4.396 3.535-7.972 7.882-7.972.48 0 .969.045 1.462.135 7.478 1.371 15.122 2.066 22.721 2.066 19.275 0 38.57-4.606 56.113-13.25z" fill="#f1a673"/><path d="m371.09 159.806h-10.881c-8.854 0-16.032-7.178-16.032-16.032v-32.064c0-13.282-10.767-24.048-24.048-24.048h-56.113l-24.048-24.048-55.702 18.566c-9.82 3.273-16.444 12.463-16.444 22.814v38.78c0 8.854-7.178 16.032-16.032 16.032h-10.881c-10.483 0-20.035 7.542-21.08 17.973-1.201 11.996 8.186 22.108 19.936 22.108h12.429c4.106 53.795 48.957 96.194 103.805 96.194s99.699-42.398 103.805-96.194h12.429c11.75 0 21.138-10.112 19.936-22.108-1.043-10.43-10.596-17.973-21.079-17.973z" fill="#ffce8a"/><path d="m152.195 199.887c4.106 53.795 48.958 96.194 103.805 96.194 12.594 0 24.616-2.326 35.783-6.422l-18.478-2.851c-47.186-7.282-81.434-47.209-81.434-94.937v-78.86c0-6.912 4.405-13.024 10.962-15.21l30.419-10.14h22.748 8.016l-24.048-24.048-55.702 18.567c-9.82 3.273-16.443 12.463-16.443 22.814v38.78c0 8.854-7.179 16.032-16.032 16.032h-10.881c-10.482 0-20.034 7.542-21.08 17.973-1.202 11.996 8.186 22.108 19.937 22.108z" fill="#f8ba7e"/><path d="m293.426 207.903h-74.851c-9.826 0-17.34 8.758-15.846 18.47l7.096 46.125c3.506 22.791 23.116 39.615 46.175 39.615 23.059 0 42.669-16.824 46.175-39.615l7.096-46.125c1.494-9.711-6.02-18.47-15.845-18.47z" fill="#87646f"/><path d="m294.697 7.5h-77.393c-26.855 0-50.357 13.122-64.855 33.046l54.988 35.156s92.367 50.654 146.27-42.23c4.723-12.583 8.434-20.642 7.659-18.924 0 0-11.97 8.705-32.876.413-10.497-4.163-21.667-7.461-33.793-7.461z" fill="#6b4f5a"/><g fill="#87646f"><path d="m207.252 410.01 48.748-41.784-64.827-36.015c-3.99-2.216-9.022-.66-11.063 3.422l-12.288 24.576 27.252 47.691c2.498 4.371 8.356 5.385 12.178 2.11z"/><path d="m304.748 410.01-48.748-41.784 64.827-36.015c3.99-2.216 9.022-.66 11.063 3.422l12.288 24.576-27.252 47.691c-2.498 4.371-8.356 5.385-12.178 2.11z"/></g></g><g><path d="m207.903 160.323c-4.142 0-7.5 3.358-7.5 7.5v8.016c0 4.142 3.358 7.5 7.5 7.5s7.5-3.358 7.5-7.5v-8.016c0-4.142-3.358-7.5-7.5-7.5z"/><path d="m304.097 160.323c-4.142 0-7.5 3.358-7.5 7.5v8.016c0 4.142 3.358 7.5 7.5 7.5s7.5-3.358 7.5-7.5v-8.016c0-4.142-3.358-7.5-7.5-7.5z"/><path d="m415.978 374.924-65.724-19.33-11.657-23.315c-1.883-3.766-5.27-6.64-9.292-7.884-3.171-.98-6.584-.886-9.692.193v-14.98c0-4.142-3.358-7.5-7.5-7.5s-7.5 3.358-7.5 7.5v23.031l-8.925 4.959c-3.621 2.012-4.925 6.578-2.914 10.199s6.579 4.927 10.199 2.914l21.497-11.943c.047-.026.191-.106.403-.042.21.065.285.213.309.262l10.493 20.986-25.26 44.206c-.033.058-.121.211-.36.253-.24.043-.369-.069-.424-.117l-40.563-34.769 6.611-3.673c3.621-2.012 4.926-6.578 2.914-10.198-2.012-3.622-6.579-4.925-10.198-2.914l-12.395 6.884-48.613-27.007v-23.031c0-4.142-3.358-7.5-7.5-7.5s-7.5 3.358-7.5 7.5v14.979c-3.108-1.079-6.52-1.173-9.692-.192-4.022 1.245-7.409 4.118-9.292 7.884l-11.657 23.314-65.724 19.331c-23.498 6.912-39.909 28.845-39.909 53.338v76.238c0 4.142 3.358 7.5 7.5 7.5s7.5-3.358 7.5-7.5v-76.238c0-7.386 2.048-14.451 5.657-20.559l42.911 36.78c5.452 4.673 8.578 11.471 8.578 18.651v41.366c0 4.142 3.358 7.5 7.5 7.5s7.5-3.358 7.5-7.5v-41.365c0-11.564-5.036-22.513-13.816-30.04l-42.815-36.698c3.98-3.154 8.577-5.596 13.628-7.082l64.69-19.026 23.619 41.334c2.304 4.032 6.249 6.798 10.825 7.59.889.154 1.78.23 2.666.23 3.671 0 7.239-1.303 10.079-3.738l36.368-31.172v119.967c0 4.142 3.358 7.5 7.5 7.5s7.5-3.358 7.5-7.5v-119.968l36.367 31.172c2.84 2.435 6.408 3.738 10.08 3.738.885 0 1.777-.076 2.666-.23 4.576-.792 8.521-3.559 10.825-7.59l23.619-41.333 64.69 19.026c5.051 1.486 9.648 3.927 13.628 7.082l-42.815 36.698c-8.781 7.526-13.816 18.475-13.816 30.04v41.365c0 4.142 3.358 7.5 7.5 7.5s7.5-3.358 7.5-7.5v-41.365c0-7.18 3.126-13.978 8.578-18.651l42.911-36.78c3.608 6.108 5.657 13.172 5.657 20.559v76.237c0 4.142 3.358 7.5 7.5 7.5s7.5-3.358 7.5-7.5v-76.238c-.006-24.493-16.417-46.426-39.915-53.338zm-213.607 29.392c-.055.047-.183.159-.424.117-.24-.042-.327-.195-.36-.253l-25.26-44.206 10.493-20.986c.024-.049.099-.197.309-.262.211-.064.355.016.403.042l55.403 30.78z"/><path d="m274.781 234.629c-2.737 2.701-9.298 5.855-18.781 5.855s-16.043-3.154-18.781-5.855c-2.949-2.91-7.698-2.877-10.606.071-2.909 2.949-2.877 7.697.071 10.606 6.459 6.373 17.418 10.177 29.316 10.177s22.857-3.805 29.316-10.177c2.949-2.909 2.98-7.658.071-10.606-2.91-2.949-7.658-2.98-10.606-.071z"/><path d="m199.887 151.274h16.032c4.142 0 7.5-3.358 7.5-7.5s-3.358-7.5-7.5-7.5h-16.032c-4.142 0-7.5 3.358-7.5 7.5s3.358 7.5 7.5 7.5z"/><path d="m296.081 151.274h16.032c4.142 0 7.5-3.358 7.5-7.5s-3.358-7.5-7.5-7.5h-16.032c-4.142 0-7.5 3.358-7.5 7.5s3.357 7.5 7.5 7.5z"/><path d="m139.766 207.387h5.608c5.254 37.402 29.264 70.117 64.189 86.099 9.528 15.864 26.807 26.127 46.437 26.127 19.626 0 36.902-10.259 46.431-26.117 34.897-15.969 58.923-48.743 64.188-86.108h4.471c14.617 0 27.155-10.861 28.543-24.727.778-7.771-1.764-15.53-6.974-21.288-4.244-4.69-9.967-7.751-16.138-8.728l5.874-55.807c2.473-23.494-4.389-46.377-19.298-64.61 1.784-3.342 3.508-6.806 5.169-10.397 1.738-3.76.1-8.217-3.66-9.956s-8.216-.1-9.956 3.66c-15.439 33.389-36.412 54.636-62.334 63.153-23.461 7.708-46.492 3.382-61.204-1.329 14.69-5.945 30.221-13.633 45.079-23.539 3.447-2.297 4.378-6.954 2.08-10.4s-6.954-4.377-10.4-2.08c-30.827 20.551-65.538 30.93-83.485 35.288-14.168 3.44-24.064 16.04-24.064 30.64v36.505c0 4.705-3.828 8.533-8.532 8.533h-1.264l-6.004-57.039c-2.153-20.449 4.503-40.941 18.26-56.222s33.441-24.045 54.002-24.045h78.432c10.955 0 21.465 2.363 31.239 7.025 3.739 1.783 8.215.197 9.998-3.541 1.783-3.739.198-8.215-3.541-9.998-11.807-5.631-24.49-8.486-37.696-8.486h-78.432c-24.806 0-48.552 10.574-65.149 29.009-16.597 18.436-24.627 43.159-22.03 67.829l5.892 55.972c-12.188 2.286-21.915 12.106-23.129 24.221-.778 7.771 1.764 15.531 6.974 21.289 5.212 5.763 12.657 9.067 20.424 9.067zm116.234 97.226c-19.496 0-35.798-13.986-38.763-33.255l-7.096-46.125c-.384-2.5.311-4.933 1.958-6.853 1.647-1.919 3.947-2.977 6.476-2.977h74.851c2.529 0 4.829 1.057 6.476 2.977s2.342 4.354 1.958 6.853l-7.096 46.125c-2.966 19.269-19.268 33.255-38.764 33.255zm98.836-258.477c10.018 14.31 14.496 31.514 12.641 49.131l-6.004 57.039h-1.264c-4.705 0-8.532-3.828-8.532-8.532v-32.065c0-16.631-12.938-30.288-29.276-31.458 12.169-8.433 23.003-19.827 32.435-34.115zm-227.544 132.391c.631-6.292 6.613-11.221 13.619-11.221h10.879c12.976 0 23.533-10.557 23.533-23.533v-36.505c0-7.657 5.183-14.262 12.603-16.064 6.539-1.588 13.958-3.612 21.939-6.167 6.549 3.264 28.2 12.926 55.015 12.926 7.727 0 15.884-.813 24.228-2.803h31.021c9.125 0 16.548 7.423 16.548 16.548v32.065c0 12.976 10.557 23.532 23.532 23.532h12.024c3.537 0 6.927 1.505 9.303 4.13 2.407 2.66 3.533 6.115 3.17 9.729-.63 6.292-6.611 11.221-13.618 11.221h-3.384v-.439c0-4.141-3.356-7.499-7.497-7.5-.001 0-.002 0-.003 0-4.14 0-7.497 3.354-7.5 7.495-.024 32.479-16.454 62.523-42.9 80.281l6.879-44.71c1.045-6.794-.922-13.684-5.398-18.901-4.476-5.218-10.986-8.21-17.86-8.21h-74.851c-6.875 0-13.384 2.992-17.86 8.21-4.476 5.217-6.444 12.106-5.398 18.901l6.88 44.719c-26.484-17.763-42.905-47.802-42.905-80.363 0-4.142-3.358-7.5-7.5-7.5s-7.5 3.358-7.5 7.5v.516h-4.524c-3.537 0-6.927-1.505-9.303-4.131-2.407-2.656-3.533-6.112-3.172-9.726z"/></g></g></svg>