<svg id="Capa_1" enable-background="new 0 0 512 512" height="512" viewBox="0 0 512 512" width="512" xmlns="http://www.w3.org/2000/svg"><g><g><path d="m328.239 312.113h-144.29c-17.709 0-32.065 14.356-32.065 32.065v40.081h208.419v-40.081c.001-17.709-14.355-32.065-32.064-32.065z" fill="#c2805d"/><path d="m321.598 369.601c-6.013-6.014-9.391-14.169-9.391-22.673v-58.864h-112.226v58.864c0 8.504-3.378 16.659-9.391 22.673l-14.657 14.657 24.048 24.048h112.226l24.048-24.048z" fill="#f2c59a"/><path d="m312.31 347.973c-17.155 7.789-36.148 12.237-56.216 12.237s-39.061-4.448-56.216-12.237c-.268 8.12-3.525 15.865-9.288 21.628l-14.657 14.657 56.113 120.242h48.097l56.113-120.242-14.657-14.657c-5.764-5.763-9.021-13.508-9.289-21.628z" fill="#ff8857"/><path d="m280.142 440.371 24.048-32.065 88.177-16.032 27.043 7.727c17.207 4.916 29.07 20.643 29.07 38.539v65.959l-168.338.001z" fill="#f8ba7e"/><path d="m294.421 382.755 39.877-26.584c19.798-13.198 10.454-44.058-13.34-44.058h17.541c17.7 0 33.304 11.61 38.39 28.563l15.479 51.598-112.226 48.097v-30.936c0-10.722 5.358-20.733 14.279-26.68z" fill="#e0916d"/><path d="m232.046 440.371-24.048-32.065-88.177-16.032-27.043 7.727c-17.207 4.916-29.07 20.643-29.07 38.539l24.048 64.487 144.29 1.474z" fill="#f8ba7e"/><path d="m87.755 503.026v-64.487c0-7.121 4.782-13.46 11.628-15.417l58.3-16.657 15.629-4.465-53.492-9.726-27.043 7.726c-17.207 4.916-29.07 20.643-29.07 38.538v65.959h24.04z" fill="#f1a673"/><path d="m217.767 382.755-39.877-26.584c-19.798-13.198-10.454-44.058 13.34-44.058h-17.541c-17.7 0-33.304 11.61-38.39 28.563l-15.479 51.598 112.226 48.097v-30.936c0-10.722-5.358-20.733-14.279-26.68z" fill="#e0916d"/><path d="m135.852 199.887h48.097v-72.145c-26.563 0-48.097 21.534-48.097 48.097z" fill="#d18964"/><path d="m376.336 199.887h-48.097v-72.145c26.563 0 48.097 21.534 48.097 48.097z" fill="#e0916d"/><path d="m371.185 191.871h-10.881c-8.854 0-16.032-7.178-16.032-16.032v-40.081h-176.355v40.081c0 8.854-7.178 16.032-16.032 16.032h-10.881c-10.483 0-20.035 7.542-21.08 17.973-1.201 11.996 8.187 22.108 19.937 22.108h12.429c4.106 53.795 48.957 96.194 103.805 96.194s99.699-42.398 103.805-96.194h12.429c11.75 0 21.138-10.112 19.936-22.108-1.045-10.431-10.598-17.973-21.08-17.973z" fill="#fbe7c3"/><path d="m183.949 223.935v-39.565c0-8.854 7.178-16.032 16.032-16.032h144.29v-32.579h-176.354v40.081c0 8.854-7.178 16.032-16.032 16.032h-10.881c-10.483 0-20.035 7.542-21.079 17.973-1.201 11.996 8.186 22.108 19.936 22.108h12.429c4.106 53.795 48.957 96.194 103.805 96.194 5.483 0 10.83-.534 16.083-1.351-49.948-7.71-88.229-50.756-88.229-102.861z" fill="#f9d8af"/><path d="m225.862 247.984c-5.58 0-9.797 5.699-7.521 10.793 5.539 12.399 20.351 21.272 37.753 21.272s32.214-8.873 37.753-21.272c2.276-5.094-1.942-10.793-7.521-10.793z" fill="#fff"/><path d="m256.094 7.5c-66.408 0-120.242 53.834-120.242 120.242h240.484c0-66.408-53.834-120.242-120.242-120.242z" fill="#ffce8a"/><path d="m135.852 127.742h40.081v-89.444c-24.547 22.015-40.081 53.876-40.081 89.444z" fill="#f8ba7e"/><path d="m344.271 95.677h-176.354c-17.709 0-32.065 14.356-32.065 32.065v48.097c0-17.709 14.356-32.065 32.065-32.065h176.355c17.709 0 32.065 14.356 32.065 32.065v-48.097c-.001-17.709-14.356-32.065-32.066-32.065z" fill="#f1a673"/><path d="m135.852 127.742v48.097c0-17.709 14.356-32.065 32.065-32.065v-48.097c-17.709 0-32.065 14.356-32.065 32.065z" fill="#e0916d"/></g><g><path d="m215.309 207.902v-8.016c0-4.142-3.358-7.5-7.5-7.5s-7.5 3.358-7.5 7.5v8.016c0 4.142 3.358 7.5 7.5 7.5s7.5-3.358 7.5-7.5z"/><path d="m304.003 192.386c-4.142 0-7.5 3.358-7.5 7.5v8.016c0 4.142 3.358 7.5 7.5 7.5s7.5-3.358 7.5-7.5v-8.016c0-4.142-3.358-7.5-7.5-7.5z"/><path d="m199.793 183.337h16.032c4.142 0 7.5-3.358 7.5-7.5s-3.358-7.5-7.5-7.5h-16.032c-4.142 0-7.5 3.358-7.5 7.5s3.358 7.5 7.5 7.5z"/><path d="m295.987 183.337h16.032c4.142 0 7.5-3.358 7.5-7.5s-3.358-7.5-7.5-7.5h-16.032c-4.142 0-7.5 3.358-7.5 7.5s3.358 7.5 7.5 7.5z"/><path d="m416.072 390.955-17.844-5.248-14.156-47.186c-6.084-20.281-24.399-33.908-45.574-33.908h-5.417c17.731-16.97 29.901-39.708 33.456-65.163h4.459c14.617 0 27.154-10.861 28.542-24.727.778-7.771-1.765-15.531-6.975-21.288-2.474-2.734-5.454-4.907-8.729-6.444v-59.25c.002-70.436-57.303-127.741-127.74-127.741s-127.742 57.305-127.742 127.742v59.408c-8.727 4.085-15.111 12.283-16.079 21.945-.778 7.771 1.764 15.53 6.974 21.289 5.214 5.762 12.659 9.067 20.426 9.067h5.598c3.552 25.457 15.717 48.194 33.446 65.163h-5.026c-21.175 0-39.489 13.627-45.574 33.908l-14.138 47.125-18.05 5.309c-23.498 6.912-39.909 28.845-39.909 53.338v60.206c0 4.142 3.358 7.5 7.5 7.5s7.5-3.358 7.5-7.5v-60.206c0-17.885 11.983-33.901 29.142-38.947l18.455-5.428 105.929 45.399v59.182c0 4.142 3.358 7.5 7.5 7.5s7.5-3.358 7.5-7.5v-95.065c0-13.259-6.586-25.565-17.618-32.919l-18.039-12.026c.932-1.833 1.66-3.75 2.213-5.719 15.95 5.929 32.72 8.94 49.993 8.94 17.211 0 33.924-2.989 49.823-8.876.561 1.981 1.295 3.91 2.239 5.751l-17.896 11.931c-11.032 7.354-17.618 19.661-17.618 32.919v95.064c0 4.142 3.358 7.5 7.5 7.5s7.5-3.358 7.5-7.5v-59.183l105.853-45.366 18.344 5.395c17.158 5.046 29.142 21.062 29.142 38.947v60.206c0 4.142 3.358 7.5 7.5 7.5s7.5-3.358 7.5-7.5v-60.206c-.001-24.493-16.412-46.426-39.91-53.338zm-272.72-215.116c0-10.86 7.087-20.091 16.876-23.326v23.324c0 4.705-3.828 8.532-8.532 8.532h-8.344zm24.565-39.565c-9.276 0-17.811 3.218-24.564 8.584v-17.116c0-13.545 11.02-24.564 24.564-24.564h176.355c13.545 0 24.564 11.02 24.564 24.564v17.116c-6.754-5.366-15.288-8.584-24.564-8.584zm15.515-94.66c5.295-4.474 11.004-8.472 17.065-11.922v17.889c0 4.142 3.358 7.5 7.5 7.5s7.5-3.358 7.5-7.5v-25.016c5.494-2.128 11.195-3.836 17.064-5.087v70.699h-17.064v-8.532c0-4.142-3.358-7.5-7.5-7.5s-7.5 3.358-7.5 7.5v8.532h-17.065zm145.323 46.563h-17.065v-58.486c6.061 3.45 11.77 7.447 17.064 11.921v46.565zm-32.065 0h-17.064v-70.699c5.869 1.251 11.57 2.959 17.064 5.087zm54.893 64.209c9.985 3.12 17.252 12.454 17.252 23.453v8.531h-8.72c-4.705 0-8.532-3.828-8.532-8.532zm11.806-59.268c-5.671-3.144-12.187-4.94-19.118-4.94h-.517v-31.246c8.614 10.642 15.33 22.876 19.635 36.186zm-107.295-78.118c2.87 0 5.715.109 8.532.321v72.856h-17.064v-72.856c2.817-.212 5.662-.321 8.532-.321zm-87.662 41.934v31.243h-.516c-6.93 0-13.447 1.797-19.118 4.94 4.306-13.309 11.022-25.542 19.634-36.183zm-9.236 167c0-4.142-3.358-7.5-7.5-7.5s-7.5 3.358-7.5 7.5v.516h-4.524c-3.537 0-6.928-1.506-9.303-4.131-2.407-2.66-3.533-6.115-3.17-9.729.63-6.292 6.611-11.22 13.617-11.22h10.88c12.976 0 23.532-10.557 23.532-23.532v-24.563h161.355v24.563c0 12.976 10.557 23.532 23.532 23.532h12.024c3.537 0 6.927 1.505 9.303 4.13 2.407 2.66 3.533 6.115 3.171 9.729-.63 6.292-6.611 11.221-13.617 11.221h-3.385v-.439c0-4.141-3.356-7.499-7.497-7.5-.001 0-.002 0-.003 0-4.14 0-7.497 3.354-7.5 7.495-.039 53.286-43.421 96.638-96.706 96.638-53.325 0-96.709-43.384-96.709-96.71zm65.349 185.501v19.562l-95.618-40.98 13.556-45.186c3.138-10.46 11.03-18.331 20.928-21.581-.947 1.811-1.758 3.728-2.376 5.769-4.121 13.611.862 27.503 12.695 35.392l39.877 26.584c6.849 4.567 10.938 12.208 10.938 20.44zm-42.495-59.504c-7.533-5.022-8.379-12.883-6.659-18.565s6.784-11.753 15.838-11.753h1.063v30.618c0 2.015-.37 3.975-1.065 5.819zm25.243-6.797v-18.637c14.705 7.137 31.199 11.146 48.613 11.146 17.486 0 34.047-4.045 48.801-11.243v18.809c-15.417 6.299-31.745 9.5-48.613 9.5-16.938 0-33.33-3.225-48.801-9.575zm112.414 7.096v-30.618h1.251c9.054 0 14.118 6.071 15.838 11.752 1.721 5.682.875 13.543-6.658 18.565l-9.329 6.219c-.719-1.872-1.102-3.866-1.102-5.918zm-32.064 78.767v-19.562c0-8.232 4.089-15.873 10.938-20.439l39.878-26.584c11.833-7.889 16.815-21.781 12.694-35.393-.618-2.041-1.429-3.958-2.376-5.768 9.899 3.25 17.79 11.121 20.929 21.581l13.556 45.186z"/><path d="m296.175 240.484h-80.162c-4.142 0-7.5 3.358-7.5 7.5 0 21.816 21.345 39.564 47.581 39.564s47.581-17.749 47.581-39.564c0-4.142-3.358-7.5-7.5-7.5zm-40.081 32.064c-14.498 0-26.814-7.176-31.028-17.064h62.056c-4.214 9.889-16.53 17.064-31.028 17.064z"/></g></g></svg>