<svg id="Capa_1" enable-background="new 0 0 512 512" height="512" viewBox="0 0 512 512" width="512" xmlns="http://www.w3.org/2000/svg"><g><g><path d="m352.288 392.274h-192.388v-72.145c0-17.709 14.356-32.065 32.065-32.065h128.258c17.709 0 32.065 14.356 32.065 32.065z" fill="#47de9e"/><path d="m413.956 374.103-84.486-24.849c-10.235-3.01-17.263-12.403-17.263-23.071v-38.119h-112.226v38.119c0 10.668-7.028 20.061-17.263 23.071l-84.486 24.849c-20.469 6.02-34.526 24.806-34.526 46.142v60.206h384.774v-60.206c.001-21.335-14.055-40.121-34.524-46.142z" fill="#f2c59a"/><path d="m256.094 384.258c-22.963 0-44.635-5.243-64.129-14.384l32.064 134.626h64.129l32.065-134.626c-19.494 9.141-41.166 14.384-64.129 14.384z" fill="#fd7"/><path d="m224.029 424.339v-91.459c0-4.438 3.695-7.09 7.268-7.09.493 0 .995.048 1.492.143 7.685 1.468 15.526 2.212 23.305 2.212 19.275 0 38.57-4.606 56.113-13.25v-26.831h-112.226v38.119c0 10.222-6.49 19.21-16.032 22.597z" fill="#e6b287"/><path d="m224.029 405.005-78.348-44.858-47.45 13.956c-20.469 6.02-34.525 24.806-34.525 46.142l24.049 84.255h136.274z" fill="#47de9e"/><path d="m98.231 374.103c-20.469 6.02-34.525 24.806-34.525 46.142v84.255h24.04l.009-1.473v-82.783c0-10.593 7.097-20.078 17.26-23.066l55.146-16.22-14.479-20.81z" fill="#43bfa0"/><path d="m288.158 405.005 78.348-44.858 47.45 13.956c20.469 6.02 34.525 24.806 34.525 46.142v84.255h-160.323z" fill="#47de9e"/><path d="m313.825 7.5h-115.462c-37.82 0-67.426 32.56-63.84 70.209l9.346 98.13h224.451l9.346-98.13c3.585-37.649-26.021-70.209-63.841-70.209z" fill="#845252"/><path d="m199.981 7.5h-1.618c-37.819 0-67.426 32.56-63.84 70.209l9.345 98.13h56.113z" fill="#7a4646"/><path d="m371.185 167.823h-10.881c-8.854 0-16.032-7.178-16.032-16.032v-48.097h-176.355v48.097c0 8.854-7.178 16.032-16.032 16.032h-10.881c-10.483 0-20.035 7.542-21.08 17.973-1.201 11.996 8.187 22.108 19.937 22.108h12.429c4.106 53.795 48.957 96.194 103.805 96.194s99.699-42.398 103.805-96.194h12.429c11.75 0 21.138-10.112 19.936-22.108-1.045-10.431-10.598-17.973-21.08-17.973z" fill="#f9d8af"/><path d="m207.997 135.758h136.274v-32.065h-176.354v48.097c0 8.854-7.179 16.032-16.032 16.032h-10.881c-10.482 0-20.034 7.542-21.08 17.973-1.202 11.996 8.186 22.108 19.937 22.108h12.429c4.106 53.795 48.958 96.194 103.805 96.194 12.594 0 24.616-2.326 35.783-6.422l-18.478-2.851c-47.186-7.282-81.434-47.209-81.434-94.937v-48.097c-.001-8.84 7.191-16.032 16.031-16.032z" fill="#f2c59a"/><path d="m134.271 71.629c.003 2.011.057 4.034.252 6.08l3.238 34.001h236.667l3.238-34.001c.195-2.046.249-4.069.252-6.08z" fill="#89ec9e"/><g fill="#47de9e"><path d="m134.271 71.629c.003 2.011.057 4.034.252 6.08l3.237 34.001h62.221v-40.081z"/><path d="m280.142 111.289-.832.421h.832z"/></g><path d="m352.288 47.581-24.049 40.08-40.081-24.048v64.129l-48.096-56.113 8.016-32.064z" fill="#845252"/><g fill="#89ec9e"><path d="m213.32 355.742-35.43-23.62c-19.798-13.198-10.454-44.058 13.34-44.058h-17.541c-17.7 0-33.304 11.61-38.39 28.563l-15.479 51.598 104.21 36.78v-29.254c-.001-8.04-4.019-15.549-10.71-20.009z"/><path d="m298.868 355.742 35.43-23.62c19.798-13.198 10.454-44.058-13.34-44.058h17.541c17.7 0 33.304 11.61 38.39 28.563l15.479 51.598-104.21 36.78v-29.254c0-8.04 4.019-15.549 10.71-20.009z"/></g></g><g><path d="m207.997 168.339c-4.142 0-7.5 3.358-7.5 7.5v8.016c0 4.142 3.358 7.5 7.5 7.5s7.5-3.358 7.5-7.5v-8.016c0-4.142-3.358-7.5-7.5-7.5z"/><path d="m304.191 168.339c-4.142 0-7.5 3.358-7.5 7.5v8.016c0 4.142 3.358 7.5 7.5 7.5s7.5-3.358 7.5-7.5v-8.016c0-4.142-3.358-7.5-7.5-7.5z"/><path d="m256.094 247.468c11.897 0 22.857-3.805 29.316-10.177 2.948-2.909 2.98-7.658.071-10.606s-7.658-2.981-10.606-.071c-2.738 2.701-9.3 5.855-18.782 5.855s-16.043-3.154-18.781-5.855c-2.95-2.91-7.698-2.877-10.606.071-2.909 2.948-2.877 7.697.071 10.606 6.46 6.372 17.419 10.177 29.317 10.177z"/><path d="m199.981 159.291h16.032c4.142 0 7.5-3.358 7.5-7.5s-3.358-7.5-7.5-7.5h-16.032c-4.142 0-7.5 3.358-7.5 7.5s3.358 7.5 7.5 7.5z"/><path d="m296.175 159.291h16.032c4.142 0 7.5-3.358 7.5-7.5s-3.358-7.5-7.5-7.5h-16.032c-4.142 0-7.5 3.358-7.5 7.5s3.358 7.5 7.5 7.5z"/><path d="m416.072 366.907-17.844-5.248-14.156-47.186c-6.084-20.281-24.399-33.908-45.574-33.908h-5.228c17.731-16.97 29.9-39.707 33.455-65.161h4.459c14.617 0 27.154-10.861 28.542-24.727.778-7.771-1.764-15.531-6.975-21.288-4.253-4.701-9.992-7.764-16.178-8.733l8.19-81.899c2.01-20.098-4.611-40.214-18.164-55.19-13.553-14.978-32.91-23.567-53.109-23.567h-114.792c-20.199 0-39.556 8.589-53.109 23.565-13.554 14.976-20.174 35.093-18.165 55.191l8.206 82.062c-12.208 2.271-21.954 12.101-23.169 24.23-.778 7.771 1.764 15.531 6.974 21.289 5.213 5.762 12.658 9.067 20.425 9.067h5.598c3.552 25.457 15.716 48.193 33.444 65.161h-5.212c-21.175 0-39.489 13.627-45.574 33.908l-14.138 47.126-18.05 5.309c-23.498 6.912-39.909 28.845-39.909 53.338v84.254c0 4.143 3.358 7.5 7.5 7.5s7.5-3.357 7.5-7.5v-84.255c0-17.885 11.983-33.901 29.142-38.947l18.634-5.48 57.654 20.349v108.333c0 4.143 3.358 7.5 7.5 7.5s7.5-3.357 7.5-7.5v-103.04l25.081 8.852v94.188c0 4.143 3.358 7.5 7.5 7.5s7.5-3.357 7.5-7.5v-114.307c8.122 1.037 16.35 1.565 24.564 1.565s16.443-.529 24.565-1.566v114.308c0 4.143 3.358 7.5 7.5 7.5s7.5-3.357 7.5-7.5v-94.188l25.081-8.852v103.04c0 4.143 3.358 7.5 7.5 7.5s7.5-3.357 7.5-7.5v-108.334l57.569-20.319 18.531 5.45c17.158 5.046 29.142 21.062 29.142 38.947v84.256c0 4.143 3.358 7.5 7.5 7.5s7.5-3.357 7.5-7.5v-84.255c-.001-24.494-16.412-46.427-39.91-53.338zm-79.276-59.59c1.72 5.682.874 13.542-6.659 18.565l-9.328 6.219c-.719-1.873-1.102-3.867-1.102-5.919v-30.618h1.251c9.054 0 14.118 6.072 15.838 11.753zm23.508-146.994c-4.705 0-8.532-3.828-8.532-8.532v-32.581h13.872l-4.111 41.113zm-203.594-126.693c10.715-11.839 26.019-18.63 41.988-18.63h114.792c15.969 0 31.272 6.791 41.988 18.631 7.743 8.556 12.605 19.237 14.117 30.498h-33.34c-2.841 0-5.438 1.605-6.708 4.146l-4.395 8.788-33.135-19.881c-2.317-1.39-5.203-1.427-7.554-.095-2.351 1.331-3.805 3.824-3.805 6.526v43.854l-34.903-40.719c-1.425-1.663-3.505-2.619-5.694-2.619h-97.469c1.513-11.261 6.375-21.943 14.118-30.499zm-6.054 126.693-4.112-41.113h13.872v32.581c0 4.705-3.828 8.532-8.532 8.532zm-5.612-56.114-2.508-25.081h94.076l21.498 25.081zm14.34 95.678c0-4.142-3.358-7.5-7.5-7.5s-7.5 3.358-7.5 7.5v.516h-4.524c-3.537 0-6.927-1.506-9.303-4.131-2.407-2.66-3.533-6.115-3.17-9.73.63-6.292 6.611-11.22 13.617-11.22h10.88c12.976 0 23.532-10.557 23.532-23.532v-32.581h95.551l11.497 13.413c1.453 1.696 3.548 2.62 5.696 2.62.871 0 1.751-.152 2.601-.466 2.944-1.089 4.898-3.896 4.898-7.034v-50.883l28.722 17.233c1.792 1.074 3.951 1.355 5.956.77 2.006-.584 3.677-1.978 4.611-3.847l5.943-11.886h28.761l-2.508 25.081h-46.92c-4.142 0-7.5 3.358-7.5 7.5s3.358 7.5 7.5 7.5h16.548v32.581c0 12.976 10.557 23.532 23.532 23.532h12.024c3.537 0 6.927 1.505 9.303 4.13 2.407 2.66 3.533 6.115 3.171 9.729-.629 6.292-6.61 11.221-13.616 11.221h-3.386v-.439c0-4.141-3.356-7.499-7.497-7.5-.001 0-.002 0-.003 0-4.14 0-7.497 3.354-7.5 7.495-.039 53.286-43.421 96.638-96.706 96.638-53.326 0-96.71-43.384-96.71-96.71zm31.845 132.114-9.178-6.118c-7.534-5.022-8.379-12.883-6.659-18.565s6.784-11.753 15.838-11.753h1.063v30.618c0 2.014-.37 3.973-1.064 5.818zm-62.171 31.532 13.425-44.75c3.138-10.46 11.03-18.331 20.928-21.581-.948 1.811-1.758 3.728-2.376 5.768-4.121 13.611.862 27.504 12.695 35.392l35.43 23.62c4.614 3.077 7.369 8.224 7.369 13.77v18.654zm102.45 11.519c-.227-10.303-5.425-19.815-14.027-25.55l-13.593-9.062c2.235-4.395 3.405-9.241 3.405-14.258v-25.822c14.752 7.194 31.313 11.236 48.801 11.236 17.412 0 33.906-4.012 48.613-11.154v25.739c0 5.053 1.183 9.934 3.449 14.354l-13.45 8.966c-8.601 5.735-13.799 15.247-14.026 25.55-16.222 2.247-32.951 2.247-49.172.001zm64.151 19.354v-18.654c0-5.545 2.755-10.693 7.369-13.77l35.43-23.62c11.833-7.888 16.816-21.781 12.695-35.392-.618-2.041-1.429-3.958-2.376-5.768 9.899 3.25 17.79 11.12 20.928 21.581l13.425 44.75z"/></g></g></svg>