<svg id="Capa_1" enable-background="new 0 0 512 512" height="512" viewBox="0 0 512 512" width="512" xmlns="http://www.w3.org/2000/svg"><g><g><path d="m312.113 342.216v-62.167h-112.226v62.167c0 10.668-7.028 20.061-17.263 23.071l-84.486 24.849c-20.469 6.02-34.525 24.806-34.525 46.142l24.048 68.222h360.726v-68.222c0-21.336-14.056-40.122-34.525-46.142l-84.486-24.849c-10.235-3.01-17.263-12.403-17.263-23.071z" fill="#6b4f5a"/><path d="m182.624 365.287-84.485 24.849c-20.47 6.02-34.526 24.806-34.526 46.143v68.221h24.048v-68.223c0-10.593 7.097-20.078 17.26-23.067l84.491-24.855c20.326-5.979 34.523-24.952 34.523-46.139v-8.016h-8.016-16.032v8.015c0 10.669-7.028 20.062-17.263 23.072z" fill="#61444f"/><path d="m407.682 296.27-13.138-160.938c-5.896-72.222-66.231-127.832-138.694-127.832s-132.797 55.61-138.693 127.832l-13.138 160.938c-4.573 56.026 39.662 104.02 95.875 104.02h111.913c56.212 0 100.448-47.994 95.875-104.02z" fill="#87646f"/><path d="m215.919 342.216 8.016-222.491s0 0 .167-108.427c-57.617 13.487-101.938 62.699-106.946 124.034l-13.137 160.938c-3.291 40.314 18.755 76.361 52.284 93.469l30.848-9.074c16.94-4.983 28.768-20.792 28.768-38.449z" fill="#6b4f5a"/><path d="m151.79 155.362v164.767c0 26.563 21.534 48.097 48.097 48.097h112.226c26.563 0 48.097-21.534 48.097-48.097v-164.767" fill="#61444f"/><path d="m199.887 280.048v62.167c0 10.521-6.85 19.772-16.854 22.914 5.252 1.969 10.915 3.097 16.854 3.097h112.226c5.939 0 11.602-1.128 16.854-3.097-10.004-3.142-16.854-12.393-16.854-22.914v-62.167z" fill="#e0916d"/><path d="m199.887 280.048v62.167c0 10.521-6.85 19.772-16.854 22.914 5.252 1.969 10.915 3.097 16.854 3.097h16.134c3.525-5.411 5.977-10.066 7.141-15.522 0 0 .152-.798.24-1.221 1.13-5.451 6.81-10.605 12.78-9.664 6.479 1.022 13.068 1.534 19.669 1.534 19.4 0 38.746-4.58 56.261-13.171v-50.134z" fill="#c7805d"/><path d="m256 320.129c-57.554 0-104.21-46.656-104.21-104.21v-80.161h208.42v80.161c0 57.554-46.657 104.21-104.21 104.21z" fill="#f1a673"/><path d="m151.79 127.742v89.536c0 57.553 46.656 104.21 104.21 104.21 5.467 0 10.793-.547 16.032-1.359-49.921-7.729-88.177-50.764-88.177-102.851v-40.551c0-7.081 4.673-13.233 11.417-15.39 19.566-6.258 40.08-9.547 60.88-9.547 36.795 0 72.777 10.058 104.024 29.084.019-.011.015-.008.034-.019v-53.113z" fill="#e0916d"/><path d="m384.55 131.476c-38.675-23.418-83.124-35.799-128.548-35.799s-89.872 12.38-128.548 35.799c-7.574 4.587-9.993 14.447-5.409 22.021 3.014 4.975 8.306 7.73 13.731 7.73 2.83 0 5.691-.752 8.29-2.321 33.661-20.389 72.368-31.164 111.936-31.164s78.275 10.776 111.936 31.164c2.599 1.57 5.46 2.321 8.29 2.321 5.425 0 10.717-2.756 13.731-7.73 4.584-7.574 2.165-17.434-5.409-22.021z" fill="#61444f"/></g><g><path d="m207.903 184.371c-4.142 0-7.5 3.358-7.5 7.5v8.016c0 4.142 3.358 7.5 7.5 7.5s7.5-3.358 7.5-7.5v-8.016c0-4.142-3.358-7.5-7.5-7.5z"/><path d="m304.097 184.371c-4.142 0-7.5 3.358-7.5 7.5v8.016c0 4.142 3.358 7.5 7.5 7.5s7.5-3.358 7.5-7.5v-8.016c0-4.142-3.358-7.5-7.5-7.5z"/><path d="m237.219 242.645c-2.949-2.91-7.698-2.877-10.606.071-2.909 2.949-2.877 7.697.071 10.606 6.459 6.373 17.418 10.177 29.316 10.177s22.857-3.805 29.316-10.177c2.948-2.909 2.98-7.658.071-10.606s-7.658-2.981-10.606-.071c-2.737 2.701-9.299 5.855-18.781 5.855s-16.043-3.154-18.781-5.855z"/><path d="m215.919 159.626h-16.032c-4.142 0-7.5 3.358-7.5 7.5s3.358 7.5 7.5 7.5h16.032c4.142 0 7.5-3.358 7.5-7.5s-3.357-7.5-7.5-7.5z"/><path d="m296.081 174.626h16.032c4.142 0 7.5-3.358 7.5-7.5s-3.358-7.5-7.5-7.5h-16.032c-4.142 0-7.5 3.358-7.5 7.5s3.357 7.5 7.5 7.5z"/><path d="m415.978 384.902-29.522-8.683c.589-.608 1.173-1.223 1.748-1.846 19.574-21.237 29.453-49.927 27.103-78.713l-13.138-160.937c-3.005-36.813-19.617-70.873-46.776-95.905-27.159-25.032-62.457-38.818-99.393-38.818-36.935 0-72.233 13.786-99.392 38.818s-43.771 59.092-46.776 95.905l-13.138 160.937c-2.35 28.786 7.528 57.476 27.103 78.713.575.624 1.158 1.238 1.748 1.846l-29.522 8.683c-23.498 6.911-39.909 28.844-39.909 53.338v66.26c0 4.142 3.358 7.5 7.5 7.5s7.5-3.358 7.5-7.5v-66.26c0-17.885 11.983-33.901 29.142-38.947l38.75-11.397c15.555 11.308 34.075 18.164 53.382 19.604v97c0 4.142 3.358 7.5 7.5 7.5s7.5-3.358 7.5-7.5v-96.71h41.112v96.71c0 4.142 3.358 7.5 7.5 7.5s7.5-3.358 7.5-7.5v-96.71h.516c4.142 0 7.5-3.358 7.5-7.5s-3.358-7.5-7.5-7.5h-63.973c-25.067 0-48.229-10.151-65.217-28.583s-25.222-42.343-23.182-67.327l10.8-132.3c6.319 4.326 14.518 5.397 21.847 2.541v153.007c0 30.656 24.94 55.597 55.597 55.597h112.226c30.656 0 55.597-24.941 55.597-55.597v-153.02c2.712 1.057 5.597 1.619 8.519 1.619 4.809 0 9.45-1.509 13.326-4.166l10.802 132.319c2.04 24.984-6.193 48.895-23.182 67.327s-40.15 28.583-65.217 28.583h-15.876c-4.142 0-7.5 3.358-7.5 7.5s3.358 7.5 7.5 7.5h8.532v96.71c0 4.142 3.358 7.5 7.5 7.5s7.5-3.358 7.5-7.5v-97c19.307-1.441 37.827-8.296 53.382-19.604l38.75 11.397c17.158 5.046 29.142 21.062 29.142 38.947v66.26c0 4.142 3.358 7.5 7.5 7.5s7.5-3.358 7.5-7.5v-66.26c-.002-24.493-16.413-46.427-39.911-53.338zm-63.268-168.983c0 53.326-43.384 96.709-96.71 96.709s-96.709-43.384-96.709-96.709v-56.98c29.712-15.534 62.883-23.698 96.712-23.698 33.825 0 66.992 8.162 96.708 23.696v56.982zm-43.366 144.807h-106.688c3.024-4.9 4.731-10.615 4.731-16.548v-27.693c14.705 7.137 31.199 11.145 48.613 11.145s33.908-4.007 48.613-11.145v27.693c0 5.933 1.708 11.648 4.731 16.548zm-150.053-40.597v-48.348c8.27 14.262 19.606 26.532 33.097 35.912v36.484c0 5.524-2.811 10.694-7.319 13.735-15.076-5.933-25.778-20.627-25.778-37.783zm193.419 0c0 17.156-10.703 31.85-25.778 37.784-4.509-3.041-7.319-8.211-7.319-13.735v-36.484c13.491-9.38 24.827-21.65 33.097-35.912zm30.835-170.519c-1.562 2.578-4.297 4.117-7.316 4.117-1.542 0-3.068-.429-4.404-1.236-34.833-21.098-74.883-32.249-115.822-32.249s-80.99 11.152-115.827 32.252c-4.015 2.435-9.273 1.139-11.714-2.88-2.437-4.027-1.146-9.285 2.877-11.722 10.013-6.063 20.567-11.436 31.371-15.969 3.82-1.603 5.617-5.998 4.014-9.818s-5.999-5.617-9.818-4.014c-10.462 4.39-20.7 9.528-30.488 15.281 5.042-28.179 19.099-53.932 40.356-73.524 24.381-22.472 56.069-34.848 89.226-34.848 33.158 0 64.846 12.376 89.227 34.848 21.255 19.59 35.311 45.341 40.354 73.518-39.176-23.027-83.902-35.188-129.578-35.188-22.318 0-44.544 2.907-66.061 8.641-4.002 1.067-6.382 5.176-5.316 9.178 1.066 4.003 5.176 6.382 9.178 5.316 20.257-5.398 41.184-8.135 62.198-8.135 44.049 0 87.157 12.004 124.662 34.714 4.024 2.436 5.316 7.695 2.881 11.718z"/></g></g></svg>