<svg id="Capa_1" enable-background="new 0 0 512 512" height="512" viewBox="0 0 512 512" width="512" xmlns="http://www.w3.org/2000/svg"><g><g><path d="m413.597 438.42-21.229-6.065-135.635 45.318-136.913-45.318-21.229 6.065c-20.648 5.899-34.884 24.772-34.884 46.246l23.86 19.834h360.914v-19.833c0-21.475-14.236-40.347-34.884-46.247z" fill="#ff7e8f"/><path d="m104.594 461.374 58.027-16.431-42.801-12.589-21.229 6.065c-20.648 5.899-34.884 24.772-34.884 46.246v19.835h23.861v-20.126c-.001-10.592 7.1-20.08 17.026-23z" fill="#fc5f7a"/><path d="m320.958 352.194h-129.728c-31.33 0-43.111 34.898-23.314 48.097l88.177 48.097 88.177-48.097c19.799-13.199 8.017-48.097-23.312-48.097z" fill="#d63f50"/><path d="m328.239 432.355v-19.447c-9.544-3.387-16.032-12.375-16.032-22.597v-54.15h-112.226v54.149c0 10.222-6.489 19.21-16.032 22.597v19.447l72.145 32.065z" fill="#f8ba7e"/><path d="m312.207 379.247v-43.086h-112.226v54.149c0 10.222-6.49 19.21-16.032 22.597v19.447l7.552 3.356c20.077-6.709 32.528-22.824 32.528-42.655 0-2.384 2.041-3.808 4.015-3.808.331 0 .668.037 1.004.111 8.873 1.935 17.973 2.916 27.046 2.916 19.387 0 38.68-4.528 56.113-13.027z" fill="#f1a673"/><path d="m376.889 380.757c-5.086-16.954-20.69-28.563-38.39-28.563h-17.541c23.793 0 33.137 30.859 13.34 44.058l-73.757 49.171c-2.692 1.795-6.2 1.795-8.893 0l-73.757-49.171c-19.797-13.198-10.454-44.058 13.34-44.058h-17.541c-17.7 0-33.304 11.61-38.39 28.563l-15.479 51.598 128.27 45.272c5.179 1.828 10.828 1.828 16.008 0l128.27-45.272z" fill="#fc5f7a"/><path d="m376.336 232.356v-24.453c0-66.408-53.834-120.242-120.242-120.242s-120.242 53.834-120.242 120.242v24.453c-9.147 1.857-16.032 9.941-16.032 19.636 0 11.068 8.972 20.04 20.04 20.04h12.429c4.106 53.795 48.957 96.194 103.805 96.194s99.699-42.398 103.805-96.194h12.429c11.068 0 20.04-8.973 20.04-20.04 0-9.695-6.885-17.779-16.032-19.636z" fill="#ffce8a"/><path d="m183.949 264.016v-152.143c-29.157 21.941-48.097 56.73-48.097 96.03v24.453c-9.147 1.857-16.032 9.941-16.032 19.636 0 11.068 8.972 20.04 20.04 20.04h12.429c4.106 53.795 48.957 96.194 103.805 96.194 5.483 0 10.83-.534 16.083-1.351-49.947-7.708-88.228-50.755-88.228-102.859z" fill="#f8ba7e"/><path d="m222.852 288.064c-3.795 0-6.868 3.57-5.819 7.218 4.093 14.233 20.028 24.847 39.061 24.847s34.968-10.614 39.061-24.847c1.049-3.648-2.023-7.218-5.819-7.218z" fill="#fff"/><path d="m294.718 112.928c.872 4.071-1.543 8.05-5.494 9.364-10.526 3.499-21.619 5.451-33.13 5.451s-22.604-1.952-33.13-5.451c-3.951-1.313-6.366-5.292-5.494-9.364l21.234-99.091c.792-3.696 4.058-6.337 7.838-6.337h19.104c3.78 0 7.046 2.641 7.838 6.337z" fill="#fc5f7a"/><path d="m242.19 126.71 25.474-118.86c-.656-.173-1.314-.35-2.018-.35h-19.105c-3.779 0-7.045 2.641-7.838 6.336l-21.234 99.091c-.872 4.071 1.544 8.05 5.494 9.364 6.215 2.066 12.648 3.514 19.227 4.419z" fill="#f84455"/></g><g><path d="m416.072 431.036-17.844-5.248-14.156-47.186c-6.084-20.281-24.399-33.908-45.574-33.908h-5.228c17.73-16.97 29.9-39.707 33.455-65.161h4.458c14.617 0 27.154-10.861 28.543-24.727.778-7.771-1.764-15.53-6.974-21.288-2.522-2.787-5.568-4.992-8.917-6.533v-19.081c0-27.763-8.755-54.166-25.32-76.352-15.479-20.732-37.325-36.528-61.724-44.74l-15.974-74.546c-1.523-7.108-7.903-12.266-15.171-12.266h-19.104c-7.268 0-13.648 5.158-15.171 12.265l-15.973 74.542c-24.27 8.172-45.999 23.826-61.468 44.401-16.733 22.256-25.578 48.777-25.578 76.696v19.415c-8.63 4.115-14.929 12.266-15.89 21.858-.779 7.771 1.762 15.531 6.972 21.289 5.214 5.763 12.659 9.067 20.426 9.067h5.598c3.552 25.457 15.716 48.193 33.444 65.161h-5.212c-21.175 0-39.489 13.627-45.574 33.908l-14.138 47.125-18.05 5.309c-23.498 6.912-39.909 28.845-39.909 53.338v20.125c0 4.142 3.358 7.5 7.5 7.5s7.5-3.358 7.5-7.5v-20.125c0-17.885 11.983-33.901 29.142-38.947l18.633-5.48 57.655 20.349v44.204c0 4.142 3.358 7.5 7.5 7.5s7.5-3.358 7.5-7.5v-38.911l62.149 21.935c.808.285 1.652.428 2.496.428s1.688-.143 2.496-.428l62.149-21.935v38.911c0 4.142 3.358 7.5 7.5 7.5s7.5-3.358 7.5-7.5v-44.205l57.569-20.319 18.531 5.45c17.158 5.046 29.142 21.062 29.142 38.947v20.125c0 4.142 3.358 7.5 7.5 7.5s7.5-3.358 7.5-7.5v-20.125c0-24.493-16.411-46.426-39.909-53.337zm-79.276-59.59c1.72 5.682.874 13.542-6.659 18.565l-9.328 6.219c-.719-1.873-1.102-3.867-1.102-5.919v-30.618h1.251c9.054 0 14.118 6.072 15.838 11.753zm-90.758-356.038c.05-.237.262-.408.504-.408h19.104c.242 0 .454.171.504.408l21.234 99.091c.065.303-.223.574-.526.674-20.229 6.726-41.299 6.726-61.528 0-.303-.101-.591-.372-.526-.675zm-86.654 248.608c0-4.142-3.358-7.5-7.5-7.5s-7.5 3.358-7.5 7.5v.516h-4.524c-3.537 0-6.928-1.506-9.303-4.131-2.406-2.66-3.532-6.115-3.17-9.729.63-6.292 6.612-11.22 13.618-11.22h10.879c4.142 0 7.5-3.358 7.5-7.5s-3.358-7.5-7.5-7.5h-8.532v-16.548c0-24.641 7.804-48.045 22.567-67.682 11.82-15.721 27.775-28.185 45.733-35.933l-1.515 7.068c-1.663 7.756 2.835 15.517 10.461 18.052 11.643 3.871 23.586 5.833 35.496 5.833 11.911 0 23.854-1.963 35.497-5.833 7.626-2.536 12.124-10.296 10.461-18.052l-1.513-7.063c18.071 7.798 34.122 20.378 45.958 36.232 14.614 19.575 22.339 42.874 22.339 67.378v16.548h-8.532c-4.142 0-7.5 3.358-7.5 7.5s3.358 7.5 7.5 7.5h12.024c3.537 0 6.928 1.505 9.303 4.131 2.407 2.659 3.533 6.114 3.17 9.729-.63 6.292-6.611 11.221-13.617 11.221h-3.384v-.439c0-4.141-3.356-7.499-7.497-7.5-.001 0-.002 0-.003 0-4.14 0-7.497 3.354-7.5 7.495-.039 53.286-43.421 96.638-96.706 96.638-53.326-.001-96.71-43.385-96.71-96.711zm31.845 132.114-9.178-6.119c-7.533-5.022-8.379-12.883-6.659-18.565s6.785-11.753 15.838-11.753h1.063v30.618c0 2.015-.37 3.974-1.064 5.819zm64.865 76.368-127.036-44.836 13.425-44.75c3.138-10.46 11.03-18.331 20.928-21.581-.947 1.811-1.758 3.728-2.376 5.768-4.121 13.611.862 27.504 12.695 35.392l78.203 52.136c1.26.84 2.71 1.26 4.16 1.26s2.901-.42 4.16-1.26l16.032-10.688c3.447-2.297 4.378-6.954 2.08-10.4-2.297-3.446-6.954-4.377-10.4-2.08l-11.872 7.915-52.206-34.804c2.235-4.395 3.405-9.241 3.405-14.258v-25.822c14.753 7.194 31.313 11.236 48.801 11.236 17.412 0 33.906-4.012 48.613-11.154v25.739c0 5.053 1.183 9.934 3.449 14.354l-11.443 7.628c-3.447 2.297-4.378 6.954-2.08 10.4 1.445 2.168 3.823 3.341 6.247 3.341 1.43 0 2.875-.408 4.153-1.261l33.423-22.282c11.833-7.888 16.816-21.781 12.695-35.392-.618-2.041-1.429-3.958-2.376-5.768 9.899 3.25 17.79 11.12 20.928 21.581l13.425 44.75z"/><path d="m215.497 247.984v-8.016c0-4.142-3.358-7.5-7.5-7.5s-7.5 3.358-7.5 7.5v8.016c0 4.142 3.358 7.5 7.5 7.5s7.5-3.358 7.5-7.5z"/><path d="m304.19 232.468c-4.142 0-7.5 3.358-7.5 7.5v8.016c0 4.142 3.358 7.5 7.5 7.5s7.5-3.358 7.5-7.5v-8.016c0-4.142-3.357-7.5-7.5-7.5z"/><path d="m199.98 223.419h16.032c4.142 0 7.5-3.358 7.5-7.5s-3.358-7.5-7.5-7.5h-16.032c-4.142 0-7.5 3.358-7.5 7.5s3.358 7.5 7.5 7.5z"/><path d="m296.174 223.419h16.032c4.142 0 7.5-3.358 7.5-7.5s-3.358-7.5-7.5-7.5h-16.032c-4.142 0-7.5 3.358-7.5 7.5s3.358 7.5 7.5 7.5z"/><path d="m208.513 288.064c0 21.816 21.345 39.564 47.581 39.564s47.581-17.749 47.581-39.564c0-4.142-3.358-7.5-7.5-7.5h-80.162c-4.142 0-7.5 3.358-7.5 7.5zm78.609 7.5c-4.214 9.889-16.53 17.064-31.028 17.064s-26.814-7.176-31.028-17.064z"/></g></g></svg>