<svg id="Capa_1" enable-background="new 0 0 512 512" height="512" viewBox="0 0 512 512" width="512" xmlns="http://www.w3.org/2000/svg"><g><g><path d="m408.282 388.965-67.718-23.901-169.422.104-67.424 23.797c-19.229 6.787-32.089 24.962-32.089 45.354l24.048 70.181h283.031l61.663-70.181c0-20.392-12.859-38.567-32.089-45.354z" fill="#ff7e8f"/><path d="m111.723 411.638 88.181-31.424 14.392-5.128-12.399-8.928-1.4-1.008-29.356.018-67.424 23.797c-19.229 6.787-32.089 24.962-32.089 45.354v70.181h24.048v-70.18c.001-10.179 6.45-19.294 16.047-22.682z" fill="#fc5f7a"/><path d="m408.282 388.965-67.718-23.901-115.276.07v6.401l153.421 132.965h61.662v-70.181c0-20.392-12.859-38.567-32.089-45.354z" fill="#ffa65a"/><path d="m320.129 256h-128.258l-22.579 105.006c-.842 3.916 1.294 7.925 5.068 9.268 25.043 8.912 52.588 13.984 81.64 13.984s56.597-5.072 81.64-13.984c3.773-1.343 5.91-5.352 5.068-9.268z" fill="#ffbf63"/><path d="m333.453 317.961-13.324-61.961h-128.258l-22.579 105.006c-.843 3.916 1.294 7.925 5.067 9.268 5.358 1.907 10.852 3.598 16.43 5.141l.12-.56 7.983-37.117c.593-2.758 3.032-4.201 5.135-4.201.679 0 1.352.14 2.001.417 15.895 6.783 32.708 10.222 49.972 10.222 27.923.001 55.23-9.34 77.453-26.215z" fill="#ffa65a"/><circle cx="256" cy="111.71" fill="#ff7e8f" r="104.21"/><circle cx="256" cy="175.839" fill="#fc5f7a" r="136.274"/><path d="m151.79 175.839c0-69.828 52.549-127.303 120.242-135.25-5.267-.618-10.598-1.024-16.032-1.024-75.262 0-136.274 61.012-136.274 136.274s61.012 136.274 136.274 136.274c5.434 0 10.765-.406 16.032-1.024-67.693-7.948-120.242-65.422-120.242-135.25z" fill="#f84455"/><circle cx="256" cy="215.919" fill="#e0916d" r="104.21"/><path d="m183.855 215.919c0-52.087 38.256-95.122 88.177-102.851-5.24-.811-10.566-1.359-16.032-1.359-57.553 0-104.21 46.656-104.21 104.21s46.656 104.21 104.21 104.21c5.467 0 10.793-.547 16.032-1.359-49.921-7.729-88.177-50.764-88.177-102.851z" fill="#c7805d"/><path d="m232.978 244.093c-5.355 0-9.431 5.225-7.712 10.297 4.29 12.657 16.269 21.767 30.375 21.767 14.107 0 26.086-9.11 30.375-21.767 1.719-5.072-2.357-10.297-7.712-10.297z" fill="#fff"/></g><g><path d="m410.778 381.893-61.967-21.871c.27-2.518.161-5.12-.423-7.733l-12.685-56.778c40.2-26.779 64.072-71.196 64.072-119.672 0-36.745-13.863-70.309-36.624-95.752-6.67-22.542-21.575-43.88-40.308-57.89-19.418-14.522-42.531-22.197-66.843-22.197-24.691 0-48.095 7.894-67.68 22.829-18.825 14.356-32.828 34.682-39.484 57.273-22.753 25.442-36.61 58.999-36.61 95.737 0 48.476 23.872 92.894 64.072 119.672l-12.685 56.778c-.584 2.613-.693 5.214-.423 7.733l-61.967 21.871c-22.187 7.83-37.093 28.899-37.093 52.427v70.18c0 4.142 3.358 7.5 7.5 7.5s7.5-3.358 7.5-7.5v-70.181c0-17.18 10.885-32.564 27.085-38.282l63.313-22.346c2.657 2.784 6.022 4.971 9.957 6.227 18.398 5.875 37.434 9.583 56.809 11.08l137.503 119.169c1.419 1.23 3.168 1.833 4.909 1.833 2.1 0 4.188-.877 5.671-2.588 2.713-3.13 2.375-7.867-.755-10.58l-123.593-107.112c7.886-.124 15.729-.613 23.511-1.458l95.624 82.874c15.091 13.078 33.931 20.922 53.708 22.515v8.849c0 4.142 3.358 7.5 7.5 7.5s7.5-3.358 7.5-7.5v-70.181c-.001-23.527-14.908-44.596-37.094-52.426zm-154.778-54.264c24.928 0 47.973-8.21 66.579-22.064l4.791 21.446c-20.866 7.403-42.674 12.515-64.883 15.197-27.122 3.274-54.344 2.896-81.004-1.118l7.937-35.526c18.607 13.855 41.652 22.065 66.58 22.065zm107.213-80.318c2.922-9.963 4.497-20.496 4.497-31.391 0-23.648-7.298-46.248-21.105-65.357-2.426-3.357-7.114-4.113-10.472-1.687-3.357 2.426-4.112 7.114-1.687 10.472 11.948 16.536 18.263 36.099 18.263 56.572 0 53.326-43.384 96.709-96.709 96.709s-96.709-43.384-96.709-96.709c0-53.326 43.384-96.71 96.709-96.71 20.94 0 40.865 6.581 57.62 19.031 3.324 2.47 8.023 1.778 10.493-1.547 2.47-3.324 1.778-8.022-1.547-10.493-19.36-14.387-42.378-21.991-66.566-21.991-40.395 0-75.85 21.552-95.472 53.761 7.928-56.901 53.179-102.667 111.485-109.912 63.477 7.909 112.761 62.195 112.761 127.78 0 25.999-7.678 50.688-21.561 71.472zm-165.797-212.554c16.949-12.925 37.208-19.757 58.584-19.757 21.048 0 41.055 6.643 57.858 19.209 8.024 6.001 15.067 13.26 20.87 21.388-22.631-14.868-49.685-23.533-78.728-23.533-29.034 0-56.08 8.659-78.707 23.519 5.62-7.87 12.395-14.933 20.123-20.826zm10.707 21.543c-38.718 25.953-63.832 70.121-63.832 119.539 0 7.131.549 14.281 1.589 21.29-1.04 6.111-1.589 12.388-1.589 18.791 0 10.895 1.575 21.428 4.497 31.391-13.883-20.783-21.562-45.473-21.562-71.472 0-54.095 33.53-100.5 80.897-119.539zm-29.906 299.452c15.774 2.429 31.731 3.659 47.755 3.659 12.751 0 25.545-.77 38.313-2.312 22.694-2.74 44.995-7.902 66.378-15.348l3.085 13.808c.977 4.374-1.515 8.703-5.797 10.07-23.125 7.385-47.333 11.129-71.952 11.129s-48.828-3.744-71.953-11.129c-4.217-1.347-6.691-5.569-5.829-9.877zm210.771 106.048-85.896-74.443c9.954-1.883 19.777-4.359 29.423-7.439 3.935-1.257 7.3-3.443 9.958-6.227l63.313 22.346c16.201 5.718 27.085 21.102 27.085 38.282v46.28c-16.163-1.552-31.521-8.085-43.883-18.799z"/><path d="m207.545 192.268c-4.142 0-7.5 3.358-7.5 7.5v8.016c0 4.142 3.358 7.5 7.5 7.5s7.5-3.358 7.5-7.5v-8.016c0-4.142-3.358-7.5-7.5-7.5z"/><path d="m303.738 192.268c-4.142 0-7.5 3.358-7.5 7.5v8.016c0 4.142 3.358 7.5 7.5 7.5s7.5-3.358 7.5-7.5v-8.016c0-4.142-3.358-7.5-7.5-7.5z"/><path d="m217.164 180.542c4.046-.885 6.609-4.883 5.724-8.929-.885-4.047-4.883-6.609-8.929-5.724l-16.032 3.507c-4.046.885-6.609 4.883-5.724 8.929.767 3.507 3.872 5.899 7.319 5.899.531 0 1.07-.057 1.61-.175z"/><path d="m313.357 169.395-16.032-3.507c-4.045-.885-8.044 1.678-8.929 5.724s1.678 8.044 5.724 8.929l16.032 3.507c.54.118 1.079.175 1.61.175 3.448 0 6.552-2.393 7.319-5.899.885-4.046-1.678-8.044-5.724-8.929z"/><path d="m287.706 236.593h-64.129c-4.142 0-7.5 3.358-7.5 7.5 0 21.816 17.749 39.564 39.564 39.564s39.564-17.749 39.564-39.564c.001-4.142-3.357-7.5-7.499-7.5zm-32.064 32.064c-10.931 0-20.217-7.176-23.394-17.064h46.788c-3.178 9.888-12.464 17.064-23.394 17.064z"/></g></g></svg>