<svg id="Capa_1" enable-background="new 0 0 512 512" height="512" viewBox="0 0 512 512" width="512" xmlns="http://www.w3.org/2000/svg"><g><g><path d="m256 7.5c75.262 0 136.274 61.012 136.274 136.274v61.457c0 107.55-66.785 162.529-66.785 162.529h-205.763v-223.986c0-75.262 61.012-136.274 136.274-136.274z" fill="#61444f"/><path d="m392.274 143.774v61.457c0 107.55-66.785 162.529-66.785 162.529h-69.489v-360.26c75.262 0 136.274 61.012 136.274 136.274z" fill="#87646f"/><path d="m103.718 396.981 82.792-29.221c12.82-4.525 21.393-16.642 21.393-30.237v-49.459h96.194v49.459c0 13.595 8.573 25.712 21.393 30.236l82.793 29.221c19.23 6.787 32.089 24.962 32.089 45.354h-368.743c0-20.391 12.859-38.566 32.089-45.353z" fill="#f5ab73"/><path d="m239.968 400.29 5.277 2.639c6.77 3.385 14.739 3.385 21.51 0l5.277-2.639 8.016 8.016v88.177l-8.016 8.016h-32.065l-8.016-8.016v-88.177z" fill="#61444f"/><path d="m151.79 504.5-80.161-62.165c0-20.392 12.859-38.568 32.089-45.354l81.473-28.755h22.712l32.065 32.065v104.209z" fill="#ff7e8f"/><path d="m135.758 385.673-32.04 11.308c-19.229 6.787-32.089 24.962-32.089 45.354v62.165l51.859-.436z" fill="#fc5f7a"/><path d="m190.087 330.835c.887-5.32 6.668-8.264 11.492-5.852l25.095 12.548c8.147 4.074 13.294 12.401 13.294 21.51v41.25l-56.113-32.065z" fill="#fc5f7a"/><path d="m440.371 504.5v-62.165c0-20.392-12.859-38.568-32.089-45.354l-81.473-28.755h-22.712l-32.065 32.065v104.209z" fill="#ff7e8f"/><path d="m207.903 326.751c14.862 6.021 31.074 9.411 48.097 9.411s33.235-3.389 48.097-9.411v-38.686h-96.194z" fill="#df976c"/><path d="m392.171 193.812c-1.045-10.431-10.597-17.973-21.08-17.973h-8.016c-10.437 0-18.897-8.46-18.897-18.897v-13.167c0-16.007-9.384-29.823-22.951-36.246l-113.324-3.835c-22.136 0-40.081 17.945-40.081 40.081v13.167c0 10.437-8.46 18.897-18.897 18.897-10.482 0-20.035 7.542-21.08 17.973-1.201 11.996 8.187 22.108 19.937 22.108h4.413c4.106 53.795 48.958 96.193 103.805 96.193s99.699-42.398 103.805-96.193h12.43c11.749-.001 21.137-10.113 19.936-22.108z" fill="#f8ba7e"/><path d="m304.097 103.694h-96.194c-22.136 0-40.081 17.945-40.081 40.081v13.167c0 10.437-15.331 18.897-25.768 18.897-10.482 0-20.034 7.542-21.08 17.973-1.202 11.996 8.186 22.108 19.937 22.108h11.284c4.106 53.795 48.958 96.194 103.805 96.194 12.594 0 24.616-2.326 35.783-6.422l-18.478-2.851c-47.186-7.282-81.434-47.209-81.434-94.937v-2.786c0-7.069 4.618-13.219 11.491-15.304 46.369-14.059 86.537-41.754 116.162-80.092l1.703-2.194c-5.19-2.453-11.009-3.834-17.13-3.834z" fill="#f5ab73"/><path d="m256 7.5c28.992 0 55.818 9.121 77.908 24.556-27.208 83.455-105.613 143.783-198.15 143.783-5.401 0-10.735-.271-16.032-.675v-31.39c0-75.262 61.012-136.274 136.274-136.274z" fill="#6b4f5a"/><path d="m207.903 312.113v32.065c0 70.783-56.113 96.194-56.113 160.323h-32.065v-192.388z" fill="#61444f"/><path d="m321.913 330.835c-.887-5.32-6.668-8.264-11.492-5.852l-25.095 12.548c-8.147 4.074-13.294 12.401-13.294 21.51v41.25l56.113-32.065z" fill="#fc5f7a"/></g><g><path d="m304.097 176.355c-4.142 0-7.5 3.358-7.5 7.5v8.016c0 4.142 3.358 7.5 7.5 7.5s7.5-3.358 7.5-7.5v-8.016c0-4.142-3.358-7.5-7.5-7.5z"/><path d="m207.903 176.355c-4.142 0-7.5 3.358-7.5 7.5v8.016c0 4.142 3.358 7.5 7.5 7.5s7.5-3.358 7.5-7.5v-8.016c0-4.142-3.358-7.5-7.5-7.5z"/><path d="m274.781 234.629c-2.737 2.701-9.298 5.855-18.781 5.855s-16.043-3.154-18.781-5.855c-2.949-2.91-7.698-2.877-10.606.071-2.909 2.949-2.877 7.697.071 10.606 6.459 6.373 17.418 10.177 29.316 10.177s22.857-3.805 29.316-10.177c2.949-2.909 2.98-7.658.071-10.606-2.909-2.949-7.658-2.98-10.606-.071z"/><path d="m410.778 389.909-71.341-25.179c6.713-7.077 16.271-18.4 25.837-33.978 15.739-25.63 34.501-68.212 34.501-125.521v-61.457c-.001-79.277-64.498-143.774-143.775-143.774s-143.774 64.497-143.774 143.774v242.251l-11.003 3.884c-22.187 7.83-37.093 28.899-37.093 52.427v62.164c0 4.142 3.358 7.5 7.5 7.5s7.5-3.358 7.5-7.5v-62.165c0-4.992.925-9.83 2.626-14.326l30.47 26.117v50.374c0 4.142 3.358 7.5 7.5 7.5s7.5-3.358 7.5-7.5v-284.467c4.098 2.155 8.773 3.386 13.686 3.386h4.458c4.858 34.781 25.798 64.489 55.035 81.342v39.416c0 34.173-13.607 56.673-28.012 80.493-13.815 22.844-28.101 46.465-28.101 79.83 0 4.142 3.358 7.5 7.5 7.5s7.5-3.358 7.5-7.5c0-29.182 12.598-50.013 25.936-72.067 7.989-13.209 16.119-26.664 21.927-42.255l25.315 14.466v99.856c0 4.142 3.358 7.5 7.5 7.5s7.5-3.358 7.5-7.5v-145.46c0-12.027-6.683-22.839-17.439-28.217l-14.625-7.313v-11.542c12.591 4.931 26.283 7.645 40.597 7.645 14.315 0 28.007-2.711 40.597-7.639v11.536l-14.625 7.312c-10.757 5.378-17.439 16.191-17.439 28.218v145.46c0 4.142 3.358 7.5 7.5 7.5s7.5-3.358 7.5-7.5v-99.857l48.844-27.911 77.41 27.321c6.479 2.287 12.105 6.123 16.528 10.999l-39.755 34.075c-8.781 7.526-13.816 18.475-13.816 30.04v25.333c0 4.142 3.358 7.5 7.5 7.5s7.5-3.358 7.5-7.5v-25.333c0-7.18 3.126-13.978 8.578-18.651l37.925-32.507c1.701 4.496 2.626 9.334 2.626 14.326v62.165c0 4.142 3.358 7.5 7.5 7.5s7.5-3.358 7.5-7.5v-62.165c-.005-23.527-14.912-44.596-37.098-52.426zm-187.458-45.67c5.643 2.821 9.147 8.492 9.147 14.801v28.327l-20.781-11.875c2.33-9.491 3.717-19.816 3.717-31.314v-3.897zm-133.633 70.813c4.423-4.876 10.048-8.712 16.528-10.999l6.011-2.122v32.439zm37.539-271.278c0-71.006 57.768-128.774 128.774-128.774 14.399 0 28.253 2.376 41.192 6.756-29.087 67.595-88.464 114.519-145.401 114.519-4.142 0-7.5 3.358-7.5 7.5s3.358 7.5 7.5 7.5c62.852 0 127.945-50.777 159.301-123.878 5.187 2.465 10.184 5.267 14.963 8.378-16.81 38.52-42.095 71.414-73.378 95.366-31.33 23.988-67.158 37.198-100.885 37.198h-12.024c-4.4 0-8.695 1.062-12.541 3.029v-27.594zm32.068 64.201c-.003-4.141-3.36-7.495-7.5-7.495 0 0-.002 0-.003 0-4.141.001-7.497 3.359-7.497 7.5v.439h-3.383c-7.006 0-12.988-4.929-13.618-11.221-.362-3.615.764-7.07 3.17-9.729 2.375-2.625 5.766-4.13 9.303-4.13h12.024c37.005 0 76.072-14.308 110.004-40.288 32.447-24.844 58.802-58.642 76.621-98.143 28.312 23.641 46.359 59.184 46.359 98.866v27.951c-4.099-2.155-8.774-3.387-13.687-3.387h-2.862c-4.42 0-8.576-1.721-11.701-4.847-3.126-3.125-4.847-7.281-4.847-11.702v-8.016c0-15.104-6.933-28.977-19.022-38.06-3.312-2.488-8.013-1.82-10.501 1.491-2.488 3.312-1.821 8.013 1.491 10.501 8.283 6.223 13.033 15.725 13.033 26.068v8.016c0 8.427 3.282 16.35 9.241 22.308 5.958 5.959 13.881 9.241 22.308 9.24h2.862c7.006 0 12.989 4.929 13.619 11.221.362 3.614-.764 7.07-3.17 9.729-2.375 2.625-5.766 4.131-9.303 4.131h-4.524v-.516c0-4.142-3.358-7.5-7.5-7.5s-7.5 3.358-7.5 7.5c0 53.326-43.384 96.709-96.71 96.709-53.286.002-96.668-43.35-96.707-96.636zm207.342 15.444h5.598c4.214 0 8.329-.98 12.049-2.79-2.908 45.768-18.314 80.174-31.452 101.718-7.166 11.75-14.375 20.936-20.145 27.499l-3.374-20.244c-.818-4.908-3.831-9.018-8.265-11.276-2.984-1.52-6.265-2-9.45-1.49v-12.066c29.244-16.85 50.184-46.559 55.039-81.351zm-87.104 135.621c0-6.309 3.505-11.98 9.147-14.801l25.096-12.548c.045-.023.122-.061.226-.061.068 0 .147.016.239.062.232.118.261.292.275.375l5.159 30.956c-.519.636-.915 1.343-1.196 2.087l-38.947 22.256v-28.326z"/><path d="m312.113 152.307h-16.032c-4.142 0-7.5 3.358-7.5 7.5s3.358 7.5 7.5 7.5h16.032c4.142 0 7.5-3.358 7.5-7.5s-3.358-7.5-7.5-7.5z"/></g></g></svg>