<svg id="Capa_1" enable-background="new 0 0 512 512" height="512" viewBox="0 0 512 512" width="512" xmlns="http://www.w3.org/2000/svg"><g><g><path d="m414.434 405.875-70.257-21.617h-176.354l-70.257 21.617c-20.181 6.209-33.953 24.855-33.953 45.97l24.04 52.655h360.735v-52.655c-.001-21.115-13.772-39.761-33.954-45.97z" fill="#df976c"/><path d="m87.661 503.027v-51.186c0-10.621 6.82-19.857 16.973-22.98l22.206-6.833c.898-.276 1.831-.416 2.769-.416 2.689 0 5.075 1.112 6.546 3.05 15.313 20.172 38.542 31.741 63.732 31.741h112.226c35.642 0 67.294-23.967 77.05-58.304l-44.985-13.841h-176.355l-70.257 21.617c-20.181 6.209-33.953 24.855-33.953 45.97v52.655h24.04z" fill="#d18964"/><path d="m352.194 288.065h-192.388c-8.854 0-16.032 7.178-16.032 16.032v72.145c0 30.99 25.123 56.113 56.113 56.113h112.226c30.99 0 56.113-25.123 56.113-56.113v-72.145c0-8.855-7.179-16.032-16.032-16.032z" fill="#d8d5d8"/><path d="m272.032 7.5h-32.065c-26.563 0-48.097 21.534-48.097 48.097 0 26.563 21.534 48.097 48.097 48.097h32.065c26.563 0 48.097-21.534 48.097-48.097 0-26.563-21.534-48.097-48.097-48.097z" fill="#ffce8a"/><path d="m273.175 47.581h-40.458c-63.711 0-112.508 56.662-103.057 119.668l6.098 40.655h232.468l7.135-35.676c12.897-64.485-36.425-124.647-102.186-124.647z" fill="#f1a673"/><path d="m183.855 59.865c-37.481 19.981-61.007 61.973-54.195 107.384l6.098 40.655h48.097z" fill="#df976c"/><path d="m371.091 199.887h-10.881c-8.854 0-16.032-7.178-16.032-16.032v-40.081c0-13.282-10.767-24.048-24.048-24.048h-128.259c-13.282 0-24.048 10.767-24.048 24.048v40.081c0 8.854-7.178 16.032-16.032 16.032h-10.881c-10.483 0-20.035 7.542-21.08 17.973-1.201 11.996 8.187 22.108 19.937 22.108h12.024c0 57.553 46.656 104.21 104.21 104.21s104.21-46.656 104.21-104.21h12.024c11.75 0 21.138-10.112 19.937-22.108-1.046-10.431-10.599-17.973-21.081-17.973z" fill="#f9d8af"/><path d="m151.79 239.968c0 57.553 46.656 104.21 104.21 104.21 12.572 0 24.57-2.34 35.73-6.42l-18.472-2.86c-47.158-7.302-81.387-47.225-81.387-94.929v-118.771-1.473c-13.282 0-24.048 10.767-24.048 24.048v40.081c0 8.854-7.179 16.032-16.032 16.032h-10.881c-10.482 0-20.034 7.542-21.08 17.973-1.202 11.996 8.186 22.108 19.937 22.108h12.023z" fill="#f2c59a"/><path d="m256 344.177c20.682 0 39.905-6.1 56.113-16.49v-55.655c0-13.282-10.767-24.048-24.048-24.048h-64.129c-13.282 0-24.048 10.767-24.048 24.048v55.655c16.207 10.39 35.43 16.49 56.112 16.49z" fill="#f1a673"/><path d="m199.887 432.355h111.989l.237-.164c-74.84-3.259-138.744-51.565-168.339-120.078v64.129c0 30.99 25.123 56.113 56.113 56.113z" fill="#c7c2c6"/><path d="m273.258 334.897c-33.641-5.209-60.621-27.06-73.371-56.451v49.242c16.208 10.39 35.431 16.49 56.113 16.49 12.484 0 24.42-2.257 35.499-6.304.076-.029.155-.089.231-.116z" fill="#df976c"/></g><g><path d="m415.978 398.973-41.157-12.105c.584-3.458.904-7.003.904-10.625v-72.145c0-10.392-6.774-19.226-16.135-22.334 4.338-10.713 7.059-22.245 7.862-34.296h4.782c7.767 0 15.212-3.305 20.425-9.067 5.21-5.758 7.752-13.518 6.973-21.289-1.062-10.607-8.653-19.449-18.704-23.021l4.064-22.063c6.027-32.719-2.725-66.148-24.013-91.716-9.413-11.305-20.783-20.473-33.413-27.19-1.3-29.511-25.707-53.122-55.534-53.122h-32.064c-29.26 0-53.295 22.725-55.426 51.449-13.543 6.631-25.758 16.014-35.805 27.771-21.254 24.874-30.518 57.675-25.416 89.993l4.172 26.423c-8.236 4.223-14.195 12.17-15.127 21.476-.778 7.771 1.763 15.531 6.974 21.289 5.213 5.762 12.658 9.067 20.425 9.067h4.782c.803 12.05 3.524 23.583 7.862 34.296-9.362 3.109-16.135 11.943-16.135 22.334v72.145c0 3.621.32 7.167.904 10.625l-41.157 12.105c-23.498 6.912-39.909 28.845-39.909 53.338v52.189c0 4.142 3.358 7.5 7.5 7.5s7.5-3.358 7.5-7.5v-52.189c0-17.885 11.983-33.9 29.142-38.947l41.153-12.104c9.736 22.674 32.281 38.597 58.479 38.597h112.226c26.198 0 48.743-15.923 58.479-38.596l41.153 12.104c17.158 5.047 29.142 21.062 29.142 38.947v52.188c0 4.142 3.358 7.5 7.5 7.5s7.5-3.358 7.5-7.5v-52.189c.001-24.494-16.41-46.427-39.908-53.338zm-176.01-383.973h32.064c19.13 0 35.2 13.303 39.473 31.142-11.556-3.972-23.824-6.061-36.375-6.061h-41.466c-11.281 0-22.351 1.697-32.887 4.939 4.667-17.272 20.464-30.02 39.191-30.02zm-109.505 213.337c-2.407-2.66-3.533-6.115-3.17-9.729.63-6.292 6.612-11.22 13.618-11.22h10.879c12.976 0 23.533-10.557 23.533-23.532v-40.081c0-9.125 7.423-16.549 16.548-16.549h88.177c4.142 0 7.5-3.358 7.5-7.5s-3.358-7.5-7.5-7.5h-88.177c-17.396 0-31.548 14.153-31.548 31.549v40.081c0 4.705-3.828 8.532-8.533 8.532h-9.623l-4.029-25.514c-4.417-27.978 3.602-56.375 22.003-77.908 18.4-21.534 45.199-33.884 73.523-33.884h41.466c28.802 0 55.891 12.695 74.321 34.829 18.429 22.135 26.006 51.075 20.789 79.401l-4.251 23.077h-5.78c-4.705 0-8.533-3.828-8.533-8.532v-40.081c0-17.396-14.152-31.549-31.548-31.549h-8.016c-4.142 0-7.5 3.358-7.5 7.5s3.358 7.5 7.5 7.5h8.016c9.125 0 16.548 7.424 16.548 16.549v40.081c0 12.976 10.557 23.532 23.533 23.532h10.879c7.006 0 12.988 4.929 13.618 11.22.362 3.614-.764 7.07-3.171 9.729-2.375 2.625-5.766 4.131-9.303 4.131h-4.524v-.516c0-4.142-3.358-7.5-7.5-7.5s-7.5 3.358-7.5 7.5v8.016c0 28.99-12.825 55.039-33.097 72.78v-40.715c0-17.396-14.152-31.548-31.548-31.548h-64.129c-17.396 0-31.548 14.152-31.548 31.548v40.715c-20.271-17.74-33.097-43.789-33.097-72.78v-8.016c0-4.142-3.358-7.5-7.5-7.5s-7.5 3.358-7.5 7.5v.516h-4.524c-3.536-.001-6.926-1.507-9.302-4.132zm174.15 95.205c-14.292 8.345-30.903 13.135-48.613 13.135s-34.321-4.79-48.613-13.135v-51.51c0-9.125 7.423-16.548 16.548-16.548h64.129c9.125 0 16.548 7.423 16.548 16.548v51.51zm-145.459-27.943c19.312 33.488 55.49 56.078 96.846 56.078s77.534-22.59 96.846-56.078c4.4.335 7.88 4.015 7.88 8.499v10.578c-33.791 47.422-88.309 76.391-146.314 77.694-27.421-18.928-49.24-44.84-63.137-75.025v-13.248c-.001-4.483 3.479-8.163 7.879-8.498zm-7.88 80.644v-27.851c14.451 22.391 33.287 41.79 55.5 56.947 11.39 7.772 23.493 14.297 36.109 19.517h-42.997c-26.804 0-48.612-21.808-48.612-48.613zm160.839 48.613s-.47-.011-.516-.012c-26.133-1.071-51.566-7.656-74.747-19.218 47.815-6.489 92.013-30.31 123.876-66.787v37.404c0 26.805-21.808 48.613-48.613 48.613z"/><path d="m207.903 208.42c-4.142 0-7.5 3.358-7.5 7.5v8.016c0 4.142 3.358 7.5 7.5 7.5s7.5-3.358 7.5-7.5v-8.016c0-4.142-3.358-7.5-7.5-7.5z"/><path d="m304.097 208.42c-4.142 0-7.5 3.358-7.5 7.5v8.016c0 4.142 3.358 7.5 7.5 7.5s7.5-3.358 7.5-7.5v-8.016c0-4.142-3.358-7.5-7.5-7.5z"/><path d="m199.88 200.375c.531 0 1.07-.057 1.61-.175l16.032-3.507c4.046-.885 6.609-4.883 5.724-8.929-.885-4.047-4.882-6.607-8.929-5.724l-16.032 3.507c-4.046.885-6.609 4.883-5.724 8.929.767 3.507 3.871 5.899 7.319 5.899z"/><path d="m294.478 196.694 16.032 3.507c.54.118 1.079.175 1.61.175 3.448 0 6.552-2.393 7.319-5.899.885-4.046-1.678-8.044-5.724-8.929l-16.032-3.507c-4.044-.883-8.044 1.677-8.929 5.724-.885 4.046 1.678 8.044 5.724 8.929z"/><path d="m274.781 266.695c-2.737 2.701-9.299 5.855-18.781 5.855s-16.043-3.154-18.781-5.855c-2.949-2.91-7.698-2.877-10.606.072-2.909 2.948-2.877 7.697.071 10.606 6.459 6.373 17.418 10.177 29.316 10.177s22.856-3.805 29.316-10.177c2.948-2.909 2.98-7.658.071-10.606-2.908-2.95-7.658-2.982-10.606-.072z"/></g></g></svg>