<svg id="Capa_1" enable-background="new 0 0 512 512" height="512" viewBox="0 0 512 512" width="512" xmlns="http://www.w3.org/2000/svg"><g><g><path d="m141.77 207.902c-4.598 27.017-20.062 28.706-20.898 66.981-.44 20.129.418 31.52-10.867 49.532-17.015 27.157-4.634 48.818-4.634 48.818l30.387 11.025h120.242v-176.356z" fill="#6b4f5a"/><path d="m370.23 207.902c4.598 27.017 20.062 28.706 20.898 66.981.44 20.129-.418 31.52 10.867 49.532 17.015 27.157 4.634 48.818 4.634 48.818l-30.387 11.025h-120.242v-176.356z" fill="#87646f"/><path d="m413.862 366.086-101.749-29.925h-112.226l-101.749 29.925c-20.469 6.02-34.526 24.806-34.526 46.143l24.048 92.27h360.727v-92.27c.001-21.337-14.056-40.123-34.525-46.143z" fill="#dcbaed"/><path d="m312.113 336.161h-112.226l-101.748 29.925c-20.47 6.02-34.527 24.806-34.527 46.143v92.27h24.048v-92.27c0-10.592 7.1-20.08 17.261-23.07l52.32-15.393c24.807 26.183 59.837 42.557 98.758 42.557 48.228 0 90.507-25.12 114.727-62.923z" fill="#c8adef"/><path d="m360.21 71.629-28.858-38.478c-12.111-16.147-31.118-25.651-51.303-25.651h-48.097c-20.185 0-39.192 9.504-51.303 25.652l-28.859 38.477 16.032 16.032h176.355z" fill="#f9d8af"/><path d="m223.935 31.547v-23.516c-17.124 2.158-32.796 11.133-43.287 25.121l-28.858 38.477 16.032 16.032h176.355l16.032-16.032-17.556-24.05h-102.685c-8.855.001-16.033-7.177-16.033-16.032z" fill="#f2c59a"/><path d="m372.234 175.837h-12.024v-64.128h-208.42v64.128h-12.024c-11.068 0-20.04 8.972-20.04 20.04s8.972 20.04 20.04 20.04h12.429c4.106 53.795 48.958 96.194 103.805 96.194s99.699-42.398 103.805-96.194h12.429c11.068 0 20.04-8.973 20.04-20.04.001-11.068-8.972-20.04-20.04-20.04z" fill="#e0916d"/><path d="m183.855 255.999v-80.161c0-13.282 10.767-24.048 24.048-24.048h152.307v-40.081h-208.42v64.128h-10.881c-10.483 0-20.035 7.542-21.08 17.973-1.201 11.996 8.186 22.108 19.936 22.108h12.429z" fill="#c7805d"/><path d="m127.742 127.741v52.194c3.357-2.537 7.491-4.099 12.024-4.099h12.024c8.854 0 16.032-7.178 16.032-16.032v-32.063z" fill="#61444f"/><path d="m384.258 127.741v52.194c-3.357-2.537-7.491-4.099-12.024-4.099h-12.024c-8.854 0-16.032-7.178-16.032-16.032v-32.063z" fill="#6b4f5a"/><path d="m360.21 71.629-208.42-.001c-13.282 0-24.048 10.767-24.048 24.048v56.112c0-13.282 10.767-24.048 24.048-24.048l208.42.001c13.281 0 24.047 10.766 24.048 24.047v-56.111c0-13.281-10.766-24.048-24.048-24.048z" fill="#fbe7c3"/><path d="m159.806 71.628h-8.016c-13.282 0-24.048 10.767-24.048 24.048v56.112c0-13.282 10.767-24.048 24.048-24.048h8.016z" fill="#f9d8af"/><g><path d="m280.048 247.983-23.65-8.652-24.447 8.652-80.161-26.72v58.785c0 57.553 46.656 104.21 104.21 104.21s104.21-46.656 104.21-104.21v-53.927z" fill="#6b4f5a"/></g><g fill="#61444f"><path d="m199.887 250.964 26.81 6.289c12.931 3.033 25.872-4.99 28.905-17.921l.398-1.698-26.81-6.289c-12.931-3.033-25.872 4.99-28.905 17.921z"/><path d="m312.113 250.964-26.81 6.289c-12.931 3.033-25.872-4.99-28.905-17.921l-.398-1.699 26.81-6.289c12.931-3.033 25.872 4.99 28.905 17.921z"/><path d="m183.855 280.048v-48.135l-32.065-7.978v56.113c0 57.553 46.656 104.21 104.21 104.21 5.467 0 10.793-.547 16.032-1.359-49.921-7.729-88.177-50.764-88.177-102.851z"/></g></g><g><path d="m200.403 183.853v8.016c0 4.142 3.358 7.5 7.5 7.5s7.5-3.358 7.5-7.5v-8.016c0-4.142-3.358-7.5-7.5-7.5s-7.5 3.358-7.5 7.5z"/><path d="m311.597 191.869v-8.016c0-4.142-3.358-7.5-7.5-7.5s-7.5 3.358-7.5 7.5v8.016c0 4.142 3.358 7.5 7.5 7.5s7.5-3.358 7.5-7.5z"/><path d="m416.269 358.983c3.006-8.937 5.097-25.087-8.195-43.474-8.925-12.347-9.068-19.676-9.352-34.279-.028-1.429-.057-2.908-.095-4.444-.541-21.448-6.905-31.408-12.521-40.194-2.906-4.548-5.497-8.614-7.269-14.216 11.079-3.029 19.663-12.351 20.798-23.684.778-7.771-1.765-15.531-6.975-21.289-.293-.323-.594-.636-.901-.944v-80.781c0-16.061-12.066-29.347-27.607-31.294l-26.799-35.732c-13.457-17.941-34.878-28.652-57.305-28.652h-48.097c-22.426 0-43.848 10.711-57.303 28.652l-26.798 35.731c-15.542 1.946-27.608 15.233-27.608 31.294v81.165c-4.341 4.313-7.248 9.958-7.875 16.22-.779 7.771 1.763 15.531 6.973 21.289 3.692 4.08 8.504 6.92 13.756 8.235-1.77 5.494-4.332 9.515-7.201 14.005-5.616 8.787-11.98 18.746-12.521 40.194-.039 1.537-.067 3.015-.095 4.444-.284 14.603-.427 21.932-9.352 34.279-13.292 18.388-11.202 34.538-8.195 43.474-23.342 7.007-39.619 28.854-39.619 53.246v92.27c0 4.142 3.358 7.5 7.5 7.5s7.5-3.358 7.5-7.5v-92.27c0-6.627 1.649-12.995 4.593-18.646l35.958 30.821c5.452 4.673 8.578 11.471 8.578 18.651v61.446c0 4.142 3.358 7.5 7.5 7.5s7.5-3.358 7.5-7.5v-61.445c0-11.564-5.036-22.514-13.816-30.04l-36.468-31.258c4.342-3.834 9.525-6.778 15.297-8.475l37.81-11.097c26.981 38.661 70.792 61.638 117.936 61.638 21.155 0 41.548-4.511 60.613-13.408 3.753-1.752 5.376-6.215 3.625-9.968-1.752-3.753-6.214-5.375-9.968-3.625-17.063 7.963-35.322 12.001-54.269 12.001-40.528 0-78.316-18.964-102.663-51.121l17.711-5.198c20.505 24.006 50.979 39.254 84.952 39.254 33.986 0 64.47-15.26 84.976-39.282l17.691 5.201c-6.338 8.366-13.658 15.936-21.864 22.567-3.222 2.604-3.723 7.326-1.12 10.547 1.482 1.834 3.65 2.787 5.838 2.787 1.655 0 3.322-.546 4.709-1.667 10.624-8.586 19.922-18.58 27.713-29.743l37.801 11.113c5.773 1.698 10.956 4.641 15.297 8.475l-36.468 31.258c-8.781 7.526-13.816 18.476-13.816 30.04v61.446c0 4.142 3.358 7.5 7.5 7.5s7.5-3.358 7.5-7.5v-61.445c0-7.18 3.126-13.979 8.578-18.651l35.958-30.821c2.944 5.651 4.593 12.019 4.593 18.646v92.27c0 4.142 3.358 7.5 7.5 7.5s7.5-3.358 7.5-7.5v-92.27c0-24.392-16.278-46.24-39.619-53.246zm-120.705-238.743v-41.111h17.064v41.112zm-32.064 0v-41.112h17.064v41.112zm-32.065 0v-41.112h17.065v41.112zm-32.064 0v-41.112h17.064v41.112zm-32.065 0v-41.112h17.064v41.112zm160.323-41.111h17.064v41.112h-17.064zm24.049 56.112h8.532c9.125 0 16.548 7.423 16.548 16.548v16.928c-1.486-.249-2.998-.381-4.524-.381h-12.024c-4.705 0-8.532-3.828-8.532-8.532zm25.08-39.563v29.266c-4.814-2.979-10.483-4.703-16.548-4.703h-.517v-41.112h.517c9.125 0 16.548 7.424 16.548 16.549zm-190.11-58.026c10.638-14.184 27.574-22.652 45.304-22.652h48.097c17.73 0 34.666 8.468 45.304 22.652l19.858 26.477-178.419-.001zm-34.877 41.477c.004 0 .008.001.013.001.011 0 .023-.002.034-.002h.488v41.112h-.516c-6.065 0-11.734 1.725-16.548 4.703v-29.266c0-9.119 7.413-16.538 16.529-16.548zm-16.529 72.659c0-9.125 7.423-16.548 16.548-16.548h8.532v24.564c0 4.705-3.828 8.532-8.532 8.532h-10.88c-1.933 0-3.828.195-5.668.557zm-25.155 202.966c-1.943-5.366-3.93-16.727 5.996-30.457 11.675-16.151 11.893-27.318 12.193-42.775.027-1.401.055-2.851.093-4.358.435-17.27 4.944-24.325 10.165-32.495 1.902-2.976 3.924-6.149 5.756-9.883v45.263c0 21.886 6.332 42.318 17.252 59.572zm145.913 22.004c-53.326 0-96.71-43.384-96.71-96.71v-45.294c4.814 2.978 10.483 4.698 16.548 4.698 4.142 0 7.5-3.358 7.5-7.5s-3.358-7.5-7.5-7.5c-9.125 0-16.548-7.424-16.548-16.549 0-4.142-3.358-7.5-7.5-7.5s-7.5 3.358-7.5 7.5v.515h-4.524c-3.537 0-6.927-1.506-9.303-4.131-2.407-2.66-3.533-6.115-3.17-9.73.63-6.292 6.611-11.22 13.617-11.22h10.88c12.976 0 23.532-10.557 23.532-23.532v-24.565l161.355.001v24.564c0 12.976 10.557 23.532 23.532 23.532h12.024c3.537 0 6.927 1.505 9.303 4.13 2.407 2.66 3.533 6.115 3.171 9.73-.63 6.292-6.611 11.221-13.617 11.221h-3.381v-.515c0-4.142-3.358-7.5-7.5-7.5s-7.5 3.358-7.5 7.5c0 9.125-7.423 16.549-16.548 16.549-4.142 0-7.5 3.358-7.5 7.5s3.358 7.5 7.5 7.5c6.065 0 11.734-1.72 16.548-4.698v45.294c.001 53.326-43.383 96.71-96.709 96.71zm111.71-96.71v-45.263c1.832 3.734 3.854 6.907 5.756 9.883 5.221 8.169 9.73 15.225 10.165 32.495.038 1.507.066 2.957.093 4.358.3 15.457.518 26.625 12.193 42.775 9.888 13.679 7.911 25.065 5.978 30.452l-51.436-15.129c10.919-17.253 17.251-37.685 17.251-59.571z"/><path d="m199.882 171.648c.649 0 1.309-.085 1.965-.263l16.033-4.342c3.999-1.083 6.362-5.202 5.279-9.2-1.083-3.999-5.205-6.364-9.2-5.279l-16.033 4.342c-3.999 1.083-6.362 5.202-5.279 9.2.906 3.343 3.932 5.542 7.235 5.542z"/><path d="m314.074 156.907-16.033-4.342c-4-1.085-8.117 1.28-9.2 5.279-1.083 3.998 1.28 8.117 5.279 9.2l16.033 4.342c.656.178 1.316.263 1.965.263 3.304 0 6.33-2.2 7.235-5.542 1.083-3.998-1.281-8.117-5.279-9.2z"/><path d="m319.017 247.552c-1.924-8.204-6.929-15.168-14.091-19.608-7.163-4.44-15.626-5.826-23.829-3.901l-25.097 5.887-25.097-5.887c-8.203-1.923-16.666-.539-23.829 3.901-7.162 4.44-12.167 11.404-14.091 19.608l-.398 1.698c-.454 1.937-.121 3.974.927 5.665s2.725 2.896 4.662 3.35l26.81 6.289c2.413.566 4.847.846 7.265.846 5.804 0 11.508-1.612 16.564-4.747 2.726-1.69 5.137-3.748 7.187-6.099 2.05 2.351 4.461 4.408 7.187 6.099 5.057 3.135 10.76 4.747 16.564 4.747 2.417 0 4.853-.28 7.265-.846l26.81-6.289c1.937-.454 3.613-1.659 4.662-3.35 1.048-1.69 1.381-3.728.927-5.665zm-90.607 2.399-18.503-4.34c3.719-5.595 10.657-8.586 17.571-6.964l18.503 4.34c-3.719 5.594-10.656 8.586-17.571 6.964zm55.18 0c-6.916 1.623-13.852-1.37-17.571-6.964l18.503-4.34c6.914-1.622 13.852 1.37 17.571 6.964z"/></g></g></svg>