<svg id="Capa_1" enable-background="new 0 0 512 512" height="512" viewBox="0 0 512 512" width="512" xmlns="http://www.w3.org/2000/svg"><g><g><path d="m360.212 191.871 101.95 143.993c17.872 25.324 11.836 60.332-13.484 78.204-4.257 3.006-19.66 8.595-24.337 10.271l-160.323-80.161z" fill="#87646f"/><path d="m151.793 191.871-101.95 143.993c-17.872 25.324-11.836 60.332 13.484 78.204 4.257 3.006 19.66 8.595 24.337 10.271l160.323-80.161z" fill="#61444f"/><path d="m135.761 103.694 8.015 91.339h112.227v-91.339z" fill="#61444f"/><path d="m376.244 103.694-8.015 91.339h-112.226v-91.339z" fill="#87646f"/><path d="m405.848 398.152-72.595-21.352c-32.228 19.832-77.25 47.539-77.25 47.539l-77.25-47.539-72.595 21.352c-20.469 6.02-34.526 24.806-34.526 46.143l24.048 60.205h344.693v-60.206c0-21.336-14.056-40.122-34.525-46.142z" fill="#b0def5"/><path d="m178.752 376.8-72.595 21.352c-20.469 6.02-34.526 24.806-34.526 46.143v60.205h24.049v-60.207c0-10.592 7.1-20.079 17.261-23.07l93.371-27.462z" fill="#76d4ec"/><g fill="#76d4ec"><path d="m127.93 391.748.004-.001-.002-.001z"/><path d="m368.781 340.677c-5.085-16.954-20.69-28.564-38.391-28.564h-148.588c-17.7 0-33.305 11.61-38.391 28.563l-15.306 51.02-.171.05 122.436 46.509c3.631 1.364 7.634 1.365 11.266.002l122.625-45.984z"/></g><path d="m312.85 312.113h-113.507c-23.793 0-33.137 30.859-13.34 44.058l65.218 48.574c2.838 2.114 6.727 2.116 9.568.006l65.401-48.58c19.797-13.199 10.454-44.058-13.34-44.058z" fill="#4fc0ec"/><path d="m260.789 404.751 50.434-37.462c-4.441-4.41-7.123-10.485-7.123-17.057v-46.135h-96.194v46.135c0 6.541-2.662 12.586-7.065 16.991l50.38 37.523c2.838 2.113 6.727 2.115 9.568.005z" fill="#e0916d"/><path d="m304.099 334.648v-30.551h-96.194v46.135c0 6.541-2.662 12.586-7.065 16.991l19.262 14.347c7.615-8.805 11.851-19.886 11.851-31.336 0-4.009 3.212-7.149 7.313-7.149.339 0 .681.022 1.026.067 5.239.682 10.524 1.027 15.709 1.027 16.594-.002 32.735-3.29 48.098-9.531z" fill="#c2805d"/><path d="m371.093 183.855h-18.897c-8.854 0-16.032-7.178-16.032-16.032v-64.129h-160.323v64.129c0 8.854-7.178 16.032-16.032 16.032h-18.897c-10.483 0-20.035 7.542-21.08 17.973-1.201 11.996 8.187 22.108 19.936 22.108h12.429c4.106 53.795 48.957 96.193 103.805 96.193s99.699-42.398 103.805-96.193h12.429c11.75 0 21.138-10.112 19.936-22.108-1.044-10.431-10.596-17.973-21.079-17.973z" fill="#f1a673"/><path d="m225.958 239.968c-5.58 0-9.797 5.699-7.521 10.793 5.539 12.399 20.351 21.272 37.753 21.272s32.214-8.873 37.753-21.272c2.276-5.094-1.942-10.793-7.521-10.793z" fill="#fff"/><path d="m197.038 156.545c5.923-1.791 11.539-4.321 16.753-7.544 12.92 7.084 27.405 10.805 42.211 10.805 14.799 0 29.282-3.719 42.198-10.798 11.46 7.08 24.479 10.798 37.963 10.798v-56.113h-160.322v64.129c0 8.854-7.178 16.032-16.032 16.032h-18.897c-10.482 0-20.034 7.542-21.08 17.973-1.202 11.996 8.186 22.108 19.937 22.108h12.429c4.106 53.795 48.958 96.193 103.805 96.193 12.837 0 25.09-2.402 36.439-6.65l-17.113-2.884c-48.357-8.151-83.455-49.653-83.455-98.684v-47.88c0-3.487 2.123-6.565 5.164-7.485z" fill="#e0916d"/><path d="m345.587 40.478c-7.151-1.385-14.064-1.146-20.479.382-6.308 1.503-12.956-.771-16.685-6.076-11.593-16.491-30.728-27.284-52.42-27.284s-40.828 10.793-52.42 27.285c-3.729 5.305-10.377 7.579-16.685 6.076-6.416-1.528-13.329-1.767-20.479-.382-20.283 3.929-36.115 21.194-38.373 41.731-3.19 29.005 19.437 53.549 47.796 53.549 10.538 0 20.275-3.397 28.194-9.15 5.252-3.815 12.279-4.277 17.759-.796 9.895 6.286 21.614 9.946 34.209 9.946 12.594 0 24.313-3.66 34.209-9.946 5.479-3.481 12.506-3.019 17.759.796 7.919 5.752 17.656 9.15 28.194 9.15 28.359 0 50.986-24.544 47.796-53.549-2.26-20.538-18.092-37.803-38.375-41.732z" fill="#6b4f5a"/></g><g><path d="m468.29 331.539-76.61-108.53c4.385-4.323 7.323-9.998 7.954-16.299.778-7.771-1.763-15.53-6.973-21.288-4.224-4.669-9.914-7.723-16.052-8.714l6.981-60.08c6.361-10.443 9.189-22.836 7.825-35.239-2.625-23.868-20.884-43.718-44.402-48.274-7.961-1.542-15.916-1.39-23.643.45-3.452.822-6.913-.392-8.812-3.093-13.411-19.081-35.301-30.472-58.555-30.472s-45.144 11.391-58.556 30.472c-1.899 2.701-5.358 3.915-8.812 3.093-7.726-1.84-15.68-1.992-23.644-.45-23.519 4.556-41.777 24.406-44.402 48.274-1.364 12.401 1.463 24.793 7.823 35.236l7.002 60.251c-12.149 2.315-21.835 12.117-23.046 24.204-.779 7.771 1.762 15.531 6.972 21.289.267.295.543.579.822.861l-76.452 108.31c-20.226 28.66-13.368 68.431 15.286 88.655 2.721 1.922 5.581 3.615 8.546 5.082-2.206 5.991-3.41 12.408-3.41 19.016v60.206c0 4.143 3.358 7.5 7.5 7.5s7.5-3.357 7.5-7.5v-60.206c0-17.885 11.983-33.9 29.142-38.947l18.582-5.465 57.707 21.672v82.947c0 4.143 3.358 7.5 7.5 7.5s7.5-3.357 7.5-7.5v-77.314l53.804 20.206c.85.319 1.743.479 2.637.479.892 0 1.785-.159 2.633-.478l53.996-20.249v77.356c0 4.143 3.358 7.5 7.5 7.5s7.5-3.357 7.5-7.5v-82.98l57.623-21.609 18.478 5.435c17.158 5.047 29.142 21.062 29.142 38.947v60.206c0 4.143 3.358 7.5 7.5 7.5s7.5-3.357 7.5-7.5v-60.206c0-6.609-1.204-13.027-3.411-19.018 2.963-1.467 5.821-3.159 8.54-5.079 28.653-20.226 35.511-59.997 15.285-88.657zm-116.095-155.184c-4.705 0-8.532-3.828-8.532-8.532v-25.094c8.141-1.112 15.922-4 22.775-8.446l-4.889 42.071h-9.354zm-216.695-93.327c1.914-17.399 15.214-31.869 32.344-35.187 5.854-1.133 11.679-1.027 17.316.315 9.464 2.254 19.105-1.301 24.559-9.059 10.606-15.089 27.908-24.097 46.284-24.097s35.678 9.008 46.284 24.098c5.454 7.758 15.093 11.312 24.559 9.059 5.637-1.343 11.463-1.449 17.315-.315 17.131 3.318 30.431 17.787 32.345 35.187 1.292 11.744-2.294 23.006-10.095 31.713-7.697 8.59-18.722 13.517-30.246 13.517-8.61 0-16.835-2.669-23.786-7.718-4.216-3.063-9.112-4.608-13.98-4.608-4.248 0-8.474 1.177-12.208 3.549-9.039 5.742-19.478 8.777-30.188 8.777s-21.148-3.035-30.187-8.777c-8.015-5.092-18.294-4.675-26.188 1.059-6.951 5.049-15.176 7.718-23.786 7.718-11.524 0-22.549-4.927-30.246-13.517-7.802-8.707-11.387-19.97-10.096-31.714zm14.956 93.327-4.89-42.072c6.852 4.446 14.634 7.333 22.774 8.446v25.093c0 4.705-3.828 8.533-8.532 8.533zm-23.161 26.221c.631-6.292 6.613-11.221 13.62-11.221h18.894c12.976 0 23.532-10.557 23.532-23.533v-25.075c9.049-1.218 17.615-4.632 25.103-10.071 2.882-2.094 6.544-2.304 9.33-.534 11.447 7.272 24.667 11.116 38.23 11.116s26.783-3.844 38.231-11.116c2.785-1.77 6.446-1.56 9.329.534 7.487 5.439 16.053 8.853 25.101 10.071v25.075c0 12.976 10.557 23.532 23.532 23.532h20.041c3.537 0 6.927 1.505 9.303 4.13 2.406 2.66 3.532 6.115 3.17 9.729-.63 6.292-6.611 11.221-13.618 11.221h-3.383v-.439c0-4.141-3.356-7.499-7.497-7.5-.001 0-.002 0-.003 0-4.14 0-7.497 3.354-7.5 7.495-.039 53.286-43.421 96.638-96.706 96.638-53.326 0-96.71-43.384-96.71-96.709 0-4.142-3.358-7.5-7.5-7.5s-7.5 3.358-7.5 7.5v.516h-4.524c-3.537 0-6.928-1.506-9.303-4.131-2.408-2.659-3.534-6.115-3.172-9.728zm201.394 128.79c1.72 5.682.875 13.542-6.659 18.565-.106.07-.21.144-.312.219l-8.807 6.542c-.862-2.027-1.312-4.211-1.312-6.461v-30.618h1.251c9.054 0 14.118 6.071 15.839 11.753zm-138.206 18.79c-.104-.078-.211-.153-.32-.225-7.533-5.022-8.379-12.883-6.659-18.565s6.785-11.753 15.838-11.753h1.063v30.618c0 2.216-.433 4.369-1.27 6.37zm-68.393 35.491-18.05 5.309c-12.146 3.572-22.39 11.165-29.462 21.044-2.404-1.164-4.73-2.504-6.932-4.059-21.898-15.456-27.138-45.85-11.682-67.751l77.322-109.54c2.106.512 4.279.786 6.481.786h5.598c4.147 29.715 20.027 55.722 42.793 73.177h-6.357c-21.175 0-39.489 13.627-45.574 33.908zm133.915 46.713-118.875-44.643 13.466-44.885c3.138-10.461 11.03-18.331 20.929-21.581-.947 1.811-1.758 3.728-2.376 5.768-4.101 13.545.814 27.369 12.522 35.277l69.852 52.026c1.329.99 2.904 1.485 4.48 1.485 1.572 0 3.145-.493 4.472-1.479l17.588-13.065c3.325-2.47 4.019-7.167 1.548-10.493-2.47-3.325-7.168-4.019-10.493-1.548l-13.11 9.738-44.672-33.272c2.657-4.706 4.069-9.976 4.069-15.457v-30.241c12.589 4.928 26.281 7.639 40.596 7.639 14.314 0 28.006-2.713 40.597-7.645v30.246c0 5.508 1.426 10.802 4.108 15.526l-6.011 4.465c-3.325 2.47-4.019 7.168-1.549 10.493 1.472 1.981 3.735 3.028 6.027 3.028 1.555 0 3.123-.481 4.466-1.479l26.877-19.964c11.712-7.908 16.628-21.733 12.526-35.28-.618-2.04-1.429-3.957-2.376-5.768 9.899 3.25 17.791 11.12 20.929 21.581l13.464 44.882zm188.347-24.419c-2.2 1.554-4.524 2.893-6.926 4.057-7.071-9.878-17.315-17.471-29.461-21.043l-17.844-5.248-14.156-47.186c-6.084-20.281-24.399-33.908-45.574-33.908h-6.562c22.768-17.456 38.654-43.466 42.804-73.177h4.457.001c2.578 0 5.088-.344 7.487-.977l77.456 109.729c15.458 21.903 10.218 52.296-11.682 67.753z"/><path d="m215.406 199.886v-8.016c0-4.142-3.358-7.5-7.5-7.5s-7.5 3.358-7.5 7.5v8.016c0 4.142 3.358 7.5 7.5 7.5s7.5-3.358 7.5-7.5z"/><path d="m304.099 184.37c-4.142 0-7.5 3.358-7.5 7.5v8.016c0 4.142 3.358 7.5 7.5 7.5s7.5-3.358 7.5-7.5v-8.016c0-4.142-3.358-7.5-7.5-7.5z"/><path d="m199.887 175.323c.714 0 1.441-.103 2.16-.319l16.032-4.815c3.967-1.191 6.217-5.373 5.026-9.34s-5.374-6.216-9.34-5.026l-16.032 4.815c-3.967 1.191-6.217 5.374-5.026 9.34.975 3.249 3.954 5.345 7.18 5.345z"/><path d="m293.926 170.189 16.032 4.815c.719.216 1.446.319 2.16.319 3.225 0 6.205-2.097 7.18-5.345 1.191-3.967-1.059-8.149-5.026-9.34l-16.032-4.815c-3.969-1.192-8.149 1.059-9.34 5.026s1.059 8.149 5.026 9.34z"/><path d="m208.61 239.968c0 21.816 21.345 39.564 47.581 39.564s47.581-17.749 47.581-39.564c0-4.142-3.358-7.5-7.5-7.5h-80.162c-4.142 0-7.5 3.358-7.5 7.5zm78.608 7.5c-4.214 9.889-16.53 17.064-31.028 17.064s-26.814-7.176-31.028-17.064z"/></g></g></svg>