<svg id="Capa_1" enable-background="new 0 0 512 512" height="512" viewBox="0 0 512 512" width="512" xmlns="http://www.w3.org/2000/svg"><g><g><path d="m358.295 202.805-42.475 88.01c33.971 25.223 76.454 21.288 76.454 21.288s-33.979-33.631-33.979-109.298z" fill="#6b4f5a"/><path d="m129.527 185.394c3.482 70.513-33.85 102.67-33.85 102.67s45.167 25.297 86.952-12.135l-23.504-107.945z" fill="#61444f"/><path d="m409.54 388.432-73.378-28.222-80.162 32.064-80.161-32.065-73.378 28.222c-18.575 7.144-30.831 24.99-30.831 44.891l24.047 71.178h344.694v-71.177c0-19.901-12.257-37.747-30.831-44.891z" fill="#c8adef"/><path d="m111.647 411.665 102.945-35.953-38.754-15.502-73.378 28.222c-18.574 7.144-30.832 24.99-30.832 44.891v71.177h24.048v-70.18c.001-10.177 6.452-19.293 15.971-22.655z" fill="#ba91d9"/><path d="m207.903 280.048h96.194v128.258h-96.194z" fill="#f1a673"/><path d="m242.186 335.418c.287 0 .576.016.868.046 4.32.462 8.676.697 12.946.697 16.593 0 32.734-3.288 48.097-9.53v-46.583h-96.194v128.258h26.397v-64.918c0-4.394 3.537-7.97 7.886-7.97z" fill="#df976c"/><path d="m256 312.113c-57.554 0-104.21-46.656-104.21-104.21v-128.258h208.42v128.258c0 57.554-46.657 104.21-104.21 104.21z" fill="#f8ba7e"/><path d="m151.79 207.903c0 57.553 46.656 104.21 104.21 104.21 12.572 0 24.57-2.341 35.73-6.421l-18.472-2.86c-47.158-7.302-81.387-47.225-81.387-94.929v-15.258c0-5.43 1.927-10.806 5.426-15.139 7.076-8.762 13.108-18.46 17.93-28.827l6.895-14.827 6.05-13.01 3.167-6.809-6.587-3.604-56.262-30.784h-16.7z" fill="#f1a673"/><path d="m258.603 7.524c-45.077-.844-86.352 20.823-111.767 54.909l-1.64 29.814 25.84 5.554c19.705 25.3 50.402 41.592 84.963 41.592 12.075 0 23.649-2.051 34.476-5.719 23.632 21.374 53.89 39.627 92.173 48.249 4.944 1.113 9.626-2.807 9.626-7.875v-30.275c0-74.391-59.61-134.861-133.671-136.249z" fill="#6b4f5a"/><path d="m256 7.5c-2.845 0-5.625.254-8.427.426 10.773 29.831 50.404 119.332 144.701 144.152v-8.304c0-75.262-61.012-136.274-136.274-136.274z" fill="#87646f"/><path d="m239.968 392.274v88.177c0 4.427 3.589 8.016 8.016 8.016h16.032c4.427 0 8.016-3.589 8.016-8.016v-88.177z" fill="#ba91d9"/><path d="m205.555 341.83 50.445 50.444-39.948 33.29c-4.087 3.406-10.296 1.959-12.457-2.903l-27.756-62.452 18.38-18.38c3.13-3.13 8.206-3.13 11.336.001z" fill="#dcbaed"/><path d="m317.781 341.829c-3.13-3.13-8.206-3.13-11.336 0l-50.445 50.445 39.948 33.29c4.086 3.406 10.296 1.959 12.457-2.902l27.757-62.452z" fill="#dcbaed"/><g><path d="m171.036 97.801-24.199-35.368c-16.982 22.7-27.111 50.808-27.111 81.34v54.197c1.156-.006 2.309.025 3.491-.239 7.595-1.699 14.564-4.29 20.87-7.369 22.01-10.747 39.005-29.615 49.334-51.824l6.895-14.826c-11.25-6.835-21.221-15.563-29.28-25.911z" fill="#61444f"/></g></g><g><path d="m200.403 184.552v8.016c0 4.142 3.358 7.5 7.5 7.5s7.5-3.358 7.5-7.5v-8.016c0-4.142-3.358-7.5-7.5-7.5s-7.5 3.358-7.5 7.5z"/><path d="m296.597 184.552v8.016c0 4.142 3.358 7.5 7.5 7.5s7.5-3.358 7.5-7.5v-8.016c0-4.142-3.358-7.5-7.5-7.5s-7.5 3.358-7.5 7.5z"/><path d="m274.781 235.326c-2.737 2.701-9.299 5.855-18.781 5.855s-16.043-3.154-18.781-5.855c-2.949-2.91-7.698-2.877-10.606.072-2.909 2.948-2.877 7.697.071 10.606 6.459 6.373 17.418 10.177 29.316 10.177s22.856-3.805 29.316-10.177c2.948-2.909 2.98-7.658.071-10.606-2.908-2.95-7.658-2.982-10.606-.072z"/><path d="m410.778 381.893-67.441-23.803c-.347-1.176-.967-2.278-1.873-3.184l-18.38-18.38c-3.156-3.156-7.344-4.65-11.488-4.513v-27.257c2.494-1.437 4.931-2.962 7.299-4.581 25.364 17.436 54.038 19.663 67.045 19.663 4.084 0 6.626-.22 7.032-.258 2.882-.27 5.339-2.186 6.333-4.904.994-2.719.322-5.778-1.706-7.843-.075-.076-7.556-7.788-14.937-23.736-6.826-14.748-14.962-39.764-14.962-75.193 0-4.142-3.358-7.5-7.5-7.5s-7.5 3.358-7.5 7.5c0 53.326-43.384 96.709-96.709 96.709s-96.709-43.384-96.709-96.709v-15.998c21.034-13.482 31.817-31.038 32.544-32.25 2.131-3.552.979-8.159-2.572-10.29-3.553-2.132-8.159-.979-10.29 2.572-.209.347-17.71 28.874-51.739 37.832v-45.995c0-54.996 34.659-102.042 83.278-120.465 4.001 11.959 14.946 40.748 36.324 71.628 9.146 13.212 19.124 25.202 29.848 35.915-54.694 11.445-87.684-19.448-102.853-39.674-2.486-3.314-7.186-3.985-10.5-1.5-3.313 2.485-3.985 7.187-1.5 10.5 14.03 18.706 31.773 32.725 51.311 40.541 12.755 5.102 26.229 7.654 40.31 7.654 11.739 0 23.901-1.779 36.414-5.33 29.384 25.173 63.578 41.575 101.114 48.199.441.078.879.116 1.312.116 3.571 0 6.735-2.56 7.377-6.198.077-.438.107-.873.108-1.303h.006v-40.081c0-79.28-64.497-143.777-143.774-143.777s-143.774 64.497-143.774 143.774v48.452c-2.691.186-5.459.25-8.31.165-4.174-.129-7.596 3.134-7.719 7.274s3.134 7.596 7.274 7.719c1.038.031 2.056.046 3.075.046 14.425 0 26.995-3.047 37.737-7.598v8.072c0 25.883 8.851 49.736 23.681 68.698-23.375 16.848-46.091 13.42-58.588 9.283 10.403-10.411 25.865-29.924 25.865-53.932 0-4.142-3.358-7.5-7.5-7.5s-7.5 3.358-7.5 7.5c0 27.842-28.784 49.9-29.064 50.113-1.998 1.498-3.119 3.893-2.99 6.386.129 2.494 1.49 4.76 3.631 6.045.464.278 11.539 6.835 27.918 9.019 3.171.423 6.677.695 10.45.695 13.608 0 30.67-3.554 47.844-16.385 2.065 2.015 4.205 3.951 6.42 5.803-14.245 20.091-34.711 27.291-35.052 27.408-3.917 1.317-6.032 5.557-4.724 9.48 1.048 3.143 3.974 5.13 7.114 5.13.786 0 1.586-.125 2.373-.387 1.05-.35 25.213-8.626 42.417-32.8 1.259.794 2.532 1.57 3.824 2.314v27.24c-4.144-.137-8.332 1.357-11.488 4.513l-18.38 18.38c-.906.906-1.526 2.008-1.873 3.184l-67.441 23.803c-22.187 7.83-37.093 28.899-37.093 52.427v70.179c0 4.142 3.358 7.5 7.5 7.5s7.5-3.358 7.5-7.5v-70.181c0-4.992.925-9.83 2.626-14.326l37.927 32.507c5.452 4.673 8.578 11.471 8.578 18.651v33.349c0 4.142 3.358 7.5 7.5 7.5s7.5-3.358 7.5-7.5v-33.349c0-11.564-5.036-22.513-13.816-30.04l-39.755-34.075c4.423-4.876 10.048-8.712 16.528-10.999l66.854-23.596 23.674 53.266c1.993 4.485 5.878 7.696 10.658 8.81 1.188.277 2.384.413 3.568.413 3.58 0 7.053-1.244 9.886-3.604l35.145-29.289 8.532 7.11v71.304c0 .285-.231.516-.516.516h-16.032c-.285 0-.516-.231-.516-.516v-32.064c0-4.142-3.358-7.5-7.5-7.5s-7.5 3.358-7.5 7.5v32.064c0 8.556 6.96 15.516 15.516 15.516h16.032c8.556 0 15.516-6.96 15.516-15.516v-58.804l11.614 9.678c2.833 2.361 6.306 3.605 9.886 3.605 1.184 0 2.38-.136 3.568-.413 4.78-1.114 8.665-4.325 10.659-8.81l23.674-53.266 66.854 23.596c6.479 2.287 12.105 6.123 16.528 10.999l-39.755 34.075c-8.781 7.526-13.816 18.475-13.816 30.04v33.349c0 4.142 3.358 7.5 7.5 7.5s7.5-3.358 7.5-7.5v-33.349c0-7.18 3.126-13.978 8.578-18.651l37.925-32.507c1.701 4.496 2.626 9.334 2.626 14.326v70.181c0 4.142 3.358 7.5 7.5 7.5s7.5-3.358 7.5-7.5v-70.181c-.002-23.527-14.909-44.596-37.095-52.426zm-53.287-127.344c5.065 23.227 13.2 39.648 19.649 49.874-11.968-.977-29.586-4.217-45.836-14.084 10.947-10.009 19.9-22.162 26.187-35.79zm-98.053-167.75c-20.19-29.05-30.774-56.712-34.597-67.979 5.52-1.377 11.179-2.396 16.953-3.032 4.288 12.347 15.199 39.687 35.646 67.313 28.716 38.802 64.806 63.692 107.335 74.079v17.512c-26.449-5.899-50.927-17.017-72.861-33.149-19.586-14.406-37.241-32.824-52.476-54.744zm125.31 54.891c-37.495-10.056-69.506-32.726-95.251-67.513-17.248-23.305-27.258-46.312-32.041-59.159 69.642.777 126.182 57.109 127.292 126.672zm-128.756 177.923c14.318 0 28.012-2.718 40.604-7.649v29.107l-40.596 40.597-40.597-40.597v-29.093c12.587 4.926 26.278 7.635 40.589 7.635zm-44.741 100.189c-.06.049-.199.163-.448.106-.25-.059-.323-.223-.354-.293l-25.664-57.745 14.737-14.738c.201-.201.529-.202.73 0l44.637 44.638zm90.3-.186c-.031.07-.104.234-.354.293-.249.058-.388-.057-.447-.106l-33.639-28.032 44.637-44.638c.201-.202.529-.201.73 0l14.737 14.738z"/></g></g></svg>