<svg id="Capa_1" enable-background="new 0 0 512.001 512.001" height="512" viewBox="0 0 512.001 512.001" width="512" xmlns="http://www.w3.org/2000/svg"><g><g><path d="m199.888 256h112.226v96.194h-112.226z" fill="#f1a673"/><path d="m231.952 312.113h40.081c13.808 0 27.256-2.61 40.081-7.542v-48.571h-112.226v96.194h24.048v-32.065c0-4.42 3.596-8.016 8.016-8.016z" fill="#df976c"/><path d="m256.001 336.161c-18.213 0-35.6-3.362-51.79-9.226l51.79 177.564 51.79-177.564c-16.19 5.864-33.577 9.226-51.79 9.226z" fill="#9b929b"/><path d="m376.243 152.194v-24.453c0-66.407-53.834-120.241-120.242-120.241s-120.242 53.834-120.242 120.242v24.453c-9.147 1.857-16.032 9.941-16.032 19.636 0 11.068 8.972 20.04 20.04 20.04h12.024c0 13.282 10.767 24.048 24.048 24.048h160.323c13.282 0 24.048-10.767 24.048-24.048h12.024c11.068 0 20.04-8.973 20.04-20.04.001-9.696-6.884-17.779-16.031-19.637z" fill="#f8ba7e"/><path d="m191.872 26.152c-33.681 21.308-56.113 58.787-56.113 101.59v24.453c-9.147 1.857-16.032 9.941-16.032 19.636 0 11.068 8.972 20.04 20.04 20.04h12.024c0 13.282 10.767 24.048 24.048 24.048h16.032v-189.767z" fill="#f1a673"/><path d="m336.162 207.903h-72.145l-8.016-8.016-8.016 8.016h-72.145c-13.282 0-24.048-10.767-24.048-24.048v16.032c0 48.699 39.478 88.177 88.177 88.177h32.065c48.699 0 88.177-39.478 88.177-88.177v-16.032c-.001 13.281-10.767 24.048-24.049 24.048z" fill="#c7c2c6"/><path d="m175.839 328.145-77.342 22.098c-20.648 5.899-34.884 24.772-34.884 46.246l24.049 108.011h128.258l8.016-48.097-24.048-112.226z" fill="#6b4f5a"/><path d="m87.662 503.027v-106.537c0-10.679 7.174-20.188 17.445-23.124l85.051-24.302-14.319-20.919-77.342 22.098c-20.648 5.9-34.884 24.772-34.884 46.246v108.011h24.048v-1.473z" fill="#61444f"/><path d="m336.162 328.145 77.342 22.098c20.648 5.899 34.884 24.772 34.884 46.246v108.011h-152.307l-8.016-48.097 24.048-112.226z" fill="#6b4f5a"/><g fill="#b5afb5"><path d="m256.001 199.887h-24.048c-13.282 0-24.048 10.767-24.048 24.048h24.048c13.281 0 24.048-10.766 24.048-24.048z"/><path d="m256.001 199.887h24.048c13.282 0 24.048 10.767 24.048 24.048h-24.048c-13.281 0-24.048-10.766-24.048-24.048z"/><path d="m139.767 151.79h4.008c8.854 0 16.032-7.178 16.032-16.032v-23.191c0-7.986-5.457-15.388-13.339-16.67-10.044-1.634-18.725 6.075-18.725 15.813v44.179c3.357-2.537 7.491-4.099 12.024-4.099z"/></g><path d="m372.235 151.79h-4.008c-8.854 0-16.032-7.178-16.032-16.032v-23.191c0-7.986 5.457-15.388 13.339-16.67 10.044-1.634 18.725 6.075 18.725 15.813v44.179c-3.358-2.537-7.491-4.099-12.024-4.099z" fill="#c7c2c6"/><path d="m192.276 207.903h-16.437c-13.282 0-24.048-10.767-24.048-24.048v16.032c0 48.699 39.478 88.177 88.177 88.177h32.065c1.353 0 2.67-.142 4.008-.202-44.149-1.989-79.829-36.344-83.765-79.959z" fill="#b5afb5"/><path d="m199.888 296.081-39.961 26.641c-4.209 2.806-4.799 8.761-1.222 12.338l25.15 25.151-27.735 27.735c-2.556 2.556-3.085 6.507-1.292 9.645l61.092 106.909h40.081z" fill="#87646f"/><path d="m312.114 296.081 39.961 26.641c4.209 2.806 4.799 8.761 1.222 12.338l-25.15 25.151 27.735 27.735c2.556 2.556 3.085 6.507 1.292 9.645l-61.093 106.909h-40.081z" fill="#87646f"/></g><g><path d="m204.412 159.807v8.016c0 4.142 3.358 7.5 7.5 7.5s7.5-3.358 7.5-7.5v-8.016c0-4.142-3.358-7.5-7.5-7.5s-7.5 3.358-7.5 7.5z"/><path d="m231.436 135.758c0-4.142-3.358-7.5-7.5-7.5h-32.064c-4.142 0-7.5 3.358-7.5 7.5s3.358 7.5 7.5 7.5h32.064c4.142 0 7.5-3.358 7.5-7.5z"/><path d="m292.59 159.807v8.016c0 4.142 3.358 7.5 7.5 7.5s7.5-3.358 7.5-7.5v-8.016c0-4.142-3.358-7.5-7.5-7.5s-7.5 3.358-7.5 7.5z"/><path d="m280.565 135.758c0 4.142 3.358 7.5 7.5 7.5h32.064c4.142 0 7.5-3.358 7.5-7.5s-3.358-7.5-7.5-7.5h-32.064c-4.142 0-7.5 3.358-7.5 7.5z"/><path d="m415.979 342.86-53.002-15.589c-.606-4.401-3.026-8.313-6.742-10.79l-36.621-24.414v-9.194c28.719-16.53 48.097-47.538 48.097-82.986v-.516h4.525c7.767 0 15.212-3.305 20.425-9.067 5.21-5.758 7.752-13.518 6.973-21.289-.627-6.263-3.532-11.91-7.872-16.223v-41.083c0-9.426-5.573-17.57-13.595-21.324-16.301-53.373-66.061-90.385-122.166-90.385-56.102 0-105.862 37.012-122.163 90.385-8.022 3.753-13.595 11.898-13.595 21.324v41.084c-4.341 4.313-7.245 9.959-7.872 16.222-.779 7.771 1.763 15.531 6.973 21.289 5.213 5.762 12.658 9.067 20.425 9.067h4.522v.516c0 35.448 19.378 66.456 48.097 82.986v9.194l-36.622 24.414c-3.716 2.477-6.136 6.389-6.742 10.79l-53.001 15.589c-23.498 6.912-39.909 28.845-39.909 53.337v108.303c0 4.142 3.358 7.5 7.5 7.5s7.5-3.358 7.5-7.5v-108.303c0-17.885 11.983-33.9 29.142-38.947l54.118-15.917 18.876 18.876-22.432 22.432c-4.934 4.934-5.962 12.611-2.5 18.67l61.091 106.91c1.384 2.422 3.915 3.78 6.519 3.78 1.262 0 2.541-.319 3.714-.99 3.596-2.055 4.846-6.636 2.791-10.233l-61.092-106.908c-.115-.202-.081-.458.083-.622l27.735-27.735c2.929-2.929 2.929-7.678 0-10.606l-25.151-25.151c-.051-.052-.172-.172-.148-.415s.167-.338.228-.379l31.273-20.849 53.398 198.337c.882 3.275 3.851 5.55 7.242 5.55s6.36-2.275 7.242-5.55l34.531-128.258c1.077-4-1.292-8.115-5.292-9.192-3.997-1.077-8.115 1.293-9.192 5.292l-27.289 101.359-36.618-136.011c11.97 2.664 24.241 4.022 36.618 4.022s24.649-1.362 36.619-4.026l-.698 2.592c-1.077 4 1.292 8.115 5.292 9.192 3.997 1.076 8.115-1.293 9.192-5.292l10.234-38.014 31.273 20.849c.061.041.204.136.228.379s-.097.363-.148.416l-25.15 25.15c-2.929 2.929-2.929 7.678 0 10.606l27.735 27.735c.164.164.198.419.083.621l-61.091 106.91c-2.055 3.597-.806 8.178 2.791 10.233 1.174.671 2.453.99 3.714.99 2.604 0 5.134-1.358 6.519-3.78l61.091-106.91c3.462-6.058 2.434-13.735-2.5-18.669l-22.432-22.432 18.876-18.876 54.118 15.917c17.158 5.047 29.142 21.062 29.142 38.947v108.3c0 4.142 3.358 7.5 7.5 7.5s7.5-3.358 7.5-7.5v-108.303c-.001-24.492-16.412-46.426-39.91-53.337zm-47.75-239.683c4.705 0 8.532 3.828 8.532 8.532v33.133c-1.84-.362-3.737-.552-5.671-.552h-2.861c-2.279 0-4.421-.887-6.033-2.499-1.611-1.611-2.499-3.754-2.499-6.033v-24.048c0-4.705 3.828-8.533 8.532-8.533zm-232.987 8.532c0-4.705 3.828-8.532 8.533-8.532s8.532 3.828 8.532 8.532v24.048c0 2.279-.888 4.422-2.499 6.033-1.612 1.612-3.754 2.499-6.033 2.499h-2.861c-1.934 0-3.831.19-5.671.552v-33.132zm169.372 183.379-7.53 27.968c-13.313 3.706-27.122 5.605-41.083 5.605-13.963 0-27.769-1.901-41.084-5.608l-7.529-27.964v-5.239c10.174 3.696 21.146 5.715 32.581 5.715h32.064c11.435 0 22.407-2.019 32.581-5.715zm-32.581-14.524h-32.064c-40.654 0-74.382-30.228-79.89-69.387 4.64 2.687 10.024 4.226 15.761 4.226h8.016c4.142 0 7.5-3.358 7.5-7.5s-3.358-7.5-7.5-7.5h-8.016c-9.125 0-16.548-7.423-16.548-16.548 0-4.142-3.358-7.5-7.5-7.5s-7.5 3.358-7.5 7.5v.516h-4.522c-3.537 0-6.927-1.506-9.303-4.131-2.407-2.66-3.533-6.115-3.171-9.729.63-6.292 6.612-11.221 13.618-11.221h2.86.001c6.285 0 12.195-2.448 16.639-6.892 4.445-4.445 6.893-10.354 6.893-16.64v-24.048c0-10.791-7.303-19.902-17.224-22.667 16.08-44.007 58.43-74.043 105.921-74.043 47.488 0 89.837 30.036 105.917 74.043-9.921 2.765-17.224 11.876-17.224 22.667v24.048c0 6.286 2.448 12.195 6.893 16.64s10.354 6.893 16.64 6.892h2.861c7.006 0 12.988 4.929 13.618 11.221.362 3.614-.764 7.07-3.171 9.729-2.375 2.625-5.766 4.131-9.303 4.131h-4.525v-.516c0-4.142-3.358-7.5-7.5-7.5s-7.5 3.358-7.5 7.5c0 9.125-7.423 16.548-16.548 16.548h-8.016c-4.142 0-7.5 3.358-7.5 7.5s3.358 7.5 7.5 7.5h8.016c5.737 0 11.121-1.54 15.761-4.226-5.508 39.16-39.236 69.387-79.89 69.387z"/><path d="m233.996 50.187c7.313-2.072 14.717-3.122 22.004-3.122s14.691 1.05 22.004 3.122c.683.193 1.371.286 2.048.286 3.27 0 6.277-2.156 7.212-5.458 1.128-3.985-1.187-8.131-5.172-9.26-8.644-2.448-17.422-3.689-26.092-3.689s-17.449 1.241-26.092 3.689c-3.985 1.129-6.301 5.275-5.172 9.26s5.277 6.299 9.26 5.172z"/><path d="m256.001 220.274c5.791 6.821 14.42 11.161 24.048 11.161h24.048c4.142 0 7.5-3.358 7.5-7.5 0-17.396-14.152-31.548-31.548-31.548h-48.097c-17.396 0-31.548 14.152-31.548 31.548 0 4.142 3.358 7.5 7.5 7.5h24.048c9.628.001 18.257-4.34 24.049-11.161zm24.048-12.887c6.427 0 12.01 3.682 14.749 9.048h-14.749c-6.427 0-12.01-3.682-14.749-9.048zm-48.097 9.049h-14.749c2.739-5.366 8.322-9.048 14.749-9.048h14.749c-2.739 5.365-8.322 9.048-14.749 9.048z"/></g></g></svg>