<svg id="Capa_1" enable-background="new 0 0 512 512" height="512" viewBox="0 0 512 512" width="512" xmlns="http://www.w3.org/2000/svg"><g><g><path d="m137.078 279.846v-55.911h46.777l32.065 104.21c-32.065 32.065-104.21 48.097-104.21 48.097 27.98-45.47 25.368-96.396 25.368-96.396z" fill="#61444f"/><path d="m374.922 279.846v-55.911h-46.777l-32.065 104.21c32.065 32.065 104.21 48.097 104.21 48.097-27.98-45.47-25.368-96.396-25.368-96.396z" fill="#87646f"/><path d="m368.226 398.876-42.736-15.084c-12.82-4.525-21.393-16.642-21.393-30.237v-49.459h-96.194v49.459c0 13.595-8.573 25.712-21.393 30.237l-42.736 15.084v33.479h224.452z" fill="#f1a673"/><path d="m207.903 304.097v49.459c0 13.595-8.573 25.712-21.393 30.237l-7.559 2.668 5.328 15.117 2.666 7.563 7.562-2.668c18.417-6.498 31.781-22.05 35.965-40.573.746-3.302 2.194-6.404 4.588-8.798l.433-.433c3.397-3.397 8.108-5.131 12.9-4.774 2.548.19 5.087.3 7.607.3 16.593 0 32.734-3.288 48.097-9.53v-38.567h-96.194z" fill="#df976c"/><path d="m408.282 413.013-82.668-29.177-5.485 16.454-64.129 32.065-64.129-32.065-5.485-16.454-82.668 29.177c-19.23 6.787-32.089 24.962-32.089 45.354l24.048 46.133h344.694v-46.132c0-20.392-12.859-38.568-32.089-45.355z" fill="#76d4ec"/><path d="m256 328.145c-57.554 0-104.21-46.656-104.21-104.21v-96.194h208.42v96.194c0 57.554-46.657 104.21-104.21 104.21z" fill="#f8ba7e"/><path d="m151.79 127.742v93.488c0 48.633 32.337 92.382 79.582 103.917 21.593 5.272 42.097 3.253 60.357-3.423l-18.499-2.864c-46.818-7.248-81.36-47.549-81.36-94.925v-48.097c0-8.854 7.178-16.032 16.032-16.032h152.308v-32.065h-208.42z" fill="#f1a673"/><path d="m384.258 159.77c0-13.279-10.769-24.014-24.048-24.014h-16.032v64.131c0 48.097 56.113 56.113 56.113 56.113-16.039-16.037-16.033-64.163-16.033-96.23z" fill="#6b4f5a"/><path d="m127.742 159.77c0 32.066.006 80.191-16.032 96.229 0 0 56.113-8.016 56.113-56.113 0-64.131 0-64.131 0-64.131h-16.032c-13.28.001-24.049 10.736-24.049 24.015z" fill="#61444f"/><path d="m232.286 247.984c-4.831 0-8.381 4.675-6.982 9.299 3.986 13.174 16.221 22.765 30.695 22.765 14.475 0 26.709-9.591 30.695-22.765 1.399-4.624-2.151-9.299-6.982-9.299z" fill="#fff"/><path d="m360.21 71.629-28.858-38.477c-12.111-16.148-31.118-25.652-51.304-25.652h-48.097c-20.185 0-39.192 9.504-51.303 25.652l-28.858 38.477 16.032 16.032h176.355z" fill="#76d4ec"/><path d="m342.173 47.581h-102.205c-8.854 0-16.032-7.178-16.032-16.032v-23.518c-17.124 2.158-32.796 11.133-43.286 25.121l-28.86 38.477 16.032 16.032h176.355l16.032-16.032z" fill="#4fc0ec"/><path d="m360.21 71.629-208.42-.001c-13.282 0-24.048 10.767-24.048 24.048v64.129c0-13.282 10.767-24.048 24.048-24.048l208.419.001c13.281 0 24.047 10.766 24.048 24.047v-64.128c.001-13.281-10.766-24.048-24.047-24.048z" fill="#76d4ec"/><g fill="#4fc0ec"><path d="m127.742 95.676v64.129c0-13.282 10.767-24.048 24.048-24.048v-64.129c-13.281 0-24.048 10.766-24.048 24.048z"/><g><path d="m186.386 383.836-82.668 29.177c-19.229 6.787-32.089 24.962-32.089 45.354v46.133h24.048v-46.132c0-10.177 6.45-19.293 16.04-22.678l65.178-23.002 12.186 27.418c5.783 13.013 21.543 18.178 33.907 11.113l33.012-18.864-64.129-48.097z"/><path d="m320.129 384.258-64.129 48.097 33.012 18.864c12.364 7.065 28.124 1.9 33.907-11.113l21.259-47.832z"/></g></g></g><g><path d="m207.903 192.386c-4.142 0-7.5 3.358-7.5 7.5v8.016c0 4.142 3.358 7.5 7.5 7.5s7.5-3.358 7.5-7.5v-8.016c0-4.142-3.358-7.5-7.5-7.5z"/><path d="m304.097 192.386c-4.142 0-7.5 3.358-7.5 7.5v8.016c0 4.142 3.358 7.5 7.5 7.5s7.5-3.358 7.5-7.5v-8.016c0-4.142-3.358-7.5-7.5-7.5z"/><path d="m223.419 175.837c0-4.142-3.358-7.5-7.5-7.5h-16.032c-4.142 0-7.5 3.358-7.5 7.5s3.358 7.5 7.5 7.5h16.032c4.143 0 7.5-3.358 7.5-7.5z"/><path d="m296.081 183.337h16.032c4.142 0 7.5-3.358 7.5-7.5s-3.358-7.5-7.5-7.5h-16.032c-4.142 0-7.5 3.358-7.5 7.5s3.357 7.5 7.5 7.5z"/><path d="m410.778 405.941-82.792-29.221c-9.803-3.46-16.389-12.769-16.389-23.165v-9.128c34.5 25.77 84.491 38.495 86.875 39.09.604.151 1.214.225 1.819.225 2.355 0 4.618-1.112 6.051-3.069 1.801-2.46 1.934-5.765.336-8.362-26.354-42.827-24.29-91.601-24.266-92.089.208-4.133-2.973-7.654-7.106-7.866-4.141-.216-7.662 2.969-7.875 7.106-.099 1.924-1.9 42.556 17.682 84.389-19.969-6.65-52.965-19.726-73.517-38.894v-4.179c26.089-15.019 45.728-40.304 53.02-70.661 1.258.817 2.556 1.61 3.896 2.375 15.098 8.627 30.086 10.843 30.717 10.933.356.051.711.076 1.063.076 2.809 0 5.422-1.581 6.705-4.146 1.444-2.887.878-6.375-1.405-8.657-13.835-13.835-13.835-62.072-13.835-90.892v-64.129c0-16.061-12.066-29.347-27.607-31.293l-26.8-35.732c-13.454-17.941-34.875-28.652-57.302-28.652h-48.097c-22.426 0-43.847 10.711-57.303 28.651l-26.798 35.732c-15.542 1.946-27.608 15.233-27.608 31.293v64.129c0 28.82 0 77.056-13.835 90.892-2.283 2.283-2.849 5.77-1.405 8.657 1.444 2.888 4.577 4.526 7.769 4.071.631-.09 15.619-2.306 30.717-10.933 1.341-.766 2.639-1.559 3.898-2.377 7.295 30.315 26.951 55.591 53.018 70.622v4.22c-20.551 19.169-53.549 32.245-73.517 38.894 19.582-41.833 17.78-82.465 17.682-84.389-.212-4.133-3.714-7.3-7.866-7.102-4.134.208-7.318 3.729-7.115 7.862.024.488 2.089 49.262-24.266 92.089-1.598 2.597-1.465 5.902.336 8.362 1.434 1.958 3.696 3.069 6.051 3.069.604 0 1.215-.073 1.819-.225 2.384-.596 52.375-13.32 86.875-39.09v9.128c0 10.396-6.586 19.705-16.389 23.165l-82.792 29.221c-22.187 7.83-37.093 28.899-37.093 52.427v46.132c0 4.142 3.358 7.5 7.5 7.5s7.5-3.358 7.5-7.5v-46.132c0-17.18 10.885-32.564 27.085-38.282l56.845-20.063 19.168 43.129c3.616 8.137 10.542 14.394 19.003 17.167 3.196 1.047 6.51 1.564 9.813 1.564 5.441 0 10.854-1.403 15.665-4.152l21.791-12.452v59.221c0 4.142 3.358 7.5 7.5 7.5s7.5-3.358 7.5-7.5v-59.221l21.791 12.452c4.811 2.749 10.223 4.152 15.665 4.152 3.303 0 6.618-.517 9.813-1.564 8.461-2.773 15.387-9.03 19.003-17.167l19.168-43.129 56.845 20.063c16.201 5.718 27.085 21.102 27.085 38.282v46.132c0 4.142 3.358 7.5 7.5 7.5s7.5-3.358 7.5-7.5v-46.132c.002-23.528-14.905-44.597-37.091-52.427zm-154.778 17.039-53.552-40.164c8.069-7.353 12.956-17.902 12.956-29.26v-25.408c0-.001 0-.003 0-.005v-.188c12.646 4.967 26.355 7.691 40.597 7.691 14.252 0 27.959-2.713 40.597-7.665v.162.005 25.408c0 11.358 4.886 21.907 12.956 29.26zm95.677-223.093v-56.63h8.532c9.125 0 16.549 7.423 16.549 16.548 0 26.811 0 61.181 8.095 84.065-14.472-5.842-33.176-18.35-33.176-43.983zm-56.113-71.63v-49.128h17.064v49.128zm-32.064 0v-49.129h17.064v49.128h-17.064zm-32.064 0v-49.129h17.064v49.128h-17.064zm-32.065 0v-49.129h17.064v49.129zm-32.064 0v-49.129h17.064v49.129zm160.322-49.128h17.064v49.128h-17.064zm49.129 16.548v37.283c-4.815-2.979-10.483-4.703-16.549-4.703h-.516v-49.128h.514.009.001c9.122.004 16.541 7.426 16.541 16.548zm-190.11-58.026c10.639-14.183 27.574-22.651 45.304-22.651h48.097c17.73 0 34.666 8.468 45.303 22.651l19.858 26.478-178.419-.001zm-34.857 41.477h.516v49.129h-.516c-6.066 0-11.734 1.725-16.549 4.703v-37.284c0-9.125 7.424-16.548 16.549-16.548zm-24.645 164.743c8.095-22.884 8.096-57.255 8.096-84.066 0-9.125 7.424-16.548 16.549-16.548h8.532v56.63c0 25.636-18.708 38.144-33.177 43.984zm33.353-4.763c9.754-10.678 14.823-23.954 14.823-39.221v-56.63h161.354v56.63c0 15.268 5.069 28.544 14.824 39.222-7.352 46.669-47.917 81.535-95.502 81.535-47.487.001-88.148-34.905-95.499-81.536zm58.768 205.599c-4.114 2.351-8.861 2.833-13.364 1.357s-8.043-4.674-9.968-9.004l-18.687-42.045 11.196-3.951 53.924 40.443zm96.798-7.647c-1.925 4.331-5.465 7.528-9.968 9.004s-9.25.993-13.364-1.357l-23.101-13.201 53.924-40.443 11.196 3.951z"/><path d="m295.564 247.984c0-4.142-3.358-7.5-7.5-7.5h-64.129c-4.142 0-7.5 3.358-7.5 7.5 0 21.816 17.749 39.564 39.564 39.564s39.565-17.748 39.565-39.564zm-62.958 7.5h46.788c-3.177 9.889-12.463 17.064-23.394 17.064s-20.217-7.175-23.394-17.064z"/></g></g></svg>