<svg id="Layer_1" data-name="Layer 1" xmlns="http://www.w3.org/2000/svg" viewBox="0 0 442.83 169.46"><defs><style>.cls-1{fill:#fff;}</style></defs><path class="cls-1" d="M148.64,57c.56.07,1.11.16,1.67.19a2.51,2.51,0,0,1,2.62,2c.91,3,1.78,5.94,2.67,8.9.73,2.43,1.48,4.85,2.18,7.29a3.09,3.09,0,0,0,2.49,2.37,58.25,58.25,0,0,1,9.12,2.9,3.78,3.78,0,0,0,4.12-.52c4.1-3.2,8.26-6.33,12.4-9.48a14.93,14.93,0,0,1,1.21-.88,2.29,2.29,0,0,1,2.58,0,82.37,82.37,0,0,1,9.5,6.89,2.4,2.4,0,0,1,.67,2.83c-.79,2.31-1.6,4.61-2.41,6.92-1.06,3-2.11,6.09-3.21,9.12a3.18,3.18,0,0,0,.6,3.41,67.34,67.34,0,0,1,6.39,8.82,2.58,2.58,0,0,0,2.47,1.24c2.19-.05,4.38-.08,6.58-.14,3.41-.08,6.83-.18,10.24-.25,1.79,0,2.46.43,3.12,2.11a82.67,82.67,0,0,1,3.28,10.18,2.49,2.49,0,0,1-1.13,3.17c-2,1.37-3.92,2.71-5.87,4.07-2.61,1.8-5.19,3.62-7.82,5.39a3.21,3.21,0,0,0-1.62,3.22,51.44,51.44,0,0,1,0,9.77,3.45,3.45,0,0,0,1.78,3.51C216.61,153,220.9,156,225.2,159c2,1.4,2.19,1.88,1.57,4.25a86.07,86.07,0,0,1-3.27,9.89A2.38,2.38,0,0,1,221,174.8c-1.79,0-3.57,0-5.36-.08l-10.9-.28c-.41,0-.82,0-1.23,0a2.53,2.53,0,0,0-2.23,1.29,60.45,60.45,0,0,1-6.38,8.83,3.09,3.09,0,0,0-.62,3.38c1.78,5,3.51,10,5.26,15,.14.38.28.76.39,1.16a2.5,2.5,0,0,1-.87,2.85,89.87,89.87,0,0,1-9.12,6.63,2.46,2.46,0,0,1-3-.07c-1.78-1.33-3.54-2.68-5.31-4-2.72-2.07-5.45-4.12-8.14-6.23a3.38,3.38,0,0,0-3.68-.51,61.7,61.7,0,0,1-9.74,3.12,2.81,2.81,0,0,0-2.16,2.12q-1.68,5.63-3.37,11.24c-.5,1.68-1,3.37-1.52,5a2.53,2.53,0,0,1-2.73,2.09c-.66,0-1.3.12-2,.19h-7c-.71-.07-1.42-.16-2.13-.21a2.47,2.47,0,0,1-2.35-1.71c-.08-.24-.15-.48-.22-.72q-1.12-3.72-2.24-7.46c-.83-2.76-1.66-5.51-2.47-8.28a3,3,0,0,0-2.49-2.38,18.54,18.54,0,0,1-2.27-.6c-2.37-.79-4.74-1.58-7.1-2.44a3.57,3.57,0,0,0-3.78.51c-1.45,1.19-3,2.29-4.47,3.43-2.89,2.2-5.78,4.42-8.68,6.61-1.39,1.05-2.13,1.05-3.59.14a101.72,101.72,0,0,1-8.31-6c-2-1.53-1.79-2.48-1.17-4.22C91.84,198.11,93.6,193,95.4,188a3.32,3.32,0,0,0-.61-3.5,65.58,65.58,0,0,1-6.32-8.76,2.68,2.68,0,0,0-2.19-1.26,8.85,8.85,0,0,0-1,0l-10.81.28-5.83.09a2.39,2.39,0,0,1-2.44-1.69,84.25,84.25,0,0,1-3.54-11,2.77,2.77,0,0,1,0-1.18,3,3,0,0,1,1.54-1.81c4.46-3.08,8.91-6.18,13.39-9.23a3.4,3.4,0,0,0,1.65-3.33,58.93,58.93,0,0,1,0-9.58,3.51,3.51,0,0,0-1.72-3.48c-4.36-2.95-8.67-6-13-9a9.19,9.19,0,0,1-1.13-.84,2.36,2.36,0,0,1-.76-2.45,89,89,0,0,1,3.5-10.81,2.52,2.52,0,0,1,2.65-1.82c.72,0,1.44,0,2.16,0l15,.34a2.91,2.91,0,0,0,2.76-1.45,67.92,67.92,0,0,1,6-8.37,3.52,3.52,0,0,0,.68-3.76c-.87-2.35-1.67-4.72-2.5-7.08-1-2.9-2-5.79-3-8.69a2.49,2.49,0,0,1,.93-3.23,99.54,99.54,0,0,1,8.33-6.12c2-1.38,2.93-1,4.46.21,4.2,3.23,8.44,6.4,12.61,9.66a3.85,3.85,0,0,0,4.13.54,60.84,60.84,0,0,1,9.12-2.91,3.13,3.13,0,0,0,2.48-2.39c.43-1.51.89-3,1.34-4.5q1.7-5.72,3.41-11.43a2.66,2.66,0,0,1,2.9-2.27,12.88,12.88,0,0,0,1.39-.18Zm-18,50.43v54.92a16.73,16.73,0,0,1-.07,2.35,11.72,11.72,0,0,1-.62,2.63,4.38,4.38,0,0,1-3.11,2.76,8.29,8.29,0,0,1-3.54.16,4.79,4.79,0,0,1-4-3.28,10.43,10.43,0,0,1-.55-3.42c0-2.22,0-4.45,0-6.68V107.5H107.41v54.78c0,.59,0,1.19,0,1.78a23.57,23.57,0,0,0,1,6,13.9,13.9,0,0,0,10.5,10.11,22.82,22.82,0,0,0,10.62.08,13.93,13.93,0,0,0,10.86-10.08,25.4,25.4,0,0,0,1-7.7q0-27,0-54.08c0-.3,0-.6,0-.94ZM171.5,153c0,1.05,0,2,0,2.93,0,2.88,0,5.77-.1,8.65a8.66,8.66,0,0,1-.62,2.73,4.28,4.28,0,0,1-3.29,2.79,11.8,11.8,0,0,1-2.52.2,4.87,4.87,0,0,1-5-4.08,16,16,0,0,1-.35-3.45q0-17.12,0-34.22c0-1.54,0-3.08,0-4.61a10.38,10.38,0,0,1,.69-3.86,4.78,4.78,0,0,1,3.79-3,8.35,8.35,0,0,1,3,0,4.66,4.66,0,0,1,3.72,3,8.88,8.88,0,0,1,.62,2.73c.1,2.63.07,5.26.1,7.89v1.09a91,91,0,0,0,10.71,0,4.34,4.34,0,0,0,0-.53c0-2.29,0-4.58,0-6.86a25.85,25.85,0,0,0-.89-6.6c-1.52-5.32-4.83-8.92-10.24-10.38a22.51,22.51,0,0,0-11.44-.08,13.76,13.76,0,0,0-10.16,9.26,22.69,22.69,0,0,0-1.26,7.57c0,4.26,0,8.52,0,12.78q0,12.79,0,25.58a25.81,25.81,0,0,0,1,7.52c1.55,5.12,4.8,8.59,10,10a22.18,22.18,0,0,0,12.43-.13,13.48,13.48,0,0,0,9-8.19,18.62,18.62,0,0,0,1.47-6.56c.11-3.86.1-7.71.14-11.57a3.89,3.89,0,0,0-.1-.54Z" transform="translate(-62.54 -57.04)"/><path class="cls-1" d="M293,179.87H282.87c-.2-.73-.23-71.35,0-72.42h14.25q2.87,10.8,5.74,21.58l5.69,21.47c.1,0,.13,0,.16,0s0,0,0-.06l0-.19V107.86a.28.28,0,0,0,0-.09s0-.06,0-.09,0-.06,0-.09l.11-.13h9.88c.2.65.26,71.1.06,72.39H307.17q-3.46-13-6.95-26.06c-2.31-8.67-4.63-17.34-7.1-26,0,.18-.08.36-.1.55s0,.56,0,.85v50.7Z" transform="translate(-62.54 -57.04)"/><path class="cls-1" d="M456.25,143.75q0,9.41,0,18.81a25.17,25.17,0,0,1-.81,6.69c-1.72,6.2-5.76,9.9-12.05,11.13a23,23,0,0,1-10-.22c-5.82-1.43-9.46-5.12-11.06-10.87a25.19,25.19,0,0,1-.82-7V126.4c0-1.29,0-2.57.07-3.85a20.47,20.47,0,0,1,1.37-6.41,14,14,0,0,1,9.36-8.68,22.34,22.34,0,0,1,13.25,0c5.22,1.62,8.38,5.28,9.84,10.47a25.07,25.07,0,0,1,.83,6.79Q456.25,134.26,456.25,143.75Zm-11.43-.1q0-9.39,0-18.8a16.87,16.87,0,0,0-.08-2.25,11.9,11.9,0,0,0-.57-2.46,4.4,4.4,0,0,0-3.38-3,10.13,10.13,0,0,0-2.52-.18,4.92,4.92,0,0,0-5,4.35,19,19,0,0,0-.27,3.45q0,18.86,0,37.71a15.34,15.34,0,0,0,.09,2.25,11.5,11.5,0,0,0,.62,2.54,4.29,4.29,0,0,0,3.28,2.81,10.38,10.38,0,0,0,2.61.2,4.91,4.91,0,0,0,4.94-4.3,17.2,17.2,0,0,0,.28-3.36C444.83,156.32,444.82,150,444.82,143.65Z" transform="translate(-62.54 -57.04)"/><path class="cls-1" d="M360.19,131.81H349.44c0-.35-.05-.68-.05-1q0-3.63,0-7.24a9.18,9.18,0,0,0-.58-3.32,4.66,4.66,0,0,0-4.24-3.2,11.94,11.94,0,0,0-3,.16,4.26,4.26,0,0,0-3.27,2.81,11.15,11.15,0,0,0-.61,2.55,15.34,15.34,0,0,0-.09,2.25q0,18.85,0,37.7a19,19,0,0,0,.29,3.46,4.89,4.89,0,0,0,5,4.27,10.27,10.27,0,0,0,2.15-.13,4.55,4.55,0,0,0,3.89-3.37,8.75,8.75,0,0,0,.45-2.48c0-4.64,0-9.28,0-13.91a4.58,4.58,0,0,0-.06-.47h-4.93a90.44,90.44,0,0,1-.09-10.37h15.89c0,.28.06.55.06.82,0,7.58,0,15.17,0,22.75a23.61,23.61,0,0,1-1.07,7.13,14.07,14.07,0,0,1-11.55,10.17,23.14,23.14,0,0,1-9.34-.1c-6-1.3-9.67-5-11.29-10.82a26.94,26.94,0,0,1-.83-7.26c0-7.62,0-15.23,0-22.85V124.78a24.65,24.65,0,0,1,1.11-7.87c1.85-5.62,5.75-8.89,11.5-10a22.87,22.87,0,0,1,9.71.19c5.62,1.34,9.18,4.88,10.81,10.39a20.1,20.1,0,0,1,.87,5.27C360.24,125.74,360.19,128.72,360.19,131.81Z" transform="translate(-62.54 -57.04)"/><path class="cls-1" d="M496.63,131.84H485.94c0-.37,0-.7-.05-1,0-2.25.05-4.51,0-6.76a14.64,14.64,0,0,0-.49-3.43,4.64,4.64,0,0,0-4.52-3.59,11.66,11.66,0,0,0-2.89.2,4.35,4.35,0,0,0-3.16,2.7,9.47,9.47,0,0,0-.72,3.28c0,.44,0,.88,0,1.32q0,19.13,0,38.26a15.77,15.77,0,0,0,.34,3.36,4.75,4.75,0,0,0,4.43,4.06A7.7,7.7,0,0,0,482,170a4.57,4.57,0,0,0,3.19-2.82,9.79,9.79,0,0,0,.67-3.86c0-3.1,0-6.2,0-9.31v-1a85.31,85.31,0,0,1,10.75-.06c0,.23.05.47.05.71,0,3.23,0,6.46,0,9.69a22.83,22.83,0,0,1-1,6.67,14.09,14.09,0,0,1-11.61,10.34,23.14,23.14,0,0,1-9.34-.1c-5.85-1.27-9.54-4.84-11.21-10.55a22.76,22.76,0,0,1-.91-6.4q0-19.7,0-39.39a22.38,22.38,0,0,1,1.24-7.38,13.88,13.88,0,0,1,10.37-9.41,22.42,22.42,0,0,1,10.89,0c5.7,1.4,9.2,5.09,10.74,10.69a20.25,20.25,0,0,1,.78,5.19c0,2.72,0,5.45,0,8.18A5.78,5.78,0,0,1,496.63,131.84Z" transform="translate(-62.54 -57.04)"/><path class="cls-1" d="M415.67,127.05H405c0-.47,0-.9,0-1.33a20.11,20.11,0,0,0-.32-4.58,4.76,4.76,0,0,0-4.92-4.16,7.91,7.91,0,0,0-1.88.09,4.45,4.45,0,0,0-3.58,2.84,11,11,0,0,0-.68,4.33,13.58,13.58,0,0,0,2.28,7.54,29.16,29.16,0,0,0,4.51,5.28c1.45,1.38,3,2.7,4.44,4.06a48.62,48.62,0,0,1,6.69,7.36,23,23,0,0,1,4.4,13.63,26.14,26.14,0,0,1-1.12,8.25c-1.85,5.66-5.77,8.95-11.57,10a23.15,23.15,0,0,1-9.7-.21c-5.79-1.4-9.33-5.11-10.88-10.79a21.79,21.79,0,0,1-.78-5.38c0-1.94,0-3.89,0-5.82a97.22,97.22,0,0,1,10.73-.09c0,.31,0,.63.05,1,0,1.91.07,3.82.12,5.73a4.78,4.78,0,0,0,.08.75c.7,3.8,3.21,5,6.81,4.65a4.69,4.69,0,0,0,4.47-4A13.29,13.29,0,0,0,403,157a20.17,20.17,0,0,0-3.72-5.06c-1.59-1.6-3.24-3.14-4.91-4.66a58.2,58.2,0,0,1-7.08-7.39,22.71,22.71,0,0,1-4.76-10.4,26.79,26.79,0,0,1,.86-12.91c1.85-5.41,5.69-8.56,11.27-9.62a22.52,22.52,0,0,1,9.7.24c5.64,1.41,9.05,5.08,10.59,10.6a30,30,0,0,1,.8,9S415.73,126.91,415.67,127.05Z" transform="translate(-62.54 -57.04)"/><path class="cls-1" d="M244.65,179.86V107.47h31.07v10.3H256.11V137.9l3.8,0h11.63a90.71,90.71,0,0,1,.07,10.37h-15.5v21.22h19.61v10.35Z" transform="translate(-62.54 -57.04)"/><path class="cls-1" d="M364.19,170.79a5.08,5.08,0,0,1,5.09,5.08,5.15,5.15,0,0,1-5.18,5.1,5.08,5.08,0,0,1-5-5.15A5,5,0,0,1,364.19,170.79Z" transform="translate(-62.54 -57.04)"/><path class="cls-1" d="M505.37,175.73a5,5,0,0,1-4.86,5.24,5.1,5.1,0,0,1-.36-10.19A5,5,0,0,1,505.37,175.73Z" transform="translate(-62.54 -57.04)"/></svg>