<svg xmlns="http://www.w3.org/2000/svg" viewBox="0 0 643.48 209.31"><defs><style>.cls-1{fill:#fff;}</style></defs><g id="Layer_2" data-name="Layer 2"><g id="Layer_1-2" data-name="Layer 1"><path class="cls-1" d="M0,143V7.47c0-6,12.54-6,24.93-6S50,1.49,50,7.61v120.6c0,18.38,13.09,29.56,32.5,29.56,17.5,0,32.5-9.85,32.5-29.56V7.52c0-6.08,12.9-6.08,25.5-6.08,12.75,0,25.5,0,25.5,6.23V143c0,36-31.17,66.16-83.07,66.16C29.26,209.19,0,177.73,0,143Z"/><path class="cls-1" d="M193.81,104.58C193.81,44.8,238.61,0,300.15,0c27.47,0,48.32,5.43,67.27,19.09,1.32.89,1.91,2.65,1.91,5,0,5.87-3.23,14.83-5.87,21.15-4.41,10.28-10.43,20-15.43,20a3.89,3.89,0,0,1-2-.74c-12.93-9.11-29.67-13.81-45.24-13.81-27.76,0-52.44,21.89-52.44,53.91,0,31.87,24.68,53.76,52.44,53.76A83,83,0,0,0,346,144.68a4.14,4.14,0,0,1,2.2-.59c4.41,0,10.28,7.49,15.28,18.8,2.79,6.46,5.87,15.72,5.87,21.74,0,2.5-.44,4.55-1.91,5.43-18.95,13.37-39.8,19.25-67.27,19.25C238.61,209.31,193.81,164.36,193.81,104.58Z"/><path class="cls-1" d="M397,203.13v-123c0-3.73,12.39-3.82,25.07-3.82S447,76.4,447,80.13v123c0,3.82-12.39,3.92-24.93,3.92S397,207,397,203.13Z"/><path class="cls-1" d="M534,202.85V52.31H480.5c-5.83,0-5.83-12.25-5.83-24.65,0-12.25,0-24.35,6-24.35H637.5c6,0,6,12.1,6,24.35,0,12.4,0,24.65-6,24.65H584V202.7c0,6.2-12.54,6.2-25.07,6.2S534,208.9,534,202.85Z"/><path class="cls-1" d="M397,50.84v-46c0-1.4,29-1.43,58.67-1.43C485,3.4,514,3.43,514,4.83v46c0,1.43-29,1.47-58.33,1.47C426,52.31,397,52.27,397,50.84Z"/></g></g></svg>