<svg id="Capa_1" enable-background="new 0 0 512 512" height="512" viewBox="0 0 512 512" width="512" xmlns="http://www.w3.org/2000/svg"><g><g><path d="m413.862 374.104-84.485-24.849c-10.235-3.01-17.263-12.403-17.263-23.071v-46.135h-112.227v46.135c0 10.668-7.028 20.061-17.263 23.071l-84.485 24.849c-20.47 6.02-34.526 24.806-34.526 46.142v60.206h384.774v-60.206c0-21.336-14.055-40.122-34.525-46.142z" fill="#f1a673"/><path d="m256 400.291c-16.588 0-32.39-3.361-46.765-9.435l6.685 113.644h80.161l6.685-113.645c-14.376 6.075-30.178 9.436-46.766 9.436z" fill="#9b929b"/><path d="m199.887 280.049v46.135c0 10.668-7.028 20.061-17.263 23.071l6.792 23.067c16.431-4.833 29.141-18.173 33.17-34.812.351-1.449 1.317-2.734 2.651-3.525 1.272-.775 2.959-.947 4.464-.614 8.673 1.851 17.521 2.79 26.299 2.79 19.387 0 38.679-4.529 56.113-13.027v-43.086h-112.226z" fill="#df976c"/><path d="m215.92 393.656c0-11.252-3.945-22.147-11.148-30.791l-14.553-17.463c-2.248 1.684-4.784 3.027-7.594 3.853l-84.486 24.849c-20.469 6.02-34.525 24.806-34.525 46.142l24.047 84.254h96.194z" fill="#b0def5"/><path d="m204.772 362.865-14.553-17.463c-2.249 1.684-4.785 3.027-7.595 3.853l-84.486 24.849c-20.469 6.02-34.525 24.806-34.525 46.142v84.254h24.048v-84.255c0-10.592 7.097-20.077 17.258-23.066l84.496-24.857c5.774-1.699 11.163-4.484 16.015-8.277l.105-.082c-.278-.352-.475-.753-.763-1.098z" fill="#76d4ec"/><path d="m183.855 368.226v136.274h32.065v-110.844c0-9.058-2.665-17.822-7.42-25.43z" fill="#76d4ec"/><path d="m389.089 71.629h-28.959l11.635-29.087c2.106-5.266-1.772-10.993-7.443-10.993h-36.257l-18.38-18.38c-3.568-3.568-8.608-5.248-13.604-4.535l-48.177 6.882-24.661-6.165c-4.684-1.171-9.646-.169-13.508 2.728l-25.96 19.47h-32.065c-4.427 0-8.016 3.589-8.016 8.016v32.065h-20.943c-5.471 0-9.335 5.36-7.605 10.551l12.515 37.546-12.19 12.19c-2.32 2.32-2.992 5.82-1.696 8.835l21.982 51.121h240.484l21.84-51.128c1.286-3.011.612-6.502-1.704-8.817l-12.2-12.2 12.515-37.546c1.732-5.192-2.132-10.553-7.603-10.553z" fill="#a06a5a"/><path d="m183.126 31.549h-31.416c-4.427 0-8.016 3.589-8.016 8.016v32.065h-20.943c-5.471 0-9.335 5.36-7.605 10.551l12.515 37.546-12.19 12.19c-2.32 2.32-2.992 5.821-1.696 8.835l21.981 51.12h48.097z" fill="#845252"/><path d="m372.234 175.839h-12.024c-8.854 0-16.032-7.178-16.032-16.032v-15.468c0-5.361-2.679-10.367-7.139-13.34l-16.909-11.273-11.947 11.947c-2.44 2.44-6.167 3.045-9.253 1.502l-58.961-29.481-12.725 25.324c-1.903 3.787-6.425 5.438-10.32 3.769l-49.179-21.077.08 48.097c0 8.854-7.178 16.032-16.032 16.032h-10.877c-10.483 0-20.037 7.542-21.082 17.973-1.202 11.996 8.186 22.107 19.936 22.107h12.429c4.106 53.795 48.957 96.194 103.805 96.194 54.847 0 99.693-42.399 103.799-96.194h11.288c10.484 0 20.038-7.543 21.082-17.975 1.198-11.995-8.189-22.105-19.939-22.105z" fill="#f8ba7e"/><path d="m183.855 207.904v-89.289l-16.112-6.905.08 48.097c0 8.854-7.178 16.032-16.032 16.032h-10.877c-10.483 0-20.037 7.542-21.082 17.973-1.202 11.995 8.185 22.107 19.936 22.107h12.429c4.106 53.795 48.957 96.194 103.805 96.194 5.483 0 10.83-.534 16.082-1.351-49.947-7.708-88.229-50.754-88.229-102.858z" fill="#f1a673"/><path d="m182.077 335.631c-3.021-3.625-8.731-3.122-11.072.975l-22.423 39.24c-1.97 3.447.862 7.657 4.797 7.132l58.681-7.824c-1.837-4.392-4.195-8.577-7.289-12.289z" fill="#ceeaff"/><path d="m296.081 393.656c0-11.252 3.945-22.147 11.148-30.791l14.553-17.463c2.248 1.684 4.784 3.027 7.594 3.853l84.486 24.849c20.469 6.02 34.526 24.806 34.526 46.142v84.254h-120.243z" fill="#b0def5"/><path d="m328.145 368.226v136.274h-32.065v-110.844c0-9.058 2.665-17.822 7.42-25.43z" fill="#76d4ec"/><path d="m329.924 335.631c3.021-3.625 8.731-3.122 11.072.975l22.423 39.24c1.97 3.447-.862 7.657-4.797 7.132l-58.681-7.824c1.837-4.392 4.195-8.577 7.289-12.289z" fill="#ceeaff"/></g><g><path d="m207.903 184.371c-4.142 0-7.5 3.357-7.5 7.5v8.016c0 4.142 3.358 7.5 7.5 7.5s7.5-3.358 7.5-7.5v-8.016c0-4.142-3.357-7.5-7.5-7.5z"/><path d="m304.097 184.371c-4.142 0-7.5 3.357-7.5 7.5v8.016c0 4.142 3.358 7.5 7.5 7.5s7.5-3.358 7.5-7.5v-8.016c0-4.142-3.358-7.5-7.5-7.5z"/><path d="m285.387 234.7c-2.909-2.949-7.658-2.98-10.606-.071-2.737 2.701-9.299 5.855-18.781 5.855s-16.043-3.154-18.781-5.855c-2.949-2.91-7.698-2.877-10.606.071-2.909 2.949-2.877 7.697.071 10.606 6.459 6.373 17.418 10.177 29.316 10.177s22.857-3.805 29.316-10.177c2.948-2.908 2.981-7.657.071-10.606z"/><path d="m183.855 408.823c-4.142 0-7.5 3.358-7.5 7.5v88.177c0 4.142 3.358 7.5 7.5 7.5s7.5-3.358 7.5-7.5v-88.178c0-4.141-3.358-7.499-7.5-7.499z"/><path d="m415.978 366.909-58.933-17.333-9.538-16.691c-2.318-4.057-6.481-6.724-11.136-7.133-4.654-.411-9.219 1.489-12.209 5.078l-2.593 3.111c-1.258-2.367-1.956-5.021-1.956-7.757v-26.511c25.013-17.396 42.618-44.741 47.019-76.253h4.456c14.617 0 27.156-10.862 28.545-24.728.778-7.771-1.764-15.53-6.974-21.287-.236-.26-.481-.51-.726-.76l15.24-38.101c1.114-2.786.461-5.967-1.66-8.088l-12.754-12.756 14.566-43.699c.762-2.287.379-4.801-1.031-6.757s-3.674-3.115-6.084-3.115h-29.003l11.918-29.795c.924-2.311.642-4.93-.753-6.99-1.395-2.061-3.722-3.295-6.21-3.295h-44.991l-21.851-21.852c-1.669-1.669-4.026-2.456-6.364-2.122l-54.659 7.809-30.639-7.66c-2.191-.547-4.513-.079-6.319 1.276l-30.064 22.548h-37.581c-4.142 0-7.5 3.358-7.5 7.5v32.581h-24.564c-2.411 0-4.675 1.159-6.084 3.115-1.41 1.956-1.793 4.47-1.031 6.757l14.566 43.699-12.754 12.755c-2.122 2.121-2.774 5.303-1.66 8.088l15.393 38.483c-4.239 4.289-7.073 9.864-7.691 16.038-.779 7.771 1.762 15.53 6.972 21.289 5.214 5.762 12.659 9.067 20.426 9.067h5.598c4.399 31.521 22.003 58.869 47.022 76.263v26.501c0 2.736-.698 5.39-1.956 7.757l-2.593-3.112c-2.991-3.589-7.55-5.488-12.209-5.078-4.654.409-8.817 3.076-11.136 7.133l-9.538 16.691-58.933 17.333c-23.498 6.911-39.909 28.845-39.909 53.338v84.254c0 4.142 3.358 7.5 7.5 7.5s7.5-3.358 7.5-7.5v-84.254c0-17.885 11.983-33.901 29.142-38.947l43.961-12.93-6.953 12.168c-1.41 2.467-1.304 5.518.271 7.881 1.576 2.364 4.354 3.634 7.17 3.282l62.518-7.814c.79 3.178 1.197 6.458 1.197 9.77v110.844c0 4.142 3.358 7.5 7.5 7.5s7.5-3.358 7.5-7.5v-101.197c10.55 2.98 21.467 4.488 32.581 4.488 11.113 0 22.03-1.508 32.581-4.488v101.197c0 4.142 3.358 7.5 7.5 7.5s7.5-3.358 7.5-7.5v-110.844c0-3.312.408-6.592 1.197-9.77l62.518 7.814c2.815.351 5.595-.918 7.17-3.282 1.576-2.363 1.681-5.414.271-7.881l-6.953-12.168 43.961 12.93c17.158 5.046 29.142 21.062 29.142 38.947v84.254c0 4.142 3.358 7.5 7.5 7.5s7.5-3.358 7.5-7.5v-84.254c0-24.493-16.411-46.426-39.909-53.337zm-256.687-159.005c0-4.142-3.358-7.5-7.5-7.5s-7.5 3.358-7.5 7.5v.516h-4.524c-3.537 0-6.928-1.505-9.303-4.131-2.407-2.66-3.532-6.115-3.17-9.729.631-6.292 6.613-11.221 13.62-11.221h10.877c12.976 0 23.532-10.557 23.532-23.545l-.061-36.702 45.64 19.56c3.646 1.562 7.875.017 9.656-3.526l12.751-25.376 30.599 15.3c3.705 1.852 8.209.351 10.062-3.354s.351-8.21-3.354-10.062l-37.293-18.646c-3.698-1.85-8.198-.354-10.056 3.341l-12.943 25.758-49.626-21.268c-2.32-.995-4.983-.756-7.088.636-2.105 1.391-3.371 3.747-3.366 6.27l.08 48.084c0 4.704-3.828 8.532-8.532 8.532h-10.877c-2.674 0-5.276.367-7.755 1.045l-12.728-31.82 12.535-12.535c2.009-2.009 2.71-4.98 1.812-7.675l-12.742-38.225h21.659c4.142 0 7.5-3.357 7.5-7.5v-32.582h32.581c1.623 0 3.202-.526 4.5-1.5l29.208-21.907 28.602 7.15c.941.235 1.919.286 2.879.148l52.4-7.485 21.397 21.396c1.406 1.406 3.314 2.197 5.303 2.197h37.02l-11.918 29.795c-.924 2.311-.643 4.93.753 6.99 1.395 2.061 3.722 3.295 6.21 3.295h29.675l-12.742 38.225c-.898 2.695-.197 5.667 1.812 7.675l12.535 12.535-12.63 31.576c-2.126-.522-4.322-.802-6.546-.802h-12.025c-4.705 0-8.532-3.828-8.532-8.532v-15.468c0-7.886-3.917-15.206-10.479-19.581l-16.909-11.272c-2.974-1.982-6.936-1.591-9.463.938l-16.032 16.032c-2.929 2.929-2.929 7.677 0 10.606s7.678 2.929 10.606 0l11.685-11.685 11.793 7.862c2.379 1.586 3.799 4.24 3.799 7.099v15.468c0 12.976 10.557 23.532 23.532 23.532h12.025c3.537 0 6.927 1.505 9.302 4.13 2.407 2.66 3.533 6.114 3.17 9.729-.63 6.293-6.612 11.222-13.619 11.222h-3.382v-.439c0-4.141-3.356-7.499-7.497-7.5-.001 0-.002 0-.003 0-4.14 0-7.497 3.354-7.5 7.495-.039 53.286-43.421 96.638-96.706 96.638-53.325.002-96.709-43.382-96.709-96.707zm-1.563 167.052 19.264-33.711 22.018 26.422c.527.632 1.033 1.279 1.519 1.939zm143.739-16.892c-6.99 8.388-11.325 18.666-12.53 29.444-10.586 3.507-21.643 5.282-32.936 5.282-11.294 0-22.351-1.775-32.936-5.282-1.205-10.778-5.541-21.057-12.53-29.445l-10.105-12.125c4.465-5.562 6.959-12.524 6.959-19.754v-17.717c14.705 7.137 31.199 11.146 48.613 11.146 17.412 0 33.906-4.012 48.612-11.153v17.724c0 7.23 2.493 14.191 6.959 19.754zm10.005 11.542c.485-.66.992-1.308 1.519-1.939l22.018-26.422 19.264 33.711z"/><path d="m328.145 408.823c-4.142 0-7.5 3.358-7.5 7.5v88.177c0 4.142 3.358 7.5 7.5 7.5s7.5-3.358 7.5-7.5v-88.178c0-4.141-3.358-7.499-7.5-7.499z"/><path d="m215.92 160.323h-16.032c-4.142 0-7.5 3.358-7.5 7.5 0 4.143 3.358 7.5 7.5 7.5h16.032c4.142 0 7.5-3.357 7.5-7.5 0-4.142-3.358-7.5-7.5-7.5z"/><path d="m296.081 175.323h16.032c4.142 0 7.5-3.357 7.5-7.5 0-4.142-3.358-7.5-7.5-7.5h-16.032c-4.142 0-7.5 3.358-7.5 7.5s3.358 7.5 7.5 7.5z"/></g></g></svg>