<svg id="Capa_1" enable-background="new 0 0 512 512" height="512" viewBox="0 0 512 512" width="512" xmlns="http://www.w3.org/2000/svg"><g><g><path d="m415.388 414.269-127.415-53.648h-63.946l-127.415 53.648c-14.82 6.24-24.457 20.754-24.457 36.834l23.98 53.397h343.711v-53.397c-.001-16.08-9.638-30.594-24.458-36.834z" fill="#c2805d"/><path d="m105.868 436.292 44.72-19.031c12.068-5.141 17.716-18.999 12.788-31.103l-66.765 28.111c-14.821 6.24-24.457 20.754-24.457 36.834v53.397h23.98v-53.502c0-6.424 3.818-12.193 9.734-14.706z" fill="#a06a5a"/><path d="m287.973 360.621h-63.946l-85.092 35.828c33.34 22.775 73.641 36.111 117.065 36.111s83.725-13.336 117.066-36.111z" fill="#a06a5a"/><path d="m176.067 320.653v59.712c23.767 12.895 50.993 20.222 79.933 20.222s56.166-7.327 79.933-20.222v-61.663c0-7.626-5.339-14.004-12.484-15.602l-131.586 1.567c-8.754.105-15.796 7.232-15.796 15.986z" fill="#845252"/><path d="m256 352.628c29.024 0 57.136-10.198 79.933-28.633v-5.292c0-7.625-5.339-14.004-12.484-15.601l-131.586 1.567c-8.754.104-15.796 7.23-15.796 15.985v3.54c22.726 18.303 50.86 28.434 79.933 28.434z" fill="#70393c"/><path d="m160.081 272.695s-50.416 93.629 5.994 164.665c3.275 4.125 9.992 1.671 9.992-3.596v-113.11c0-8.829 7.157-15.987 15.987-15.987h23.98l-31.973-31.973h-23.98z" fill="#61444f"/><path d="m279.982 7.5h-47.96c-57.389 0-103.913 46.523-103.913 103.913v15.987h255.785v-15.987c.001-57.39-46.523-103.913-103.912-103.913z" fill="#ffce8a"/><path d="m279.98 7.5h-47.957c-57.39 0-103.913 46.523-103.913 103.913v15.987h47.957v-15.987c0-57.39 46.524-103.913 103.913-103.913z" fill="#f8ba7e"/><path d="m371.903 192.762-11.99-79.933-103.913-15.986-103.913 15.987v111.906c0 57.389 46.523 103.913 103.913 103.913 54.691 0 99.414-42.277 103.509-95.919h12.394c11.037 0 19.983-8.947 19.983-19.983 0-11.038-8.947-19.985-19.983-19.985z" fill="#f1a673"/><path d="m221.037 144.883c2.471-4.447 7.02-7.475 12.169-8.1 7.604-.923 15.274-1.391 22.796-1.391 35.075 0 69.376 9.546 99.194 27.607 2.908 1.756 6.087 3.146 9.456 4.138l3.563 1.048-8.304-55.355-103.911-15.987-103.913 15.987v111.906c0 57.389 46.523 103.913 103.913 103.913 12.558 0 24.546-2.32 35.681-6.403l-18.425-2.843c-47.051-7.261-81.202-47.074-81.202-94.666v-1.062c3.444-28.205 17.643-58.388 28.983-78.792z" fill="#e0916d"/><path d="m152.087 128.816s-39.966 55.953-15.987 175.852l23.98-15.987v-71.939l39.966-103.913z" fill="#61444f"/><path d="m371.715 192.761.001.001h.186c1.205 0 2.372.15 3.518.355l8.472-56.308-40.154-15.987v43.962c.001 15.451 12.526 27.977 27.977 27.977z" fill="#6b4f5a"/><path d="m271.987 48.883h-31.973c-8.829 0-15.987 7.157-15.987 15.987v31.973h63.946v-31.973c0-8.83-7.157-15.987-15.986-15.987z" fill="#61444f"/><path d="m384.184 115.136c-38.565-23.351-82.887-35.697-128.181-35.697s-89.616 12.345-128.181 35.697c-7.552 4.574-9.964 14.406-5.394 21.958 3.005 4.961 8.282 7.708 13.692 7.708 2.822 0 5.675-.749 8.266-2.314 33.566-20.331 72.162-31.075 111.617-31.075s78.052 10.745 111.617 31.075c2.592 1.565 5.445 2.314 8.266 2.314 5.41 0 10.686-2.748 13.692-7.708 4.57-7.552 2.158-17.384-5.394-21.958z" fill="#fd9"/><path d="m225.854 248.715c-5.564 0-9.769 5.682-7.5 10.762 5.523 12.364 20.293 21.211 37.646 21.211s32.123-8.847 37.646-21.211c2.269-5.08-1.936-10.762-7.5-10.762z" fill="#fff"/></g><g><path d="m215.215 207.902v-8.016c0-4.142-3.358-7.5-7.5-7.5s-7.5 3.358-7.5 7.5v8.016c0 4.142 3.358 7.5 7.5 7.5s7.5-3.358 7.5-7.5z"/><path d="m303.909 192.386c-4.142 0-7.5 3.358-7.5 7.5v8.016c0 4.142 3.358 7.5 7.5 7.5s7.5-3.358 7.5-7.5v-8.016c0-4.142-3.358-7.5-7.5-7.5z"/><path d="m199.696 183.339c.714 0 1.441-.103 2.16-.319l16.032-4.815c3.967-1.191 6.217-5.374 5.026-9.34-1.191-3.968-5.374-6.217-9.34-5.026l-16.032 4.815c-3.967 1.191-6.217 5.373-5.026 9.34.976 3.249 3.955 5.345 7.18 5.345z"/><path d="m293.735 178.206 16.032 4.815c.719.216 1.446.319 2.16.319 3.225 0 6.205-2.097 7.18-5.345 1.191-3.967-1.059-8.149-5.026-9.34l-16.032-4.815c-3.967-1.192-8.148 1.059-9.34 5.026-1.191 3.966 1.059 8.148 5.026 9.34z"/><path d="m208.419 247.984c0 21.816 21.345 39.564 47.581 39.564s47.581-17.749 47.581-39.564c0-4.142-3.358-7.5-7.5-7.5h-80.161c-4.143 0-7.501 3.358-7.501 7.5zm78.609 7.5c-4.214 9.889-16.53 17.064-31.028 17.064s-26.814-7.176-31.028-17.064z"/><path d="m418.915 407.062-75.253-32.011v-54.922c0-7.023-3.205-13.51-8.316-17.89 17.067-17.27 27.832-39.128 31.108-62.789h4.45c14.617 0 27.154-10.861 28.542-24.727.778-7.771-1.764-15.531-6.975-21.288-2.439-2.696-5.372-4.846-8.593-6.379l2.624-36.743c4.029-1.958 7.496-5.045 9.871-8.966 5.992-9.901 3.799-22.502-4.619-29.879-.13-61.485-50.19-111.468-111.706-111.468h-48.097c-61.516 0-111.575 49.982-111.707 111.468-8.417 7.377-10.61 19.979-4.613 29.889 3.584 5.902 9.365 9.671 15.659 10.894-7.493 18.962-17.776 58.073-9.473 118.274.518 3.756 3.732 6.477 7.42 6.476.341 0 .687-.023 1.034-.071 4.103-.566 6.971-4.351 6.405-8.455-10.006-72.541 8.743-112.397 12.917-120.164 10.55-6.258 21.6-11.548 33.017-15.827-14.221 24.033-36.077 69.793-30.248 116.429 2.438 19.506-.328 33.282-8.22 40.944-9.163 8.897-23.087 6.857-23.186 6.84-4.084-.682-7.95 2.079-8.631 6.165s2.079 7.95 6.165 8.631c.278.046 2.599.414 6.11.414 7.35 0 19.911-1.61 29.839-11.141 3.283-3.151 5.959-6.884 8.07-11.146 3.663 5.13 7.795 9.906 12.332 14.291-4.104 4.322-6.504 10.116-6.504 16.217v108.386c-13.525-17.723-20.925-36.794-22.044-56.894-1.069-19.175 4.279-32.278 4.384-32.529 1.614-3.802-.15-8.196-3.949-9.824-3.807-1.633-8.216.131-9.848 3.939-.273.638-6.68 15.874-5.608 38.382.257 5.404.982 11.533 2.459 18.184l-40.646 17.29c-17.59 7.482-28.957 24.668-28.957 43.784v53.654c0 4.142 3.358 7.5 7.5 7.5s7.5-3.358 7.5-7.5v-53.654c0-13.089 7.783-24.857 19.828-29.981l39.031-16.602c5.627 15.34 15.536 32.417 32.548 49.429 1.435 1.435 3.353 2.197 5.305 2.197.966 0 1.941-.187 2.869-.571 2.803-1.161 4.63-3.896 4.63-6.929v-56.299c22.699 10.29 47.574 15.701 72.661 15.701 28.005 0 55.746-6.74 80.489-19.49l18.249 7.763c-1.931 2.234-4.247 4.12-6.862 5.539-28.038 15.212-59.808 23.253-91.876 23.253-15.723 0-31.459-1.936-46.773-5.753-4.016-1.001-8.089 1.444-9.091 5.463s1.444 8.089 5.463 9.091c16.499 4.113 33.457 6.198 50.401 6.198 34.559 0 68.803-8.668 99.029-25.069 5.606-3.041 10.379-7.401 13.932-12.673l44.082 18.751c12.045 5.124 19.828 16.892 19.828 29.981v53.655c0 4.142 3.358 7.5 7.5 7.5s7.5-3.358 7.5-7.5v-53.654c0-19.116-11.366-36.302-28.956-43.784zm-67.425-264.794c4.262 2.192 8.455 4.534 12.57 7.026 2.262 1.366 4.721 2.332 7.272 2.878l-2.282 31.954c-9.916-1.458-17.559-9.998-17.559-20.313v-21.545zm-223.031-8.686c-2.437-4.027-1.146-9.286 2.877-11.723 10.011-6.062 20.566-11.435 31.371-15.969 3.819-1.603 5.616-5.998 4.013-9.818s-5.999-5.615-9.818-4.013c-7.192 3.018-14.279 6.386-21.187 10.065 4.83-48.843 46.146-87.124 96.237-87.124h48.097c50.093 0 91.409 38.283 96.235 87.128-25.228-13.44-52.518-22.52-80.719-26.917v-11.598c0-12.976-10.557-23.532-23.532-23.532h-32.064c-12.976 0-23.532 10.557-23.532 23.532v11.605c-8.921 1.39-17.767 3.243-26.496 5.569-4.002 1.066-6.382 5.176-5.316 9.178s5.175 6.382 9.178 5.316c20.258-5.398 41.184-8.136 62.198-8.136 44.049 0 87.157 12.004 124.662 34.714 4.024 2.437 5.315 7.696 2.88 11.72-1.562 2.578-4.296 4.116-7.316 4.116-1.542 0-3.068-.429-4.404-1.236-34.832-21.098-74.882-32.25-115.822-32.25s-80.99 11.152-115.826 32.252c-4.017 2.437-9.275 1.14-11.716-2.879zm152.105-60.253c-8.14-.781-16.336-1.184-24.564-1.184-8.211 0-16.409.397-24.564 1.18v-9.712c0-4.705 3.828-8.532 8.532-8.532h32.064c4.705 0 8.532 3.828 8.532 8.532zm-112.729 196.151c.621-6.745.44-14.215-.586-22.427-6.933-55.463 31.199-112.306 37.708-121.533 16.593-4.168 33.731-6.312 51.043-6.312 27.791 0 55.136 5.511 80.49 16.09v28.513c0 19.606 15.95 35.557 35.556 35.557 3.537 0 6.927 1.505 9.303 4.13 2.407 2.66 3.533 6.115 3.171 9.729-.63 6.292-6.611 11.221-13.617 11.221h-3.385v-.439c0-4.141-3.356-7.499-7.497-7.5-.001 0-.002 0-.003 0-4.14 0-7.497 3.354-7.5 7.495-.019 25.779-10.084 50.003-28.342 68.211-18.239 18.188-42.532 28.284-68.405 28.426-37.853.227-72.313-19.852-87.936-51.161zm15.504 105.996v-55.347c0-2.533 1.15-4.913 3.055-6.521 19.223 13.985 43.33 22.038 68.792 22.038.222 0 .445-.001.667-.002 24.923-.137 48.577-8.293 67.96-23.204 2.891 1.397 4.848 4.379 4.848 7.69v55.347c-22.379 11.339-47.404 17.314-72.661 17.314s-50.282-5.976-72.661-17.315z"/></g></g></svg>