<svg id="Capa_1" enable-background="new 0 0 512.034 512.034" height="512" viewBox="0 0 512.034 512.034" width="512" xmlns="http://www.w3.org/2000/svg"><g><g><path d="m357.623 77.265c22.198 5.223 31.228 23.058 28.446 39.749l-11.471 67.979-46.436-1.106-48.097-96.194z" fill="#845252"/><path d="m363.939 17.437c-1.517-4.725-7.026-6.996-11.358-4.573-8.337 4.665-23.876 10.7-48.468 10.7h-72.145c-21.5 0-40.481 10.618-52.116 26.855l-7.258.726c-24.999 2.499-43.51 24.375-41.839 49.442l5.019 75.283 64.129 16.032 32.065-88.177h88.177c7.179 0 14.322-1.694 20.872-4.818 20.96-9.999 35.5-42.299 22.922-81.47z" fill="#7a4646"/><path d="m413.879 366.119-84.486-24.849c-10.235-3.01-17.263-12.403-17.263-23.071v-38.119h-112.226v38.119c0 10.668-7.028 20.061-17.263 23.071l-84.486 24.849c-20.469 6.02-34.526 24.806-34.526 46.142h384.774c.001-21.335-14.055-40.121-34.524-46.142z" fill="#f1a673"/><path d="m413.879 366.119-84.486-24.849c-1.429-.42 8.079 3.594 6.786 2.939l-80.165 24.048-80.157-24.048c-1.293.655 8.214-3.359 6.786-2.939l-84.486 24.849c-20.469 6.02-34.525 24.806-34.525 46.142v92.271h53.358l142.045-25.843 133.259 25.843h56.113v-92.271c-.003-21.335-14.059-40.121-34.528-46.142z" fill="#fd7"/><path d="m333.428 357.491-9.558-9.558-67.852 12.309-67.852-12.309-9.558 9.558c-12.027 12.026-18.783 28.338-18.783 45.346v101.695h72.145l23.154-18.676 24.942 18.676h72.145v-101.695c0-17.008-6.757-33.32-18.783-45.346z" fill="#e9e7e9"/><path d="m333.428 357.491-9.558-9.558-67.852 12.309-67.852-12.309-9.558 9.558c-3.935 3.935-7.242 8.363-9.997 13.09l29.619 33.85c4.566 5.219 11.163 8.212 18.1 8.212 6.423 0 12.461-2.502 17.003-7.044l22.685-22.684 22.686 22.685c4.541 4.542 10.58 7.043 17.002 7.043 6.936 0 13.534-2.993 18.1-8.213l29.619-33.85c-2.755-4.726-6.062-9.154-9.997-13.089z" fill="#d8d5d8"/><path d="m244.438 400.323-12.469 104.209h48.096l-12.469-104.209z" fill="#61444f"/><path d="m266.272 408.339h-20.509c-3.45 0-6.514-2.208-7.605-5.481l-14.205-42.616h64.129l-14.205 42.616c-1.092 3.273-4.155 5.481-7.605 5.481z" fill="#6b4f5a"/><path d="m256.017 336.193c20.354 0 39.529-4.868 56.624-13.307-.304-1.527-.511-3.085-.511-4.688v-38.119h-112.226v38.119c0 1.602-.206 3.16-.511 4.688 17.095 8.44 36.27 13.307 56.624 13.307z" fill="#df976c"/><path d="m194.549 326.093-21.122 25.647 31.225 35.685c6.107 6.979 16.844 7.337 23.402.779l27.963-27.963z" fill="#e9e7e9"/><path d="m317.485 326.093 21.122 25.647-31.225 35.685c-6.107 6.979-16.844 7.337-23.402.779l-27.963-27.963z" fill="#e9e7e9"/><path d="m372.251 175.871h-8.719-.345c-9.746 0-16.986-9.025-14.872-18.54 6.113-27.51-14.82-53.605-43.001-53.605l-92.869 5.516c-28.181 0-54.838 20.579-48.725 48.089 2.115 9.514-5.126 18.54-14.872 18.54h-.345-8.719c-11.068 0-20.04 8.972-20.04 20.04s8.972 20.04 20.04 20.04h12.429c4.106 53.795 48.957 96.194 103.805 96.194s99.699-42.398 103.805-96.194h12.429c11.068 0 20.04-8.973 20.04-20.04-.001-11.068-8.973-20.04-20.041-20.04z" fill="#f8ba7e"/><path d="m226.783 228.644c-3.797 0-6.875 3.519-5.927 7.196 3.675 14.244 18.022 24.868 35.161 24.868s31.486-10.625 35.161-24.868c.949-3.677-2.129-7.196-5.927-7.196z" fill="#fff"/><path d="m223.953 127.774h64.129c6.423 0 12.463-2.502 17.004-7.044 4.404-4.404 6.839-10.226 6.986-16.43-2.205-.338-4.445-.574-6.758-.574h-98.593c-28.181 0-49.114 26.095-43.001 53.605 2.114 9.514-5.126 18.54-14.872 18.54h-.346-8.719c-11.068 0-20.04 8.972-20.04 20.04s8.972 20.04 20.04 20.04h12.429c4.106 53.795 48.958 96.194 103.805 96.194 12.594 0 24.616-2.326 35.783-6.422l-18.478-2.851c-47.186-7.282-81.434-47.209-81.434-94.937v-48.097c0-17.68 14.384-32.064 32.065-32.064z" fill="#f1a673"/><g fill="#ffcd5c"><path d="m113.036 379.557c-.871 2.872.065 6.028 2.25 8.087l14.478 13.64c3.291 3.1 3.368 8.306.171 11.503l-19.844 19.844c-3.962 3.962-5.568 9.705-4.236 15.147l13.887 56.755h40.081v-103.088c0-17.008 6.756-33.32 18.783-45.346l9.558-9.558c7.516-7.517 11.739-17.711 11.739-28.342v-15.462c.001 0-68.575 16.559-86.867 76.82z"/><path d="m398.998 379.557c.871 2.872-.065 6.028-2.25 8.087l-14.478 13.64c-3.291 3.1-3.368 8.306-.171 11.503l19.844 19.844c3.962 3.962 5.568 9.705 4.236 15.147l-13.887 56.755h-40.081v-103.088c0-17.008-6.756-33.32-18.783-45.346l-9.558-9.558c-7.516-7.517-11.739-17.711-11.739-28.342v-15.462c-.001 0 68.575 16.559 86.867 76.82z"/></g></g><g><path d="m215.42 192.6v-8.016c0-4.142-3.358-7.5-7.5-7.5s-7.5 3.358-7.5 7.5v8.016c0 4.142 3.358 7.5 7.5 7.5s7.5-3.358 7.5-7.5z"/><path d="m304.114 177.084c-4.142 0-7.5 3.358-7.5 7.5v8.016c0 4.142 3.358 7.5 7.5 7.5s7.5-3.358 7.5-7.5v-8.016c0-4.142-3.358-7.5-7.5-7.5z"/><path d="m223.436 159.839c0-4.142-3.358-7.5-7.5-7.5h-16.032c-4.142 0-7.5 3.358-7.5 7.5s3.358 7.5 7.5 7.5h16.032c4.142 0 7.5-3.358 7.5-7.5z"/><path d="m296.098 167.339h16.032c4.142 0 7.5-3.358 7.5-7.5s-3.358-7.5-7.5-7.5h-16.032c-4.142 0-7.5 3.358-7.5 7.5s3.358 7.5 7.5 7.5z"/><path d="m299.589 228.644c0-4.142-3.358-7.5-7.5-7.5h-72.145c-4.142 0-7.5 3.358-7.5 7.5 0 21.816 19.547 39.564 43.573 39.564s43.572-17.748 43.572-39.564zm-70.783 7.5h54.422c-3.696 9.889-14.497 17.064-27.211 17.064s-23.516-7.175-27.211-17.064z"/><path d="m415.995 357.532-21.976-6.464c-21.046-32.773-55.989-47.766-71.888-53.153 23.682-17.451 40.264-44.013 44.517-74.464h4.458c14.618 0 27.155-10.862 28.544-24.728.778-7.771-1.764-15.53-6.974-21.288-2.304-2.546-5.044-4.609-8.054-6.123l8.845-53.068c3.011-18.07-6.557-35.346-22.741-42.584 7.565-18.947 7.963-44.092-3.605-71.084-.98-2.287-3.001-3.969-5.445-4.44-2.445-.47-4.932.272-6.692 2.032-.036.035-3.706 3.492-11.716 6.911-7.464 3.186-20.315 6.983-39.153 6.983h-72.145c-21.843 0-42.572 10.114-56.126 27.219l-3.993.399c-29.19 2.919-50.528 28.134-48.576 57.405l4.687 70.302c-8.469 4.162-14.627 12.231-15.576 21.707-.778 7.771 1.764 15.531 6.974 21.289 5.214 5.762 12.658 9.066 20.425 9.066h5.598c4.25 30.456 20.828 57.017 44.511 74.467-15.904 5.39-50.836 20.384-71.877 53.15l-21.976 6.463c-23.498 6.912-39.909 28.845-39.909 53.338v93.662c0 4.142 3.358 7.5 7.5 7.5s7.5-3.358 7.5-7.5v-93.659c0-17.885 11.983-33.901 29.142-38.947l8.342-2.454c-1.002 2.556-1.928 5.187-2.754 7.908-1.676 5.522.005 11.694 4.283 15.724l14.479 13.64c.04.037.159.15.162.368s-.113.334-.151.373l-19.844 19.844c-5.777 5.777-8.16 14.296-6.218 22.233l13.887 56.755c.838 3.425 3.904 5.719 7.279 5.719.59 0 1.19-.07 1.789-.217 4.023-.984 6.487-5.044 5.502-9.068l-13.887-56.755c-.704-2.878.16-5.967 2.254-8.062l19.844-19.843c2.993-2.992 4.606-6.971 4.543-11.202-.063-4.232-1.794-8.161-4.875-11.063l-14.479-13.641c-.179-.168-.226-.391-.215-.449 12.904-42.513 53.7-61.939 72.191-68.728v5.192c0 8.703-3.389 16.884-9.542 23.038l-9.559 9.558c-13.529 13.529-20.979 31.517-20.979 50.649v103.087c0 4.142 3.358 7.5 7.5 7.5s7.5-3.358 7.5-7.5v-103.084c0-12.461 4.006-24.302 11.394-34.069l20.218 24.261c4.223 5.067 10.423 8.144 17.012 8.443.354.016.707.024 1.059.024 3.991 0 7.897-1.027 11.352-2.926l.856 2.57c1.348 4.045 3.724 7.522 6.768 10.206l-11.459 93.668c-.503 4.111 2.422 7.852 6.534 8.355.31.038.616.057.92.057 3.735 0 6.97-2.788 7.435-6.59l10.967-89.65c.386.019.77.046 1.16.046h8.954c.386 0 .767-.027 1.15-.046l10.977 89.651c.465 3.802 3.699 6.589 7.435 6.589.304 0 .611-.019.921-.057 4.111-.503 7.036-4.245 6.533-8.356l-11.468-93.659c3.048-2.685 5.427-6.165 6.777-10.214l.856-2.569c3.455 1.899 7.361 2.926 11.352 2.926.352 0 .706-.008 1.059-.024 6.589-.299 12.79-3.376 17.012-8.443l20.218-24.261c7.388 9.768 11.394 21.609 11.394 34.07v103.087c0 4.142 3.358 7.5 7.5 7.5s7.5-3.358 7.5-7.5v-103.089c0-19.133-7.451-37.12-20.979-50.65l-9.559-9.558c-6.153-6.154-9.542-14.335-9.542-23.038v-5.193c18.492 6.789 59.287 26.216 72.19 68.726.011.06-.036.283-.215.451l-14.479 13.64c-3.081 2.902-4.812 6.831-4.875 11.063s1.55 8.21 4.543 11.202l19.844 19.843c2.095 2.095 2.958 5.184 2.254 8.061l-13.887 56.755c-.984 4.023 1.479 8.083 5.502 9.068.599.146 1.198.217 1.789.217 3.375 0 6.441-2.295 7.279-5.719l13.887-56.756c1.942-7.936-.441-16.455-6.218-22.232l-19.844-19.844c-.038-.038-.154-.154-.151-.372.003-.219.123-.331.162-.368l14.478-13.64c4.278-4.03 5.959-10.202 4.283-15.724-.826-2.722-1.752-5.353-2.754-7.909l8.343 2.454c17.158 5.047 29.142 21.062 29.142 38.947v93.662c0 4.142 3.358 7.5 7.5 7.5s7.5-3.358 7.5-7.5v-93.661c-.001-24.493-16.412-46.426-39.91-53.338zm-159.978-5.928-48.931-27.961c.203-1.795.318-3.61.318-5.443v-9.701c14.705 7.137 31.199 11.146 48.613 11.146 17.412 0 33.906-4.012 48.613-11.153v9.708c0 1.833.115 3.648.318 5.443zm-96.709-143.668c0-4.142-3.358-7.5-7.5-7.5s-7.5 3.358-7.5 7.5v.516h-4.524c-3.537 0-6.927-1.506-9.303-4.131-2.407-2.66-3.533-6.115-3.171-9.729.63-6.292 6.612-11.221 13.618-11.221h10.88c12.976 0 23.532-10.556 23.532-23.532v-24.049c0-13.545 11.02-24.564 24.564-24.564 4.142 0 7.5-3.358 7.5-7.5s-3.358-7.5-7.5-7.5c-21.816 0-39.564 17.749-39.564 39.564v24.048c0 4.705-3.828 8.532-8.532 8.532h-9.016l-4.552-68.281c-1.41-21.151 14.008-39.372 35.102-41.482l7.257-.726c2.145-.215 4.094-1.342 5.35-3.094 10.644-14.855 27.848-23.724 46.02-23.724h72.145c17.678 0 33.2-2.915 46.133-8.663 2.425-1.078 4.542-2.165 6.367-3.202 11.185 34.441-.2 64.053-18.825 72.938-5.605 2.674-11.706 4.087-17.642 4.087h-88.177c-4.142 0-7.5 3.358-7.5 7.5s3.358 7.5 7.5 7.5h88.177c8.157 0 16.491-1.919 24.101-5.549 7.473-3.565 14.092-9.315 19.342-16.749 10.629 4.217 17.012 15.271 15.082 26.852l-8.765 52.591h-9.679c-4.705 0-8.532-3.828-8.532-8.532v-32.064c0-4.142-3.358-7.5-7.5-7.5s-7.5 3.358-7.5 7.5v32.064c0 12.976 10.557 23.532 23.532 23.532h12.024c3.537 0 6.927 1.505 9.302 4.13 2.407 2.659 3.533 6.115 3.171 9.729-.63 6.292-6.612 11.222-13.618 11.222h-3.383v-.439c0-4.141-3.356-7.499-7.497-7.5-.001 0-.002 0-.003 0-4.14 0-7.497 3.354-7.5 7.495-.039 53.286-43.421 96.638-96.706 96.638-53.327.002-96.71-43.382-96.71-96.707zm57.319 177.16c-2.424-.11-4.615-1.197-6.168-3.061l-21.446-25.735 4.455-4.455c3.937-3.937 7.098-8.442 9.409-13.33l40.894 23.368-20.724 20.723c-1.716 1.715-4 2.6-6.42 2.49zm34.913 15.743c-3.678 0-6.931-2.344-8.094-5.834l-2.896-8.689 15.468-15.467 15.468 15.467-2.896 8.689c-1.163 3.49-4.416 5.834-8.094 5.834zm71.481-44.54-21.446 25.735c-1.554 1.864-3.744 2.952-6.168 3.062-2.427.111-4.703-.774-6.419-2.49l-20.724-20.723 40.894-23.368c2.311 4.888 5.472 9.394 9.409 13.33z"/></g></g></svg>