<svg id="Capa_1" enable-background="new 0 0 512 512" height="512" viewBox="0 0 512 512" width="512" xmlns="http://www.w3.org/2000/svg"><g><g><path d="m413.597 398.34-21.229-6.065-136.274 48.097-136.274-48.098-21.229 6.065c-20.648 5.899-34.884 24.772-34.884 46.246l23.86 59.915h360.914v-59.914c0-21.474-14.236-40.347-34.884-46.246z" fill="#76d4ec"/><path d="m320.958 312.113h-129.728c-31.33 0-43.111 34.898-23.314 48.097l88.177 48.097 88.177-48.097c19.799-13.199 8.017-48.097-23.312-48.097z" fill="#24aadb"/><path d="m280.142 7.5h-48.097c-57.553 0-104.21 46.656-104.21 104.21v16.032h256.516v-16.032c.001-57.554-46.655-104.21-104.209-104.21z" fill="#b0def5"/><path d="m256.094 7.5h-24.048c-57.553 0-104.21 46.656-104.21 104.21v16.032h128.258z" fill="#76d4ec"/><path d="m328.239 392.274v-19.447c-9.544-3.387-16.032-12.375-16.032-22.597v-54.15h-112.226v54.149c0 10.222-6.489 19.21-16.032 22.597v19.447l72.145 32.065z" fill="#f8ba7e"/><path d="m312.207 296.081h-112.226v54.149c0 10.222-6.49 19.21-16.032 22.597v19.447l7.553 3.357c20.077-6.709 32.527-22.826 32.527-42.655 0-1.48.744-2.392 1.37-2.896.994-.795 2.317-1.104 3.648-.802 27.832 6.062 57.545 2.3 83.16-10.177z" fill="#f1a673"/><path d="m372.328 191.871h-12.024v-72.145l-104.21-24.048-104.21 24.048v72.145h-12.024c-11.068 0-20.04 8.972-20.04 20.04s8.972 20.04 20.04 20.04h12.429c4.106 53.795 48.957 96.194 103.805 96.194s99.699-42.398 103.805-96.194h12.429c11.068 0 20.04-8.973 20.04-20.04 0-11.068-8.972-20.04-20.04-20.04z" fill="#ffce8a"/><path d="m256.094 95.677-104.21 24.048v72.145h-10.881c-10.483 0-20.036 7.543-21.08 17.973-1.201 11.996 8.187 22.107 19.937 22.107h12.429c4.106 53.795 48.957 96.194 103.805 96.194 5.483 0 10.83-.534 16.083-1.351-49.946-7.708-88.228-50.754-88.228-102.859v-57.321c0-10.627 6.925-20.163 17.14-23.092 17.781-5.099 36.277-7.765 55.005-7.765 36.85 0 72.885 10.088 104.164 29.169.026-.015.02-8.027.046-8.042v-37.159z" fill="#f8ba7e"/><path d="m222.852 247.984c-3.795 0-6.868 3.57-5.819 7.218 4.093 14.233 20.028 24.847 39.061 24.847s34.968-10.614 39.061-24.847c1.049-3.648-2.023-7.218-5.819-7.218z" fill="#fff"/><path d="m127.836 135.758v60.211c3.357-2.537 7.491-4.099 12.024-4.099h12.024c8.854 0 16.032-7.178 16.032-16.032v-48.097z" fill="#61444f"/><path d="m384.352 135.758v60.211c-3.357-2.537-7.491-4.099-12.024-4.099h-12.024c-8.854 0-16.032-7.178-16.032-16.032v-56.113z" fill="#6b4f5a"/><path d="m384.642 115.444c-38.675-23.418-83.124-35.799-128.548-35.799s-89.872 12.38-128.548 35.799c-7.574 4.587-9.993 14.447-5.409 22.021 3.014 4.975 8.306 7.73 13.731 7.73 2.83 0 5.691-.752 8.29-2.321 33.661-20.389 72.368-31.164 111.936-31.164s78.275 10.776 111.936 31.164c2.599 1.57 5.46 2.321 8.29 2.321 5.425 0 10.717-2.756 13.731-7.73 4.583-7.574 2.164-17.434-5.409-22.021z" fill="#b5afb5"/><g><path d="m376.889 340.676c-5.085-16.954-20.69-28.563-38.391-28.563h-17.54c23.793 0 33.137 30.859 13.34 44.058l-78.204 52.135-78.204-52.135c-19.797-13.198-10.453-44.058 13.34-44.058h-17.54c-17.701 0-33.305 11.61-38.391 28.563l-15.479 51.598 136.274 48.096 136.274-48.096z" fill="#4fc0ec"/></g><path d="m104.484 421.325 56.684-14.457-41.349-14.594-21.229 6.065c-20.648 5.899-34.884 24.772-34.884 46.246v59.915h23.861v-60.207c0-10.474 6.936-19.864 16.917-22.968z" fill="#4fc0ec"/></g><g><path d="m215.309 207.902v-8.016c0-4.142-3.358-7.5-7.5-7.5s-7.5 3.358-7.5 7.5v8.016c0 4.142 3.358 7.5 7.5 7.5s7.5-3.358 7.5-7.5z"/><path d="m304.003 192.386c-4.142 0-7.5 3.358-7.5 7.5v8.016c0 4.142 3.358 7.5 7.5 7.5s7.5-3.358 7.5-7.5v-8.016c0-4.142-3.358-7.5-7.5-7.5z"/><path d="m199.793 183.337h16.032c4.142 0 7.5-3.358 7.5-7.5s-3.358-7.5-7.5-7.5h-16.032c-4.142 0-7.5 3.358-7.5 7.5s3.358 7.5 7.5 7.5z"/><path d="m295.987 183.337h16.032c4.142 0 7.5-3.358 7.5-7.5s-3.358-7.5-7.5-7.5h-16.032c-4.142 0-7.5 3.358-7.5 7.5s3.358 7.5 7.5 7.5z"/><path d="m416.072 390.955-17.844-5.248-14.156-47.186c-6.084-20.282-24.399-33.909-45.574-33.909h-5.417c17.731-16.97 29.901-39.708 33.456-65.163h4.459c14.617 0 27.154-10.861 28.542-24.727.778-7.771-1.765-15.53-6.975-21.288-.293-.323-.594-.636-.901-.944v-45.5c1.87-1.6 3.502-3.496 4.803-5.644 5.992-9.901 3.8-22.501-4.618-29.879-.129-61.485-50.188-111.467-111.704-111.467h-48.097c-61.517 0-111.576 49.982-111.707 111.469-8.417 7.377-10.61 19.978-4.613 29.889 1.235 2.034 2.734 3.812 4.422 5.323v46.194c-4.341 4.313-7.248 9.958-7.875 16.22-.778 7.771 1.764 15.531 6.974 21.289 5.214 5.762 12.658 9.066 20.425 9.066h5.598c3.552 25.457 15.717 48.194 33.445 65.163h-5.026c-21.175 0-39.489 13.627-45.574 33.909l-14.138 47.125-18.05 5.309c-23.498 6.911-39.909 28.845-39.909 53.338v60.206c0 4.142 3.358 7.5 7.5 7.5s7.5-3.358 7.5-7.5v-60.206c0-17.885 11.983-33.9 29.142-38.947l18.633-5.48 57.655 20.349v84.284c0 4.142 3.358 7.5 7.5 7.5s7.5-3.358 7.5-7.5v-78.992l62.149 21.935c.808.285 1.652.428 2.496.428s1.688-.143 2.496-.428l62.149-21.935v78.992c0 4.142 3.358 7.5 7.5 7.5s7.5-3.358 7.5-7.5v-84.286l57.569-20.319 18.531 5.45c17.158 5.047 29.142 21.062 29.142 38.947v60.206c0 4.142 3.358 7.5 7.5 7.5s7.5-3.358 7.5-7.5v-60.206c.001-24.492-16.41-46.426-39.908-53.337zm-79.276-59.589c1.72 5.682.874 13.542-6.659 18.564l-9.328 6.219c-.719-1.874-1.102-3.867-1.102-5.919v-30.618h1.251c9.054.001 14.118 6.072 15.838 11.754zm-73.202-316.366h16.549c50.093 0 91.409 38.284 96.235 87.128-34.693-18.482-73.287-28.714-112.784-29.866zm-132.163 106.859c10.011-6.062 20.566-11.435 31.371-15.969 3.82-1.603 5.617-5.998 4.014-9.817-1.603-3.82-6-5.617-9.818-4.014-7.192 3.018-14.28 6.386-21.188 10.065 4.829-48.843 46.144-87.124 96.235-87.124h16.548v57.26c-19.791.578-39.455 3.435-58.56 8.526-4.002 1.067-6.382 5.176-5.316 9.178 1.066 4.003 5.176 6.383 9.178 5.316 20.257-5.398 41.184-8.135 62.198-8.135 44.049 0 87.157 12.004 124.663 34.713 4.024 2.437 5.315 7.696 2.88 11.72-1.562 2.578-4.296 4.117-7.316 4.117-1.542 0-3.068-.43-4.404-1.236-34.833-21.098-74.883-32.249-115.822-32.249s-80.989 11.151-115.826 32.252c-4.017 2.436-9.274 1.139-11.715-2.88-2.436-4.027-1.145-9.286 2.878-11.723zm245.233 30.825v32.066c-1.486-.249-2.998-.38-4.524-.38h-12.024c-4.705 0-8.532-3.828-8.532-8.532v-33.569c4.262 2.192 8.455 4.534 12.569 7.026 3.684 2.225 7.891 3.401 12.167 3.401.115-.001.229-.01.344-.012zm-216.435-10.222v33.375c0 4.705-3.828 8.532-8.532 8.532h-10.88c-1.933 0-3.828.195-5.668.557v-32.257c4.393.141 8.87-.938 12.896-3.38 3.989-2.417 8.054-4.692 12.184-6.827zm-1.033 81.472c0-4.142-3.358-7.5-7.5-7.5s-7.5 3.358-7.5 7.5v.516h-4.524c-3.537 0-6.927-1.506-9.303-4.131-2.407-2.66-3.533-6.115-3.171-9.729.63-6.292 6.611-11.22 13.617-11.22h10.88c12.976 0 23.532-10.557 23.532-23.532v-40.081c0-.099-.011-.195-.015-.293 25.461-10.685 52.946-16.254 80.88-16.254 27.791 0 55.136 5.511 80.49 16.09v40.538c0 12.976 10.557 23.532 23.532 23.532h12.024c10.92 0 12.957 10.186 12.474 13.86-.824 6.269-6.611 11.221-13.617 11.221h-3.385v-.438c0-4.142-3.356-7.499-7.497-7.5-.001 0-.002 0-.003 0-4.14 0-7.497 3.354-7.5 7.494-.039 53.286-43.421 96.638-96.706 96.638-53.324-.001-96.708-43.385-96.708-96.711zm148.96 140.65-52.062 34.708-52.206-34.804c2.235-4.395 3.405-9.241 3.405-14.258v-25.733c14.705 7.138 31.199 11.146 48.613 11.146 17.486 0 34.047-4.044 48.801-11.243v25.83c0 5.053 1.183 9.935 3.449 14.354zm-132.764-33.218c1.72-5.682 6.785-11.753 15.838-11.753h1.063v30.618c0 2.015-.37 3.974-1.064 5.818l-9.178-6.119c-7.533-5.022-8.38-12.882-6.659-18.564zm80.702 101.051-127.036-44.836 13.425-44.75c3.138-10.461 11.03-18.332 20.928-21.581-.947 1.811-1.758 3.728-2.376 5.769-4.121 13.611.862 27.503 12.695 35.392l78.203 52.136c1.26.84 2.709 1.26 4.16 1.26 1.45 0 2.901-.42 4.16-1.26l78.204-52.136c11.833-7.889 16.816-21.781 12.695-35.392-.618-2.041-1.429-3.958-2.376-5.769 9.899 3.25 17.79 11.121 20.928 21.581l13.425 44.75z"/><path d="m208.513 247.984c0 21.816 21.345 39.564 47.581 39.564s47.581-17.749 47.581-39.564c0-4.142-3.358-7.5-7.5-7.5h-80.162c-4.142 0-7.5 3.358-7.5 7.5zm78.609 7.5c-4.214 9.889-16.53 17.064-31.028 17.064s-26.814-7.175-31.028-17.064z"/></g></g></svg>