<svg id="Capa_1" enable-background="new 0 0 512.063 512.063" height="512" viewBox="0 0 512.063 512.063" width="512" xmlns="http://www.w3.org/2000/svg"><g><path d="m256.036 296.304c54.576 0 111.811-14.583 150.977-33.452 11.522-5.551 17.119-18.91 12.891-30.981-6.882-19.645-2.266-49.474-2.266-93.608 0-76.064-59.723-157.061-156.507-122.482-3.298 1.178-6.892 1.178-10.19 0-96.784-34.578-156.507 46.418-156.507 122.483 0 44.134 4.616 73.963-2.266 93.608-4.228 12.071 1.368 25.43 12.891 30.981 39.166 18.868 96.401 33.451 150.977 33.451z" fill="#565e75"/><ellipse cx="256.036" cy="142.916" fill="#c99b80" rx="127.761" ry="104.222"/><g><g><g><g><ellipse cx="172.471" cy="165.063" fill="#f1bdc4" rx="30.834" ry="24.555"/></g><g><ellipse cx="339.601" cy="165.063" fill="#f1bdc4" rx="30.834" ry="24.555"/></g></g></g></g><path d="m262.918 23.143c65.342-21.551 104.546 30.937 115.35 63.38 1.598 4.799-2.093 9.67-7.149 9.535-29.675-.796-85.163-21.712-108.895-35.948-3.811-2.286-8.565-2.286-12.376 0-23.776 14.262-79.421 35.229-109.057 35.953-4.987.122-8.565-4.804-6.989-9.537 10.803-32.442 50.008-84.933 115.351-63.381 4.477 1.474 9.289 1.474 13.765-.002z" fill="#565e75"/><g><path d="m376.181 198.084h-239.415c-22.268 0-40.319 18.052-40.319 40.319v225.84c0 22.268 18.052 40.32 40.319 40.32h238.539c22.268 0 40.319-18.052 40.319-40.32v-226.715c0-7.418-2.947-14.532-8.192-19.777l-11.475-11.475c-5.244-5.245-12.358-8.192-19.776-8.192z" fill="#f5df4d"/><path d="m324.022 303.711h-135.973c-14.849 0-26.887-12.038-26.887-26.887v-78.74h189.746v78.74c.001 14.849-12.037 26.887-26.886 26.887z" fill="#fbf2b8"/><path d="m324.022 303.711h-36.595c-14.849 0-26.887-12.038-26.887-26.887v-78.74h90.368v78.74c.001 14.849-12.037 26.887-26.886 26.887z" fill="#d4d5d5"/><path d="m350.909 504.563h-189.746v-104.975c0-19.252 15.607-34.859 34.859-34.859h120.028c19.252 0 34.859 15.607 34.859 34.859z" fill="#d4d5d5"/><path d="m210.829 364.729h-14.808c-19.252 0-34.859 15.607-34.859 34.859v104.975h89.741c-32.353-26.865-42.291-97.963-40.074-139.834z" fill="#939597"/></g><path d="m399.651 271.757c-10.076-10.708-9.562-27.558 1.147-37.633 1.423-1.339 3.191-3.07 3.706-3.627 9.824-10.939 26.634-11.816 37.573-1.994 10.939 9.826 11.82 26.682 1.996 37.621-2.044 2.278-5.43 5.499-6.79 6.78-10.683 10.052-27.533 9.587-37.632-1.147z" fill="#c99b80"/><path d="m74.788 272.904c-1.36-1.28-4.745-4.502-6.79-6.78-9.824-10.939-8.921-27.771 2.019-37.595 10.928-9.816 27.734-8.923 37.563 1.981.531.572 2.282 2.285 3.697 3.617 10.704 10.077 11.215 26.925 1.14 37.631-10.072 10.702-26.918 11.224-37.629 1.146z" fill="#c99b80"/><path d="m305.725 269.02c4.142 0 7.5-3.357 7.5-7.5v-21.245c0-4.143-3.358-7.5-7.5-7.5s-7.5 3.357-7.5 7.5v21.245c0 4.142 3.358 7.5 7.5 7.5zm141.364-46.097c-6.561-5.892-14.794-8.769-22.982-8.724-1.5-18.046 1.031-43.105 1.031-75.935 0-32.358-10.436-65.278-28.632-90.318-2.435-3.35-7.124-4.092-10.477-1.658-3.351 2.436-4.093 7.126-1.658 10.477 16.375 22.534 25.767 52.239 25.767 81.5 0 28.809-2.018 52.064-1.388 70.197l-7.489-7.488c-5.911-5.91-13.541-9.473-21.762-10.231 15.674-29.678 16.757-66.798-2.971-98.676-1.311-2.117-3.587-3.446-6.075-3.547-28.79-1.161-82.328-21.617-104.372-34.841-6.196-3.717-13.896-3.716-20.093 0-22.043 13.224-75.581 33.68-104.37 34.84-2.488.101-4.765 1.43-6.075 3.547-19.394 31.337-18.969 68.42-2.95 98.713-11.086.985-21.372 5.85-29.173 13.426.236-17.54-1.487-39.13-1.487-65.938 0-71.19 54.981-148.114 146.483-115.42 4.914 1.757 10.325 1.757 15.237 0 36.883-13.179 70.689-9.542 97.763 10.513 3.327 2.467 8.024 1.767 10.491-1.563 2.466-3.328 1.767-8.024-1.562-10.49-21.815-16.16-58.907-31.461-111.739-12.585-1.658.592-3.484.592-5.143 0-51.518-18.409-88.02-4.166-109.572 11.02-37.028 26.09-56.958 73.613-56.958 118.525 0 32.932 2.539 57.933 1.035 75.97-8.187-.044-16.414 2.831-22.964 8.716-14.029 12.598-15.192 34.151-2.589 48.184 2.144 2.39 5.451 5.558 7.231 7.233.001 0 .001 0 .001.001 5.511 5.185 12.305 8.168 19.298 9.002.134 185.33-.343 177.264.389 182.991.524 4.094 4.263 7.013 8.391 6.488 4.109-.525 7.014-4.282 6.488-8.391-.505-3.942-.174 5.993-.268-182.633 24.259-8.151 31.24-39.488 12.47-57.159-4.434-4.173-4.57-4.852-7.685-7.273 5.881-9.639 16.502-15.809 28.035-15.809h16.896v71.24c0 18.961 15.426 34.387 34.387 34.387h135.973c18.961 0 34.387-15.426 34.387-34.387v-71.24h17.772c5.468 0 10.608 2.129 14.474 5.995l11.106 11.106c-2.242 1.977-1.963 2.085-6.102 5.976-13.735 12.923-14.396 34.499-1.47 48.235 3.976 4.226 8.786 7.201 13.936 8.931v178.416c0 18.097-14.723 32.819-32.819 32.819h-16.896v-97.475c0-23.357-19.002-42.359-42.359-42.359h-120.029c-23.357 0-42.359 19.002-42.359 42.359v97.475h-16.896c-6.153 0-12.147-1.71-17.335-4.945-3.516-2.19-8.141-1.119-10.333 2.396-2.191 3.515-1.119 8.141 2.396 10.333 7.572 4.721 16.311 7.217 25.272 7.217h238.539c26.368 0 47.819-21.452 47.819-47.819v-176.876c6.993-.834 13.788-3.819 19.299-9.004 1.78-1.676 5.087-4.844 7.229-7.23 12.586-14.012 11.436-35.64-2.563-48.214zm-340.134 43.695c-7.225 7.677-19.35 8.048-27.028.823-2.696-2.537-5.068-4.902-6.349-6.329-7.061-7.862-6.414-19.939 1.451-27.004 7.83-7.031 19.933-6.395 26.98 1.424.647.736 3.317 3.293 4.126 4.056 7.677 7.228 8.045 19.353.82 27.03zm81.094 29.593c-10.69 0-19.387-8.697-19.387-19.387v-71.24h84.378v71.24c0 7.192 2.233 13.863 6.023 19.387zm155.36-19.387c0 10.69-8.697 19.387-19.387 19.387h-36.595c-10.69 0-19.387-8.697-19.387-19.387v-71.24h75.369zm18.822-86.24h-212.39c-16.565-25.492-19.48-58.908-3.479-87.346 32.626-2.833 85.206-23.418 107.344-36.698 1.437-.863 3.223-.861 4.66 0 22.138 13.28 74.718 33.864 107.345 36.699 16.045 28.522 13.03 61.937-3.48 87.345zm-18.822 306.479h-174.746v-97.475c0-15.086 12.273-27.359 27.359-27.359h120.028c15.086 0 27.359 12.273 27.359 27.359zm95.083-235.947c-1.278 1.425-3.651 3.79-6.347 6.326-7.68 7.227-19.806 6.856-27.031-.824 0 0 0 0-.001 0-7.242-7.697-6.874-19.787.824-27.03 1.399-1.315 3.355-3.22 4.077-4.001 8.003-8.493 19.765-8.048 27.053-1.503 7.844 7.045 8.485 19.171 1.425 27.032zm-155.139 166.03h-54.634c-4.142 0-7.5 3.357-7.5 7.5s3.358 7.5 7.5 7.5h54.634c4.142 0 7.5-3.357 7.5-7.5s-3.358-7.5-7.5-7.5zm40.595-307.763c-11.803 0-21.406 9.603-21.406 21.406 0 4.143 3.358 7.5 7.5 7.5s7.5-3.357 7.5-7.5c0-3.532 2.874-6.406 6.406-6.406s6.406 2.874 6.406 6.406c0 4.143 3.358 7.5 7.5 7.5s7.5-3.357 7.5-7.5c0-11.803-9.603-21.406-21.406-21.406zm-45.691 16.014c-3.124-2.722-7.861-2.398-10.582.727-2.938 3.371-7.181 5.305-11.64 5.305-4.458 0-8.701-1.934-11.639-5.306-2.722-3.122-7.46-3.447-10.582-.727-3.122 2.722-3.448 7.459-.727 10.582 5.788 6.642 14.152 10.45 22.948 10.45 8.797 0 17.161-3.81 22.948-10.451 2.722-3.121 2.397-7.86-.726-10.58zm-87.817-13.774c-4.142 0-7.5 3.357-7.5 7.5v12c0 4.143 3.358 7.5 7.5 7.5s7.5-3.357 7.5-7.5v-12c0-4.142-3.358-7.5-7.5-7.5z"/></g></svg>