<svg height="512pt" viewBox="0 0 512.01475 512" width="512pt" xmlns="http://www.w3.org/2000/svg"><path d="m409.613281 503.472656h93.867188v-7.59375c.015625-10.929687-1.300781-21.816406-3.925781-32.425781l-7.933594-32.171875c-9.207032-33.554688-40.050782-56.558594-74.839844-55.808594h-321.535156c-34.789063-.75-65.632813 22.253906-74.835938 55.808594l-7.9375 32.171875c-2.621094 10.609375-3.941406 21.496094-3.925781 32.425781v7.59375zm0 0" fill="#91562d"/><path d="m503.480469 136.539062s-25.597657 42.667969-119.464844 59.734376h-256c-93.867187-17.066407-119.46875-59.734376-119.46875-59.734376l56.179687-25.597656h370.488282zm0 0" fill="#6d4122"/><path d="m187.746094 297.605469h136.535156v68.011719h-136.535156zm0 0" fill="#fec108"/><path d="m384.015625 150.28125v97.191406c.042969 12.839844-4.121094 25.339844-11.863281 35.585938l-49.75 28.414062h-137.386719l-45.226563-28.5c-7.675781-10.238281-11.808593-22.699218-11.773437-35.5v-97.191406zm0 0" fill="#fec108"/><path d="m358.414062 150.28125v97.191406c.128907 12.503906-3.152343 24.804688-9.488281 35.585938l-39.800781 28.414062h-109.90625l-36.183594-28.5c-6.285156-10.765625-9.539062-23.03125-9.421875-35.5v-97.191406zm0 0" fill="#ffdc00"/><path d="m132.792969 91.824219 31.0625-68.265625c4.167969-9.121094 13.265625-14.988282 23.296875-15.019532h137.726562c10.03125.03125 19.125 5.898438 23.296875 15.019532l31.058594 68.265625-125.351563 46.933593zm0 0" fill="#91562d"/><path d="m435.214844 503.472656h-358.398438l28.90625-139.921875c2.960938-8.835937 11.589844-14.488281 20.871094-13.675781h258.894531c9.28125-.8125 17.910157 4.839844 20.871094 13.675781zm0 0" fill="#6d4122"/><path d="m255.671875 273.074219c25.601563 0 25.601563 42.667969 93.867187 42.667969 68.269532 0 59.734376-34.136719 59.734376-34.136719-25.601563 17.070312-59.734376-8.53125-85.332032-34.132813-25.601562-25.597656-59.734375-8.53125-68.269531-8.53125h.34375c-8.535156 0-42.667969-17.066406-68.269531 8.53125-25.597656 25.601563-59.730469 51.203125-85.332032 34.132813 0 0-8.53125 34.136719 59.734376 34.136719 68.265624 0 68.265624-42.667969 93.867187-42.667969zm0 0" fill="#607d8b"/><path d="m153.613281 349.875 31.917969 47.957031h140.96875l31.914062-47.957031zm0 0" fill="#f5f5f5"/><path d="m256.015625 162.140625c60.726563 1.253906 121.25-7.394531 179.199219-25.601563 22.304687-6.410156 45.960937-6.410156 68.265625 0 0-34.132812-42.664063-59.730468-85.332031-51.199218-53.519532 9.902344-107.726563 15.605468-162.132813 17.066406-54.40625-1.460938-108.617187-7.164062-162.132813-17.066406-42.667968-8.53125-85.335937 17.066406-85.335937 51.199218 22.304687-6.410156 45.964844-6.410156 68.269531 0 57.945313 18.207032 118.472656 26.855469 179.199219 25.601563zm0 0" fill="#6d4122"/><path d="m290.148438 384.007812s61.945312 8.53125 76.800781 68.265626c0 0-51.203125 8.535156-51.203125 51.199218 0 0-59.730469-25.597656-59.730469-102.398437 0 76.800781-59.734375 102.398437-59.734375 102.398437 0-42.664062-51.199219-51.199218-51.199219-51.199218 14.851563-59.734376 76.800781-68.265626 76.800781-68.265626zm0 0" fill="#f44335"/><path d="m267.15625 401.074219h-22.285156c-8.339844 0-15.460938-6.03125-16.832032-14.261719l-2.847656-17.066406c-.824218-4.949219.570313-10.007813 3.8125-13.835938 3.246094-3.828125 8.007813-6.035156 13.023438-6.035156h27.972656c5.019531 0 9.78125 2.207031 13.023438 6.035156 3.242187 3.828125 4.636718 8.886719 3.8125 13.835938l-2.84375 17.066406c-1.371094 8.230469-8.492188 14.261719-16.835938 14.261719zm0 0" fill="#c81e1e"/><path d="m233.664062 175.699219c-8.109374-2.980469-16.628906-4.707031-25.257812-5.121094-11.605469-.875-23.214844 1.601563-33.453125 7.132813 1.167969-14.933594 35.789063-17.882813 52.714844-14.042969 2.683593.332031 5.019531 1.988281 6.226562 4.40625 1.203125 2.421875 1.117188 5.28125-.230469 7.625zm0 0"/><path d="m230.414062 202.085938c0-10.101563-7.640624-18.292969-17.066406-18.292969-9.425781 0-17.066406 8.191406-17.066406 18.292969 0 10.101562 7.640625 18.292968 17.066406 18.292968 9.425782 0 17.066406-8.191406 17.066406-18.292968zm0 0"/><path d="m218.132812 186.214844c-4.40625-1.675782-9.335937.535156-11.007812 4.941406-1.675781 4.40625.535156 9.335938 4.941406 11.007812 4.402344 1.675782 9.332032-.535156 11.007813-4.941406 1.675781-4.402344-.535157-9.332031-4.941407-11.007812zm0 0" fill="#fff"/><path d="m278.363281 175.699219c8.113281-2.980469 16.628907-4.707031 25.261719-5.121094 11.601562-.875 23.214844 1.601563 33.449219 7.132813-1.167969-14.933594-35.789063-17.882813-52.714844-14.042969-2.679687.332031-5.019531 1.988281-6.222656 4.40625-1.207031 2.421875-1.121094 5.28125.226562 7.625zm0 0"/><path d="m315.746094 202.085938c0-10.101563-7.640625-18.292969-17.066406-18.292969-9.425782 0-17.066407 8.191406-17.066407 18.292969 0 10.101562 7.640625 18.292968 17.066407 18.292968 9.425781 0 17.066406-8.191406 17.066406-18.292968zm0 0"/><path d="m304.90625 191.15625c-1.675781-4.40625-6.605469-6.617188-11.007812-4.941406-4.40625 1.675781-6.621094 6.605468-4.945313 11.007812 1.675781 4.40625 6.605469 6.617188 11.011719 4.945313 4.40625-1.675781 6.617187-6.605469 4.941406-11.011719zm0 0" fill="#fff"/><path d="m435.214844 512.007812h-358.398438c-2.566406 0-4.996094-1.15625-6.617187-3.144531-1.621094-1.988281-2.261719-4.601562-1.742188-7.113281l28.90625-139.921875c3.726563-12.84375 15.890625-21.367187 29.234375-20.488281h258.890625c13.367188-.882813 25.539063 7.667968 29.234375 20.542968l28.855469 139.867188c.519531 2.511719-.121094 5.125-1.742187 7.117188-1.625 1.988281-4.054688 3.140624-6.621094 3.140624zm-347.925782-17.066406h337.449219l-26.738281-129.664062c-2.257812-4.742188-7.296875-7.511719-12.511719-6.871094h-258.890625c-5.199218-.632812-10.226562 2.109375-12.507812 6.828125zm0 0"/><path d="m324.28125 358.40625h-136.535156c-4.710938 0-8.53125-3.820312-8.53125-8.53125v-36.523438c0-4.714843 3.820312-8.535156 8.53125-8.535156 4.714844 0 8.535156 3.820313 8.535156 8.535156v27.988282h119.464844v-27.988282c0-4.714843 3.824218-8.535156 8.535156-8.535156 4.714844 0 8.535156 3.820313 8.535156 8.535156v36.523438c0 4.710938-3.820312 8.53125-8.535156 8.53125zm0 0"/><path d="m305.335938 315.742188h-98.984376c-4.714843 0-8.535156-3.820313-8.535156-8.535157 0-4.710937 3.820313-8.53125 8.535156-8.53125h98.984376c4.714843 0 8.535156 3.820313 8.535156 8.53125 0 4.714844-3.820313 8.535157-8.535156 8.535157zm0 0"/><path d="m305.335938 315.742188h-98.984376c-4.714843 0-8.535156-3.820313-8.535156-8.535157 0-4.710937 3.820313-8.53125 8.535156-8.53125h98.984376c4.714843 0 8.535156 3.820313 8.535156 8.53125 0 4.714844-3.820313 8.535157-8.535156 8.535157zm0 0"/><path d="m139.796875 291.507812c-2.6875.003907-5.222656-1.261718-6.832031-3.414062-8.804688-11.707031-13.539063-25.972656-13.484375-40.621094v-97.191406c0-4.714844 3.820312-8.535156 8.535156-8.535156 4.710937 0 8.53125 3.820312 8.53125 8.535156v97.191406c-.042969 10.953125 3.492187 21.621094 10.070313 30.378906 1.9375 2.585938 2.25 6.042969.808593 8.933594-1.441406 2.890625-4.394531 4.71875-7.625 4.722656zm0 0"/><path d="m372.148438 291.589844c-3.238282 0-6.199219-1.835938-7.640626-4.738282-1.4375-2.902343-1.109374-6.371093.847657-8.953124 6.632812-8.75 10.191406-19.445313 10.125-30.425782v-97.191406c0-4.714844 3.820312-8.535156 8.535156-8.535156 4.710937 0 8.53125 3.820312 8.53125 8.535156v97.191406c.074219 14.707032-4.703125 29.027344-13.589844 40.742188-1.613281 2.132812-4.136719 3.382812-6.808593 3.375zm0 0"/><path d="m102.414062 512.007812h-93.867187c-4.710937 0-8.53125-3.820312-8.53125-8.535156v-7.59375c-.0078125-11.617187 1.394531-23.195312 4.175781-34.472656l7.933594-32.164062c10.023438-37.453126 44.363281-63.1875 83.121094-62.300782h8.023437c4.710938 0 8.53125 3.820313 8.53125 8.53125 0 4.714844-3.820312 8.535156-8.53125 8.535156h-8.023437c-30.898438-.871093-58.390625 19.492188-66.558594 49.308594l-7.9375 32.179688c-2.375 9.636718-3.605469 19.519531-3.667969 29.445312h85.332031c4.714844 0 8.535157 3.820313 8.535157 8.53125 0 4.714844-3.820313 8.535156-8.535157 8.535156zm0 0"/><path d="m503.480469 512.007812h-93.867188c-4.710937 0-8.53125-3.820312-8.53125-8.535156 0-4.710937 3.820313-8.53125 8.53125-8.53125h85.335938c-.066407-9.925781-1.300781-19.804687-3.675781-29.441406l-7.9375-32.179688c-8.164063-29.8125-35.652344-50.183593-66.554688-49.3125h-7.933594c-4.714844 0-8.535156-3.820312-8.535156-8.535156 0-4.710937 3.820312-8.53125 8.535156-8.53125h7.933594c38.765625-.890625 73.109375 24.851563 83.128906 62.308594l7.933594 32.160156c2.78125 11.28125 4.179688 22.855469 4.171875 34.46875v7.59375c0 4.714844-3.820313 8.535156-8.535156 8.535156zm0 0"/><path d="m128.023438 204.808594c-.515626 0-1.027344-.046875-1.535157-.136719-96.554687-17.558594-124.132812-61.863281-125.257812-63.738281-2.4375-4.035156-1.1445315-9.28125 2.890625-11.71875 4.035156-2.4375 9.28125-1.144532 11.71875 2.886718.449218.710938 25.949218 39.824219 113.699218 55.777344 4.34375.789063 7.367188 4.757813 6.976563 9.15625-.394531 4.398438-4.078125 7.769532-8.492187 7.773438zm0 0"/><path d="m256.015625 170.675781c-61.644531 1.246094-123.082031-7.546875-181.902344-26.039062-20.59375-5.808594-42.394531-5.796875-62.980469.039062-2.59375.820313-5.425781.355469-7.621093-1.25-2.195313-1.609375-3.496094-4.164062-3.496094-6.886719.398437-16.746093 8.394531-32.402343 21.734375-42.539062 20.941406-16.171875 47.898438-22.386719 73.804688-17.023438 52.972656 9.757813 106.617187 15.40625 160.460937 16.898438 53.839844-1.492188 107.484375-7.140625 160.457031-16.898438 25.910156-5.359374 52.867188.859376 73.808594 17.027344 13.335938 10.136719 21.335938 25.789063 21.734375 42.535156-.003906 2.722657-1.300781 5.277344-3.496094 6.886719-2.199219 1.605469-5.027343 2.070313-7.621093 1.25-20.585938-5.835937-42.390626-5.847656-62.984376-.039062-58.816406 18.492187-120.253906 27.285156-181.898437 26.039062zm-211.792969-47.628906c11.976563-.097656 23.894532 1.722656 35.292969 5.398437 57.082031 17.894532 116.691406 26.390626 176.5 25.160157 59.808594 1.230469 119.417969-7.265625 176.5-25.160157 19.578125-5.9375 40.3125-7.011718 60.398437-3.121093-2.785156-7.136719-7.429687-13.394531-13.449218-18.125-16.964844-12.972657-38.746094-17.898438-59.640625-13.492188-54.066407 10.027344-108.839844 15.789063-163.808594 17.234375-54.972656-1.445312-109.742187-7.210937-163.808594-17.238281-20.898437-4.417969-42.679687.511719-59.640625 13.492187-6.023437 4.730469-10.667968 10.988282-13.453125 18.125 8.289063-1.492187 16.691407-2.253906 25.109375-2.273437zm0 0"/><path d="m384.007812 204.808594c-4.417968-.003906-8.097656-3.375-8.492187-7.773438-.394531-4.398437 2.628906-8.367187 6.972656-9.15625 88.109375-16.019531 113.460938-55.386718 113.710938-55.785156 2.460937-3.980469 7.671875-5.234375 11.675781-2.8125 4.003906 2.425781 5.308594 7.625 2.921875 11.652344-1.125 1.875-28.699219 46.179687-125.257813 63.738281-.503906.089844-1.019531.132813-1.53125.136719zm0 0"/><path d="m379.246094 100.359375c-3.347656 0-6.386719-1.957031-7.773438-5.003906l-31.066406-68.265625c-2.785156-6.078125-8.84375-9.988282-15.527344-10.015625h-137.726562c-6.691406.03125-12.753906 3.949219-15.53125 10.039062l-31.0625 68.242188c-2.011719 4.183593-7 5.992187-11.222656 4.070312-4.226563-1.925781-6.140626-6.871093-4.308594-11.136719l31.066406-68.265624c5.566406-12.15625 17.6875-19.9687505 31.058594-20.0156255h137.726562c13.363282.0429687 25.484375 7.8476565 31.050782 19.9960935l31.078124 68.285156c1.195313 2.640626.972657 5.710938-.59375 8.148438-1.570312 2.4375-4.265624 3.917969-7.167968 3.925781zm0 0"/><path d="m349.539062 324.273438c-45.925781 0-63.734374-18.171876-76.734374-31.4375-7.347657-7.507813-11.183594-11.15625-16.964844-11.230469-5.777344.074219-9.609375 3.71875-16.957032 11.230469-13.007812 13.265624-30.808593 31.4375-76.734374 31.4375-30.734376 0-51.558594-6.714844-61.890626-19.960938-5.628906-6.9375-7.871093-16.019531-6.117187-24.777344.671875-2.6875 2.613281-4.882812 5.199219-5.882812 2.589844-1.003906 5.5-.683594 7.808594.855468 20.574218 13.714844 51.90625-10.410156 74.566406-33.066406 23.757812-23.753906 53.734375-16.105468 68.148437-12.425781 2.203125.558594 4.902344 1.25 6 1.375 1.050781-.121094 3.761719-.8125 5.960938-1.375 14.414062-3.667969 44.390625-11.320313 68.148437 12.425781 22.660156 22.65625 54.007813 46.777344 74.566406 33.066406 2.308594-1.539062 5.222657-1.859374 7.808594-.855468 2.585938 1 4.527344 3.195312 5.199219 5.882812 1.753906 8.757813-.488281 17.839844-6.117187 24.777344-10.332032 13.246094-31.15625 19.960938-61.890626 19.960938zm-93.148437-59.722657c12.882813.289063 20.875 8.445313 28.609375 16.339844 11.488281 11.726563 25.789062 26.316406 64.539062 26.316406 29.867188 0 42.125-6.855469 47.09375-11.867187-21.644531 2.941406-48-11.109375-78.726562-41.832032-16.867188-16.878906-38.765625-11.292968-51.867188-7.953124-2.972656.867187-6.015624 1.492187-9.089843 1.867187-.300781.035156-.605469.050781-.910157.050781h-.195312c-.316406 0-.742188-.007812-1.109375-.050781-3.074219-.375-6.109375-1-9.082031-1.867187-13.09375-3.328126-34.976563-8.917969-51.867188 7.953124-30.726562 30.734376-57.148437 44.773438-78.726562 41.832032 4.871094 4.921875 17.074218 11.867187 47.089844 11.867187 38.75 0 53.050781-14.589843 64.542968-26.316406 7.730469-7.890625 15.722656-16.050781 28.605469-16.339844l.375-.011719h.34375zm0 0"/><path d="m267.15625 409.605469h-22.285156c-12.527344.039062-23.226563-9.027344-25.246094-21.394531l-2.851562-17.0625c-1.238282-7.421876.855468-15.015626 5.71875-20.757813 4.867187-5.742187 12.011718-9.050781 19.539062-9.050781h27.96875c7.523438 0 14.671875 3.308594 19.535156 9.050781 4.867188 5.742187 6.960938 13.335937 5.722656 20.757813l-2.851562 17.066406c-2.019531 12.363281-12.722656 21.429687-25.25 21.390625zm-25.125-51.199219c-2.507812 0-4.890625 1.105469-6.511719 3.015625-1.625 1.914063-2.324219 4.445313-1.914062 6.917969l2.851562 17.066406c.667969 4.125 4.238281 7.148438 8.414063 7.132812h22.285156c4.175781.015626 7.746094-3.003906 8.417969-7.128906l2.847656-17.070312c.410156-2.472656-.289063-5.003906-1.910156-6.917969-1.625-1.910156-4.003907-3.015625-6.511719-3.015625zm0 0"/><path d="m196.28125 512.007812c-2.261719 0-4.433594-.898437-6.035156-2.496093-1.601563-1.601563-2.5-3.773438-2.5-6.039063 0-34.824218-42.289063-42.476562-44.089844-42.785156-2.339844-.402344-4.40625-1.757812-5.707031-3.746094-1.300781-1.984375-1.71875-4.421875-1.152344-6.726562 16.066406-64.597656 81.160156-74.277344 83.917969-74.660156 4.648437-.613282 8.921875 2.636718 9.570312 7.285156.644532 4.644531-2.578125 8.9375-7.21875 9.617187-2.175781.3125-50.75 7.78125-67.210937 53.625 17.734375 5.371094 40.941406 18.703125 47.292969 43.691407 29.027343-19.992188 45.765624-53.480469 44.332031-88.699219 0-4.714844 3.820312-8.535157 8.535156-8.535157 4.710937 0 8.53125 3.820313 8.53125 8.535157 0 81.492187-62.257813 109.109375-64.90625 110.242187-1.0625.457032-2.203125.691406-3.359375.691406zm0 0"/><path d="m315.746094 512.007812c-1.152344 0-2.296875-.234374-3.355469-.691406-2.652344-1.132812-64.910156-28.75-64.910156-110.242187 0-4.714844 3.820312-8.535157 8.535156-8.535157 4.710937 0 8.53125 3.820313 8.53125 8.535157-1.429687 35.214843 15.308594 68.699219 44.335937 88.691406 6.347657-24.980469 29.546876-38.308594 47.28125-43.679687-16.648437-46.132813-66.644531-53.554688-67.183593-53.625-4.667969-.644532-7.929688-4.949219-7.285157-9.621094.644532-4.667969 4.949219-7.929688 9.621094-7.285156 2.757813.382812 67.847656 10.066406 83.914063 74.660156.574219 2.3125.15625 4.753906-1.148438 6.742187-1.308593 1.992188-3.386719 3.34375-5.734375 3.734375-1.773437.304688-44.066406 7.957032-44.066406 42.78125 0 2.265625-.898438 4.4375-2.496094 6.039063-1.601562 1.597656-3.773437 2.496093-6.039062 2.496093zm0 0"/><path d="m326.488281 406.363281c-3.144531-.003906-6.03125-1.734375-7.511719-4.507812-1.484374-2.773438-1.320312-6.136719.421876-8.753907l31.914062-47.957031c1.652344-2.621093 4.597656-4.140625 7.691406-3.96875 3.097656.171875 5.855469 2.007813 7.207032 4.796875 1.351562 2.792969 1.085937 6.09375-.699219 8.628906l-31.914063 47.960938c-1.582031 2.378906-4.25 3.804688-7.109375 3.800781zm0 0"/><path d="m185.539062 406.363281c-2.855468.003907-5.527343-1.421875-7.109374-3.800781l-31.914063-47.960938c-1.78125-2.535156-2.050781-5.835937-.699219-8.628906 1.351563-2.789062 4.109375-4.625 7.207032-4.796875 3.09375-.171875 6.039062 1.347657 7.691406 3.96875l31.914062 47.957031c1.746094 2.617188 1.90625 5.980469.425782 8.753907-1.484376 2.773437-4.371094 4.503906-7.515626 4.507812zm0 0"/></svg>