<svg id="Layer_1" enable-background="new 0 0 511.904 511.904" height="512" viewBox="0 0 511.904 511.904" width="512" xmlns="http://www.w3.org/2000/svg"><g><g clip-rule="evenodd" fill-rule="evenodd"><path d="m187.192 111.553c20.894-12.063 20.019-29.059-.199-47.827-7.469-6.934-14.494-15.694-21.126-23.557-11.32-13.42-21.494-24.224-30.779-18.864-11.595 6.694-11.366 32.484-3.72 55.314 2.064 6.162 4.668 12.108 7.727 17.406 14.389 24.92 27.203 29.591 48.097 17.528z" fill="#a7bdcd"/><path d="m324.911 63.726c-20.218 18.768-21.093 35.764-.199 47.827s33.709 7.393 48.097-17.528c3.057-5.296 5.661-11.24 7.725-17.4 7.648-22.831 7.878-48.624-3.718-55.319-9.285-5.361-19.461 5.446-30.782 18.868-6.631 7.861-13.655 16.619-21.123 23.552z" fill="#a7bdcd"/><path d="m324.711 111.553c-20.893-12.063-20.018-29.059.199-47.827 7.468-6.933 14.492-15.692 21.124-23.553-25.128-18.981-56.35-30.271-90.082-30.271-33.733 0-64.957 11.286-90.085 30.267 6.632 7.863 13.657 16.623 21.126 23.557 20.218 18.768 21.093 35.764.199 47.827s-33.708 7.393-48.097-17.528c-3.058-5.297-5.663-11.244-7.724-17.407-16.038 23.865-25.419 52.532-25.419 83.284v140.399c0 11 5.693 20.59 14.875 26.641l59.169 38.991c9.569 6.306 19.233 2.955 23.578-5.529 1.508-2.945 2.375-6.508 2.375-10.501v-89.102l-52.927-21.697v-67.265l102.929 8.064 102.928-8.064v67.265l-52.927 21.697v89.102c0 3.993.867 7.556 2.375 10.501 4.345 8.485 14.009 11.835 23.578 5.529l59.169-38.991c9.182-6.051 14.875-15.641 14.875-26.641v-140.399c0-30.751-9.382-59.416-25.418-83.278-2.064 6.16-4.668 12.105-7.725 17.4-14.386 24.921-27.201 29.592-48.095 17.529z" fill="#e3eaef"/><path d="m255.952 179.902-102.929-8.064v67.265l52.927 21.697v89.102c0 3.993-.867 7.556-2.377 10.5 16.762 6.298 34.474 9.5 52.379 9.5 18.401 0 36.053-3.366 52.377-9.499-1.508-2.945-2.375-6.508-2.375-10.501v-89.102l52.927-21.697v-67.265z" fill="#e5ae8c"/><path d="m179.997 365.933-59.169-38.991c-27.747 9.296-47.103 60.486-27.525 89.191 0 0 .001 0 .004-.001.397-.082 28.586-5.917 57.788-25.435 9.862-6.592 19.84-14.745 28.902-24.764z" fill="#a7bdcd"/><path d="m203.575 360.404c-4.345 8.484-14.009 11.835-23.578 5.529-9.062 10.019-19.04 18.172-28.902 24.764 32.376 16.877 68.347 25.691 104.857 25.691s72.482-8.813 104.857-25.691c-9.863-6.592-19.841-14.745-28.902-24.764-9.569 6.306-19.233 2.955-23.578-5.529-16.323 6.133-33.976 9.499-52.377 9.499-17.905 0-35.618-3.202-52.377-9.499z" fill="#6d91ac"/><path d="m331.907 365.933c9.062 10.019 19.04 18.172 28.902 24.764 29.201 19.518 57.391 25.354 57.788 25.435.003.001.004.001.004.001 19.578-28.705.222-79.895-27.525-89.191z" fill="#a7bdcd"/><g fill="#e3eaef"><path d="m418.598 416.135c0-.001-.001-.002 0 0zm-57.789-25.438c16.13 10.781 31.951 17.388 42.95 21.156 8.916 3.055 14.665 4.245 14.842 4.281 11.121 25.993 17.351 55.072 17.351 85.771h-180v-85.517c36.511 0 72.482-8.814 104.857-25.691z"/><path d="m93.307 416.133c-.001 0-.001.001 0 0zm162.645 85.771v-85.517c-36.511 0-72.482-8.813-104.857-25.691-16.13 10.781-31.951 17.388-42.95 21.156-8.857 3.035-14.589 4.229-14.838 4.28-.002 0-.003.001-.001.002-11.125 25.992-17.354 55.071-17.354 85.769h180z"/></g></g><g><path d="m429.761 416.951c15.264-26.965 3.09-73.348-22.005-92.081 5.306-7.058 8.196-15.533 8.196-24.569v-140.399c0-30.081-8.453-59.328-24.476-84.79 2.201-7.577 3.669-15.393 4.226-22.862 1.456-19.53-3.476-33.596-13.886-39.606-5.787-3.34-15.211-5.307-27.249 4.288-3.401 2.711-6.755 6.084-10.141 9.832-52.027-35.686-124.927-35.684-176.952-.003-3.385-3.747-6.737-7.118-10.138-9.828-12.038-9.596-21.461-7.629-27.249-4.288-17.397 9.316-16.128 41.823-9.661 62.463-7.344 11.673-13.138 24.211-17.238 37.316-1.649 5.271 1.286 10.881 6.557 12.53 5.128 1.649 10.894-1.238 12.53-6.557 2.125-6.792 4.772-13.411 7.913-19.803.082.144.164.288.246.431 8.721 15.105 17 23.441 26.845 27.029 11.737 4.746 26.145-.41 34.912-5.84 27.918-16.216 25.776-41.88 1.604-63.816-4.492-4.17-8.921-9.185-13.25-14.295 44.621-29.495 106.185-29.496 150.808.004-4.328 5.109-8.756 10.122-13.247 14.291-24.173 21.93-26.313 47.605 1.604 63.816 8.766 5.429 23.176 10.586 34.912 5.84 9.845-3.587 18.124-11.924 26.845-27.029.082-.142.163-.285.245-.428 9.353 19.032 14.238 39.93 14.238 61.306v140.399c0 7.278-3.783 13.945-10.378 18.291l-59.169 38.991c-1.772 1.167-4.356 2.307-6.594 1.1-1.865-1.004-3.857-3.838-3.857-8.781v-82.394l46.72-19.152c3.755-1.54 6.207-5.195 6.207-9.253v-67.265c0-2.788-1.164-5.449-3.21-7.342-2.047-1.893-4.789-2.841-7.571-2.628l-102.147 8.002-102.147-8.002c-5.641-.557-10.904 4.3-10.781 9.97v67.265c0 4.058 2.452 7.713 6.207 9.253l46.72 19.152v82.394c0 4.942-1.993 7.776-3.858 8.781-2.237 1.207-4.821.067-6.593-1.1l-59.169-38.991c-6.595-4.346-10.378-11.013-10.378-18.291v-95.399c-.528-13.268-19.477-13.258-20 0v95.399c0 9.036 2.89 17.511 8.196 24.569-25.098 18.737-37.267 65.116-22.005 92.081-10.746 26.789-16.191 55.342-16.191 84.954 0 5.523 4.477 10 10 10h360c5.523 0 10-4.477 10-10 0-29.613-5.445-58.165-16.191-84.955zm-237.302-325.518c-.552 4.89-5.888 8.931-10.267 11.459-10.425 6.019-15.301 5.378-18.064 4.37-4.979-1.814-10.335-7.78-16.373-18.238-6.202-10.742-10.65-25.403-11.608-38.261-.964-12.937 1.905-19.622 3.941-20.798.057-.033.098-.053.109-.062.259.021 2.251.318 6.85 4.542 4.334 3.981 9.144 9.73 14.235 15.817 5.961 7.126 12.125 14.494 18.908 20.792 8.503 7.895 12.861 15.132 12.269 20.379zm171.689-2.409c-6.038 10.458-11.394 16.423-16.373 18.238-2.763 1.007-7.64 1.648-18.064-4.37-4.379-2.528-9.715-6.569-10.267-11.459-.592-5.247 3.766-12.484 12.269-20.378 6.784-6.297 12.947-13.666 18.908-20.792 5.091-6.087 9.901-11.836 14.235-15.817 4.883-4.486 6.828-4.543 6.81-4.555.007.002.056.02.149.074 2.036 1.176 4.905 7.861 3.941 20.798-.958 12.858-5.406 27.519-11.608 38.261zm49.4 315.459c-12.994-3.838-41.616-14.261-65.971-36.899l44.45-29.292c18.667 10.253 30.446 46.46 21.521 66.191zm-250.525-172.088v-49.743l92.148 7.219c.52.04 1.042.04 1.562 0l92.147-7.219v49.743l-46.72 19.153c-3.755 1.54-6.207 5.195-6.207 9.253v89.102c0 1.382.076 2.739.224 4.065-25.933 7.906-54.52 7.906-80.451 0 .148-1.326.224-2.683.224-4.065v-89.102c0-4.058-2.452-7.713-6.207-9.253zm38.554 143.897c2.049-1.104 3.91-2.469 5.563-4.055 31.379 10.211 66.244 10.212 97.624 0 1.653 1.586 3.513 2.951 5.563 4.055 5.987 3.225 12.718 3.78 19.278 1.736 3.864 3.88 7.839 7.466 11.864 10.778-53.905 23.356-117.13 23.356-171.034 0 4.025-3.311 8-6.897 11.864-10.778 2.565.8 5.157 1.202 7.72 1.202 3.99-.001 7.913-.975 11.558-2.938zm-102.847-8.644c4.428-13.408 12.456-24.409 21.147-29.356l44.446 29.289c-24.277 22.534-52.963 33.015-65.974 36.885-4.124-10.123-4.061-23.367.381-36.818zm1.878 56.994c9.321-2.503 29.549-8.966 51.117-22.421 29.289 14.349 61.635 22.554 94.227 23.952v65.732h-79.998v-40.763c-.528-13.268-19.477-13.258-20 0v40.763h-59.774c1.071-23.383 5.909-45.946 14.428-67.263zm265.341 67.262v-40.763c-.528-13.268-19.477-13.258-20 0v40.763h-79.997v-65.732c32.592-1.399 64.939-9.604 94.227-23.952 21.567 13.455 41.795 19.918 51.116 22.421 8.519 21.319 13.358 43.881 14.429 67.263z"/><path d="m315.957 229.404c19.902-.793 19.887-29.215 0-30h-.007c-19.902.794-19.879 29.216.007 30z"/><path d="m195.954 199.404h-.007c-8.284 0-14.996 6.716-14.996 15 .792 19.895 29.216 19.893 30.003 0 0-8.285-6.716-15-15-15z"/><path d="m230.948 274.993c15.141 8.895 34.859 8.895 50 0 4.783-2.761 6.422-8.877 3.66-13.66s-8.877-6.422-13.66-3.66c-9.085 5.337-20.915 5.337-30 0-4.781-2.76-10.898-1.122-13.66 3.66s-1.123 10.899 3.66 13.66z"/><path d="m105.959 169.902c13.268-.528 13.258-19.477 0-20h-.007c-13.268.53-13.25 19.479.007 20z"/></g></g></svg>